**ABCDEFGHIJKLMNOPQRSTUVWXYZabcdefghijklmnopqrstuvwxyz**************************
**PARASOLID !"#$%&'()*+,-./:;<=>?@[\]^_`{|}~0123456789**************************
**PART1;
MC=unknown;
MC_MODEL=unknown;
MC_ID=unknown;
OS=unknown;
OS_RELEASE=unknown;
FRU=Parasolid 32.1.212;
APPL=Onshape;
SITE=unknown;
USER=unknown;
FORMAT=text;
GUISE=transmit;
KEY=BTGapi::writeModels_.xmt;
FILE=BTGapi::writeModels_.xmt;
DATE=2020-07-24T05:49:49 (UTC);
**PART2;
SCH=SCH_3201212_32001;
USFLD_SIZE=0;
**PART3;
**END_OF_HEADER*****************************************************************
T51 : TRANSMIT FILE created by modeller version 320121223 SCH_3201212_32001_1300
6229 0 12 34 CCCCCCI4 mesh1006 0 I8 polyline1008 0 CCCCCCCDI5 owner1040 0 CCCCCC
I13 boundary_mesh1006 0 I17 boundary_polyline1008 0 CCCA16 index_map_offset0 0 1
 dA9 index_map82 0 A17 node_id_index_map82 0 A20 schema_embedding_map82 0 A5 chi
ld12 0 A14 lowest_node_id0 0 1 dA16 mesh_offset_data206 0 Z1 386 2 3 0 0 0 0 0 0
 1e3 1e-8 0 4 5 1 0 1 1 6 7 8 0 0 0 9 10 0 0 0 0 0 0 0 0 81 255 1 2 374 11 1 12
 0 0 0 13 70 11 CI9 list_type0 0 1 uI10 notransmit0 0 1 lCCCDCCDI12 finger_index
0 0 1 dI12 finger_block1012 0 CZ3 0 4 T1 0 0 5 20 1 14 14 13 255 6 62 0 1 0 15 0
 0 16 0 54 255 7 364 0 17 18 0 0 +0 612323399573677e-33 .071 0 0 1 .008 .002 1 0
 0 31 255 8 348 0 10 19 0 0 -0 612323399573677e-33 .071 0 0 1 1 0 0 .01 19 8 CCC
CCCCA5 owner12 0 Z9 19 0 1 16 0 20 V0 16 255 10 345 21 ?22 0 23 8 0 0 1 81 1 21
 369 24 10 0 0 25 26 27 17 255 22 0 28 22 22 0 29 10 0 0 +16 23 156 30 ?31 10 32
 33 0 0 1 81 1 30 228 24 23 0 0 34 35 36 17 31 0 37 31 31 0 38 23 0 0 +16 32 41
 39 ?40 23 41 42 0 0 1 31 33 159 0 23 42 43 0 +0 612323399573677e-33 .032 0 0 1
 1 0 0 .01 31 42 50 0 32 44 33 0 +0 612323399573677e-33 0 0 0 1 1 0 0 .01 38 12
 CCCCCCCCCCCA17 intersection_data204 0 Z43 237 0 45 33 19 0 +46 47 48 49 49 50 1
6 45 278 51 ?52 53 0 43 0 0 1 38 19 244 0 53 43 8 0 +46 47 54 55 55 56 51 255 46
 215 0 57 58 59 60 -0 64293956955236e-32 .038 0 0 -1 .0105 -1 0 0 51 47 322 0 61
 0 62 63 +-.011 216840434497101e-33 .035 1 0 0 .001 0 0 -1 40 255 20 48 0 1 20 5
6717488765253e-18 .3387391247198925 ??.0105 216840434497101e-33 .034 .0104948080
2670882 -.000330158268907293 .0340560744110513 .01048149645222938 -.000623082756
865384 .0342178440832564 .01046580664331016 -.000846694339679184 .03446792040524
445 .01045461527253776 -.000975202288358647 .03477868462145605 .0104528899761156
 -.000993524608261906 .0351136171324142 .01046130697431856 -.000900586691592589
 .0354346764439515 .01047618403411778 -.000706801303971452 .0357074121264894 .01
049108138867916 -.0004326792069299195 .0359015479487473 .01049942931445218 -.000
1094717809400598 .0359939899039617 .01049759099656522 .00022490724495409 .035974
38017794245 .01048644430991484 .000533372041875863 .0358458807628414 .0104707784
671292 .00078281434089026 .0356222553396288 .01045740702072464 .0009447954291268
99 .03532766079579485 .01045227311206692 .000999993395359551 .03499636554855895
 .01045758327519766 .000942842533144361 .03466676141025695 .0104709628658844 .00
0780343937805492 .0343746494273368 .01048663528914062 .000529603920444908 .03415
175493667845 .01049772700755182 .0002184666448615835 .03402415558356725 .0105 16
37299011916865e-33 .034 41 3 CI8 term_use0 0 1 cCZ1 49 H?.0105 1637299011916865e
-33 .034 204 2 17 INTERSECTION_DATA17 Intersection data7 uv_type0 0 1 u6 values0
 1 1 fT80 50 4 3.141592653589795 .004 0 .0215 3.173041481957475 .003943925588948
695 5.94671406598371 .02149480802670885 3.200968750992325 .003782155916743605 5.
61050740348663 .0214814964522294 3.22231785626939 .00353207959475555 5.273443789
60756 .02146580664331015 3.234603108728555 .00322131537854397 4.9355520712618 .0
2145461527253775 3.236355810927585 .0028863828675858 4.59852597251633 .021452889
9761156 3.22746832601529 .002565323556048505 4.26271000729515 .02146130697431855
 3.20895800360643 .002292587873510605 3.92655890022927 .0214761840341178 3.18281
18681855 .002098452051252685 3.58905510394105 .0214910813886792 3.15201872637871
 .00200601009603829 3.251284275098235 .0214994293144522 3.120171277722505 .00202
5619822057555 2.91474481235388 .0214975909965652 3.090773444879295 .002154119237
15859 2.579010648478025 .02148644430991485 3.066969668652635 .00237774466037121
 2.2424168082711 .0214707784671292 3.051490270886725 .00267233920420514 1.904622
95120204 .02145740702072465 3.046210626467165 .003003634451441035 1.567161867352
43 .02145227311206695 3.05167701694295 .003333238589743035 1.23105990630861 .021
45758327519765 3.06720559966086 .00362535057266322 .895215620648806 .02147096286
58844 3.09113277421599 .003848245063321555 .558133557235097 .0214866352891406 3.
120784804975505 .00397584441643273 .2202428823029375 .0214977270075518 3.1415926
53589795 .004 1420458577419762e-30 .0215 14 255 61 292 64 ?17 65 66 6 47 -65 65
 17 65 20 50 255 62 217 0 67 47 58 0 +0 0 .038 0 0 1 1 0 0 141 255 63 43 68 69 4
7 141 68 70 71 63 47 141 69 19 63 71 47 141 71 72 69 68 47 38 72 326 0 73 0 70 0
 +18 47 74 75 75 76 16 73 269 77 ?78 79 53 72 0 0 1 38 70 325 0 79 72 80 0 +18 4
7 81 82 82 83 51 18 61 0 84 85 7 86 -0 551091059616309e-33 .07 0 0 -1 .009 -1 0
 0 40 20 74 0 1 20 568435657978681e-19 .339244312938831 ??.009 216840434497101e-
33 .034 .00899395333135205 -.00032985371524578 .0340559679419964 .00897844580452
336 -.000622503763231096 .03421738319417285 .00896012717907393 -.000846239289338
805 .0344671969733763 .00894702563601029 -.000975055007973779 .0347780366439584
 .00894498366121388 -.000993613255052853 .0351128392634825 .00895476928720103 -.
000901169802535124 .0354334662466661 .00897210362196278 -.000708065390174085 .03
570614687086865 .00898951752821881 -.000434251781627733 .0359007915353472 .00899
931476750951 -.0001110572612899132 .0359938140091158 .00899723508868191 .0002230
71197134594 .0359748021548032 .00898430519325251 .000531281652700302 .0358471952
581926 .00896604116240288 .000781092743595249 .0356244150269675 .008950362338751
81 .000943935381820863 .0353301302696614 .00894427197367816 .000999999430437562
 .0349989327022199 .00895037212286058 .000943842604632878 .03466960457376075 .00
896591204814718 .000782573411821058 .03437744168537335 .00898421919698604 .00053
2733911542692 .03415371719886765 .00899726442216074 .000221884919993812 .0340249
27140015 .009 4111050588607965e-34 .034 41 1 75 H?.009 4111050588607965e-34 .034
 204 80 76 4 3.141592653589795 .036 0 .02 3.17825127648657 .03594403205800365 5.
94703669362248 .01999395333135205 3.21081500767125 .0357826168058272 5.611247438
89178 .01997844580452335 3.235758343583665 .0355328030266237 5.27429843838019 .0
1996012717907395 3.25014516410109 .0352219633560416 4.93621657586334 .0199470256
360103 3.25221963657821 .0348871607365175 4.59930887631613 .0199449836612139 3.2
4189070847419 .0345665337533339 4.264053359859535 .01995476928720105 3.220347972
589575 .03429385312913135 3.92834741541404 .0199721036219628 3.189861592922265 .
0340992084646528 3.59080014066985 .0199895175282188 3.153932662467115 .034006185
99088425 3.25287948275751 .0199993147675095 3.11680442655064 .0340251978451968 2
.91662872772251 .0199972350886819 3.08252702064113 .0341528047418074 2.581479986
047505 .0199843051932525 3.05469524956821 .0343755849730325 2.245178719112585 .0
199660411624029 3.03651770023208 .0346698697303386 1.90723790558837 .01995036233
87518 3.030251702927845 .03500106729778015 1.56972902881215 .01994427197367815 3
.036528065973015 .0353303954262393 1.234073828764064 .0199503721228606 3.0545301
06574015 .03562255831462665 .898788752736005 .0199659120481472 3.082365375888595
 .03584628280113235 .561827786883099 .01998421919698605 3.116936275412385 .03597
5072859985 .22374715352503 .01999726442216075 3.141592653589795 .036 19426462436
3695e-30 .02 14 84 57 87 ?88 15 89 6 18 +0 0 88 15 20 51 85 60 0 88 90 18 0 -0 6
12323399573677e-33 .07 0 0 -1 .01 -1 0 0 141 86 72 91 91 18 141 91 70 86 86 18 1
4 88 53 92 ?93 84 28 6 85 -15 15 93 84 20 50 90 49 0 93 94 85 0 +0 0 0 0 0 1 1 0
 0 14 93 34 95 ?96 88 97 6 90 -0 0 96 88 20 51 94 133 0 98 59 90 0 -0 4898587196
58941e-33 .073 0 0 -1 .008 -1 0 0 14 98 111 99 ?57 96 100 6 94 +0 0 57 96 20 50
 59 135 0 96 46 94 0 +0 0 .07 0 0 1 1 0 0 14 96 126 101 ?98 93 102 6 59 -0 0 98
 93 20 81 1 101 379 103 96 104 0 95 99 105 15 255 102 109 0 106 96 107 13 20 20
 0 0 0 0 0 0 9 15 14 15 160 108 ?84 0 109 6 85 -88 88 84 0 20 81 1 108 375 103 1
5 110 0 0 87 111 15 109 54 0 40 15 112 17 40 0 109 40 40 0 113 32 0 0 +15 112 15
8 0 38 15 0 17 38 0 112 38 38 0 31 23 0 0 -17 113 0 114 113 113 0 40 32 0 0 -15
 114 40 0 113 93 0 80 255 1 103 0 115 8001 0 0 0 0 3 5 0 0 0 FFFFTFTFFFFFFF2 81
 1 110 230 24 15 0 108 35 116 117 81 1 87 376 103 84 116 0 108 92 118 83 255 3 1
11 .615686274509804 .811764705882353 .929411764705882 81 1 116 336 24 84 0 87 11
0 119 120 81 1 92 377 103 88 121 0 87 95 122 83 3 118 .615686274509804 .81176470
5882353 .929411764705882 81 1 121 371 24 88 0 92 26 0 123 81 1 95 378 103 93 124
 0 92 101 125 83 3 122 .615686274509804 .811764705882353 .929411764705882 81 1 1
24 74 24 93 0 95 126 127 128 83 3 125 .615686274509804 .811764705882353 .9294117
64705882 80 1 24 129 130 9000 0 0 0 0 3 6 0 0 0 FFTFTFTTFFFFFF1 81 1 126 71 24 4
1 0 0 39 124 131 81 1 127 91 24 132 0 0 124 133 134 82 255 3 128 6 1 2 16 132 89
 127 ?106 135 136 137 0 0 1 81 1 133 113 24 98 0 99 127 138 139 82 3 134 7 2 1 8
1 1 99 380 103 98 133 0 101 140 141 81 1 138 151 24 142 0 0 133 104 143 82 3 139
 7 3 2 16 142 103 138 ?144 41 135 145 0 0 1 81 1 104 153 24 96 0 101 138 146 147
 82 3 143 8 0 1 81 1 146 183 24 148 0 0 104 149 150 82 3 147 8 1 2 16 148 181 14
6 ?151 152 79 153 0 0 1 81 1 149 186 24 136 0 0 146 154 155 82 3 150 9 2 1 16 13
6 184 149 ?156 132 152 157 0 0 1 81 1 154 204 24 67 0 158 149 159 160 82 3 155 9
 3 1 14 67 202 158 ?161 57 162 6 62 +0 0 161 57 20 81 1 158 382 103 67 154 0 140
 163 164 81 1 159 209 24 161 0 163 154 34 165 82 3 160 9 2 2 14 161 207 163 ?65
 67 37 6 58 -0 0 65 67 20 81 1 163 383 103 161 159 0 158 166 167 81 1 34 227 24
 1 0 168 159 30 169 82 3 165 9 1 2 81 1 168 372 170 1 34 12 0 0 171 82 3 169 6 0
 3 80 1 170 172 173 8038 0 0 0 0 0 0 0 0 0 TTTTTTTTTTTTTF10 81 1 12 373 172 1 16
8 2 0 0 174 98 255 6 171 80 97 114 116 32 49 80 1 172 175 176 8017 0 0 0 0 0 0 0
 0 0 TTTTTTTTTTTTTF3 84 255 6 174 Part 179 255 13 176 SDL/TYSA_NAME79 14 173 SDL
/TYSA_UNAME81 1 166 384 103 65 177 0 163 64 178 83 3 167 .615686274509804 .81176
4705882353 .929411764705882 14 65 307 166 ?61 161 179 6 47 -61 61 61 161 20 81 1
 177 343 24 65 0 166 180 25 181 81 1 64 385 103 61 180 0 166 182 183 83 3 178 .6
15686274509804 .811764705882353 .929411764705882 81 1 180 342 24 61 0 64 51 177
 184 81 1 182 386 103 17 26 0 64 0 185 83 3 183 .615686274509804 .81176470588235
3 .929411764705882 14 17 357 182 ?0 61 186 6 7 +0 0 0 61 20 81 1 26 370 24 17 0
 182 21 121 187 83 3 185 .615686274509804 .811764705882353 .929411764705882 82 3
 187 15 0 2 15 186 358 0 29 17 188 17 29 0 186 29 29 0 22 10 0 0 -15 188 359 0 1
89 17 0 17 189 0 188 189 189 0 190 135 0 0 -17 190 0 100 190 190 0 189 135 0 0 +
16 135 92 25 ?190 142 132 191 0 0 1 81 1 25 368 24 135 0 0 177 21 192 31 191 140
 0 135 153 137 0 +0 489858719658941e-33 .073 0 0 1 1 0 0 .008 31 153 218 0 148 1
57 191 0 +0 64293956955236e-32 .032 0 0 1 1 0 0 .0105 31 137 138 0 132 191 145 0
 +0 489858719658941e-33 .07 0 0 1 1 0 0 .008 31 145 10 0 142 137 44 0 +0 5510910
59616309e-33 .07 0 0 1 1 0 0 .009 31 44 51 0 41 145 42 0 +0 551091059616309e-33
 0 0 0 1 1 0 0 .009 16 41 45 126 ?193 32 142 44 0 0 1 17 193 0 97 193 193 0 194
 41 0 0 +15 97 39 0 193 93 114 17 194 0 195 194 194 0 193 41 0 0 -15 195 58 0 19
4 84 0 31 157 220 0 136 80 153 0 +0 64293956955236e-32 .038 0 0 1 1 0 0 .0105 31
 80 221 0 152 70 157 0 +0 612323399573677e-33 .038 0 0 1 1 0 0 .01 16 152 176 35
 ?196 136 148 80 0 0 1 81 1 35 229 24 152 0 0 30 110 197 17 196 0 198 196 196 0
 199 152 0 0 +15 198 164 0 196 88 0 17 199 0 162 199 199 0 196 152 0 0 -15 162 2
05 0 199 67 200 15 200 206 0 156 67 0 17 156 0 200 156 156 0 201 136 0 0 +17 201
 0 202 201 201 0 156 136 0 0 -15 202 200 0 201 57 203 14 57 197 140 ?67 98 204 6
 46 -0 0 67 98 20 15 203 201 0 151 57 0 17 151 0 203 151 151 0 205 148 0 0 +17 2
05 0 206 205 205 0 151 148 0 0 -15 206 211 0 205 161 0 81 1 140 381 103 57 119 0
 99 158 207 15 204 242 0 208 57 209 17 208 0 204 208 208 0 210 53 0 0 +15 209 23
5 0 52 57 202 17 52 0 209 52 52 0 211 45 0 0 +17 211 0 212 211 211 0 52 45 0 0 -
15 212 301 0 211 65 0 17 210 0 213 210 210 0 208 53 0 0 -16 53 275 214 ?208 73 4
5 19 0 0 1 81 1 214 340 24 53 0 0 77 51 215 81 1 77 339 24 73 0 0 216 214 217 81
 1 51 341 24 45 0 0 214 180 218 82 3 215 14 2 1 82 3 218 14 3 1 81 1 216 338 24
 79 0 0 119 77 219 82 3 217 14 1 1 16 79 272 216 ?220 148 73 70 0 0 1 81 1 119 3
37 24 57 0 140 116 216 221 82 3 219 14 0 1 82 3 221 14 1 2 17 220 0 66 220 220 0
 222 79 0 0 +15 66 295 0 220 61 213 17 222 0 89 222 222 0 220 79 0 0 -15 89 256
 0 222 84 223 15 223 250 0 224 84 225 17 224 0 223 224 224 0 78 73 0 0 -15 225 5
6 0 144 84 195 17 144 0 225 144 144 0 226 142 0 0 +17 226 0 107 226 226 0 144 14
2 0 0 -15 107 110 0 226 96 0 17 78 0 179 78 78 0 224 73 0 0 +15 179 300 0 78 65
 212 15 213 296 0 210 61 0 83 3 207 .615686274509804 .811764705882353 .929411764
705882 82 3 197 10 1 1 82 3 192 15 0 1 15 100 114 0 190 98 227 15 227 115 0 228
 98 0 17 228 0 227 228 228 0 106 132 0 0 -17 106 0 102 106 106 0 228 132 0 0 +82
 3 184 14 2 2 82 3 181 14 3 2 15 37 210 0 31 161 206 50 58 216 0 161 62 46 0 +0
 0 .032 0 0 1 1 0 0 83 3 164 .615686274509804 .811764705882353 .929411764705882
 83 3 141 .615686274509804 .811764705882353 .929411764705882 81 1 39 69 24 32 0
 0 0 126 229 82 3 131 6 2 1 82 3 229 6 0 1 79 9 130 BTI/DetId82 3 123 15 1 2 82
 3 120 14 0 2 82 3 117 10 0 2 79 15 115 SDL/TYSA_COLOUR83 3 105 .615686274509804
 .811764705882353 .929411764705882 15 28 346 0 22 88 198 40 20 81 0 1 20 5684356
57978681e-19 .339244312938831 ??-.009 551091059616309e-33 .036 -.008993953331352
05 -.00032985371524578 .0359440320580036 -.00897844580452336 -.00062250376323109
6 .03578261680582715 -.00896012717907393 -.000846239289338805 .0355328030266237
 -.00894702563601029 -.000975055007973779 .0352219633560416 -.00894498366121388
 -.000993613255052853 .0348871607365175 -.00895476928720103 -.000901169802535124
 .0345665337533339 -.00897210362196278 -.000708065390174085 .03429385312913135 -
.00898951752821881 -.000434251781627733 .0340992084646528 -.00899931476750951 -.
0001110572612899136 .0340061859908842 -.00899723508868191 .0002230711971345935 .
0340251978451968 -.00898430519325251 .000531281652700301 .0341528047418074 -.008
96604116240288 .000781092743595249 .0343755849730325 -.00895036233875181 .000943
935381820863 .0346698697303386 -.00894427197367816 .000999999430437562 .03500106
72977801 -.00895037212286058 .000943842604632878 .03533039542623925 -.0089659120
4814718 .000782573411821058 .03562255831462665 -.00898421919698604 .000532733911
542692 .03584628280113235 -.00899726442216074 .000221884919993812 .0359750728599
85 -.009 732975097274607e-33 .036 41 1 82 H?-.009 732975097274607e-33 .036 204 8
0 83 4 0 .034 3.141592653589795 .002 6.24652668428281 .0340559679419964 3.477741
2671469 .002006046668647955 6.21396295309813 .03421738319417285 3.81353052187759
5 .00202155419547664 6.18901961718572 .03446719697337635 4.150479522389185 .0020
3987282092607 6.17463279666829 .0347780366439584 4.48856138490604 .0020529743639
89715 6.17255832419117 .0351128392634825 4.82546908445325 .002055016338786115 6.
18288725229519 .0354334662466661 5.16072460090985 .00204523071279897 6.204429988
1798 .0357061468708687 5.49643054535534 .00202789637803722 6.23491636784712 .035
9007915353472 5.83397782009953 .002010482471781195 6.27084529830227 .03599381400
91158 6.17189847801187 .002000685232490485 .024788227039151 .0359748021548032 .2
249639258672825 .00200276491131809 .059065632948666 .0358471952581926 .560112667
54229 .00201569480674749 .0868974040215855 .03562441502696755 .89641393447721 .0
02033958837597115 .1050749533577122 .0353301302696614 1.234354748001424 .0020496
3766124819 .1113409506619476 .0349989327022199 1.57186362477764 .002055728026321
84 .1050645876167776 .03466960457376075 1.90751882482573 .002049627877139415 .08
70625470157767 .0343774416853734 2.24280390085379 .00203408795185282 .0592272777
011998 .03415371719886765 2.579764866706695 .00201578080301396 .0246563781774087
5 .034024927140015 2.917845500064765 .002002735577839265 2020933751758865e-32 .0
34 3.141592653589795 .002 141 60 43 230 230 46 141 230 19 60 60 46 40 20 54 0 1
 20 56717488765253e-18 .3387391247198925 ??-.0105 64293956955236e-32 .036 -.0104
9480802670882 -.0003301582689072925 .0359439255889487 -.01048149645222938 -.0006
23082756865383 .0357821559167436 -.01046580664331016 -.000846694339679184 .03553
207959475555 -.01045461527253776 -.000975202288358647 .03522131537854395 -.01045
28899761156 -.000993524608261906 .0348863828675858 -.01046130697431856 -.0009005
86691592589 .0345653235560485 -.01047618403411778 -.000706801303971452 .03429258
78735106 -.01049108138867916 -.0004326792069299195 .0340984520512527 -.010499429
31445218 -.0001094717809400604 .0340060100960383 -.01049759099656522 .0002249072
44954089 .03402561982205755 -.01048644430991484 .000533372041875862 .03415411923
71586 -.0104707784671292 .00078281434089026 .0343777446603712 -.0104574070207246
4 .000944795429126898 .03467233920420515 -.01045227311206692 .000999993395359551
 .03500363445144105 -.01045758327519766 .000942842533144361 .03533323858974305 -
.0104709628658844 .000780343937805492 .0356253505726632 -.01048663528914062 .000
529603920444918 .03584824506332155 -.01049772700755182 .0002184666448615815 .035
9758444164327 -.0105 186771513463527e-32 .036 41 1 55 H?-.0105 186771513463527e-
32 .036 204 80 56 4 0 .002 3.141592653589795 5e-4 6.2517364788119 .0020560744110
5131 3.478063894785675 .000505191973291167 6.22380920977706 .0022178440832564 3.
814270557282755 .000518503547770621 6.20246010449999 .002467920405244455 4.15133
417116182 .000534193356689831 6.19017485204083 .002778684621456035 4.48922588950
7575 .000545384727462225 6.18842214984179 .003113617132414205 4.82625198825305 .
000547110023884396 6.19730963475409 .0034346764439515 5.16206795347423 .00053869
3025681431 6.21581995716295 .003707412126489405 5.49821906054011 .00052381596588
222 6.24196609258388 .00390154794874732 5.83572285682833 .000508918611320826 6.2
7275923439067 .003993989903961715 6.17349368567114 .000500570685547817 .02142137
586729045 .00397438017794245 .2268478412359155 .000502409003434779 .050819208710
4991 .00384588076284142 .562582005111768 .000513555690085165 .0746229849371561 .
003622255339628795 .899175845318695 .000529221532870796 .0901023827030692 .00332
7660795794865 1.236969702387754 .000542592979275362 .0953820271226302 .002996365
54855897 1.574430786237365 .000547726887933071 .0899156366468453 .00266676141025
697 1.91053274728118 .000542416724802333 .0743870539289343 .002374649427336785 2
.246377032940985 .00052903713411559 .0504598793738031 .002151754936678455 2.5834
59096354685 .000513364710859379 .020807848614289 .00202415558356728 2.9213497712
86855 .000502272992448177 1166452919126582e-31 .002 3.14159265358979 5e-4 82 3 3
6 10 0 1 82 3 27 15 1 1 19 16 63 0 1 0 9 6 S0 74 4 CI16 index_map_offset0 0 1 dC
CZ20 14 5 0 0 121 168 12 2 182 0 0 0 0 0 0 0 0 0 0 0 0 0 0 0 80 1 11 103 231 804
0 0 0 0 0 3 5 0 0 0 TTTFFFFFFFFFFF2 83 3 13 .615686274509804 .811764705882353 .9
29411764705882 79 17 231 SDL/TYSA_COLOUR_21 0 
