**ABCDEFGHIJKLMNOPQRSTUVWXYZabcdefghijklmnopqrstuvwxyz**************************
**PARASOLID !"#$%&'()*+,-./:;<=>?@[\]^_`{|}~0123456789**************************
**PART1;
MC=unknown;
MC_MODEL=unknown;
MC_ID=unknown;
OS=unknown;
OS_RELEASE=unknown;
FRU=Parasolid 32.1.212;
APPL=Onshape;
SITE=unknown;
USER=unknown;
FORMAT=text;
GUISE=transmit;
KEY=BTGapi::writeModels_.xmt;
FILE=BTGapi::writeModels_.xmt;
DATE=2020-07-24T05:53:26 (UTC);
**PART2;
SCH=SCH_3201212_32001;
USFLD_SIZE=0;
**PART3;
**END_OF_HEADER*****************************************************************
T51 : TRANSMIT FILE created by modeller version 320121223 SCH_3201212_32001_1300
6229 0 12 34 CCCCCCI4 mesh1006 0 I8 polyline1008 0 CCCCCCCDI5 owner1040 0 CCCCCC
I13 boundary_mesh1006 0 I17 boundary_polyline1008 0 CCCA16 index_map_offset0 0 1
 dA9 index_map82 0 A17 node_id_index_map82 0 A20 schema_embedding_map82 0 A5 chi
ld12 0 A14 lowest_node_id0 0 1 dA16 mesh_offset_data206 0 Z1 2400 2 3 0 0 0 0 0
 0 1e3 1e-8 0 4 5 1 0 1 1 6 7 8 9 0 0 10 11 12 0 0 0 0 0 0 0 81 255 1 2 2370 13
 1 14 0 0 0 15 70 11 CI9 list_type0 0 1 uI10 notransmit0 0 1 lCCCDCCDI12 finger_
index0 0 1 dI12 finger_block1012 0 CZ3 0 4 T1 0 0 6 20 1 16 16 13 255 6 92 0 1 0
 17 0 0 18 0 50 255 7 1665 19 20 21 0 0 +-.02375 -.01845465580814985 .0025 -.707
106781186548 -.707106781186547 0 0 0 1 30 255 8 1644 0 11 22 0 0 +-.023639827904
07495 -.01856482790407495 1e-4 .707106781186547 -.707106781186548 0 29 255 9 181
1 0 12 23 0 -.01847732790407495 .001151261967606842 .0280574932694435 19 8 CCCCC
CCA5 owner12 0 Z10 1 0 1 18 0 24 V0 16 255 11 1642 25 ?26 0 27 8 0 0 1 18 255 12
 1807 28 29 0 30 9 ?1 81 1 28 1960 31 12 0 0 32 33 34 17 255 29 0 35 36 37 12 38
 39 0 40 -18 30 1633 41 42 12 43 23 ?1 81 1 41 1677 31 30 0 0 44 45 46 17 42 0 4
7 48 49 30 50 27 0 51 +18 43 1624 45 52 30 53 54 ?1 29 23 1636 0 30 54 9 -.03075
 -.01145465580814986 1e-4 29 54 1627 0 43 55 23 -.03075 -.01145465580814986 -.00
25 29 55 1618 0 53 56 54 -.02375 -.01845465580814985 -.0025 18 53 1615 57 58 43
 59 55 ?1 29 56 1614 0 59 60 55 -.02375 -.01845465580814985 1e-4 18 59 1611 61 2
6 53 62 56 ?1 29 60 1417 0 62 63 56 -.01547732790407495 .001151261967606842 .001
699422714155565 18 62 1414 64 65 59 66 60 ?1 29 63 1396 0 66 67 60 -.01645978723
6837 .001151261967606842 .0025 18 66 1393 68 69 62 70 63 ?1 29 67 1392 0 70 71 6
3 -.01547732790407495 -.00571859431589122 .0025 18 70 1389 72 73 66 74 67 ?1 29
 71 1382 0 74 75 67 -.01547732790407495 .000838045911477013 .0015 18 74 1380 76
 77 70 78 71 ?1 29 75 1378 0 78 79 71 -.01547732790407495 -.000838045911477014 .
0015 18 78 1376 80 81 74 82 75 ?1 29 79 1299 0 82 83 75 -.01847732790407495 -.01
845465580814985 .0162 18 82 1296 84 85 78 86 79 ?1 29 83 1295 0 86 87 79 -.01547
732790407495 -.01845465580814985 .0162 18 86 1292 88 89 82 90 83 ?1 29 87 422 0
 90 91 83 -.01847732790407495 -.01845465580814985 1e-4 18 90 418 92 93 86 94 87
 ?1 29 91 254 0 94 95 87 830402807880005e-33 -.01845465580814985 -.0025 18 94 25
0 96 97 90 98 91 ?1 29 95 236 0 99 100 91 166080561576001e-32 .0185 -.0025 18 99
 190 101 102 103 104 95 ?1 29 100 238 0 98 105 95 -.01847732790407495 .0185 .002
5 18 98 196 106 107 94 103 100 ?1 29 105 239 0 103 108 100 166080561576001e-32 .
0185 .0025 18 103 186 109 110 98 99 105 ?1 29 108 361 0 104 111 105 -28648344791
4428e-32 -.01845465580814985 .0025 18 104 308 112 113 99 114 108 ?1 29 111 711 0
 114 115 108 -.0185 -.00385 .0043 18 114 569 116 117 104 118 111 ?1 29 115 712 0
 118 119 111 -.0185 -.00585 .0043 18 118 567 120 121 114 122 115 ?1 29 119 713 0
 122 123 115 -.03075 -.00585 .0043 18 122 571 124 125 118 126 119 ?1 29 123 714
 0 126 127 119 -.03075 -.00385 .0043 18 126 565 128 129 122 130 123 ?1 29 127 71
5 0 130 131 123 -.0185 -.00585 1e-4 18 130 574 132 133 126 134 127 ?1 29 131 716
 0 134 135 127 -.0185 -.00385 1e-4 18 134 573 136 137 130 138 131 ?1 29 135 717
 0 138 139 131 -.03075 -.00585 1e-4 18 138 575 140 141 134 142 135 ?1 29 139 718
 0 142 143 135 -.03075 -.00385 1e-4 18 142 586 144 145 138 146 139 ?1 29 143 719
 0 146 147 139 -.03075 .000649999999999988 .0043 18 146 587 148 149 142 150 143
 ?1 29 147 720 0 150 151 143 -.03075 -.00135 .0043 18 150 591 152 153 146 154 14
7 ?1 29 151 721 0 154 155 147 -.0185 -.00135 .0043 18 154 593 156 157 150 158 15
1 ?1 29 155 722 0 158 159 151 -.0185 65e-5 .0043 18 158 589 160 161 154 162 155
 ?1 29 159 723 0 162 163 155 -.0185 -.00135 1e-4 18 162 584 164 165 158 166 159
 ?1 29 163 724 0 166 167 159 -.0185 65e-5 1e-4 18 166 583 168 169 162 170 163 ?1
 29 167 725 0 170 171 163 -.03075 -.00135 1e-4 18 170 585 172 173 166 174 167 ?1
 29 171 726 0 174 175 167 -.03075 .000649999999999991 1e-4 18 174 582 176 177 17
0 178 171 ?1 29 175 729 0 179 180 171 -.03075 .0185 -.0025 18 179 599 181 182 18
3 184 175 ?1 29 180 733 0 178 185 175 -.03075 .0185 1e-4 18 178 561 186 187 174
 183 180 ?1 29 185 734 0 183 188 180 -.01847732790407495 .0185 1e-4 18 183 580 1
89 190 178 179 185 ?1 29 188 1056 0 184 191 185 -.01547732790407495 -.0184546558
0814985 .0025 18 184 977 192 193 179 194 188 ?1 29 191 1058 0 194 195 188 -.0184
7732790407495 .001151261967606842 .0025 18 194 993 196 36 184 197 191 ?1 29 195
 1933 0 198 199 191 -.01847732790407495 -.00659716253870636 .0280574932694435 18
 198 1871 33 37 200 201 195 ?1 29 199 1937 0 197 202 195 -.01947732790407495 -.0
0659716253870636 .0280574932694435 18 197 1879 203 204 194 200 199 ?1 29 202 193
8 0 200 205 199 -.01947732790407495 .001151261967606842 .0280574932694435 18 200
 1873 206 207 197 198 202 ?1 29 205 2309 0 208 209 202 -.01547732790407495 -.006
45465580814987 .0282 18 208 2237 210 211 212 213 205 ?1 29 209 2310 0 213 214 20
5 -.01947732790407495 -.00645465580814987 .0282 18 213 2233 215 216 208 0 209 ?1
 29 214 2312 0 201 217 209 -.01547732790407495 .001151261967606842 .029 18 201 2
243 218 219 198 220 214 ?1 29 217 2313 0 220 221 214 -.01547732790407495 .000838
045911477013 .029 18 220 2239 222 223 201 224 217 ?1 29 221 2314 0 224 225 217 -
.01547732790407495 -.000838045911477014 .029 18 224 2235 226 227 220 228 221 ?1
 29 225 2315 0 228 229 221 -.01547732790407495 -.00645465580814987 .029 18 228 2
247 230 231 224 232 225 ?1 29 229 2316 0 232 233 225 -.01947732790407495 -.00645
465580814987 .029 18 232 2229 234 235 228 212 229 ?1 29 233 2317 0 212 0 229 -.0
1947732790407495 .001151261967606842 .029 18 212 2225 236 237 232 208 233 ?1 81
 1 236 2226 31 212 0 0 238 234 239 17 237 0 240 241 242 212 243 244 0 245 -15 25
5 240 1014 0 246 247 0 17 241 0 240 65 237 201 245 248 0 249 +17 242 0 240 237 4
0 200 250 251 0 0 -17 243 0 252 204 253 200 237 244 0 242 +16 244 1859 254 ?243
 255 39 256 0 0 1 17 245 0 257 258 249 212 241 248 0 253 -15 257 2276 0 245 259
 0 17 258 0 257 231 245 232 253 260 0 0 -17 249 0 257 245 261 201 262 263 0 0 -1
6 248 2159 264 ?241 260 0 265 0 0 1 17 253 0 252 243 235 212 258 260 0 0 +15 252
 1906 0 243 266 0 17 235 0 252 253 267 232 216 268 0 269 -16 260 2165 270 ?253 2
71 248 272 0 0 1 81 1 270 2167 31 260 0 0 264 273 274 16 271 2197 238 ?231 275 2
60 276 0 0 1 30 272 2304 0 260 265 276 0 +-.01947732790407495 .00926133604796253
 .029 0 1 0 30 265 2305 0 248 0 272 0 +-.01697732790407495 .001151261967606842 .
029 1 144560289664734e-30 0 30 276 2303 0 271 272 277 0 +0 -.00645465580814987 .
029 1 0 0 30 277 2302 0 275 276 278 0 +-.01547732790407495 -.00865169692027151 .
029 884795853893585e-31 -1 0 16 275 2179 279 ?280 281 271 277 263 263 1 31 255 2
78 2301 0 281 277 282 0 +0 949101269339199e-33 .029 0 0 1 1 0 0 .0155 16 281 218
5 283 ?284 263 275 278 0 0 1 30 282 2292 0 285 278 286 0 +-.01547732790407495 -.
00645465580814987 .029 0 0 -1 16 285 2182 287 ?211 268 263 282 0 0 1 30 286 2291
 0 268 282 256 0 +-.01947732790407495 -.00645465580814987 .029 0 0 -1 16 268 217
6 273 ?216 39 285 286 0 0 1 30 256 1930 0 244 286 288 0 +-.01947732790407495 .00
1151261967606842 .0282 0 0 -1 30 288 1929 0 255 256 289 0 +-.01947732790407495 -
.002722950285549755 .0280574932694435 0 -1 0 16 255 1862 290 ?204 291 244 288 0
 0 1 30 289 1928 0 291 288 292 0 --.01947732790407495 -.01144665988009366 .02320
79959280562 0 -.707106781186548 -.707106781186548 16 291 1865 293 ?267 294 255 2
89 0 0 1 30 292 1925 0 39 289 295 0 +-.01847732790407495 -.002722950285549755 .0
280574932694435 0 -1 0 16 39 1835 296 ?38 244 268 292 0 0 1 30 295 1920 0 294 29
2 297 0 +-.01947732790407495 -.00659716253870636 .0280574932694435 1 0 0 16 294
 1848 298 ?299 251 291 295 0 0 1 30 297 1919 0 251 295 300 0 +-.0194773279040749
5 .001151261967606842 .0280574932694435 1 0 0 16 251 1840 301 ?250 302 294 297 0
 0 1 31 300 1272 0 302 297 303 0 +-.02429555729031565 .000649999999999991 .0023
 -548739058727357e-30 1 0 -1 -548739058727357e-30 0 .0013 16 302 1232 304 ?305 3
06 251 300 0 0 1 31 303 1271 0 307 300 308 0 +-.02429555729031565 -.00585 .0023
 141610079671576e-30 -1 0 1 141610079671576e-30 0 .0013 16 307 1226 309 ?310 311
 306 303 0 0 1 31 308 1270 0 311 303 312 0 +-.02429555729031565 -.00385 .0023 14
1610079671576e-30 -1 0 1 1416100796715762e-31 0 .0013 16 311 1220 313 ?314 315 3
07 308 0 0 1 30 312 1050 0 315 308 316 0 +-.01547732790407495 -.0086516969202715
1 .0025 884795853893585e-31 -1 0 16 315 1390 317 ?193 318 311 312 0 0 1 30 316 1
048 0 318 312 319 0 +-.01697732790407495 .001151261967606842 .0025 1 14456028966
4734e-30 0 16 318 960 320 ?321 322 315 316 0 0 1 30 319 1045 0 322 316 323 0 +-.
01547732790407495 -.01845465580814985 .0282 0 0 -1 16 322 1293 324 ?325 326 318
 319 0 0 1 30 323 1043 0 326 319 327 0 +-.01847732790407495 .001151261967606842
 .0282 0 0 -1 16 326 936 328 ?36 329 322 323 0 0 1 30 327 1042 0 329 323 330 0 +
-.01547732790407495 .001151261967606842 .0282 0 0 -1 16 329 930 331 ?65 332 326
 327 0 0 1 30 330 1041 0 332 327 333 0 +-.01547732790407495 .000838045911477013
 .0282 0 0 -1 16 332 924 334 ?77 335 329 330 0 0 1 30 333 1040 0 335 330 336 0 +
-.01547732790407495 -.000838045911477014 .0282 0 0 -1 16 335 918 337 ?81 338 332
 333 0 0 1 30 336 710 0 339 333 340 0 +-.03075 -.0003500000000000055 1e-4 0 -1 0
 16 339 501 341 ?177 342 343 336 344 343 1 30 340 709 0 342 336 345 0 +-.0184773
2790407495 -.0092159918561124 1e-4 0 1 0 16 342 493 346 ?347 348 339 340 0 0 1 3
0 345 708 0 348 340 349 0 +-.02461366395203745 .0185 1e-4 -1 0 0 16 348 498 350
 ?351 352 342 345 0 0 1 30 349 707 0 352 345 353 0 +-.02461366395203745 -.018454
65580814985 1e-4 1 0 0 16 352 1612 354 ?93 355 348 349 0 0 1 30 353 706 0 338 34
9 356 0 +-.03075 -.0003500000000000055 -.0025 0 -1 0 16 338 460 357 ?49 344 335
 353 0 0 1 30 356 700 0 355 353 358 0 +-.03075 .0185 1e-4 0 0 -1 16 355 457 359
 ?360 361 352 356 0 0 1 30 358 698 0 361 356 362 0 +-.024625 -.00135 1e-4 1 3186
22679261046e-30 0 16 361 522 363 ?364 365 355 358 0 0 1 30 362 697 0 365 358 366
 0 +-.024625 .000649999999999991 1e-4 1 548739058727357e-30 0 16 365 504 367 ?16
9 368 361 362 0 0 1 30 366 696 0 368 362 369 0 +-.0185 -35e-5 .0043 0 -1 0 16 36
8 525 370 ?371 372 365 366 0 0 1 30 369 695 0 372 366 373 0 +-.024625 -.00135 .0
043 1 318622679261046e-30 0 16 372 534 374 ?157 375 368 369 0 0 1 30 373 694 0 3
75 369 376 0 +-.03075 -.0003500000000000055 .0043 0 -1 0 16 375 531 377 ?153 378
 372 373 0 0 1 30 376 693 0 378 373 379 0 +-.024625 .000649999999999991 .0043 1
 548739058727357e-30 0 16 378 513 380 ?381 382 375 376 0 0 1 30 379 692 0 383 37
6 384 0 +-.03075 .000649999999999988 .0043 0 0 -1 16 383 454 385 ?386 387 388 37
9 0 0 1 30 384 691 0 388 379 389 0 +-.03075 -.00135 .0043 0 0 -1 16 388 519 390
 ?391 383 392 384 0 0 1 30 389 690 0 392 384 393 0 +-.0185 -.00135 .0043 0 0 -1
 16 392 528 394 ?395 388 382 389 0 0 1 30 393 689 0 382 389 396 0 +-.0185 65e-5
 .0043 0 0 -1 16 382 516 397 ?398 392 378 393 0 0 1 30 396 688 0 387 393 399 0 +
-.0185 -35e-5 1e-4 0 -1 0 16 387 507 400 ?165 401 383 396 0 0 1 30 399 687 0 401
 396 402 0 +-.024625 -.00585 1e-4 -1 -141610079671576e-30 0 16 401 484 403 ?141
 404 387 399 0 0 1 30 402 686 0 404 399 405 0 +-.024625 -.00385 1e-4 -1 -1416100
796715762e-31 0 16 404 448 406 ?407 408 401 402 0 0 1 30 405 685 0 408 402 409 0
 +-.024625 -.00385 .0043 -1 -1416100796715762e-31 0 16 408 475 410 ?411 412 404
 405 0 0 1 30 409 684 0 412 405 413 0 +-.03075 -.00485 .0043 0 -1 0 16 412 478 4
14 ?125 415 408 409 0 0 1 30 413 683 0 415 409 416 0 +-.024625 -.00585 .0043 -1
 -141610079671576e-30 0 16 415 463 417 ?418 419 412 413 0 0 1 30 416 682 0 419 4
13 420 0 +-.0185 -.00485 .0043 0 -1 0 16 419 469 421 ?422 423 415 416 0 0 1 30 4
20 681 0 423 416 424 0 +-.0185 -.00385 .0043 0 0 -1 16 423 445 425 ?426 427 419
 420 0 0 1 30 424 680 0 427 420 428 0 +-.0185 -.00585 .0043 0 0 -1 16 427 472 42
9 ?430 431 423 424 0 0 1 30 428 679 0 431 424 432 0 +-.03075 -.00585 .0043 0 0 -
1 16 431 466 433 ?434 435 427 428 0 0 1 30 432 678 0 435 428 436 0 +-.03075 -.00
385 .0043 0 0 -1 16 435 451 437 ?438 439 431 432 0 0 1 30 436 677 0 439 432 440
 0 +-.0185 -.00485 1e-4 0 -1 0 16 439 481 441 ?133 442 435 436 0 0 1 30 440 355
 0 442 436 443 0 +-.00923866395203747 -.01845465580814985 .0025 -1 0 0 16 442 27
2 444 ?445 446 439 440 0 0 1 30 443 352 0 447 440 448 0 +-.00923866395203747 -.0
1845465580814985 -.0025 -1 0 0 16 447 297 449 ?450 451 452 443 0 0 1 30 448 349
 0 446 443 453 0 +-.01847732790407495 -.01845465580814985 .0025 0 0 -1 16 446 12
97 454 ?455 452 442 448 0 0 1 30 453 347 0 452 448 456 0 +-286483447914428e-32 -
.01845465580814985 .0025 0 0 -1 16 452 283 457 ?458 447 446 453 0 0 1 30 456 232
 0 459 453 460 0 +-.00923866395203747 .0185 .0025 -1 0 0 16 459 175 461 ?462 463
 451 456 0 0 1 30 460 231 0 463 456 464 0 +-.01847732790407495 .0092613360479625
3 .0025 0 1 0 16 463 169 465 ?107 466 459 460 0 0 1 30 464 229 0 451 460 467 0 +
-.00923866395203747 .0185 -.0025 -1 0 0 16 451 161 468 ?182 459 447 464 0 0 1 30
 467 226 0 466 464 469 0 +-.01847732790407495 .0185 .0025 0 0 -1 16 466 172 470
 ?190 471 463 467 0 0 1 30 469 225 0 471 467 472 0 +166080561576001e-32 .0185 .0
025 0 0 -1 16 471 164 473 ?474 475 466 469 0 0 1 31 472 32 0 476 469 477 0 +8304
02807880005e-33 2267209592506765e-20 .0025 0 0 1 1 0 0 .01847732790407495 16 476
 12 478 ?110 479 475 472 0 0 1 31 477 81 0 475 472 480 0 +830402807880005e-33 22
67209592506765e-20 -.0025 0 0 1 1 0 0 .01847732790407495 16 475 71 481 ?102 476
 471 477 0 0 1 31 480 1188 0 306 477 482 0 +-.02429555729031565 -.00135 .0023 -3
18622679261046e-30 1 0 -1 -318622679261046e-30 0 .0013 16 306 1229 483 ?484 307
 302 480 0 0 1 30 482 1302 0 479 480 485 0 +-.00923866395203747 -.01845465580814
985 .0162 -1 0 0 16 479 1300 486 ?487 488 476 482 0 0 1 30 485 1311 0 488 482 48
9 0 --.01847732790407495 -.01144665988009366 .0232079959280562 0 -.7071067811865
48 -.707106781186548 16 488 1309 490 ?37 491 479 485 0 0 1 30 489 1320 0 491 485
 492 0 +0 -.00645465580814987 .0282 1 0 0 16 491 1318 493 ?494 495 488 489 0 0 1
 30 492 1325 0 495 489 496 0 --.01547732790407495 -.00755317636421069 .027101479
4439392 -625645148253896e-31 .707106781186548 .707106781186548 16 495 1323 497 ?
89 498 491 492 0 0 1 31 496 1383 0 498 492 499 0 +0 949101269339199e-33 .0015 0
 0 1 1 0 0 .0155 16 498 1381 500 ?501 502 495 496 0 0 1 31 499 1399 0 502 496 50
3 0 -0 949101269339199e-33 .0025 0 0 1 1 0 0 .0165 16 502 1397 504 ?73 505 498 4
99 0 0 1 38 12 CCCCCCCCCCCA17 intersection_data204 0 Z503 1516 0 505 499 506 0 +
507 508 509 510 511 512 16 505 1402 513 ?514 515 502 503 0 0 1 38 506 1517 0 515
 503 516 0 +507 517 518 519 520 521 54 255 507 1541 0 522 523 21 524 +0 94910126
9339199e-33 .0015 0 0 1 .0165 .001 1 0 0 50 508 1034 0 525 517 526 527 +-.015477
32790407495 -.00865169692027151 .0282 1 884795853893585e-31 0 -884795853893585e-
31 1 0 40 255 5 509 0 1 5 437393632006974e-19 .3559175511594675 ??-.015477327904
07495 .000838045911477013 .0015 -.01547732790407495 .000841805842099774 .0015201
8533658742 -.01547732790407495 .000855547915712036 .00154371919335068 -.01547732
790407495 .000904798915892181 .00158654955452826 -.01547732790407495 .0011512619
67606838 .001699422714155565 41 3 CI8 term_use0 0 1 cCZ1 510 L?-.015477327904074
95 .000838045911477013 .0015 41 1 511 L?-.01547732790407495 .001151261967606838
 .001699422714155565 204 2 17 INTERSECTION_DATA17 Intersection data7 uv_type0 0
 1 u6 values0 1 1 fT20 512 4 3.08749879821034 -3.141592653589795 .00948974283174
853 -.0267 3.087256580042685 3.121405946005775 .00949350276237129 -.026679814663
4126 3.086371357598345 3.09785952100287 .00950724483598355 -.0266562808066493 3.
0831994797529 3.05493467859089 .0095564958361637 -.02661345044547175 3.067345619
080615 2.94082388730524 .00980295888787835 -.02650057728584445 14 255 525 1007 5
28 ?247 529 530 6 508 +529 529 247 529 24 50 517 1035 0 247 531 508 532 +-.01697
732790407495 .001151261967606842 .0282 -144560289664734e-30 1 0 -1 -144560289664
734e-30 0 50 526 676 0 533 508 534 0 +-.007125 -.00205 1e-4 0 0 1 1 0 0 141 255
 527 503 535 535 508 141 535 516 527 527 508 38 516 1518 0 536 506 537 0 +507 50
8 538 539 540 541 16 536 1410 542 ?543 544 515 516 0 0 1 31 537 1579 0 544 516 5
45 0 +0 949101269339199e-33 -.0025 0 0 1 1 0 0 .0165 40 14 538 0 1 14 .000186970
905002298 .322455858636088 ??-.01547732790407495 -.00571859431589122 .0025 -.015
47732790407495 -.00371859431589122 .0023130290949977 -.01547732790407495 -.00273
803648685674 .002122839099412205 -.01547732790407495 -.002081772512894135 .00196
881644207998 -.01547732790407495 -.001646052043656285 .001853624760973765 -.0154
7732790407495 -.00135806588927721 .00176877046416505 -.01547732790407495 -.00116
8281634380384 .00170557302492663 -.01547732790407495 -.00104352372031578 .001657
409764985705 -.01547732790407495 -.000961775786334267 .00161963402233802 -.01547
732790407495 -.000908541190364903 .00158903276647436 -.01547732790407495 -.00085
9332946638598 .001548266564676755 -.01547732790407495 -.000844868194872506 .0015
2721367505891 -.01547732790407495 -.000838589199600582 .001507665935110005 -.015
47732790407495 -.000838045911477021 .0015 41 1 539 L?-.01547732790407495 -.00571
859431589122 .0025 41 1 540 L?-.01547732790407495 -.000838045911477021 .0015 204
 56 541 4 3.49551688503238 1.570796326794895 .002933102604380295 -.0257 3.377384
16274495 2.19225664145155 .00493310260438029 -.0258869709050023 3.31668735329313
5 2.469226231566795 .00591366043341478 -.0260771609005878 3.275294862002655 2.65
3642286889975 .00656992440737738 -.02623118355792 3.24754684366543 2.78014923043
6735 .00700564487661523 -.02634637523902625 3.229113996889265 2.86947635570879 .
0072936310309943 -.02643122953583495 3.21693319937324 2.93454345147658 .00748341
528589113 -.02649442697507335 3.208913498654525 2.98352548633763 .00760817319995
574 -.0265425902350143 3.20365379798381 3.02167140449601 .00768992113393725 -.02
6580365977662 3.200226791249095 3.052441840896275 .00774315572990661 -.026610967
23352565 3.197057754565285 3.093307328447865 .00779236397363292 -.02665173343532
325 3.19612600198742 3.1143756184084 .00780682872539901 -.0266727863249411 3.195
721508480155 3.13392664339436 .00781310772067093 -.02669233406489 3.195686508969
245 -3.14159265358979 .00781365100879449 -.0267 16 544 1576 546 ?547 548 536 537
 0 0 1 31 545 1585 0 548 537 549 0 -0 949101269339199e-33 -.0015 0 0 1 1 0 0 .01
55 16 548 1582 550 ?551 552 544 545 0 0 1 30 549 1621 0 552 545 553 0 +-.02375 -
.01845465580814985 -.0025 0 0 -1 16 552 1619 554 ?555 556 548 549 0 0 1 30 553 1
630 0 556 549 22 0 +-.02375 -.01845465580814985 -.0025 -.707106781186547 .707106
781186548 0 16 556 1628 557 ?52 27 552 553 0 0 1 30 22 1639 0 27 553 8 0 +-.0307
5 -.01145465580814986 1e-4 0 0 1 16 27 1637 558 ?42 11 556 22 0 0 1 81 1 558 168
1 31 27 0 0 57 25 559 80 255 1 31 560 561 9000 0 0 0 0 3 6 0 0 0 FFTFTFTTFFFFFF1
 81 1 57 1680 31 53 0 0 61 558 562 81 1 25 1682 31 11 0 0 558 554 563 82 255 3 5
59 29 0 1 81 1 554 1683 31 552 0 0 25 557 564 82 3 563 29 1 1 81 1 557 1684 31 5
56 0 0 554 354 565 82 3 564 29 2 1 81 1 354 1685 31 352 0 0 557 357 566 82 3 565
 29 3 1 81 1 357 1686 31 338 0 0 354 449 567 82 3 566 29 4 1 81 1 449 1687 31 44
7 0 0 357 568 569 82 3 567 29 5 1 81 1 568 1688 31 344 0 0 449 570 571 82 3 569
 29 6 1 16 344 487 568 ?51 343 338 336 343 339 1 81 1 570 1689 31 20 0 572 568 5
73 574 82 3 571 29 7 1 14 20 1653 572 ?575 576 577 6 7 +0 0 575 576 24 81 1 572
 2396 578 20 570 0 579 580 581 81 1 573 1690 31 582 0 583 570 584 585 82 3 574 2
9 0 2 14 582 605 583 ?586 587 47 6 588 -0 0 586 587 24 81 1 583 2379 578 582 573
 0 589 590 591 81 1 584 1691 31 533 0 592 573 593 594 82 3 585 29 1 2 14 533 625
 592 ?595 596 597 6 526 +0 0 595 596 24 81 1 592 2383 578 533 584 0 598 599 600
 81 1 593 1692 31 601 0 602 584 603 604 82 3 594 29 2 2 14 601 320 602 ?587 605
 606 6 607 +0 0 587 605 24 81 1 602 2377 578 601 593 0 608 589 609 81 1 603 1693
 31 610 0 611 593 301 612 82 3 604 29 3 2 14 610 58 611 ?613 614 615 6 616 -0 0
 613 614 24 81 1 611 2374 578 610 603 0 617 618 619 81 1 301 1842 31 251 0 0 603
 298 620 82 3 612 29 4 2 81 1 298 1850 31 294 0 0 301 290 621 82 3 620 32 2 1 81
 1 290 1864 31 255 0 0 298 293 622 82 3 621 32 3 1 81 1 293 1867 31 291 0 0 290
 206 623 82 3 622 32 5 1 81 1 206 1874 31 200 0 0 293 203 624 82 3 623 32 11 1 8
1 1 203 1880 31 197 0 0 206 32 625 82 3 624 32 5 0 81 1 32 1893 31 575 0 580 203
 28 626 82 3 625 32 7 0 14 575 1891 580 ?266 20 627 6 628 -0 0 266 20 24 81 1 58
0 2397 578 575 32 0 572 629 630 82 3 626 32 0 2 80 1 578 0 631 8001 0 0 0 0 3 5
 0 0 0 FFFFTFTFFFFFFF2 81 1 629 2398 578 266 632 0 580 633 634 83 255 3 630 .615
686274509804 .811764705882353 .929411764705882 14 266 1903 629 ?635 575 252 6 63
6 +0 0 635 575 24 81 1 632 2366 31 266 0 629 637 638 639 81 1 633 2399 578 635 6
40 0 629 641 642 83 3 634 .615686274509804 .811764705882353 .929411764705882 14
 635 2257 633 ?259 266 643 6 644 -0 0 259 266 24 81 1 640 2259 31 635 0 633 230
 645 646 81 1 641 2400 578 259 645 0 633 0 647 83 3 642 .615686274509804 .811764
705882353 .929411764705882 14 259 2273 641 ?0 635 257 6 648 +0 0 0 635 24 81 1 6
45 2275 31 259 0 641 640 649 650 83 3 647 .615686274509804 .811764705882353 .929
411764705882 81 1 649 2355 31 1 0 651 645 210 652 82 3 650 34 7 2 81 1 651 2368
 653 1 649 14 0 0 654 81 1 210 2356 31 208 0 0 649 215 655 82 3 652 10 0 3 81 1
 215 2357 31 213 0 0 210 331 656 82 3 655 35 0 0 81 1 331 2358 31 329 0 0 215 33
4 657 82 3 656 35 1 0 81 1 334 2359 31 332 0 0 331 337 658 82 3 657 35 0 1 81 1
 337 2360 31 335 0 0 334 254 659 82 3 658 35 1 1 81 1 254 2361 31 244 0 0 337 49
3 660 82 3 659 35 2 1 81 1 493 2362 31 491 0 0 254 661 662 82 3 660 35 3 1 81 1
 661 2363 31 525 0 528 493 663 664 82 3 662 35 4 1 81 1 528 2389 578 525 661 0 6
65 666 667 81 1 663 2364 31 529 0 665 661 637 668 82 3 664 35 0 2 14 529 999 665
 ?525 669 670 6 508 +525 525 525 669 24 81 1 665 2388 578 529 663 0 671 528 672
 81 1 637 2365 31 614 0 617 663 632 673 82 3 668 35 1 2 14 614 83 617 ?610 674 6
75 6 676 +0 0 610 674 24 81 1 617 2373 578 614 637 0 677 611 678 82 3 673 35 2 2
 81 1 677 2372 578 674 679 0 680 617 681 83 3 678 .615686274509804 .811764705882
353 .929411764705882 14 674 87 677 ?614 17 682 6 683 -0 0 614 17 24 81 1 679 396
 31 674 0 677 457 359 684 81 1 680 2371 578 17 685 0 0 677 686 83 3 681 .6156862
74509804 .811764705882353 .929411764705882 14 17 4 680 ?674 0 687 6 688 +0 0 674
 0 24 81 1 685 1573 31 17 0 680 689 546 690 83 3 686 .615686274509804 .811764705
882353 .929411764705882 81 1 689 1569 31 522 0 691 320 685 692 81 1 546 1605 31
 544 0 0 685 550 693 82 3 690 27 4 2 81 1 550 1606 31 548 0 0 546 44 694 82 3 69
3 28 0 1 81 1 44 1607 31 576 0 579 550 41 695 82 3 694 28 1 1 14 576 1594 579 ?2
0 522 696 6 21 +0 0 20 522 24 81 1 579 2395 578 576 44 0 691 572 697 82 3 695 28
 0 2 81 1 691 2394 578 522 689 0 698 579 699 83 3 697 .615686274509804 .81176470
5882353 .929411764705882 14 522 1527 691 ?576 700 701 6 507 +0 0 576 700 24 81 1
 698 2393 578 700 702 0 703 691 704 83 3 699 .615686274509804 .811764705882353 .
929411764705882 14 700 1334 698 ?522 705 706 6 523 +0 0 522 705 24 81 1 702 1967
 31 700 0 698 296 707 708 81 1 703 2392 578 705 709 0 710 698 711 83 3 704 .6156
86274509804 .811764705882353 .929411764705882 14 705 1237 703 ?700 712 713 6 531
 -712 712 700 712 24 81 1 709 1290 31 705 0 703 714 88 715 81 1 710 2391 578 712
 714 0 666 703 716 83 3 711 .615686274509804 .811764705882353 .929411764705882 1
4 712 1252 710 ?705 247 717 6 531 -705 705 705 247 24 81 1 714 1289 31 712 0 710
 309 709 718 81 1 666 2390 578 247 638 0 528 710 719 83 3 716 .615686274509804 .
811764705882353 .929411764705882 14 247 1011 666 ?712 525 240 6 517 +0 0 712 525
 24 81 1 638 2367 31 247 0 666 632 0 720 83 3 719 .615686274509804 .811764705882
353 .929411764705882 82 3 720 35 4 2 13 24 3 0 0 0 0 0 0 10 17 81 1 309 1288 31
 307 0 0 313 714 721 82 3 718 25 4 2 81 1 313 1287 31 311 0 0 483 309 722 82 3 7
21 25 3 1 81 1 483 1286 31 306 0 0 723 313 724 82 3 722 25 2 1 81 1 723 1285 31
 595 0 599 725 483 726 82 3 724 25 1 1 14 595 629 599 ?727 533 728 6 729 +0 0 72
7 533 24 81 1 599 2384 578 595 723 0 592 730 731 81 1 725 1284 31 586 0 590 732
 723 733 82 3 726 25 3 2 14 586 613 590 ?734 582 735 6 736 +0 0 734 582 24 81 1
 590 2380 578 586 725 0 583 737 738 81 1 732 1283 31 587 0 589 739 725 740 82 3
 733 25 2 2 14 587 601 589 ?582 601 741 6 742 -0 0 582 601 24 81 1 589 2378 578
 587 732 0 602 583 743 81 1 739 1282 31 727 0 730 304 732 744 82 3 740 25 1 2 14
 727 633 730 ?745 595 746 6 747 -0 0 745 595 24 81 1 730 2385 578 727 739 0 599
 748 749 81 1 304 1281 31 302 0 0 465 739 750 82 3 744 25 0 2 81 1 465 1094 31 4
63 0 0 444 304 751 82 3 750 25 0 1 81 1 444 1093 31 442 0 0 196 465 752 82 3 751
 21 3 1 81 1 196 1088 31 194 0 0 192 444 753 82 3 752 21 2 1 81 1 192 1087 31 18
4 0 0 754 196 755 82 3 753 21 2 0 81 1 754 799 31 343 0 0 341 192 756 82 3 755 2
1 1 0 16 343 510 754 ?145 339 344 336 339 344 1 81 1 341 798 31 339 0 0 441 754
 757 82 3 756 17 21 1 81 1 441 796 31 439 0 0 400 341 758 82 3 757 17 20 1 81 1
 400 795 31 387 0 0 367 441 759 82 3 758 17 18 1 81 1 367 794 31 365 0 0 403 400
 760 82 3 759 17 17 1 81 1 403 793 31 401 0 0 406 367 761 82 3 760 17 16 1 81 1
 406 792 31 404 0 0 363 403 762 82 3 761 17 15 1 81 1 363 791 31 361 0 0 168 406
 763 82 3 762 17 14 1 81 1 168 790 31 166 0 0 132 363 764 82 3 763 17 13 1 81 1
 132 789 31 130 0 0 144 168 765 82 3 764 17 9 0 81 1 144 788 31 142 0 0 136 132
 766 82 3 765 17 8 0 81 1 136 787 31 134 0 0 164 144 767 82 3 766 17 7 0 81 1 16
4 786 31 162 0 0 172 136 768 82 3 767 17 6 0 81 1 172 785 31 170 0 0 176 164 769
 82 3 768 17 5 0 81 1 176 784 31 174 0 0 140 172 770 82 3 769 17 4 0 81 1 140 78
3 31 138 0 0 771 176 772 82 3 770 17 3 0 81 1 771 781 31 734 0 737 773 140 774 8
2 3 772 17 2 0 14 734 617 737 ?596 586 775 6 776 +0 0 596 586 24 81 1 737 2381 5
78 734 771 0 590 598 777 81 1 773 780 31 745 0 748 778 771 779 82 3 774 17 10 2
 14 745 637 748 ?669 727 780 6 781 +0 0 669 727 24 81 1 748 2386 578 745 773 0 7
30 671 782 81 1 778 771 31 613 0 618 346 773 783 82 3 779 17 9 2 14 613 202 618
 ?605 610 784 6 785 -0 0 605 610 24 81 1 618 2375 578 613 778 0 611 608 786 81 1
 346 770 31 342 0 0 397 778 787 82 3 783 17 0 2 81 1 397 769 31 382 0 0 429 346
 788 82 3 787 17 12 1 81 1 429 768 31 427 0 0 437 397 789 82 3 788 17 11 1 81 1
 437 767 31 435 0 0 425 429 790 82 3 789 17 10 1 81 1 425 766 31 423 0 0 394 437
 791 82 3 790 17 9 1 81 1 394 765 31 392 0 0 390 425 792 82 3 791 17 8 1 81 1 39
0 764 31 388 0 0 385 394 793 82 3 792 17 7 1 81 1 385 763 31 383 0 0 433 390 794
 82 3 793 17 6 1 81 1 433 762 31 431 0 0 470 385 795 82 3 794 17 5 1 81 1 470 76
0 31 466 0 0 468 433 796 82 3 795 17 4 1 81 1 468 758 31 451 0 0 92 470 797 82 3
 796 17 2 1 81 1 92 757 31 90 0 0 189 468 798 82 3 797 17 0 1 81 1 189 756 31 18
3 0 0 799 92 800 82 3 798 17 1 0 81 1 799 643 31 669 0 671 801 189 802 82 3 800
 17 0 0 14 669 641 671 ?529 745 803 6 534 +0 0 529 745 24 81 1 671 2387 578 669
 799 0 748 665 804 81 1 801 623 31 596 0 598 181 799 805 82 3 802 15 5 2 14 596
 621 598 ?533 734 806 6 807 +0 0 533 734 24 81 1 598 2382 578 596 801 0 737 592
 808 81 1 181 600 31 179 0 0 156 801 809 82 3 805 15 2 2 81 1 156 594 31 154 0 0
 152 181 810 82 3 809 16 6 0 81 1 152 592 31 150 0 0 160 156 811 82 3 810 15 7 0
 81 1 160 590 31 158 0 0 148 152 812 82 3 811 15 5 0 81 1 148 588 31 146 0 0 124
 160 813 82 3 812 15 15 0 81 1 124 572 31 122 0 0 116 148 814 82 3 813 15 3 0 81
 1 116 570 31 114 0 0 120 124 815 82 3 814 15 1 0 81 1 120 568 31 118 0 0 128 11
6 816 82 3 815 15 9 0 81 1 128 566 31 126 0 0 186 120 817 82 3 816 15 13 0 81 1
 186 562 31 178 0 0 374 128 818 82 3 817 15 11 0 81 1 374 536 31 372 0 0 377 186
 819 82 3 818 16 7 0 81 1 377 533 31 375 0 0 370 374 820 82 3 819 15 13 1 81 1 3
70 527 31 368 0 0 380 377 821 82 3 820 15 11 1 81 1 380 515 31 378 0 0 350 370 8
22 82 3 821 15 21 1 81 1 350 500 31 348 0 0 414 380 823 82 3 822 15 19 1 81 1 41
4 480 31 412 0 0 410 350 824 82 3 823 16 7 1 81 1 410 477 31 408 0 0 421 414 825
 82 3 824 15 9 1 81 1 421 471 31 419 0 0 417 410 826 82 3 825 15 15 1 81 1 417 4
65 31 415 0 0 359 421 827 82 3 826 15 23 1 81 1 359 459 31 355 0 0 679 417 828 8
2 3 827 15 17 1 82 3 828 16 3 1 83 3 808 .615686274509804 .811764705882353 .9294
11764705882 15 806 624 0 411 596 0 50 807 667 0 596 781 776 0 +-.007125 -.00205
 .0043 0 0 1 1 0 0 50 781 668 0 745 747 807 0 +-.0185 -35e-5 .0043 1 0 0 0 0 -1
 50 776 666 0 734 807 736 0 +-.0185 -.00485 .0043 1 0 0 0 0 -1 50 736 665 0 586
 776 588 0 +-.024625 -.00585 .0043 141610079671576e-30 -1 0 1 141610079671576e-3
0 0 50 588 664 0 582 736 742 0 +-.03075 -.00485 .0043 1 0 0 0 0 -1 50 742 663 0
 587 588 607 0 +-.024625 -.00385 .0043 141610079671576e-30 -1 0 1 14161007967157
62e-31 0 50 607 342 0 601 742 829 0 +-.00923866395203747 -.01845465580814985 .00
25 0 -1 0 0 0 -1 50 829 222 0 605 607 785 0 +-.01847732790407495 .00926133604796
253 .0025 -1 0 0 0 0 1 14 605 206 608 ?601 613 35 6 829 +0 0 601 613 24 50 785 2
21 0 613 829 688 0 +-.00923866395203747 .0185 .0025 0 -1 0 0 0 -1 50 688 38 0 17
 785 616 0 +-.007125 -.00205 .0025 0 0 1 1 0 0 50 616 79 0 610 688 676 0 +-.0071
25 -.00205 -.0025 0 0 1 1 0 0 51 255 676 90 0 614 616 683 0 -0 949101269339199e-
33 .0025 0 0 -1 .0155 -1 0 0 51 683 91 0 674 676 523 0 -830402807880005e-33 2267
209592506765e-20 .0025 0 0 -1 .01847732790407495 -1 0 0 50 523 1346 830 700 683
 507 0 --.00923866395203747 -.01845465580814985 .0162 0 .707106781186548 -.70710
6781186548 -1 0 0 81 2 830 1347 831 523 0 0 0 19 832 833 80 2 831 834 835 8044 0
 0 0 0 3 5 0 0 0 FFFFTFFFTTFFFF3 2 81 2 19 1666 831 7 0 0 830 0 836 837 84 255 6
 832 BAAAAB83 3 833 0 .01697056274847715 .012 84 6 836 BAAAAB83 3 837 0 .0098994
9493661166 .007 79 255 17 835 SDL/TYSA_BLEND_ID81 1 608 2376 578 605 707 0 618 6
02 838 15 35 1813 0 29 605 0 81 1 707 1970 31 605 0 608 702 264 839 83 3 838 .61
5686274509804 .811764705882353 .929411764705882 81 1 264 2161 31 248 0 0 707 270
 840 82 3 839 33 3 2 82 3 840 34 15 1 50 747 669 0 727 729 781 0 +-.024625 -.001
35 .0043 -318622679261046e-30 1 0 -1 -318622679261046e-30 0 50 729 670 0 595 534
 747 0 +-.024625 .000649999999999991 .0043 -548739058727357e-30 1 0 -1 -54873905
8727357e-30 0 50 534 671 0 669 526 729 0 +-.007125 -.00205 .0043 0 0 1 1 0 0 17
 411 0 806 125 841 126 842 408 0 843 +17 125 0 806 844 411 122 129 412 0 845 +17
 841 0 806 411 844 114 422 419 0 0 -17 842 0 846 426 843 114 411 408 0 841 -17 8
43 0 846 842 407 126 438 435 0 0 -15 846 604 0 426 587 0 17 407 0 846 843 426 14
2 137 404 0 438 +17 438 0 47 847 129 142 843 435 0 0 +15 47 612 0 49 582 0 17 84
7 0 47 848 438 170 145 343 0 391 -17 129 0 47 438 845 126 125 412 0 411 -17 845
 0 47 129 48 122 434 431 0 418 -17 48 0 47 845 42 138 51 344 0 434 -17 434 0 849
 850 418 138 845 431 0 0 +17 418 0 849 434 121 122 844 415 0 0 +15 849 616 0 850
 586 0 17 121 0 849 418 850 118 430 427 0 844 -17 844 0 806 841 125 118 418 415
 0 422 -17 422 0 775 430 117 118 841 419 0 0 +15 775 620 0 851 734 0 17 430 0 77
5 851 422 130 121 427 0 0 +17 117 0 775 422 851 114 426 423 0 842 -17 851 0 775
 117 430 134 133 439 0 426 -17 426 0 846 407 842 134 117 423 0 0 +17 133 0 597 1
41 137 130 851 439 0 850 +15 597 628 0 51 533 0 17 141 0 597 51 133 138 850 401
 0 48 +17 137 0 597 133 145 134 407 404 0 851 -17 850 0 849 121 434 130 141 401
 0 430 -17 145 0 597 137 173 142 847 343 0 407 +17 173 0 597 145 165 170 364 361
 0 847 -17 165 0 597 173 169 162 852 387 0 364 +17 364 0 853 854 391 162 173 361
 0 395 +15 853 636 0 391 727 0 17 854 0 853 855 364 154 395 392 0 371 -17 391 0
 853 364 855 170 848 388 0 0 +17 395 0 780 852 371 162 854 392 0 0 +15 780 640 0
 852 745 0 17 852 0 780 161 395 166 165 387 0 398 -17 371 0 780 395 161 154 856
 368 0 0 +17 161 0 780 371 852 158 398 382 0 856 -17 856 0 803 857 157 158 371 3
68 0 381 -15 803 644 0 857 669 0 17 857 0 803 153 856 146 381 378 0 0 -17 157 0
 803 856 153 154 855 372 0 854 +17 381 0 858 398 149 158 857 378 0 0 +15 858 632
 0 859 595 0 17 398 0 858 859 381 166 161 382 0 0 +17 149 0 858 381 859 146 386
 383 0 860 -17 859 0 858 149 398 174 169 365 0 386 -17 386 0 47 187 860 174 149
 383 0 0 +17 860 0 47 386 848 146 153 375 0 857 -17 848 0 47 860 847 150 391 388
 0 855 -17 153 0 803 157 857 150 860 375 0 848 +17 855 0 853 391 854 150 157 372
 0 0 -17 187 0 47 360 386 178 177 339 0 351 -17 360 0 47 49 187 179 861 355 0 0
 +17 177 0 597 169 351 174 187 339 0 859 +17 351 0 597 177 347 178 862 348 0 861
 +17 347 0 597 351 93 183 863 342 0 862 +17 862 0 784 864 861 183 351 348 0 0 -1
7 861 0 784 862 182 178 360 355 0 0 -15 784 205 0 182 613 0 17 182 0 784 861 474
 179 865 451 0 866 +17 474 0 784 182 867 99 868 471 0 865 +17 865 0 869 870 866
 99 182 451 0 0 -17 866 0 869 865 52 179 49 338 0 360 -15 869 66 0 450 610 0 17
 52 0 869 866 450 43 58 556 0 49 +17 49 0 47 42 360 43 866 338 0 50 +17 50 0 577
 58 871 43 42 27 0 0 -15 577 1654 0 871 20 0 17 58 0 577 872 50 53 52 556 0 555
 -17 871 0 577 50 872 30 26 11 0 0 -17 872 0 577 871 58 59 555 552 0 0 -17 26 0
 597 93 51 59 871 11 0 873 +17 93 0 597 347 26 90 873 352 0 455 +17 51 0 597 26
 141 30 48 344 0 871 +17 873 0 606 555 455 59 93 352 0 872 -15 606 323 0 873 601
 0 17 555 0 606 97 873 53 872 552 0 450 +17 455 0 606 873 487 90 874 446 0 863 +
17 487 0 606 455 875 82 876 479 0 874 +17 874 0 35 37 863 82 455 446 0 0 -17 863
 0 35 874 190 90 347 342 0 0 -17 190 0 35 863 107 183 864 466 0 347 +17 107 0 35
 190 36 98 877 463 0 462 +17 864 0 784 867 862 98 190 466 0 0 -17 867 0 784 474
 864 103 462 459 0 868 -17 462 0 687 877 110 98 867 459 0 864 +17 868 0 682 878
 102 103 474 471 0 0 -15 682 134 0 878 674 0 17 878 0 682 458 868 104 110 476 0
 0 -17 102 0 682 868 458 99 870 475 0 474 +17 458 0 682 102 878 94 113 452 0 870
 +17 870 0 869 450 865 94 102 475 0 0 -17 450 0 869 52 870 53 97 447 0 0 +17 97
 0 606 113 555 94 450 447 0 458 -17 113 0 606 445 97 104 458 452 0 879 -17 445 0
 606 875 113 184 879 442 0 0 +17 879 0 687 110 193 104 445 442 0 878 -15 687 8 0
 321 17 0 17 110 0 687 462 879 103 878 476 0 867 +17 193 0 687 879 73 184 880 31
5 0 325 +17 73 0 687 193 321 70 881 502 0 880 +17 880 0 670 543 325 70 193 315 0
 882 -17 325 0 670 880 89 184 875 322 0 445 +15 670 1002 0 227 529 0 17 89 0 670
 325 211 86 883 495 0 875 +17 875 0 606 487 445 86 325 322 0 876 -17 876 0 706 8
83 85 86 487 479 0 0 -15 706 1335 0 883 700 0 17 883 0 706 884 876 208 89 495 0
 0 -17 85 0 706 876 299 82 37 488 0 487 -17 299 0 706 85 885 198 886 294 0 0 +17
 37 0 35 29 874 198 85 488 0 38 +17 38 0 627 886 250 198 29 39 0 299 +15 627 189
4 0 38 575 0 17 886 0 627 207 38 197 299 294 0 885 -17 250 0 627 38 207 12 242 2
51 0 0 +17 207 0 627 250 886 200 204 255 0 243 -17 204 0 252 267 243 197 207 255
 0 886 +17 267 0 252 235 204 213 885 291 0 0 +17 885 0 706 299 884 197 267 291 0
 0 -17 884 0 706 885 883 213 494 491 0 267 -17 494 0 643 887 216 208 884 491 0 8
83 +15 643 2260 0 494 635 0 17 887 0 643 269 494 228 211 285 0 280 -17 216 0 643
 494 269 213 235 268 0 884 +17 269 0 643 216 887 232 231 271 0 258 -17 231 0 257
 888 258 228 269 271 0 887 +17 888 0 257 261 231 224 280 275 0 284 -17 261 0 257
 249 888 220 284 281 0 262 -17 280 0 670 211 227 228 888 275 0 0 +17 284 0 889 8
1 223 224 261 281 0 0 +15 889 82 0 501 614 0 17 81 0 889 501 284 78 227 335 0 54
3 +17 223 0 889 284 501 220 77 332 0 261 -17 501 0 889 223 81 74 890 498 0 0 +17
 77 0 530 514 262 74 223 332 0 891 +15 530 1010 0 77 525 0 17 514 0 530 219 77 6
2 891 505 0 892 +17 262 0 530 77 219 220 249 263 0 0 +17 891 0 701 890 892 74 51
4 505 0 501 -15 701 1528 0 882 522 0 17 890 0 701 882 891 78 501 498 0 0 -17 892
 0 701 891 881 62 69 515 0 0 -17 881 0 701 892 882 66 73 502 0 0 -17 69 0 240 24
6 65 66 892 515 0 321 +16 515 1406 893 ?69 536 505 506 0 0 1 81 1 893 1560 31 51
5 0 0 513 500 894 81 1 513 1559 31 505 0 0 72 893 895 81 1 500 1561 31 498 0 0 8
93 504 896 82 3 894 27 1 1 81 1 504 1562 31 502 0 0 500 542 897 82 3 896 27 2 1
 81 1 542 1563 31 536 0 0 504 317 898 82 3 897 27 3 1 81 1 317 1567 31 315 0 0 5
42 320 899 82 3 898 27 4 1 81 1 320 1568 31 318 0 0 317 689 900 82 3 899 27 8 1
 82 3 900 27 9 1 81 1 72 1558 31 70 0 0 80 513 901 82 3 895 27 0 1 81 1 80 1557
 31 78 0 0 68 72 902 82 3 901 27 4 0 81 1 68 1556 31 66 0 0 76 80 903 82 3 902 2
7 3 0 81 1 76 1555 31 74 0 0 64 68 904 82 3 903 27 2 0 81 1 64 1554 31 62 0 0 45
4 76 905 82 3 904 27 1 0 81 1 454 1369 31 446 0 0 324 64 906 82 3 905 27 0 0 81
 1 324 1366 31 322 0 0 486 454 907 82 3 906 26 7 1 81 1 486 1364 31 479 0 0 497
 324 908 82 3 907 26 4 1 81 1 497 1363 31 495 0 0 84 486 909 82 3 908 26 2 1 81
 1 84 1361 31 82 0 0 88 497 910 82 3 909 26 1 1 81 1 88 1360 31 86 0 0 709 84 91
1 82 3 910 26 3 0 82 3 911 26 2 0 17 246 0 240 40 69 194 321 318 0 877 -17 65 0
 240 69 241 62 219 329 0 514 +17 321 0 687 73 877 66 246 318 0 881 +17 877 0 687
 321 462 194 107 463 0 0 -17 219 0 530 262 514 201 65 329 0 241 -17 40 0 240 242
 246 12 36 326 0 250 -17 36 0 35 107 29 194 40 326 0 246 +17 882 0 701 881 890 7
0 543 536 0 0 -17 543 0 670 227 880 78 882 536 0 890 +17 227 0 670 280 543 224 8
1 335 0 888 -16 263 2191 912 ?262 285 281 277 275 275 1 81 1 912 2193 31 263 0 0
 283 238 913 81 1 283 2187 31 281 0 0 287 912 914 81 1 238 2199 31 271 0 0 912 2
36 915 82 3 913 34 4 1 82 3 915 34 17 1 81 1 287 2184 31 285 0 0 279 283 916 82
 3 914 34 6 1 81 1 279 2181 31 275 0 0 273 287 917 82 3 916 34 7 1 81 1 273 2178
 31 268 0 0 270 279 918 82 3 917 34 9 1 82 3 918 34 11 1 17 211 0 670 89 280 208
 887 285 0 494 +17 169 0 597 165 177 166 859 365 0 852 +83 3 804 .61568627450980
4 .811764705882353 .929411764705882 83 3 786 .615686274509804 .811764705882353 .
929411764705882 83 3 782 .615686274509804 .811764705882353 .929411764705882 83 3
 777 .615686274509804 .811764705882353 .929411764705882 83 3 749 .61568627450980
4 .811764705882353 .929411764705882 15 746 1186 0 484 727 853 17 484 0 746 484 4
84 0 919 306 0 0 +17 919 0 920 919 919 0 484 306 0 0 -15 920 1251 0 919 712 0 83
 3 743 .615686274509804 .811764705882353 .929411764705882 15 741 1206 0 314 587
 846 17 314 0 741 314 314 0 921 311 0 0 +17 921 0 922 921 921 0 314 311 0 0 -15
 922 1241 0 921 705 0 83 3 738 .615686274509804 .811764705882353 .92941176470588
2 15 735 1201 0 923 586 849 17 923 0 735 923 923 0 310 307 0 0 -17 310 0 713 310
 310 0 923 307 0 0 +15 713 1240 0 310 705 922 83 3 731 .615686274509804 .8117647
05882353 .929411764705882 15 728 1194 0 924 595 858 17 924 0 728 924 924 0 305 3
02 0 0 -17 305 0 717 305 305 0 924 302 0 0 +15 717 1250 0 305 712 920 51 531 126
7 0 705 628 517 0 +-.02429555729031565 -.00635 .0023 -548739058727357e-30 1 0 .0
013 -1 -548739058727357e-30 0 50 628 1914 0 575 636 531 0 +-.01947732790407495 -
.002722950285549755 .0280574932694435 0 0 1 1 0 0 50 636 1918 0 266 644 628 0 +-
.01947732790407495 226720959250644e-19 .01415 -1 0 0 0 -1 0 50 644 2285 0 635 64
8 636 0 +0 -.00645465580814987 .029 0 1 0 0 0 1 50 648 2289 0 259 0 644 0 +0 226
7209592506785e-20 .029 0 0 1 1 0 0 82 3 715 25 5 2 81 1 296 1966 31 39 0 0 490 7
02 925 82 3 708 33 0 2 81 1 490 1965 31 488 0 0 328 296 926 82 3 925 33 4 1 81 1
 328 1964 31 326 0 0 33 490 927 82 3 926 33 3 1 81 1 33 1961 31 198 0 0 28 328 9
28 82 3 927 33 2 1 82 3 928 33 1 0 15 696 1595 0 929 576 930 54 21 1601 0 576 50
7 7 0 +0 949101269339199e-33 -.0015 0 0 1 .0165 .001 1 0 0 17 929 0 696 929 929
 0 551 548 0 0 -15 930 1596 0 931 576 0 17 931 0 930 931 931 0 547 544 0 0 -17 5
47 0 615 547 547 0 931 544 0 0 +15 615 1577 0 547 610 869 17 551 0 675 551 551 0
 929 548 0 0 +15 675 1583 0 551 614 889 82 3 692 27 0 2 81 1 457 392 31 452 0 0
 473 679 932 82 3 684 12 3 2 81 1 473 391 31 471 0 0 478 457 933 82 3 932 12 5 1
 81 1 478 390 31 476 0 0 481 473 934 82 3 933 12 4 1 81 1 481 389 31 475 0 0 112
 478 935 82 3 934 12 3 1 81 1 112 386 31 104 0 0 96 481 936 82 3 935 12 2 1 81 1
 96 385 31 94 0 0 109 112 937 82 3 936 12 3 0 81 1 109 384 31 103 0 0 101 96 938
 82 3 937 12 2 0 81 1 101 383 31 99 0 0 106 109 939 82 3 938 12 1 0 81 1 106 197
 31 98 0 0 461 101 940 82 3 939 12 0 0 81 1 461 177 31 459 0 0 0 106 941 82 3 94
0 11 3 0 82 3 941 11 9 1 83 3 672 .615686274509804 .811764705882353 .92941176470
5882 83 3 667 .615686274509804 .811764705882353 .929411764705882 80 1 653 942 94
3 8038 0 0 0 0 0 0 0 0 0 TTTTTTTTTTTTTF10 81 1 14 2369 942 1 651 2 0 0 944 98 25
5 6 654 80 97 114 116 32 49 80 1 942 945 946 8017 0 0 0 0 0 0 0 0 0 TTTTTTTTTTTT
TF3 84 6 944 Part 179 13 946 SDL/TYSA_NAME79 14 943 SDL/TYSA_UNAME81 1 230 2248
 31 228 0 0 218 640 947 82 3 646 34 5 2 81 1 218 2244 31 201 0 0 222 230 948 82
 3 947 34 7 0 81 1 222 2240 31 220 0 0 226 218 949 82 3 948 34 1 0 81 1 226 2236
 31 224 0 0 234 222 950 82 3 949 34 3 0 81 1 234 2230 31 232 0 0 236 226 951 82
 3 950 34 5 0 82 3 951 34 11 0 82 3 639 35 3 2 79 15 631 SDL/TYSA_COLOUR83 3 619
 .615686274509804 .811764705882353 .929411764705882 83 3 609 .615686274509804 .8
11764705882353 .929411764705882 83 3 600 .615686274509804 .811764705882353 .9294
11764705882 83 3 591 .615686274509804 .811764705882353 .929411764705882 83 3 581
 .615686274509804 .811764705882353 .929411764705882 81 1 61 1679 31 59 0 0 45 57
 952 82 3 562 29 3 0 81 1 45 1678 31 43 0 0 41 61 953 82 3 952 29 2 0 82 3 953 2
9 1 0 79 9 561 BTI/DetId141 532 506 532 532 517 141 524 503 954 955 507 141 954
 516 955 524 507 141 955 506 524 954 507 40 5 518 0 1 5 639395613182636e-19 .358
659000531043 ??-.01547732790407495 .001151261967606842 .00169942271415556 -.0155
9868166733265 .001151261967606842 .00201215751832732 -.01581664957879595 .001151
261967606842 .00226711738598926 -.01610710529160405 .001151261967606842 .0024360
7381326944 -.016459787236837 .001151261967606842 .0025 41 1 519 L?-.015477327904
07495 .001151261967606842 .00169942271415556 41 1 520 L?-.016459787236837 .00115
1261967606842 .0025 204 20 521 4 3.067345619080615 2.940823887305245 -.0015 -.02
650057728584445 3.067921146165815 2.60389775925835 -.00137864623674229 -.0261878
424816727 3.06893281261104 2.267257160460365 -.001160678325278972 -.025932882614
01075 3.07023858734594 1.930293571093755 -.00087022261247089 -.02576392618673055
 3.07176246320119 1.570796326794895 -.000517540667237939 -.0257 82 3 274 34 13 1
 82 3 239 34 9 0 82 3 46 29 0 0 82 3 34 33 0 0 19 18 93 0 1 0 10 6 S0 74 4 CI16
 index_map_offset0 0 1 dCCZ20 16 6 0 0 638 19 651 14 2 641 0 0 0 0 0 0 0 0 0 0 0
 0 0 0 80 1 13 578 956 8040 0 0 0 0 3 5 0 0 0 TTTFFFFFFFFFFF2 83 3 15 .615686274
509804 .811764705882353 .929411764705882 79 17 956 SDL/TYSA_COLOUR_21 0 
