**ABCDEFGHIJKLMNOPQRSTUVWXYZabcdefghijklmnopqrstuvwxyz**************************
**PARASOLID !"#$%&'()*+,-./:;<=>?@[\]^_`{|}~0123456789**************************
**PART1;
MC=unknown;
MC_MODEL=unknown;
MC_ID=unknown;
OS=unknown;
OS_RELEASE=unknown;
FRU=Parasolid 33.0.171;
APPL=Onshape;
SITE=unknown;
USER=unknown;
FORMAT=text;
GUISE=transmit;
KEY=BTGapi::writeModels_.xmt;
FILE=BTGapi::writeModels_.xmt;
DATE=2020-10-11T02:46:36 (UTC);
**PART2;
SCH=SCH_3300171_32001;
USFLD_SIZE=0;
**PART3;
**END_OF_HEADER*****************************************************************
T51 : TRANSMIT FILE created by modeller version 330017123 SCH_3300171_32001_1300
6229 0 12 34 CCCCCCI4 mesh1006 0 I8 polyline1008 0 CCCCCCCDI5 owner1040 0 CCCCCC
I13 boundary_mesh1006 0 I17 boundary_polyline1008 0 CCCA16 index_map_offset0 0 1
 dA9 index_map82 0 A17 node_id_index_map82 0 A20 schema_embedding_map82 0 A5 chi
ld12 0 A14 lowest_node_id0 0 1 dA16 mesh_offset_data206 0 Z1 1421 2 3 0 0 0 0 0
 0 1e3 1e-8 0 4 5 1 0 1 1 6 7 8 9 0 0 10 11 12 0 0 0 0 0 0 0 81 255 1 2 1391 13
 1 14 0 0 0 15 70 11 CI9 list_type0 0 1 uI10 notransmit0 0 1 lCCCDCCDI12 finger_
index0 0 1 dI12 finger_block1012 0 CZ3 0 4 T1 0 0 6 20 1 16 16 13 255 6 62 0 1 0
 17 0 0 18 0 52 255 7 323 19 20 21 0 22 +0 857252759403147e-33 .073 0 0 -1 .012
 .707106781186547 .707106781186548 -1 0 0 32 255 8 851 0 23 24 0 0 +0 7347880794
88412e-33 .0294 0 -.866025403784439 -.5 0 .5 -.866025403784439 .024 .012 29 255
 9 857 0 12 25 0 .0115562392960109 -.0032331615074619 .035 19 8 CCCCCCCA5 owner1
2 0 Z10 19 0 1 18 0 26 V0 16 255 11 873 27 ?28 0 29 8 23 23 1 18 255 12 855 30 3
1 0 32 9 ?1 81 1 30 1294 33 12 0 0 34 35 36 17 255 31 0 37 38 39 12 40 41 0 28 -
18 32 826 34 42 12 43 25 ?1 81 1 34 1293 33 32 0 0 44 30 45 17 42 0 46 47 48 32
 49 50 0 51 +18 43 337 52 53 32 54 55 ?1 29 25 828 0 32 55 9 -.0118906125437955
 -.00161658075373095 .0378 29 55 338 0 43 56 25 .003 -.01367479433117734 .071 29
 56 559 0 54 57 55 -.003 -.01367479433117734 .071 18 54 488 58 59 43 60 56 ?1 29
 57 561 0 60 61 56 .003 -.01161895003862224 .073 18 60 492 62 63 54 64 57 ?1 29
 61 562 0 64 65 57 -.003 -.01161895003862224 .073 18 64 479 66 67 60 68 61 ?1 29
 65 567 0 68 69 61 -.003 -.01161895003862224 .076 18 68 486 70 71 64 72 65 ?1 29
 69 568 0 72 73 65 .003 -.01161895003862224 .076 18 72 497 74 75 68 76 69 ?1 29
 73 569 0 76 77 69 .003 -.01367479433117734 .076 18 76 495 78 79 72 80 73 ?1 29
 77 570 0 80 81 73 -.003 -.01367479433117734 .076 18 80 489 82 83 76 84 77 ?1 29
 81 1193 0 84 85 77 .0118906125437955 -.001616580753730945 .0322 18 84 1041 86 8
7 80 88 81 ?1 29 85 1194 0 88 89 81 -.0118906125437955 -.001616580753730945 .032
2 18 88 1040 90 91 84 92 85 ?1 29 89 1195 0 92 93 85 .01189061254379548 .0016165
8075373095 .0322 18 92 1045 94 95 88 96 89 ?1 29 93 1196 0 96 97 89 -.0118906125
437955 .00161658075373095 .0322 18 96 1044 98 99 92 100 93 ?1 29 97 1197 0 100 1
01 93 .0115562392960109 .0032331615074619 .035 18 100 1064 102 103 96 104 97 ?1
 29 101 1198 0 104 105 97 -.0115562392960109 .0032331615074619 .035 18 104 1048
 106 107 100 108 101 ?1 29 105 1199 0 108 109 101 .0118906125437955 .00161658075
3730955 .0378 18 108 1067 110 111 104 112 105 ?1 29 109 1200 0 112 113 105 -.011
8906125437955 .001616580753730955 .0378 18 112 1051 114 115 108 116 109 ?1 29 11
3 1202 0 116 117 109 -.01155623929601092 -.0032331615074619 .035 18 116 1059 35
 47 112 118 113 ?1 29 117 1203 0 118 119 113 .0118906125437955 -.001616580753730
95 .0378 18 118 1070 44 38 116 120 117 ?1 29 119 1205 0 121 122 117 .0142 -.0032
331615074619 .035 18 121 1057 123 40 124 125 119 ?1 29 122 1206 0 125 126 119 .0
142 -.00161658075373095 .0378 18 125 1071 127 128 121 129 122 ?1 29 126 1207 0 1
29 130 122 .0142 .001616580753730955 .0378 18 129 1068 131 132 125 133 126 ?1 29
 130 1208 0 133 134 126 .0142 .0032331615074619 .035 18 133 1065 135 136 129 137
 130 ?1 29 134 1209 0 137 138 130 .0142 .00161658075373095 .0322 18 137 1046 139
 140 133 141 134 ?1 29 138 1210 0 141 142 134 .0142 -.001616580753730945 .0322 1
8 141 1042 143 144 137 0 138 ?1 29 142 1211 0 120 145 138 -.0142 -.0032331615074
619 .035 18 120 1060 146 147 118 148 142 ?1 29 145 1212 0 148 149 142 -.0142 -.0
0161658075373095 .0378 18 148 1073 150 49 120 151 145 ?1 29 149 1213 0 151 152 1
45 -.0142 .001616580753730955 .0378 18 151 1055 153 154 148 155 149 ?1 29 152 12
14 0 155 156 149 -.0142 .0032331615074619 .035 18 155 1052 157 158 151 159 152 ?
1 29 156 1215 0 159 160 152 -.0142 .00161658075373095 .0322 18 159 1049 161 162
 155 124 156 ?1 29 160 1216 0 124 0 156 -.0142 -.001616580753730945 .0322 18 124
 1062 163 164 159 121 160 ?1 81 1 163 1230 33 124 0 0 143 139 165 17 164 0 166 1
67 91 124 168 169 0 170 -15 255 166 1134 0 91 171 0 17 167 0 166 172 164 120 173
 174 0 0 -17 91 0 166 164 172 88 175 23 0 168 +17 168 0 176 99 170 88 164 169 0
 177 +16 169 994 178 ?168 179 180 181 180 180 1 17 170 0 176 168 162 124 182 183
 0 173 -15 176 1138 0 99 184 0 17 162 0 176 170 99 159 185 186 0 182 -17 182 0 1
87 188 173 159 170 183 0 189 +16 183 997 190 ?182 191 174 192 0 0 1 17 173 0 187
 182 193 124 167 174 0 0 +15 187 1159 0 173 194 0 17 193 0 187 173 195 120 48 19
6 0 167 +16 174 991 197 ?173 183 198 199 0 0 1 81 1 197 1252 33 174 0 0 200 201
 202 16 198 1036 203 ?39 174 204 205 0 0 1 30 255 199 1192 0 174 0 192 0 +-.0142
 -.00242487113059642 .0336 0 .5 -.866025403784439 30 192 1191 0 183 199 206 0 +-
.0142 -195156391047391e-32 .0322 0 1 0 30 206 1190 0 191 192 207 0 +-.0142 .0024
24871130596425 .0336 0 .5 .866025403784439 16 191 940 208 ?188 209 183 206 0 0 1
 30 207 1189 0 209 206 210 0 +-.0142 .002424871130596425 .0364 0 -.5 .8660254037
84439 16 209 955 211 ?212 213 191 207 0 0 1 30 210 1188 0 213 207 214 0 +-.0142
 238524477946811e-32 .0378 0 -1 0 16 213 970 215 ?195 196 209 210 0 0 1 30 214 1
187 0 196 210 216 0 +-.0142 -.002424871130596425 .0364 0 -.5 -.866025403784439 1
6 196 1012 217 ?193 41 213 214 0 0 1 30 216 1186 0 218 214 219 0 +.0142 -.002424
87113059642 .0336 0 .5 -.866025403784439 16 218 1021 200 ?220 221 0 216 0 0 1 30
 219 1185 0 221 216 222 0 +.0142 -195156391047391e-32 .0322 0 1 0 16 221 1024 22
3 ?224 225 218 219 0 0 1 30 222 1184 0 225 219 226 0 +.0142 .002424871130596425
 .0336 0 .5 .866025403784439 16 225 1027 227 ?228 229 221 222 0 0 1 30 226 1183
 0 229 222 230 0 +.0142 .002424871130596425 .0364 0 -.5 .866025403784439 16 229
 1030 231 ?232 204 225 226 0 0 1 30 230 1182 0 204 226 205 0 +.0142 238524477946
811e-32 .0378 0 -1 0 16 204 1033 233 ?234 198 229 230 0 0 1 30 205 1181 0 198 23
0 235 0 +.0142 -.002424871130596425 .0364 0 -.5 -.866025403784439 30 235 1180 0
 236 205 237 0 +-.0142 -.0032331615074619 .035 1 0 0 16 236 1015 238 ?172 239 41
 235 41 41 1 30 237 1179 0 50 235 240 0 +-.0142 -.00161658075373095 .0378 1 0 0
 16 50 973 241 ?42 242 239 237 239 239 1 30 240 1178 0 243 237 244 0 +-.0142 .00
1616580753730955 .0378 1 0 0 16 243 958 245 ?246 247 242 240 242 242 1 30 244 11
77 0 248 240 249 0 +-.0142 .0032331615074619 .035 1 0 0 16 248 943 250 ?251 252
 247 244 247 247 1 30 249 1176 0 186 244 181 0 +-.0142 .00161658075373095 .0322
 1 0 0 16 186 1000 253 ?185 180 252 249 252 252 1 30 181 1175 0 169 249 254 0 +-
.0142 -.001616580753730945 .0322 1 0 0 38 12 CCCCCCCCCCCA17 intersection_data204
 0 Z254 754 0 255 181 256 0 +257 258 259 260 260 261 16 255 717 262 ?263 264 265
 254 0 0 1 38 256 685 0 266 254 267 0 +257 268 269 270 270 271 51 255 257 61 0 2
72 273 21 274 -0 734788079488412e-33 .073 0 0 -1 .012 -1 0 0 51 258 751 0 275 27
6 268 277 -.025 0 -.003 -1 0 0 75e-5 0 0 1 40 255 20 259 0 1 20 4238986386120575
e-20 .337955957333015 ??.012 0 -.00225 .01199743747355982 -.0002479799750430485
 -.002292182274891585 .01199087057956754 -.000467998658183518 -.0024139306730953
85 .01198315761325422 -.000635557720358389 -.002601796052138045 .011977679134588
9 -.000731575388346247 -.002834780596883905 .01197684932296222 -.000745037109853
758 -.003086137709168285 .011981014912621 -.000674745628776467 -.003327442111596
92 .01198835184576654 -.000528601950531532 -.003532052608201725 .011995661573681
08 -.000322650600047863 -.003677049917132225 .01199973180925436 -802278378672943
e-19 -.00374569665014075 .01199878356333838 .0001708595919484215 -.0037302787138
06735 .01199324759297816 .000402507358347222 -.00363284107521268 .01198552938470
698 .000589139515162292 -.0034641278182509 .011979000936675 .000709603099725099
 -.00324282388857057 .01197654095751884 .000749977794920416 -.00299422876734916
 .01197921795550014 .000705930006886724 -.002746696179703285 .01198584908527678
 .000582599094549519 -.0025276883496778 .01199354673882544 .0003934928507733365
 -.00236151477981846 .01199893588337112 .0001598050898713175 -.00226722286249418
 .012 1109919033344388e-34 -.00225 41 3 CI8 term_use0 0 1 cCZ1 260 H?.012 0 -.00
225 204 2 17 INTERSECTION_DATA17 Intersection data7 uv_type0 0 1 u6 values0 1 1
 fT80 261 4 3.141592653589795 .07525 0 .013 3.162259122596915 .0752921822748916
 5.94620370707315 .01300256252644016 3.180602434959565 .0754139306730954 5.60933
643307991 .01300912942043246 3.194580589365215 .075601796052138 5.27209676840097
 .01301684238674576 3.202595096958965 .0758347805968839 4.93450334572925 .013022
3208654111 3.20371903643573 .0760861377091683 4.59728470047191 .0130231506770377
8 3.19785112778626 .0763274421115969 4.26058470238479 .013018985087379 3.1856570
74533915 .0765320526082017 3.92373749999749 .01301164815423344 3.168483444330625
 .0766770499171322 3.5863078544033 .01300433842631892 3.148278356552245 .0767456
966501408 3.2487681664765 .01300026819074562 3.127353873130435 .0767302787138067
 2.91176183988342 .01300121643666162 3.10804408089094 .0766328410752127 2.575099
3120265 .01300675240702184 3.09247795018374 .0764641278182509 2.23805773184872 .
01301447061529302 3.08242454472731 .0762428238885706 1.9005026510769 .0130209990
63325 3.079053745841225 .0759942287673492 1.563101273985065 .01302345904248116 3
.082731169591715 .0757466961797033 1.226283227302016 .01302078204449986 3.093023
635986385 .0755276883496778 .889566449702768 .01301415091472322 3.10879570338995
5 .0753615147798185 .55231231417991 .01300645326117456 3.12827516911606 .0752672
228624942 .214719576894869 .01300106411662888 3.141592653589795 .07525 147989204
4459184e-31 .013 14 255 275 736 278 ?194 279 280 6 258 +0 0 194 279 26 50 255 27
6 1167 0 171 281 258 0 +-.0142 -.00242487113059642 .0336 0 -.866025403784439 -.5
 0 .5 -.866025403784439 51 268 682 0 279 258 282 283 -0 -.025 .073 0 1 0 75e-5 0
 0 1 141 255 277 284 285 285 258 38 284 699 0 265 286 287 0 +273 258 288 289 289
 290 141 285 254 277 277 258 16 265 720 291 ?292 255 293 284 0 0 1 38 286 630 0
 264 294 284 0 +273 268 295 296 296 297 31 255 287 815 0 179 284 298 0 +-.0142 2
16840434497101e-33 .035 1 0 0 0 0 -1 .0014 51 273 60 0 299 300 257 301 -0 857252
759403147e-33 .073 0 0 -1 .014 -1 0 0 40 20 288 0 1 20 423602353238942e-19 .3378
003996182135 ??.014 0 -.00225 .01399780232336346 -.000248052647719064 -.00229220
773954531 .01399217095366556 -.000468136735791839 -.00241404095996208 .013985561
4690263 -.000635665317668434 -.00260196783557922 .01398087073670636 -.0007316101
71818143 -.002834934690221635 .01398016279747384 -.000745015540863578 -.00308632
4063109605 .01398373724545396 -.000674605551491828 -.003327730605675465 .0139900
2854166814 -.000528300485813357 -.00353235194814086 .01399629011932532 -.0003222
776685970935 -.003677227512970065 .01399977227642334 -798511633503167e-19 -.0037
4573707948016 .0139989519947994 .000171298124047596 -.003730175973788355 .013994
19831299592 .0004030056780518445 -.003632523852086205 .013987581491059 .00058954
5613997273 -.003463611873248065 .01398199481133612 .000709803561395402 -.0032422
37289099765 .01397989773760314 .000749972830280291 -.00299361612646036 .01398220
323733664 .000705685928591785 -.002746016988387905 .01398789489614536 .000582062
173990375 -.00252702682358341 .0139944899801844 .000392746985371466 -.0023610557
1018936 .0139990971587917 .000158992888867735 -.00226704620794385 .014 203351262
3015675e-35 -.00225 41 1 289 H?.014 0 -.00225 204 80 290 4 3.141592653589795 .07
525 0 .011 3.159311627021665 .0752922077395453 5.94610103377091 .011002197676636
54 3.17503722635761 .0754140409599621 5.609100811466 .01100782904633444 3.187012
934547875 .0756019678355792 5.27182650356939 .0110144385309737 3.193874337320255
 .0758349346902216 4.93429271853151 .01101912926329364 3.194833198014865 .076086
3240631096 4.5970345697933 .01101983720252616 3.189797431153305 .076327730605675
5 4.26015709824679 .01101626275454604 3.179337364187965 .0765323519481409 3.9231
7105238447 .01100997145833184 3.16461452062979 .0766772275129701 3.5857571083994
85 .01100370988067468 3.147296339040175 .0767457370794802 3.24826304915015 .0110
0022772357666 3.12935676798316 .0767301759737884 2.91116129802516 .0110010480052
006 3.112802556687375 .0766325238520862 2.57431168204228 .01100580168700408 3.09
9469797018285 .0764636118732481 2.237182273327835 .011012418508941 3.09087065307
3105 .0762422372890998 1.89967610932044 .01101800518866386 3.087997511265435 .07
59936161264604 1.56228439262319 .01102010226239686 3.0911651462509 .075746016988
3879 1.225320938274382 .01101779676266334 3.100004797010765 .0755270268235834 .8
88430452411338 .01101210510385464 3.11353561656596 .0753610557101894 .5511445545
32467 .0110055100198156 3.13023577453966 .0752670462079439 .2136113231164015 .01
10009028412083 3.141592653589795 .07525 27113501640209e-30 .011 14 299 53 302 ?3
03 304 305 6 273 -304 304 303 304 26 50 300 49 0 306 307 273 0 +0 0 -.0063 0 0 1
 1 0 0 141 301 286 308 308 273 141 308 284 301 301 273 14 306 34 309 ?310 303 31
1 6 300 -0 0 310 303 26 51 307 139 0 303 312 300 313 -0 979717439317882e-33 .039
 0 0 -1 .016 -1 0 0 14 303 121 314 ?306 299 315 6 307 -0 0 306 299 26 50 312 140
 0 316 317 307 0 +0 0 .031 0 0 1 1 0 0 141 313 318 319 319 307 38 318 161 0 320
 321 322 0 +307 323 324 325 325 326 141 319 322 313 313 307 38 322 168 0 327 318
 328 0 +307 323 329 330 330 331 16 327 199 332 ?333 334 320 322 0 0 1 31 328 272
 0 335 322 336 0 +0 734788079488412e-33 -.0063 0 0 1 1 0 0 .0125 51 323 246 0 17
 337 317 338 -.025 216840434497101e-33 .035 -1 0 0 .0014 0 0 1 40 20 329 0 1 20
 793285169198381e-19 .3385227025809305 ??-.016 979717439317882e-33 .0364 -.01599
33167514776 .000462405976287582 .0363214313122874 -.0159761839443628 .0008726663
60004532 .0360947389753345 -.01595600957887495 .001185646793464114 .035744474097
02975 -.0159416360225167 .001365372083205902 .03530944963144585 -.01593943071748
925 .00139088044143274 .03484046443142715 -.0159502734007523 .001260467548671208
 .0343907204592744 -.0159694195390808 .0009887565852242 .03400885903365075 -.015
98856517052985 .000604800618153726 .03373737724862855 -.0159992751128837 .000152
3018787136745 .03360830889284285 -.01599687954822235 -.000315982150864537 .03363
612490295665 -.0159825065840582 -.000747986156647166 .0338165657139223 -.0159623
506361815 -.001096978654120304 .0341301506840812 -.01594518928035985 -.001323230
446104214 .0345427679074006 -.015938633696908 -.001399984241264206 .035006642605
8052 -.0159455092048597 -.00131936962134774 .03546825612891315 -.015962751660839
7 -.00109112758848802 .0358771776249086 -.01598289911492305 -.000739551135617155
 .0361887237348549 -.01599711579571905 -.000303786468356689 .0363666432532462 -.
016 783332367737782e-33 .0364 41 1 330 H?-.016 783332367737782e-33 .0364 204 80
 331 4 0 .0026 544912146300559e-30 .041 .0289043981149708 .00267856868771262 .33
6610783307732 .0409933167514776 .0545687254338628 .00290526102466549 .6729980308
56457 .04097618394436285 .0741709122604433 .003255525902970245 1.010110418578064
 .0409560095788749 .0854396679622184 .003690550368554145 1.347920272157686 .0409
416360225167 .0870398874901022 .004159535568572855 1.6849983818009 .040939430717
48925 .0788609363604829 .0046092795407256 2.021056367106035 .0409502734007523 .0
618366873152074 .00499114096634928 2.35739878481379 .0409694195390808 .037809046
1470561 .00526262275137147 2.694882956179255 .0409885651705299 .0095190111743837
9 .00539169110715714 3.032589870866645 .0409992751128837 6.26343513878702 .00536
387509704335 3.369255747664955 .04099687954822235 6.23641912739161 .005183434286
07768 3.70524347261103 .0409825065840582 6.21457031387366 .00486984931591879 4.0
4196157495607 .0409623506361815 6.20038883822926 .004457232092599415 4.379690891
825985 .04094518928035985 6.19557425580289 .003993357394194805 4.71713371661961
 .040938633696908 6.20063096680725 .00353174387108686 5.05343034608213 .04094550
92048597 6.21493686340026 .00312282237509138 5.38951467262145 .0409627516608397
 6.23694688673956 .0028112762651451 5.72664614379427 .04098289911492305 6.264197
51196274 .002633356746753795 6.06445502354324 .04099711579571905 0 .0026 4046370
95171916e-30 .041 14 17 216 339 ?272 0 340 6 323 +341 341 272 0 26 50 337 541 0
 342 343 323 344 +-.003 -.0126468721848998 .076 -1 0 0 0 0 1 50 317 141 0 310 32
3 312 0 +0 0 .039 0 0 1 1 0 0 141 338 318 345 345 323 141 345 322 338 338 323 14
 310 126 346 ?316 306 347 6 317 +0 0 316 306 26 81 1 346 1398 348 310 349 0 309
 350 351 14 316 131 350 ?341 310 352 6 312 -0 0 341 310 26 15 347 129 0 353 310
 354 13 26 20 0 0 0 0 0 0 10 17 17 353 0 347 353 353 0 355 356 0 0 -15 354 130 0
 357 310 0 17 357 0 354 357 357 0 358 359 0 0 +17 358 0 315 358 358 0 357 359 0
 0 -16 359 108 360 ?357 361 356 362 0 0 1 81 1 360 110 33 359 0 0 363 349 364 16
 361 41 365 ?366 367 359 368 0 0 1 16 356 100 369 ?355 359 334 370 0 0 1 31 362
 144 0 359 370 371 0 +0 979717439317882e-33 .039 0 0 1 1 0 0 .016 31 370 145 0 3
56 372 362 0 +0 857252759403147e-33 .039 0 0 1 1 0 0 .014 31 371 142 0 334 362 3
73 0 +0 979717439317882e-33 .031 0 0 1 1 0 0 .016 16 334 105 363 ?374 356 327 37
1 0 0 1 31 373 10 0 367 371 368 0 +0 734788079488412e-33 .073 0 0 1 1 0 0 .012 1
6 367 8 375 ?376 377 361 373 0 0 1 31 368 50 0 361 373 321 0 +0 857252759403147e
-33 -.0063 0 0 1 1 0 0 .014 31 321 83 0 377 368 318 0 +0 857252759403147e-33 .03
1 0 0 1 1 0 0 .014 16 377 80 378 ?379 335 367 321 0 0 1 81 1 378 152 33 377 0 0
 380 369 381 17 379 0 352 379 379 0 382 377 0 0 +16 335 269 383 ?384 385 377 328
 0 0 1 81 1 383 298 33 335 0 0 386 387 388 17 384 0 311 384 384 0 389 335 0 0 +1
6 385 275 387 ?390 391 335 336 0 0 1 81 1 387 299 33 385 0 0 383 392 393 17 390
 0 394 390 390 0 395 385 0 0 +16 391 304 396 ?397 398 385 399 0 0 1 31 336 278 0
 385 328 399 0 -0 734788079488412e-33 -.0058 0 0 1 1 0 0 .012 31 399 307 0 391 3
36 400 0 -0 857252759403147e-33 .071 0 0 1 1 0 0 .014 38 400 352 0 398 399 294 0
 +7 343 401 402 403 404 16 398 351 405 ?406 407 391 400 0 0 1 38 294 355 0 407 4
00 286 0 +7 337 408 409 410 411 50 343 543 0 412 282 337 413 +.003 -.01264687218
48998 .076 -1 0 0 0 0 1 40 2 401 0 1 2 .000138768261235493 .0196785241800745 ??.
003 -.00875056319756196 .0757494672437461 .003 -.0165431811722376 .0681870037382
542 41 1 402 L?.003 -.00875056319756196 .0757494672437461 41 1 403 L?.003 -.0165
431811722376 .0681870037382542 204 8 404 4 4.382111371301285 -.00274946724374612
5 -.0002505327562538765 .003896308987337835 4.53299491584511 .00481299626174578
 -.00781299626174578 -.00389630898733782 14 412 523 414 ?415 342 416 6 343 -0 0
 415 342 26 50 282 546 0 415 268 343 0 +867361737988404e-33 -.01280947501931112
 .076 0 0 1 1 0 0 141 413 400 413 413 343 14 415 531 417 ?279 412 418 6 282 +0 0
 279 412 26 81 1 417 1405 348 415 419 0 414 420 421 14 279 667 420 ?275 415 422
 6 268 +0 0 275 415 26 15 418 534 0 423 415 0 17 423 0 418 79 424 80 425 426 0 0
 -17 79 0 418 75 423 76 427 428 0 429 +17 424 0 418 423 75 68 430 431 0 0 -17 42
5 0 432 67 83 68 423 426 0 424 +16 426 448 433 ?425 428 266 267 0 0 1 81 1 433 4
50 33 426 0 0 434 435 436 16 428 465 435 ?79 437 426 438 0 0 1 16 266 648 439 ?4
40 426 264 256 0 0 1 30 267 558 0 426 256 438 0 +-.003 -.0126468721848998 .076 0
 1 0 31 438 557 0 428 267 441 0 +-2656295322589485e-33 1387778780781446e-32 .076
 0 0 1 1 0 0 .014 30 441 556 0 437 438 442 0 +.003 -.0126468721848998 .076 0 1 0
 16 437 468 443 ?75 431 428 441 0 0 1 31 442 555 0 431 441 444 0 +-3469446951953
615e-33 867361737988404e-33 .076 0 0 1 1 0 0 .012 16 431 436 434 ?430 445 437 44
2 0 0 1 30 444 550 0 445 442 446 0 +-.003 -.01161895003862224 .076 0 0 -1 16 445
 442 447 ?67 448 431 444 0 0 1 30 446 549 0 448 444 449 0 +.003 -.01161895003862
224 .076 0 0 -1 16 448 439 450 ?451 452 445 446 0 0 1 30 449 548 0 452 446 372 0
 +.003 -.01367479433117734 .076 0 0 -1 16 452 454 453 ?53 454 448 449 0 0 1 30 3
72 547 0 454 449 370 0 +-.003 -.01367479433117734 .076 0 0 -1 16 454 451 455 ?45
6 320 452 372 0 0 1 81 1 455 608 33 454 0 0 375 453 457 17 456 0 305 397 427 54
 83 454 0 458 +16 320 205 386 ?459 327 454 318 0 0 1 81 1 386 265 33 320 0 0 332
 383 460 17 459 0 461 459 459 0 462 320 0 0 +15 461 225 0 459 341 0 17 462 0 463
 462 462 0 459 320 0 0 -15 463 160 0 462 303 464 15 464 167 0 465 303 0 17 465 0
 464 465 465 0 333 327 0 0 -17 333 0 340 333 333 0 465 327 0 0 +15 340 220 0 333
 17 466 15 466 813 0 467 17 0 17 467 0 466 467 467 0 468 179 0 0 +17 468 0 469 4
68 468 0 467 179 0 0 -16 179 1018 470 ?467 293 169 287 0 0 1 81 1 470 1259 33 17
9 0 0 471 472 473 16 293 988 471 ?474 265 179 298 0 0 1 81 1 471 1258 33 293 0 0
 475 470 476 17 474 0 477 474 474 0 478 293 0 0 +31 298 822 0 293 287 479 0 +.01
42 216840434497101e-33 .035 1 0 0 0 0 -1 .0014 32 479 832 0 480 298 481 0 +0 734
788079488412e-33 .0406 0 -.866025403784438 .5 0 -.5 -.866025403784439 .024 .012
 16 480 830 482 ?47 483 407 479 484 484 1 31 481 836 0 483 479 485 0 +0 73478807
9488412e-33 .0378 0 0 1 1 0 0 .012 16 483 834 486 ?51 487 480 481 488 488 1 32 4
85 840 0 487 481 489 0 +0 734788079488412e-33 .0406 0 .866025403784439 .5 0 .5 -
.866025403784439 .024 .012 16 487 838 490 ?115 491 483 485 492 492 1 32 489 844
 0 491 485 24 0 +0 734788079488412e-33 .0294 0 .866025403784439 -.5 0 -.5 -.8660
25403784439 .024 .012 16 491 842 493 ?107 494 487 489 495 495 1 31 24 848 0 494
 489 8 0 +0 734788079488412e-33 .0322 0 0 -1 -1 0 0 .012 16 494 846 496 ?99 23 4
91 24 29 29 1 81 1 496 1297 33 494 0 0 497 498 499 17 99 0 176 162 168 96 177 49
4 0 185 +16 23 849 500 ?91 484 494 8 11 11 1 16 29 871 497 ?87 11 495 24 494 494
 1 81 1 497 1296 33 29 0 0 35 496 501 17 87 0 502 144 503 84 504 29 0 505 +16 49
5 868 498 ?95 29 492 489 491 491 1 81 1 498 1298 33 495 0 0 496 493 506 17 95 0
 507 140 508 92 509 495 0 503 +16 492 865 510 ?103 495 488 485 487 487 1 81 1 51
0 1300 33 492 0 0 493 490 511 17 103 0 512 136 513 100 514 492 0 508 +16 488 862
 515 ?111 492 484 481 483 483 1 81 1 515 1302 33 488 0 0 490 486 516 17 111 0 51
7 132 518 108 519 488 0 513 +16 484 859 520 ?38 488 23 479 480 480 1 81 1 520 13
04 33 484 0 0 486 482 521 17 38 0 37 128 31 118 522 484 0 518 +15 37 1122 0 38 5
23 0 17 128 0 37 39 38 125 518 239 0 524 +17 522 0 525 526 519 12 38 484 0 0 -17
 518 0 517 111 234 118 128 239 0 519 -15 517 1150 0 111 527 0 17 234 0 517 518 1
32 125 528 204 0 0 +16 239 1009 529 ?128 50 236 237 50 50 1 17 519 0 525 522 514
 118 111 488 0 0 -15 525 874 0 526 272 530 17 514 0 525 519 509 108 103 492 0 0
 -17 509 0 525 514 504 100 95 495 0 0 -17 504 0 525 509 526 92 87 29 0 0 -17 526
 0 525 504 522 84 28 11 0 0 -17 28 0 531 40 505 12 526 11 0 522 +15 531 1082 0 2
8 532 0 17 40 0 531 220 28 121 31 41 0 39 +17 505 0 531 28 220 84 144 180 0 526
 -17 220 0 531 505 40 141 533 218 0 0 +17 144 0 502 224 87 141 505 180 0 534 +16
 180 916 472 ?144 169 186 181 169 169 1 81 1 472 1260 33 180 0 0 470 178 535 80
 255 1 33 536 537 9000 0 0 0 0 3 6 0 0 0 FFTFTFTTFFFFFF1 81 1 178 1261 33 169 0
 0 472 538 539 82 255 3 535 93 14 1 81 1 538 1262 33 252 0 0 178 253 540 82 3 53
9 93 15 1 16 252 928 538 ?140 186 248 249 186 186 1 81 1 253 1263 33 186 0 0 538
 541 542 82 3 540 93 16 1 81 1 541 1264 33 247 0 0 253 250 543 82 3 542 93 17 1
 16 247 1003 541 ?136 248 243 244 248 248 1 81 1 250 1265 33 248 0 0 541 544 545
 82 3 543 93 18 1 81 1 544 1266 33 242 0 0 250 245 546 82 3 545 93 19 1 16 242 1
006 544 ?132 243 50 240 243 243 1 81 1 245 1267 33 243 0 0 544 529 547 82 3 546
 93 20 1 81 1 529 1268 33 239 0 0 245 241 548 82 3 547 93 21 1 81 1 241 1269 33
 50 0 0 529 549 550 82 3 548 93 22 1 81 1 549 1270 33 41 0 0 241 238 551 82 3 55
0 93 23 1 16 41 985 549 ?40 236 196 235 236 236 1 81 1 238 1271 33 236 0 0 549 5
52 553 82 3 551 93 24 1 81 1 552 1272 33 554 0 555 238 556 557 82 3 553 93 25 1
 14 554 1087 555 ?523 532 502 6 281 -184 184 523 532 26 81 1 555 1416 348 554 55
2 0 558 559 560 81 1 556 1273 33 184 0 561 552 562 563 82 3 557 93 5 2 14 184 11
35 561 ?171 564 176 6 281 -554 554 171 564 26 81 1 561 1413 348 184 556 0 565 56
6 567 81 1 562 1274 33 568 0 569 556 570 571 82 3 563 93 6 2 14 568 1139 569 ?57
2 523 507 6 573 -564 564 572 523 26 81 1 569 1418 348 568 562 0 559 574 575 81 1
 570 1275 33 564 0 565 562 576 577 82 3 571 93 7 2 14 564 1095 565 ?184 578 579
 6 573 -568 568 184 578 26 81 1 565 1412 348 564 570 0 580 561 581 81 1 576 1276
 33 572 0 574 570 582 583 82 3 577 93 8 2 14 572 1143 574 ?527 568 512 6 584 -57
8 578 527 568 26 81 1 574 1419 348 572 576 0 569 585 586 81 1 582 1277 33 578 0
 580 576 587 588 82 3 583 93 9 2 14 578 1103 580 ?564 589 590 6 584 -572 572 564
 589 26 81 1 580 1411 348 578 582 0 591 565 592 81 1 587 1278 33 527 0 585 582 5
93 594 82 3 588 93 10 2 14 527 1147 585 ?595 572 517 6 596 -589 589 595 572 26 8
1 1 585 1420 348 527 587 0 574 597 598 81 1 593 1279 33 589 0 591 587 599 600 82
 3 594 93 11 2 14 589 1111 591 ?578 601 602 6 596 -527 527 578 601 26 81 1 591 1
410 348 589 593 0 603 580 604 81 1 599 1280 33 523 0 559 593 605 606 82 3 600 93
 12 2 14 523 1119 559 ?568 554 37 6 607 -601 601 568 554 26 81 1 559 1417 348 52
3 599 0 555 569 608 81 1 605 1281 33 601 0 603 599 609 610 82 3 606 93 13 2 14 6
01 1151 603 ?589 194 46 6 607 -523 523 589 194 26 81 1 603 1409 348 601 605 0 61
1 591 612 81 1 609 1282 33 532 0 558 605 613 614 82 3 610 93 14 2 14 532 1079 55
8 ?554 171 531 6 276 -171 171 554 171 26 81 1 558 1415 348 532 609 0 566 555 615
 81 1 613 1283 33 171 0 566 609 86 616 82 3 614 93 15 2 14 171 1131 566 ?532 184
 166 6 276 -532 532 532 184 26 81 1 566 1414 348 171 613 0 561 558 617 81 1 86 1
284 33 84 0 0 613 90 618 82 3 616 93 16 2 81 1 90 1285 33 88 0 0 86 94 619 82 3
 618 93 12 0 81 1 94 1286 33 92 0 0 90 98 620 82 3 619 93 13 0 81 1 98 1287 33 9
6 0 0 94 102 621 82 3 620 93 14 0 81 1 102 1288 33 100 0 0 98 106 622 82 3 621 9
3 15 0 81 1 106 1289 33 104 0 0 102 110 623 82 3 622 93 16 0 81 1 110 1290 33 10
8 0 0 106 114 624 82 3 623 93 17 0 81 1 114 1291 33 112 0 0 110 44 625 82 3 624
 93 18 0 81 1 44 1292 33 118 0 0 114 34 626 82 3 625 93 19 0 82 3 626 93 20 0 80
 1 348 0 627 8001 0 0 0 0 3 5 0 0 0 FFFFTFTFFFFFFF2 83 255 3 617 .86666666666666
7 .866666666666667 .866666666666667 79 255 15 627 SDL/TYSA_COLOUR83 3 615 .86666
6666666667 .866666666666667 .866666666666667 81 1 611 1408 348 194 628 0 278 603
 629 83 3 612 .866666666666667 .866666666666667 .866666666666667 14 194 1155 611
 ?601 275 469 6 630 +0 0 601 275 26 81 1 628 1254 33 194 0 611 201 631 632 81 1
 278 1407 348 275 633 0 420 611 634 83 3 629 .866666666666667 .866666666666667 .
866666666666667 81 1 633 758 33 275 0 278 635 636 637 81 1 420 1406 348 279 638
 0 417 278 639 83 3 634 .866666666666667 .866666666666667 .866666666666667 81 1
 638 689 33 279 0 420 405 640 641 83 3 639 .866666666666667 .866666666666667 .86
6666666666667 81 1 405 622 33 398 0 0 642 638 643 81 1 640 691 33 299 0 302 638
 439 644 82 3 641 75 0 2 81 1 302 1395 348 299 640 0 645 314 646 81 1 439 692 33
 266 0 0 640 635 647 82 3 644 75 2 2 81 1 635 693 33 264 0 0 439 633 648 82 3 64
7 75 0 1 16 264 651 635 ?649 266 255 286 0 0 1 82 3 648 75 1 1 17 649 0 650 649
 649 0 651 264 0 0 +15 650 666 0 649 279 0 17 651 0 652 651 651 0 649 264 0 0 -1
5 652 629 0 651 299 0 81 1 645 1394 348 304 636 0 653 302 654 81 1 314 1396 348
 303 655 0 302 309 656 83 3 646 .866666666666667 .866666666666667 .8666666666666
67 81 1 655 261 33 303 0 314 369 332 657 81 1 309 1397 348 306 658 0 314 346 659
 83 3 656 .866666666666667 .866666666666667 .866666666666667 81 1 658 301 33 306
 0 309 392 434 660 83 3 659 .866666666666667 .866666666666667 .866666666666667 8
1 1 392 300 33 661 0 662 387 658 663 81 1 434 438 33 431 0 0 658 433 664 82 3 66
0 13 1 2 82 3 664 70 11 1 14 661 287 662 ?20 341 665 6 21 +0 0 20 341 26 81 1 66
2 1401 348 661 392 0 666 667 668 82 3 663 13 0 2 81 1 666 1400 348 341 669 0 350
 662 670 81 1 667 1402 348 20 671 0 662 672 673 83 3 668 .866666666666667 .86666
6666666667 .866666666666667 14 20 316 667 ?342 661 674 6 7 +0 0 342 661 26 81 1
 671 614 33 20 0 667 450 675 676 81 1 672 1403 348 342 675 0 667 414 677 83 3 67
3 .866666666666667 .866666666666667 .866666666666667 14 342 515 672 ?412 20 432
 6 337 +0 0 412 20 26 81 1 675 615 33 342 0 672 671 678 679 81 1 414 1404 348 41
2 678 0 672 417 680 83 3 677 .866666666666667 .866666666666667 .866666666666667
 81 1 678 616 33 412 0 414 675 58 681 83 3 680 .866666666666667 .866666666666667
 .866666666666667 81 1 58 617 33 54 0 0 678 52 682 82 3 681 71 4 2 81 1 52 618 3
3 43 0 0 58 66 683 82 3 682 71 0 0 81 1 66 619 33 64 0 0 52 62 684 82 3 683 71 1
 0 81 1 62 620 33 60 0 0 66 642 685 82 3 684 71 2 0 81 1 642 621 33 407 0 0 62 4
05 686 82 3 685 71 3 0 16 407 353 642 ?59 480 398 294 0 0 1 82 3 686 71 6 1 17 5
9 0 432 83 67 54 687 407 0 456 +15 432 518 0 67 342 0 17 83 0 432 425 59 80 456
 454 0 427 -17 67 0 432 59 425 64 71 445 0 687 +17 687 0 674 688 458 64 59 407 0
 376 -15 674 354 0 687 20 0 17 688 0 674 406 687 60 376 367 0 0 -17 458 0 674 68
7 406 54 397 391 0 0 -17 376 0 689 71 451 64 688 367 0 0 +15 689 381 0 376 272 3
94 17 71 0 689 430 376 68 67 445 0 425 -17 451 0 689 376 430 60 690 448 0 688 +1
7 430 0 689 451 71 72 424 431 0 0 +17 690 0 416 691 63 72 451 448 0 430 -15 416
 526 0 63 412 0 17 691 0 416 53 690 76 75 437 0 0 -17 63 0 416 690 53 60 406 398
 0 451 -17 53 0 416 63 691 43 429 452 0 406 +17 406 0 674 458 688 43 63 398 0 39
7 +17 397 0 305 429 456 43 458 391 0 0 +15 305 305 0 397 299 692 17 429 0 305 42
7 397 76 53 452 0 691 -17 427 0 305 456 429 80 79 428 0 423 -15 692 88 0 355 299
 652 17 355 0 692 355 355 0 353 356 0 0 +17 75 0 418 424 79 72 691 437 0 690 +14
 272 57 653 ?304 17 525 6 257 +0 0 304 17 26 15 394 276 0 390 272 693 15 693 704
 0 263 272 0 17 263 0 693 263 263 0 694 255 0 0 +17 694 0 280 694 694 0 263 255
 0 0 -15 280 734 0 694 275 695 15 695 735 0 292 275 0 17 292 0 695 292 292 0 696
 265 0 0 +17 696 0 697 696 696 0 292 265 0 0 -15 697 698 0 696 304 0 14 304 84 6
45 ?299 272 698 6 273 -299 299 299 272 26 15 698 54 0 366 304 699 17 366 0 698 3
66 366 0 700 361 0 0 +15 699 82 0 382 304 697 17 382 0 699 382 382 0 379 377 0 0
 -17 700 0 701 700 700 0 366 361 0 0 -15 701 40 0 700 306 0 81 1 653 1393 348 27
2 475 0 339 645 702 81 1 475 1257 33 272 0 653 669 471 703 81 1 339 1392 348 17
 631 0 0 653 704 83 3 702 .866666666666667 .866666666666667 .866666666666667 81
 1 631 1255 33 17 0 339 628 669 705 83 3 704 .866666666666667 .866666666666667 .
866666666666667 81 1 669 1256 33 341 0 666 631 475 706 82 3 705 93 2 2 14 341 23
1 666 ?661 316 707 6 323 +17 17 661 316 26 82 3 706 93 3 2 15 707 821 0 478 341
 461 17 478 0 707 478 478 0 474 293 0 0 -82 3 703 93 4 2 82 3 679 71 3 2 81 1 45
0 611 33 448 0 0 447 671 708 82 3 676 71 2 2 81 1 447 610 33 445 0 0 453 450 709
 82 3 708 71 5 1 81 1 453 609 33 452 0 0 455 447 710 82 3 709 71 4 1 82 3 710 71
 3 1 81 1 350 1399 348 316 380 0 346 666 711 83 3 670 .866666666666667 .86666666
6666667 .866666666666667 81 1 380 133 33 316 0 350 349 378 712 83 3 711 .8666666
66666667 .866666666666667 .866666666666667 81 1 349 128 33 310 0 346 360 380 713
 82 3 712 7 1 2 82 3 713 7 2 2 15 665 288 0 395 661 714 54 255 21 294 0 661 257
 7 0 +0 734788079488412e-33 -.0058 0 0 1 .0125 5e-4 1 0 0 17 395 0 665 395 395 0
 390 385 0 0 -15 714 289 0 389 661 0 17 389 0 714 389 389 0 384 335 0 0 -81 1 36
9 153 33 356 0 0 378 655 715 81 1 332 264 33 327 0 0 655 386 716 82 3 657 12 1 2
 82 3 716 12 2 1 82 3 715 8 1 1 81 1 636 759 33 304 0 645 633 291 717 83 3 654 .
866666666666667 .866666666666667 .866666666666667 81 1 291 761 33 265 0 0 636 26
2 718 82 3 717 79 1 2 81 1 262 762 33 255 0 0 291 143 719 82 3 718 79 0 1 81 1 1
43 1229 33 141 0 0 262 163 720 82 3 719 79 1 1 82 3 720 93 0 0 82 3 643 71 7 1 8
2 3 637 79 0 2 81 1 201 1253 33 595 0 597 197 628 721 82 3 632 93 1 2 14 595 116
0 597 ?0 527 477 6 722 -0 0 0 527 26 81 1 597 1421 348 595 201 0 585 0 723 82 3
 721 93 0 2 83 3 723 .866666666666667 .866666666666667 .866666666666667 15 477 1
163 0 474 595 724 50 722 1173 0 595 630 607 0 +.0142 -867361737988404e-33 .035 1
 0 0 0 1 0 50 630 1174 0 194 0 722 0 +-.0142 -867361737988404e-33 .035 1 0 0 0 1
 0 50 607 1172 0 601 722 596 0 +-.0142 -.002424871130596425 .0364 0 -.8660254037
84438 .5 0 -.5 -.866025403784439 50 596 1171 0 527 607 584 0 +-.0142 23852447794
6811e-32 .0378 0 0 1 1 0 0 50 584 1170 0 572 596 573 0 +-.0142 .0024248711305964
25 .0364 0 .866025403784439 .5 0 -.5 .866025403784439 50 573 1169 0 568 584 281
 0 +-.0142 .002424871130596425 .0336 0 .866025403784439 -.5 0 .5 .86602540378443
9 50 281 1168 0 184 573 276 0 +-.0142 -195156391047391e-32 .0322 0 0 -1 -1 0 0 1
5 724 1164 0 533 595 0 17 533 0 724 524 534 121 220 218 0 0 -17 524 0 724 528 53
3 125 39 198 0 234 -17 534 0 724 533 725 141 224 221 0 220 -17 725 0 724 534 726
 137 228 225 0 224 -17 224 0 502 503 144 137 534 221 0 0 +15 502 1090 0 87 554 0
 17 503 0 502 87 224 92 140 252 0 504 -17 140 0 507 228 95 137 503 252 0 725 +15
 507 1142 0 95 568 0 17 228 0 507 508 140 133 725 225 0 0 +17 508 0 507 95 228 1
00 136 247 0 509 -17 136 0 512 232 103 133 508 247 0 726 +15 512 1146 0 103 572
 0 17 232 0 512 513 136 129 726 229 0 0 +17 726 0 724 725 528 133 232 229 0 228
 -17 528 0 724 726 524 129 234 204 0 232 -17 513 0 512 103 232 108 132 242 0 514
 -17 132 0 517 234 111 129 513 242 0 528 +17 39 0 37 31 128 121 524 198 0 533 +1
5 469 1158 0 468 194 187 15 46 1154 0 47 601 0 17 47 0 46 147 42 116 727 480 0 1
72 +17 147 0 46 48 47 120 172 236 0 193 -17 727 0 530 728 175 32 47 480 0 0 -17
 172 0 166 91 167 116 147 236 0 175 +17 175 0 530 727 177 116 91 23 0 0 -15 530
 850 0 175 272 729 17 177 0 530 175 730 88 99 494 0 0 -17 730 0 530 177 731 96 1
07 491 0 0 -17 731 0 530 730 728 104 115 487 0 0 -17 107 0 579 158 185 104 730 4
91 0 251 +15 579 1098 0 107 564 0 17 158 0 579 189 107 155 251 248 0 188 -17 185
 0 579 107 189 96 162 186 0 730 +17 251 0 590 115 732 104 158 248 0 731 +15 590
 1106 0 115 578 0 17 115 0 590 154 251 112 731 487 0 246 +17 732 0 590 251 154 1
55 212 209 0 0 -17 154 0 590 732 115 151 246 243 0 212 -17 212 0 187 195 188 151
 732 209 0 733 +17 195 0 187 193 212 148 733 213 0 48 +17 188 0 187 212 182 155
 189 191 0 732 +17 733 0 602 246 49 151 195 213 0 0 -15 602 1114 0 51 589 0 17 2
46 0 602 51 733 112 154 243 0 728 +17 49 0 602 733 51 148 42 50 0 195 -17 51 0 6
02 49 246 32 728 483 0 727 +17 728 0 530 731 727 112 51 483 0 0 -17 189 0 579 18
5 158 159 188 191 0 0 -17 48 0 46 42 147 148 193 196 0 0 -15 729 635 0 440 272 6
89 17 440 0 729 440 440 0 734 266 0 0 +17 734 0 422 734 734 0 440 266 0 0 -15 42
2 665 0 734 279 650 83 3 608 .866666666666667 .866666666666667 .866666666666667
 83 3 604 .866666666666667 .866666666666667 .866666666666667 83 3 598 .866666666
666667 .866666666666667 .866666666666667 83 3 592 .866666666666667 .866666666666
667 .866666666666667 83 3 586 .866666666666667 .866666666666667 .866666666666667
 83 3 581 .866666666666667 .866666666666667 .866666666666667 83 3 575 .866666666
666667 .866666666666667 .866666666666667 83 3 567 .866666666666667 .866666666666
667 .866666666666667 83 3 560 .866666666666667 .866666666666667 .866666666666667
 79 9 537 BTI/DetId81 1 486 1303 33 483 0 0 515 520 735 81 1 482 1305 33 480 0 0
 520 27 736 82 3 521 93 34 1 81 1 27 1306 33 11 0 0 482 500 737 82 3 736 93 35 1
 81 1 500 1307 33 23 0 0 27 0 738 82 3 737 93 36 1 82 3 738 93 37 1 82 3 735 93
 33 1 81 1 490 1301 33 487 0 0 510 515 739 82 3 516 93 32 1 82 3 739 93 31 1 81
 1 493 1299 33 491 0 0 498 510 740 82 3 511 93 30 1 82 3 740 93 29 1 82 3 506 93
 28 1 81 1 35 1295 33 116 0 0 30 497 741 82 3 501 93 26 1 82 3 741 93 23 0 82 3
 499 93 27 1 82 3 476 93 12 1 82 3 473 93 13 1 82 3 460 12 3 1 81 1 375 607 33 3
67 0 0 396 455 742 82 3 457 71 2 1 81 1 396 606 33 391 0 0 743 375 744 82 3 742
 71 1 1 81 1 743 605 33 1 0 745 419 396 746 82 3 744 71 0 1 81 1 745 1389 747 1
 743 14 0 0 748 81 1 419 533 33 415 0 417 74 743 749 82 3 746 6 0 3 81 1 74 498
 33 72 0 0 78 419 750 82 3 749 70 2 2 81 1 78 496 33 76 0 0 82 74 751 82 3 750 7
0 7 0 81 1 82 490 33 80 0 0 70 78 752 82 3 751 70 3 0 81 1 70 487 33 68 0 0 443
 82 753 82 3 752 70 1 0 81 1 443 470 33 437 0 0 435 70 754 82 3 753 70 5 0 81 1
 435 467 33 428 0 0 433 443 755 82 3 754 70 9 1 82 3 755 70 5 1 80 1 747 756 757
 8038 0 0 0 0 0 0 0 0 0 TTTTTTTTTTTTTF10 81 1 14 1390 756 1 745 2 0 0 758 98 255
 6 748 80 97 114 116 32 49 80 1 756 759 760 8017 0 0 0 0 0 0 0 0 0 TTTTTTTTTTTTT
F3 84 255 6 758 Part 179 13 760 SDL/TYSA_NAME79 14 757 SDL/TYSA_UNAME82 3 436 70
 7 1 83 3 421 .866666666666667 .866666666666667 .866666666666667 40 2 408 0 1 2
 .000138768261235493 .0196785241800745 ??-.003 -.00875056319756197 .075749467243
7461 -.003 -.0165431811722376 .0681870037382542 41 1 409 L?-.003 -.0087505631975
6197 .0757494672437461 41 1 410 L?-.003 -.0165431811722376 .0681870037382542 204
 8 411 4 5.0426665894681 -.002749467243746125 -.0002505327562538765 .00389630898
733783 4.89178304492427 .00481299626174578 -.00781299626174578 -.003896308987337
825 82 3 393 13 1 1 15 311 270 0 384 306 701 82 3 388 13 0 1 15 352 134 0 379 31
6 761 15 761 135 0 762 316 0 17 762 0 761 762 762 0 374 334 0 0 -17 374 0 763 37
4 374 0 762 334 0 0 +15 763 125 0 374 303 463 82 3 381 8 0 1 81 1 363 107 33 334
 0 0 365 360 764 81 1 365 71 33 361 0 0 0 363 765 82 3 764 7 2 1 82 3 765 6 2 1
 82 3 364 7 3 1 15 315 124 0 358 303 763 83 3 351 .866666666666667 .866666666666
667 .866666666666667 141 344 294 344 344 337 40 20 324 0 1 20 793285169198381e-1
9 .3385227025809305 ??.016 216840434497101e-33 .0364 .0159933167514776 -.0004624
05976287583 .0363214313122874 .0159761839443628 -.000872666360004534 .0360947389
753345 .01595600957887495 -.001185646793464114 .03574447409702975 .0159416360225
167 -.001365372083205904 .03530944963144585 .01593943071748925 -.001390880441432
74 .03484046443142715 .0159502734007523 -.001260467548671204 .0343907204592744 .
0159694195390808 -.000988756585224192 .0340088590336507 .01598856517052985 -.000
604800618153725 .03373737724862855 .0159992751128837 -.0001523018787136715 .0336
0830889284285 .01599687954822235 .000315982150864541 .03363612490295665 .0159825
065840582 .00074798615664717 .0338165657139223 .0159623506361815 .00109697865412
031 .0341301506840812 .01594518928035985 .001323230446104214 .0345427679074006 .
015938633696908 .001399984241264206 .0350066426058052 .0159455092048597 .0013193
6962134774 .03546825612891315 .0159627516608397 .001091127588488014 .03587717762
490865 .01598289911492305 .000739551135617154 .0361887237348549 .015997115795719
05 .0003037864683566875 .0363666432532462 .016 135727331364039e-33 .0364 41 1 32
5 H?.016 135727331364039e-33 .0364 204 80 326 4 3.141592653589795 .0026 0 .009 3
.170497051704765 .00267856868771262 5.94657452387185 .00900668324852242 3.196161
379023655 .00290526102466549 5.61018727632313 .00902381605563718 3.2157635658502
35 .003255525902970245 5.27307488860152 .00904399042112508 3.22703232155201 .003
690550368554155 4.9352650350219 .00905836397748331 3.228632541079895 .0041595355
6857285 4.59818692537869 .00906056928251075 3.220453589950275 .0046092795407256
 4.262128940073545 .00904972659924768 3.203429340905 .00499114096634928 3.925786
52236579 .0090305804609192 3.17940169973685 .00526262275137147 3.58830235100033
 .00901143482947013 3.151111664764175 .00539169110715714 3.25059543631294 .00900
072488711628 3.12184248519723 .00536387509704335 2.91392955951463 .0090031204517
7763 3.09482647380182 .00518343428607768 2.577941834568555 .00901749341594179 3.
072977660283865 .00486984931591879 2.24122373222352 .00903764936381848 3.0587961
84639465 .004457232092599415 1.903494415353605 .00905481071964015 3.053981602213
1 .003993357394194805 1.566051590559975 .00906136630309198 3.059038313217455 .00
353174387108686 1.229754961097452 .00905449079514032 3.073344209810465 .00312282
237509137 .89367063455813 .00903724833916031 3.095354233149765 .0028112762651451
 .55653916338532 .00901710088507697 3.12260485837295 .002633356746753795 .218730
28363634 .00900288420428097 3.141592653589795 .0026 0 .009 40 20 295 0 1 20 4236
023532390945e-20 .33780039961823 ??0 -.014 .07375 -.0002480526477190625 -.013997
80232336346 .0737077922604547 -.000468136735791834 -.01399217095366556 .07358595
90400379 -.000635665317668435 -.0139855614690263 .0733980321644208 -.00073161017
1818142 -.01398087073670636 .0731650653097784 -.000745015540863579 -.01398016279
747384 .0729136759368904 -.000674605551491832 -.01398373724545396 .0726722693943
246 -.000528300485813366 -.01399002854166814 .0724676480518592 -.000322277668597
1005 -.01399629011932532 .07232277248703 -798511633503157e-19 -.0139997722764233
4 .0722542629205198 .0001712981240475915 -.0139989519947994 .0722698240262117 .0
00403005678051841 -.01399419831299592 .0723674761479138 .000589545613997271 -.01
3987581491059 .072536388126752 .000709803561395401 -.01398199481133612 .07275776
27109003 .000749972830280291 -.01397989773760314 .0730063838735396 .000705685928
591785 -.01398220323733664 .0732539830116121 .000582062173990376 -.0139878948961
4536 .0734729731764166 .0003927469853714645 -.0139944899801844 .0736389442898107
 .0001589928888677415 -.0139990971587917 .0737329537920562 216978369497659e-33 -
.014 .07375 41 1 296 H?0 -.014 .07375 204 80 297 4 4.71238898038469 -.0007500000
00000015 0 .011 4.73010795381656 -.000707792260454712 5.94610103377092 .01100219
767663654 4.74583355315251 -.000585959040037942 5.60910081146601 .01100782904633
444 4.75780926134277 -.000398032164420789 5.27182650356939 .0110144385309737 4.7
6467066411515 -.0001650653097783895 4.93429271853152 .01101912926329364 4.765629
52480976 863240631095857e-19 4.5970345697933 .01101983720252616 4.7605937579482
 .0003277306056754385 4.26015709824681 .01101626275454604 4.75013369098286 .0005
32351948140844 3.923171052384485 .01100997145833186 4.73541084742469 .0006772275
12970044 3.5857571083995 .01100370988067468 4.71809266583507 .000745737079480155
 3.248263049150145 .01100022772357666 4.70015309477806 .000730175973788341 2.911
161298025165 .0110010480052006 4.68359888348227 .000632523852086189 2.5743116820
4228 .01100580168700408 4.67026612381318 .000463611873248046 2.237182273327835 .
011012418508941 4.661666979868 .0002422372890997505 1.89967610932044 .0110180051
8866386 4.65879383806033 -638387353964209e-20 1.562284392623205 .011020102262396
86 4.66196147304579 -.0002539830116121135 1.22532093827438 .01101779676266334 4.
67080112380566 -.000472973176416605 .888430452411336 .01101210510385464 4.684331
94336086 -.00063894428981065 .551144554532469 .0110055100198156 4.70103210133455
 -.000732953792056165 .21361132311641 .01100090284120832 4.71238898038469 -.0007
50000000000015 289304492663545e-30 .011 141 283 286 766 766 268 141 766 256 283
 283 268 141 274 254 767 767 257 141 767 256 274 274 257 40 20 269 0 1 20 423898
638612023e-19 .337955957333006 ??0 -.012 .07375 -.000247979975043047 -.011997437
47355982 .0737078177251084 -.000467998658183518 -.01199087057956754 .07358606932
69046 -.000635557720358389 -.01198315761325422 .073398203947862 -.00073157538834
6246 -.0119776791345889 .0731652194031161 -.000745037109853758 -.011976849322962
22 .0729138622908317 -.000674745628776474 -.011981014912621 .0726725578884031 -.
000528601950531536 -.01198835184576654 .0724679473917983 -.000322650600047862 -.
01199566157368108 .0723229500828678 -80227837867298e-18 -.01199973180925436 .072
2543033498593 .0001708595919484165 -.01199878356333838 .0722697212861933 .000402
507358347218 -.01199324759297816 .0723671589247873 .000589139515162291 -.0119855
2938470698 .0725358721817491 .000709603099725096 -.011979000936675 .072757176111
4294 .000749977794920416 -.01197654095751884 .0730057712326508 .0007059300068867
22 -.01197921795550014 .0732533038202967 .000582599094549528 -.01198584908527678
 .0734723116503222 .0003934928507733395 -.01199354673882544 .0736384852201815 .0
001598050898713285 -.01199893588337112 .0737327771375058 539824686955772e-35 -.0
12 .07375 41 1 270 H?0 -.012 .07375 204 80 271 4 4.71238898038469 -.000750000000
000015 0 .013 4.73305544939181 -.000707817725108431 5.94620370707316 .0130025625
2644016 4.75139876175446 -.000586069326904623 5.6093364330799 .01300912942043246
 4.76537691616011 -.000398203947861969 5.27209676840097 .01301684238674576 4.773
39142375386 -.000165219403116118 4.93450334572927 .0130223208654111 4.7745153632
3063 861377091682658e-19 4.59728470047192 .01302315067703778 4.76864745458116 .0
003274421115968955 4.260584702384805 .013018985087379 4.75645340132881 .00053205
2608201702 3.923737499997505 .01301164815423344 4.73927977112552 .00067704991713
2216 3.5863078544033 .01300433842631892 4.71907468334714 .000745696650140737 3.2
48768166476505 .01300026819074562 4.69815019992533 .000730278713806723 2.9117618
39883425 .01300121643666162 4.67884040768584 .000632841075212665 2.5750993120265
 .01300675240702184 4.66327427697864 .000464127818250892 2.23805773184873 .01301
447061529302 4.65322087152221 .0002428238885705675 1.90050265107692 .01302099906
3325 4.64985007263612 -577123265084467e-20 1.56310127398508 .01302345904248116 4
.65352749638661 -.0002533038202967295 1.226283227302014 .01302078204449986 4.663
81996278128 -.000472311650322202 .889566449702789 .01301415091472322 4.679592030
18485 -.000638485220181548 .55231231417992 .01300645326117456 4.69907149591096 -
.00073277713750583 .2147195768948845 .01300106411662888 4.71238898038469 -.00075
0000000000015 719766249274362e-32 .013 81 1 233 1247 33 204 0 0 211 215 768 81 1
 211 1246 33 209 0 0 231 233 769 81 1 215 1248 33 213 0 0 233 203 770 82 3 768 9
3 6 1 81 1 203 1249 33 198 0 0 215 217 771 82 3 770 93 7 1 81 1 217 1250 33 196
 0 0 203 200 772 82 3 771 93 8 1 81 1 200 1251 33 218 0 0 217 197 773 82 3 772 9
3 9 1 82 3 773 93 10 1 81 1 231 1245 33 229 0 0 208 211 774 82 3 769 93 5 1 81 1
 208 1244 33 191 0 0 227 231 775 82 3 774 93 4 1 81 1 227 1243 33 225 0 0 190 20
8 776 82 3 775 93 3 1 81 1 190 1242 33 183 0 0 223 227 777 82 3 776 93 2 1 81 1
 223 1241 33 221 0 0 146 190 778 82 3 777 93 1 1 81 1 146 1240 33 120 0 0 123 22
3 779 82 3 778 93 0 1 81 1 123 1239 33 121 0 0 150 146 780 82 3 779 93 11 0 81 1
 150 1238 33 148 0 0 127 123 781 82 3 780 93 10 0 81 1 127 1237 33 125 0 0 153 1
50 782 82 3 781 93 9 0 81 1 153 1236 33 151 0 0 131 127 783 82 3 782 93 8 0 81 1
 131 1235 33 129 0 0 157 153 784 82 3 783 93 7 0 81 1 157 1234 33 155 0 0 135 13
1 785 82 3 784 93 6 0 81 1 135 1233 33 133 0 0 161 157 786 82 3 785 93 5 0 81 1
 161 1232 33 159 0 0 139 135 787 82 3 786 93 4 0 81 1 139 1231 33 137 0 0 163 16
1 788 82 3 787 93 3 0 82 3 788 93 2 0 82 3 202 93 11 1 82 3 165 93 1 0 82 3 45 9
3 21 0 82 3 36 93 22 0 19 18 63 0 1 0 10 6 S0 81 2 19 324 789 7 0 0 0 0 790 791
 141 22 400 792 792 7 141 792 294 22 22 7 80 2 789 793 794 8044 0 0 0 0 3 5 0 0
 0 FFFFTFFFTTFFFF3 2 84 6 790 BAAAAB83 3 791 0 .002 .002 79 17 794 SDL/TYSA_BLEN
D_ID74 4 CI16 index_map_offset0 0 1 dCCZ20 16 6 0 0 500 19 745 14 2 597 0 0 0 0
 0 0 0 0 0 0 0 0 0 0 80 1 13 348 795 8040 0 0 0 0 3 5 0 0 0 TTTFFFFFFFFFFF2 83 3
 15 .866666666666667 .866666666666667 .866666666666667 79 17 795 SDL/TYSA_COLOUR
_21 0 
