**ABCDEFGHIJKLMNOPQRSTUVWXYZabcdefghijklmnopqrstuvwxyz**************************
**PARASOLID !"#$%&'()*+,-./:;<=>?@[\]^_`{|}~0123456789**************************
**PART1;
MC=unknown;
MC_MODEL=unknown;
MC_ID=unknown;
OS=unknown;
OS_RELEASE=unknown;
FRU=Parasolid 33.0.171;
APPL=Onshape;
SITE=unknown;
USER=unknown;
FORMAT=text;
GUISE=transmit;
KEY=BTGapi::writeModels_.xmt;
FILE=BTGapi::writeModels_.xmt;
DATE=2020-10-11T02:46:36 (UTC);
**PART2;
SCH=SCH_3300171_32001;
USFLD_SIZE=0;
**PART3;
**END_OF_HEADER*****************************************************************
T51 : TRANSMIT FILE created by modeller version 330017123 SCH_3300171_32001_1300
6229 0 12 34 CCCCCCI4 mesh1006 0 I8 polyline1008 0 CCCCCCCDI5 owner1040 0 CCCCCC
I13 boundary_mesh1006 0 I17 boundary_polyline1008 0 CCCA16 index_map_offset0 0 1
 dA9 index_map82 0 A17 node_id_index_map82 0 A20 schema_embedding_map82 0 A5 chi
ld12 0 A14 lowest_node_id0 0 1 dA16 mesh_offset_data206 0 Z1 5773 2 3 0 0 0 0 0
 0 1e3 1e-8 0 4 5 1 0 1 1 6 7 8 9 0 0 10 11 12 0 0 0 0 0 0 0 81 255 1 2 5730 13
 1 14 0 0 0 15 70 11 CI9 list_type0 0 1 uI10 notransmit0 0 1 lCCCDCCDI12 finger_
index0 0 1 dI12 finger_block1012 0 CZ3 0 4 T1 0 0 6 20 1 16 16 13 255 6 629 0 1
 0 17 0 0 18 0 50 255 7 5699 19 20 21 0 0 +-.04135947358945085 .005 .04 .6119311
94330687 -.790911002202535 0 0 0 -1 30 255 8 5676 0 11 22 0 0 +-.041359473589450
85 .005 .04 -.790911002202535 -.611931194330687 0 29 255 9 5673 0 12 23 0 -.041
 .00527812623962797 .04 19 8 CCCCCCCA5 owner12 0 Z10 296 0 1 18 0 24 V0 16 255 1
1 5653 25 ?26 0 27 8 0 0 1 18 255 12 5669 28 29 0 30 9 ?1 81 1 28 5712 31 12 0 0
 32 33 34 17 255 29 0 35 36 37 12 38 39 0 26 +18 30 5661 32 40 12 41 23 ?1 81 1
 32 5711 31 30 0 0 42 28 43 17 40 0 44 45 46 30 47 48 0 36 +18 41 5637 33 45 30
 49 50 ?1 29 23 5664 0 30 50 9 -.041 .00527812623962797 .03 29 50 5640 0 41 51 2
3 -.03581475044984395 .00928997579197129 .03 29 51 5636 0 49 52 50 -.03581475044
984395 .00928997579197129 .04 18 49 5633 53 54 41 55 51 ?1 29 52 5002 0 55 56 51
 .027 .0189736659610104 .045 18 55 4999 57 58 49 59 52 ?1 29 56 4998 0 59 60 52
 .027 .02445 .045 18 59 4995 61 62 55 63 56 ?1 29 60 4988 0 63 64 56 .022 .02945
 .04 18 63 4986 65 66 59 67 60 ?1 29 64 4985 0 67 68 60 .0250734949017751 .02945
 .04 18 67 4982 69 70 63 71 64 ?1 29 68 4981 0 71 72 64 .022 .02459674775249775
 .04 18 71 4978 73 74 67 75 68 ?1 29 72 4901 0 75 76 68 .0417 .02444351350965 .0
3 18 75 4893 77 78 71 79 72 ?1 29 76 4864 0 79 80 72 .0417 .02444351350965 .045
 18 79 4861 81 82 75 83 76 ?1 29 80 4860 0 83 84 76 .0416784584128846 .02445 .04
5 18 83 4857 85 86 79 87 80 ?1 29 84 4851 0 87 88 80 .0204300949882597 .03084819
6361711 .04 18 87 4848 89 90 83 91 84 ?1 29 88 4847 0 91 92 84 .0204300949882597
 .030848196361711 .03 18 91 4844 93 94 87 95 88 ?1 29 92 4636 0 95 96 88 .0405 .
01945 .05 18 95 4632 97 98 91 99 92 ?1 29 96 4621 0 99 100 92 .0405 500000000000
038e-19 .05 18 99 4617 101 102 95 103 96 ?1 29 100 4616 0 103 104 96 .0405 50000
0000000038e-19 .0733 18 103 4612 105 106 99 107 100 ?1 29 104 2368 0 107 108 100
 .0326190128606002 -.00495 .04 18 107 2365 109 110 103 111 104 ?1 29 108 571 0 1
12 113 104 .0326190128606002 -.005 .03 18 112 526 114 115 116 117 108 ?1 29 113
 572 0 117 118 108 -.0326190128606002 -.005 .03 18 117 530 119 120 112 121 113 ?
1 29 118 576 0 121 122 113 .0326190128606002 .005 .03 18 121 546 123 124 117 125
 118 ?1 29 122 577 0 125 126 118 -.0326190128606002 .005 .03 18 125 550 127 128
 121 129 122 ?1 29 126 272 0 111 130 122 .0326190128606002 -.005 .04 18 111 270
 131 132 107 133 126 ?1 29 130 257 0 133 134 126 -.0326190128606002 -.005 .04 18
 133 255 135 136 111 116 130 ?1 29 134 212 0 116 137 130 -.0326190128606002 .005
 .04 18 116 210 138 139 133 112 134 ?1 29 137 1161 0 129 140 134 -.041 -.005 .04
 18 129 1099 141 142 125 143 137 ?1 29 140 1162 0 143 144 137 -.041 -.005 .03 18
 143 1095 145 46 129 146 140 ?1 29 144 2226 0 146 147 140 .0326190128606002 .005
 .045 18 146 2000 148 149 143 150 144 ?1 29 147 2231 0 150 151 144 .028 .0174642
491965731 .045 18 150 2025 152 153 146 154 147 ?1 29 151 2233 0 154 155 147 .032
6190128606002 500000000000018e-19 .045 18 154 2001 156 157 150 158 151 ?1 29 155
 2239 0 158 159 151 .027 .02445 .0783 18 158 2017 160 161 154 162 155 ?1 29 159
 2242 0 163 164 155 .028 500000000000006e-19 .045 18 163 2034 165 166 162 167 15
9 ?1 29 164 2244 0 162 168 159 .028 500000000000006e-19 .05 18 162 2026 169 170
 158 163 164 ?1 29 168 2247 0 171 172 164 .028 500000000000006e-19 .0733 18 171
 2040 173 174 167 175 168 ?1 29 172 2249 0 167 176 168 .028 500000000000006e-19
 .0783 18 167 2036 177 178 163 171 172 ?1 29 176 3191 0 175 179 172 .028 .01945
 .05 18 175 3119 180 181 171 182 176 ?1 29 179 3193 0 182 183 176 .028 .01746424
91965731 .05 18 182 3134 184 185 175 186 179 ?1 29 183 3200 0 186 187 179 .028 .
0174642491965731 .0783 18 186 3130 188 189 182 190 183 ?1 29 187 3201 0 190 191
 183 .027 .0189736659610104 .0783 18 190 3126 192 193 186 194 187 ?1 29 191 3813
 0 194 195 187 .0417 500000000000038e-19 .0783 18 194 3685 196 197 190 198 191 ?
1 29 195 3814 0 198 199 191 .0417 .02445 .0783 18 198 3665 200 201 194 202 195 ?
1 29 199 3815 0 202 203 195 .0417 .02445 .045 18 202 3661 204 205 198 206 199 ?1
 29 203 4384 0 206 207 199 .0417 -.005 .03 18 206 4281 208 209 202 210 203 ?1 29
 207 4385 0 210 211 203 .0417 -.005 .04 18 210 4279 212 213 206 214 207 ?1 29 21
1 4386 0 214 215 207 .0417 -.00495 .04 18 214 4277 216 217 210 218 211 ?1 29 215
 4387 0 218 219 211 .0417 500000000000044e-19 .045 18 218 4275 220 221 214 222 2
15 ?1 29 219 4788 0 222 223 215 .0405 .01945 .0733 18 222 4731 224 225 218 226 2
19 ?1 29 223 5557 0 226 227 219 .027 .02445 .0713 18 226 5460 228 229 222 230 22
3 ?1 29 227 5558 0 230 231 223 .027 .0189736659610104 .0713 18 230 5461 232 233
 226 234 227 ?1 29 231 5559 0 234 235 227 .028 .01945 .0713 18 234 5474 236 237
 230 238 231 ?1 29 235 5560 0 238 239 231 .028 .0174642491965731 .0713 18 238 54
62 240 241 234 242 235 ?1 29 239 5561 0 242 243 235 .036 .01945 .0713 18 242 545
5 244 245 238 246 239 ?1 29 243 5562 0 246 247 239 .036 .02445 .0713 18 246 5457
 248 249 242 250 243 ?1 29 247 5563 0 250 251 243 .027 .02445 .0733 18 250 5478
 252 253 246 254 247 ?1 29 251 5564 0 254 255 247 .027 .0189736659610104 .0733 1
8 254 5479 256 257 250 258 251 ?1 29 255 5565 0 258 259 251 .028 .01746424919657
31 .0733 18 258 5469 260 261 254 262 255 ?1 29 259 5567 0 262 263 255 .036 .0194
5 .0733 18 262 5475 264 265 258 266 259 ?1 29 263 5568 0 266 0 259 .036 .02445 .
0733 18 266 5456 267 268 262 0 263 ?1 81 1 267 5607 31 266 0 0 248 236 269 17 26
8 0 270 271 253 266 272 273 0 274 -15 255 270 5588 0 271 275 0 17 271 0 270 225
 268 262 274 276 0 277 +17 253 0 270 268 257 250 278 279 0 272 -17 272 0 280 281
 282 250 268 273 0 283 +16 273 5425 284 ?272 285 279 286 0 0 1 17 274 0 287 249
 265 266 271 276 0 282 -15 287 5487 0 265 288 0 17 249 0 287 289 274 246 282 290
 0 291 -17 265 0 287 274 289 262 292 293 0 271 +16 276 5367 294 ?271 295 0 296 0
 0 1 17 282 0 280 272 297 266 249 290 0 0 +15 280 2069 0 298 299 0 17 297 0 280
 282 298 246 229 300 0 0 +16 290 5286 301 ?282 302 303 304 0 0 1 81 1 301 5620 3
1 290 0 0 305 306 307 16 302 5641 308 ?309 310 290 311 0 0 1 16 303 5246 312 ?23
7 290 313 314 0 0 1 30 304 5288 0 290 314 311 0 +.036 .02445 .0783 0 0 1 30 314
 5248 0 303 315 304 0 +.028 .016725 .0713 0 1 0 30 311 5643 0 302 304 316 0 --.0
3581475044984395 .00928997579197129 .04 0 0 -1 30 316 5674 0 310 311 22 0 +-.041
 .00527812623962797 .04 0 0 -1 16 310 5647 317 ?36 27 302 316 0 0 1 30 22 5675 0
 27 316 8 0 +-.0179073752249219 .0231449878959857 .03 .790911002202535 .61193119
4330687 0 16 27 5649 318 ?45 11 310 22 0 0 1 81 1 318 5717 31 27 0 0 308 25 319
 17 45 0 44 320 40 41 321 27 0 322 +15 44 465 0 320 323 0 17 320 0 44 324 45 91
 322 325 0 0 -17 321 0 326 327 328 30 45 27 0 0 -17 322 0 329 309 330 41 320 325
 0 328 +15 329 607 0 322 331 0 17 309 0 329 332 322 49 328 302 0 333 +17 330 0 3
29 322 332 91 334 335 0 320 +16 325 4845 336 ?322 337 39 338 0 0 1 17 328 0 326
 321 54 41 309 302 0 0 -15 326 5688 0 54 20 0 17 54 0 326 328 327 49 26 11 0 309
 -17 327 0 326 54 321 12 36 310 0 0 -17 26 0 339 38 333 12 54 11 0 327 +15 339 1
769 0 340 341 0 17 38 0 339 136 26 129 29 39 0 37 -17 333 0 339 26 90 49 332 342
 0 0 +17 90 0 339 333 70 87 343 344 0 332 +17 332 0 329 330 309 87 333 342 0 334
 -16 342 4849 345 ?333 346 347 348 0 0 1 81 1 345 5722 31 342 0 0 336 349 350 16
 346 4979 351 ?139 352 342 353 0 0 1 16 347 476 354 ?355 342 356 357 0 0 1 31 25
5 348 57 0 342 358 353 0 +-1457167719820518e-31 433680868994202e-33 .04 0 0 1 1
 0 0 .037 30 358 1152 0 39 359 348 0 +-.041 .0025 .04 0 1 0 31 353 67 0 346 348
 360 0 +693889390390723e-31 303576608295941e-32 .04 0 0 1 1 0 0 .033 30 360 97 0
 352 353 361 0 +-.0326190128606002 .0025 .04 0 1 0 16 352 95 362 ?363 364 346 36
0 0 0 1 30 361 122 0 364 360 365 0 +-.03683030277982335 -.005 .04 1 0 0 16 364 1
20 366 ?136 367 352 361 0 0 1 30 365 142 0 367 361 368 0 +.0326190128606002 .002
5 .04 0 1 0 16 367 140 369 ?370 371 364 365 0 0 1 30 368 177 0 371 365 338 0 +.0
3463980921012345 -.005 .04 -1 0 0 16 371 175 372 ?373 374 367 368 0 0 1 31 338 5
68 0 325 368 375 0 +-1457167719820518e-31 433680868994202e-33 .03 0 0 1 1 0 0 .0
37 31 375 567 0 337 338 376 0 +693889390390723e-31 303576608295941e-32 .03 0 0 1
 1 0 0 .033 16 337 510 377 ?378 379 325 375 0 0 1 30 376 564 0 379 375 380 0 +-.
0326190128606002 .0025 .03 0 1 0 16 379 494 381 ?382 383 337 376 0 0 1 30 380 56
3 0 383 376 384 0 +-.03683030277982335 -.005 .03 1 0 0 16 383 488 385 ?120 356 3
79 380 0 0 1 30 384 562 0 356 380 357 0 +.0326190128606002 .0025 .03 0 1 0 16 35
6 482 386 ?387 347 383 384 0 0 1 30 357 561 0 347 384 388 0 +.03463980921012345
 -.005 .03 -1 0 0 30 388 621 0 374 357 389 0 +.0326190128606002 -.005 .04 0 0 -1
 16 374 581 390 ?115 391 371 388 0 0 1 30 389 622 0 392 388 393 0 +-.03261901286
06002 -.005 .04 0 0 -1 16 392 582 394 ?395 396 397 389 0 0 1 30 393 626 0 391 38
9 398 0 +.0326190128606002 .005 .04 0 0 -1 16 391 586 399 ?124 397 374 393 0 0 1
 30 398 627 0 397 393 400 0 +-.0326190128606002 .005 .04 0 0 -1 16 397 587 401 ?
128 392 391 398 0 0 1 31 400 1572 0 402 398 403 0 +-.036 0 .035 -1 0 0 0 0 1 .00
17 16 402 1590 404 ?405 406 407 400 0 0 1 30 403 2371 0 396 400 408 0 +122363057
1867142e-33 -.00495 .04 -1 -247198095326695e-30 0 16 396 2369 409 ?410 411 392 4
03 0 0 1 30 408 2380 0 411 403 412 0 +.03425 500000000000022e-19 .045 1 24719809
5326695e-30 0 16 411 2378 413 ?414 415 396 408 0 0 1 30 412 2391 0 415 408 416 0
 +.0326190128606002 -.00495 .04 0 .707106781186548 .707106781186547 16 415 2383
 417 ?157 335 411 412 0 0 1 30 416 4854 0 335 412 418 0 +.02043009498825975 .030
848196361711 .04 0 0 -1 16 335 4852 419 ?330 420 415 416 0 0 1 30 418 4867 0 420
 416 421 0 +.02043009498825975 .030848196361711 .045 -.957531993408837 .28832703
93121325 0 16 420 4865 422 ?423 424 335 418 0 0 1 30 421 4902 0 424 418 425 0 +.
0102150474941299 .03392409818085545 .03 .957531993408837 -.2883270393121325 0 16
 424 4870 426 ?324 427 420 421 0 0 1 30 425 4903 0 427 421 428 0 +.0417 .0244435
1350965 .04 0 0 1 16 427 4877 429 ?82 344 424 425 0 0 1 30 428 4905 0 344 425 43
0 0 +.02043009498825975 .030848196361711 .04 -.957531993408837 .2883270393121325
 0 16 344 4983 431 ?90 432 427 428 0 0 1 30 430 4989 0 432 428 433 0 +.041678458
4128846 .02945 .04 1 0 0 16 432 4987 434 ?70 435 344 430 0 0 1 30 433 4992 0 435
 430 436 0 +.022 .02445 .04 0 1 0 16 435 4990 437 ?438 439 432 433 0 0 1 30 436
 5005 0 439 433 440 0 +.027 .0189736659610104 .045 0 -1 0 16 439 5003 441 ?442 4
43 435 436 0 0 1 30 440 5010 0 443 436 444 0 +.027 .02445 .045 -1 0 0 16 443 500
8 445 ?446 447 439 440 0 0 1 32 255 444 5021 0 447 440 448 0 +693889390390723e-3
1 303576608295941e-32 .018 -.707106781186547 0 .707106781186548 -.70710678118654
8 0 -.707106781186547 .0466690475583121 .033 16 447 5013 449 ?74 313 443 444 0 0
 1 30 448 5022 0 313 444 315 0 -.02078648477844965 .0307408821270391 .0387091178
7296095 -.920052275419354 .2770413421275505 -.2770413421275505 16 313 5017 450 ?
86 303 447 448 0 0 1 30 315 5053 0 451 448 314 0 -.02941666666666665 .0220333333
3333335 .0474166666666667 .577350269189626 -.577350269189626 .577350269189626 16
 451 5042 452 ?66 453 293 315 0 0 1 81 1 452 5078 31 451 0 0 441 437 454 17 66 0
 455 456 457 63 458 451 0 459 +16 453 4679 460 ?461 462 451 463 0 0 1 16 293 541
4 305 ?265 451 300 464 0 0 1 81 1 305 5619 31 293 0 0 465 301 466 16 300 5405 46
5 ?297 293 467 468 0 0 1 30 464 5536 0 293 468 469 0 +.036 .01945 .0783 0 0 1 30
 468 5537 0 300 470 464 0 +.03425 .02445 .0713 1 0 0 30 469 4783 0 462 464 463 0
 +.0405 500000000000014e-19 .06165 595613210635814e-30 0 -1 16 462 4707 471 ?472
 473 453 469 0 0 1 30 463 4779 0 453 469 474 0 +.0405 .01945 .06165 595613210635
814e-30 0 -1 30 474 4774 0 473 463 475 0 +.0405 500000000000014e-19 .05 0 1 0 16
 473 4694 476 ?98 477 462 474 0 0 1 30 475 4773 0 477 474 478 0 +.0405 500000000
000014e-19 .0733 0 1 0 16 477 4684 479 ?480 481 473 475 0 0 1 31 478 4374 0 481
 475 482 0 +.0417 0 .035 1 0 0 0 0 -1 .003 16 481 4215 483 ?484 485 477 478 0 0
 1 30 482 4373 0 485 478 486 0 +.0417 -.0025 .03 0 -1 0 16 485 4165 487 ?488 489
 481 482 0 0 1 30 486 4369 0 489 482 490 0 +.0417 -.00495 .04 0 -.70710678118654
8 -.707106781186547 16 489 4234 491 ?492 493 485 486 0 0 1 30 490 4368 0 493 486
 494 0 +.0417 -.0025 .04 0 -1 0 16 493 4237 495 ?496 497 489 490 0 0 1 30 494 43
67 0 497 490 498 0 +.0417 -.005 .04 0 0 -1 16 497 4240 499 ?500 501 493 494 0 0
 1 30 498 3792 0 501 494 502 0 +.0417 .02195 .045 0 -1 0 16 501 3551 503 ?504 50
5 497 498 0 0 1 30 502 3791 0 505 498 506 0 +.0417 .02445 .0783 0 0 -1 16 505 35
62 507 ?508 509 501 502 0 0 1 30 506 3790 0 509 502 510 0 +.0417 .02195 .0783 0
 -1 0 16 509 3617 511 ?512 513 505 506 0 0 1 30 510 3789 0 513 506 514 0 +.0417
 500000000000038e-19 .0783 0 0 -1 16 513 3620 515 ?221 516 509 510 0 0 1 31 514
 3188 0 516 510 517 0 +693889390390723e-31 303576608295941e-32 .0783 0 0 1 1 0 0
 .033 16 516 3083 518 ?519 520 513 514 0 0 1 30 517 3182 0 520 514 521 0 +.028 .
01945 .0783 0 0 -1 16 520 3060 522 ?181 523 516 517 0 0 1 30 521 3181 0 524 517
 525 0 +.028 .0174642491965731 .0783 0 0 -1 16 524 3047 526 ?527 528 523 521 523
 523 1 31 525 2760 0 529 521 530 0 +.03425 .00605 .075175 247198095326695e-30 -1
 0 1 247198095326695e-30 0 .001125 16 529 2704 531 ?532 533 534 525 0 0 1 31 530
 2759 0 534 525 535 0 +.03425 500000000000022e-19 .075175 247198095326695e-30 -1
 0 1 247198095326695e-30 0 .001125 16 534 2707 536 ?537 529 538 530 0 0 1 31 535
 2758 0 538 530 539 0 +.03425 .00605 .048125 247198095326695e-30 -1 0 1 24719809
5326695e-30 0 .001125 16 538 2726 540 ?541 534 528 535 0 0 1 31 539 2757 0 528 5
35 542 0 +.03425 500000000000022e-19 .048125 247198095326695e-30 -1 0 1 24719809
5326695e-30 0 .001125 16 528 2729 543 ?544 538 524 539 0 0 1 30 542 2205 0 545 5
39 546 0 +.027 .0189736659610104 .048 0 0 -1 16 545 1937 547 ?548 549 533 542 53
3 533 1 31 546 2200 0 549 542 550 0 -693889390390723e-31 303576608295941e-32 .04
5 0 0 1 1 0 0 .033 16 549 1821 551 ?552 553 545 546 0 0 1 30 550 2198 0 554 546
 555 0 +.028 .02195 .0783 0 1 0 16 554 1899 556 ?557 558 559 550 0 0 1 30 555 21
97 0 558 550 560 0 +.03425 500000000000022e-19 .0783 1 247198095326695e-30 0 16
 558 1859 561 ?197 562 554 555 0 0 1 30 560 2195 0 553 555 563 0 +.028 .02195 .0
733 0 1 0 16 553 1902 564 ?261 559 549 560 0 0 1 30 563 2194 0 559 560 565 0 +.0
3425 500000000000022e-19 .0733 1 247198095326695e-30 0 16 559 1911 566 ?567 554
 553 563 0 0 1 30 565 2192 0 562 563 568 0 +.028 500000000000006e-19 .0783 0 0 -
1 16 562 1914 569 ?174 570 558 565 0 0 1 30 568 2191 0 571 565 572 0 +.028 .0167
25 .05 0 1 0 16 571 1881 573 ?574 575 576 568 576 576 1 30 572 2190 0 575 568 57
7 0 +.03425 500000000000022e-19 .05 1 247198095326695e-30 0 16 575 1884 578 ?102
 579 571 572 0 0 1 30 577 2188 0 570 572 580 0 +.028 .016725 .045 0 1 0 16 570 1
818 581 ?582 583 562 577 0 0 1 30 580 2187 0 583 577 584 0 +.03425 5000000000000
22e-19 .045 1 247198095326695e-30 0 16 583 1887 585 ?586 576 570 580 0 0 1 30 58
4 2185 0 579 580 587 0 +.028 500000000000006e-19 .05 0 0 -1 16 579 1896 588 ?166
 589 575 584 0 0 1 30 587 2183 0 589 584 590 0 +.027 .02195 .0783 0 1 0 16 589 1
878 591 ?592 593 579 587 0 0 1 30 590 2182 0 594 587 595 0 +.027 .02445 .0783 0
 0 -1 16 594 1868 596 ?283 597 593 590 593 593 1 30 595 2180 0 598 590 599 0 +.0
3425 .02445 .0783 1 0 0 16 598 1832 600 ?201 601 597 595 0 0 1 30 599 2177 0 597
 595 602 0 +.03425 .02445 .045 1 0 0 16 597 4858 603 ?205 598 594 599 0 0 1 30 6
02 2174 0 601 599 604 0 +.03425 .01945 .05 1 0 0 16 601 1850 605 ?606 607 598 60
2 0 0 1 30 604 2172 0 607 602 608 0 +.03425 .01945 .0733 1 0 0 16 607 1905 609 ?
225 610 601 604 0 0 1 30 608 2170 0 610 604 611 0 -.028 .0174642491965731 .048 0
 0 -1 16 610 1931 612 ?613 407 607 608 0 0 1 30 611 2167 0 407 608 614 0 +.03261
90128606002 .005225 .045 0 -1 0 16 407 1824 615 ?616 402 610 611 0 0 1 31 614 16
27 0 406 611 617 0 +-.0326190128606002 0 .035 -1 0 0 0 0 1 .0017 16 406 1587 618
 ?619 620 402 614 0 0 1 31 617 1557 0 621 614 622 0 +-.036 0 .035 -1 0 0 0 0 1 .
003 16 621 1530 623 ?624 625 620 617 0 0 1 31 622 1556 0 620 617 626 0 +-.041 0
 .035 -1 0 0 0 0 1 .003 16 620 1533 627 ?628 621 406 622 0 0 1 31 626 1460 0 625
 622 629 0 +.036 0 .035 1 0 0 0 0 -1 .0017 16 625 1423 630 ?631 632 621 626 0 0
 1 31 629 1459 0 632 626 633 0 +.0326190128606002 0 .035 -1 0 0 0 0 1 .0017 16 6
32 1420 634 ?635 636 625 629 0 0 1 31 633 1307 0 636 629 637 0 +.036 0 .035 1 0
 0 0 0 -1 .003 16 636 1268 638 ?639 48 632 633 0 0 1 30 637 1154 0 48 633 359 0
 +-.041 .0025 .03 0 1 0 16 48 1051 640 ?40 641 636 637 0 0 1 30 359 1153 0 641 6
37 358 0 +-.041 -.005 .04 0 0 -1 16 641 1057 642 ?643 39 48 359 0 0 1 81 1 642 1
059 31 641 0 0 386 145 644 17 643 0 645 120 142 143 37 641 0 0 +16 39 1079 646 ?
29 325 641 358 0 0 1 81 1 646 5720 31 39 0 0 640 336 647 80 255 1 31 648 649 900
0 0 0 0 0 3 6 0 0 0 FFTFTFTTFFFFFF1 81 1 640 5719 31 48 0 0 25 646 650 81 1 336
 5721 31 325 0 0 646 345 651 82 255 3 647 319 5 1 82 3 651 319 6 1 81 1 25 5718
 31 11 0 0 318 640 652 82 3 650 319 4 1 82 3 652 319 3 1 79 255 9 649 BTI/DetId1
5 645 597 0 120 653 0 17 120 0 645 654 643 117 46 383 0 395 +17 142 0 645 643 65
4 129 136 364 0 38 -17 37 0 35 29 47 129 643 641 0 0 -15 35 1130 0 47 655 0 17 4
7 0 35 37 36 143 40 48 0 643 -17 36 0 35 47 29 30 327 310 0 321 +14 255 655 1127
 656 ?657 323 658 6 659 +0 0 657 323 24 81 1 656 5750 660 655 661 0 662 663 664
 14 657 1284 663 ?665 655 666 6 667 -0 0 665 655 24 14 323 434 662 ?655 668 44 6
 669 -0 0 655 668 24 15 658 1522 0 670 655 35 50 659 1142 0 655 667 671 0 +-.041
 .0025 .04 -1 0 0 0 0 1 13 24 297 0 0 0 0 0 0 10 17 14 17 2070 672 ?673 0 674 6
 675 -0 0 673 0 24 81 1 672 5731 660 17 676 0 0 677 678 14 673 5301 677 ?679 17
 680 6 681 +679 679 679 17 24 15 674 5313 0 682 17 0 50 675 2150 0 17 683 684 0
 +.03425 .01945 .0783 0 1 0 0 0 1 50 683 2151 0 685 686 675 0 +.02025 .005225 .0
45 0 0 1 1 0 0 50 684 2149 0 299 675 687 0 +.03425 .02445 .0783 0 1 0 0 0 1 14 2
99 2064 688 ?689 679 280 6 684 +0 0 689 679 24 51 255 687 1624 0 690 684 691 0 +
-.032 0 .035 -1 0 0 .0017 0 0 1 14 690 1609 692 ?693 694 695 6 687 -0 0 693 694
 24 50 691 1555 0 694 687 696 0 +-.036 -3469446951953615e-33 .035 -1 0 0 0 -1 0
 14 694 1543 697 ?690 698 699 6 691 +0 0 690 698 24 51 696 1553 0 698 691 700 0
 +-.036 0 .035 -1 0 0 .003 0 0 1 14 698 1538 701 ?694 702 703 6 696 -0 0 694 702
 24 51 700 1456 0 702 696 704 0 +.032 0 .035 1 0 0 .0017 0 0 -1 14 702 1441 705
 ?698 665 706 6 700 -0 0 698 665 24 50 704 1304 0 665 700 667 0 +.036 0 .035 1 0
 0 0 1 0 14 665 1289 707 ?702 657 708 6 704 +0 0 702 657 24 51 667 1302 0 657 70
4 659 0 +.036 0 .035 1 0 0 .003 0 0 -1 81 1 707 5752 660 665 709 0 663 705 710 1
5 708 1292 0 711 665 712 17 711 0 708 711 711 0 631 625 0 0 -15 712 1293 0 639 6
65 0 17 639 0 712 639 639 0 713 636 0 0 +17 713 0 666 713 713 0 639 636 0 0 -15
 666 1287 0 713 657 714 15 714 4324 0 484 657 0 17 484 0 714 484 484 0 715 481 0
 0 +17 715 0 716 715 715 0 484 481 0 0 -15 716 4333 0 715 717 0 14 717 3743 718
 ?719 720 721 6 722 +0 0 719 720 24 81 1 718 5766 660 717 723 0 724 725 726 14 7
19 4745 725 ?727 717 728 6 729 -0 0 727 717 24 14 720 2739 724 ?717 730 731 6 73
2 +0 0 717 730 24 15 721 4819 0 221 717 716 50 722 3764 0 717 729 733 0 +.0417 .
02195 .0783 1 0 0 0 0 -1 50 729 4768 0 719 734 722 0 +.0405 500000000000014e-19
 .06165 1 0 595613210635814e-30 595613210635814e-30 0 -1 50 733 3176 0 735 722 7
36 0 +.028 .016725 .0783 -1 0 0 0 0 1 14 735 3159 737 ?738 739 740 6 733 -0 0 73
8 739 24 50 736 2756 0 741 733 742 0 +.0345 .00605 .06065 247198095326695e-30 -1
 0 1 247198095326695e-30 0 14 741 2717 743 ?730 744 745 6 736 +0 0 730 744 24 51
 742 2754 0 744 736 732 0 +.03425 .00605 .075175 247198095326695e-30 -1 0 .00112
5 1 247198095326695e-30 0 14 744 2712 746 ?741 747 748 6 742 -0 0 741 747 24 50
 732 2753 0 720 742 749 0 +.0345 .00605 .06065 247198095326695e-30 -1 0 1 247198
095326695e-30 0 51 749 2751 0 730 732 750 0 +.03425 .00605 .048125 2471980953266
95e-30 -1 0 .001125 1 247198095326695e-30 0 14 730 2734 751 ?720 741 752 6 749 -
0 0 720 741 24 50 750 2159 0 275 749 753 0 +.02025 .005225 .0733 0 0 1 1 0 0 14
 275 2106 754 ?755 738 270 6 750 -0 0 755 738 24 50 753 2157 0 756 750 757 0 +.0
28 .02195 .0783 -1 0 0 0 0 1 14 756 2102 758 ?341 755 759 6 753 +0 0 341 755 24
 50 757 2156 0 738 753 760 0 +.02025 .005225 .05 0 0 1 1 0 0 14 738 2092 761 ?27
5 735 762 6 757 +0 0 275 735 24 50 760 2155 0 763 757 764 0 +.03425 500000000000
022e-19 .05 -247198095326695e-30 1 0 -1 -247198095326695e-30 0 14 763 2096 765 ?
747 685 766 6 760 -0 0 747 685 24 50 764 2154 0 755 760 767 0 +.028 .016725 .05
 -1 0 0 0 0 1 14 755 2088 768 ?756 275 769 6 764 +0 0 756 275 24 50 767 2153 0 6
89 764 686 0 +.027 .02195 .0783 -1 0 0 0 0 1 14 689 5279 770 ?739 299 771 6 767
 +739 739 739 299 24 50 686 2152 0 772 767 683 0 +.02025 .005225 .0783 0 0 1 1 0
 0 14 772 2074 773 ?685 693 774 6 686 +0 0 685 693 24 81 1 773 5758 660 772 775
 0 776 777 778 14 685 2078 777 ?763 772 779 6 683 -693 693 763 772 24 14 693 206
0 776 ?772 690 780 6 683 -685 685 772 690 24 15 774 2077 0 197 772 0 17 197 0 77
4 781 782 194 783 558 0 512 +17 781 0 774 161 197 198 512 509 0 784 -17 782 0 77
4 197 785 167 557 554 0 0 -17 783 0 766 174 786 167 197 558 0 782 -17 512 0 721
 221 784 194 781 509 0 786 +17 221 0 721 492 512 218 786 513 0 414 +17 784 0 721
 512 787 198 508 505 0 0 -17 786 0 766 783 414 194 221 513 0 0 -15 766 4433 0 41
4 763 788 17 414 0 766 786 586 218 789 411 0 790 +17 586 0 766 414 166 154 791 5
83 0 789 +17 789 0 792 110 790 154 414 411 0 0 -17 790 0 792 789 217 218 492 489
 0 0 -15 792 2400 0 217 747 0 17 217 0 792 790 110 214 410 396 0 793 -17 492 0 7
21 496 221 214 790 489 0 0 +17 496 0 721 500 492 210 793 493 0 0 +17 500 0 721 7
8 496 206 794 497 0 488 +17 793 0 795 410 213 214 496 493 0 492 -15 795 6 0 213
 796 0 17 410 0 795 797 793 107 217 396 0 370 +17 213 0 795 793 797 210 373 371
 0 794 -17 797 0 795 213 410 111 370 367 0 373 -17 373 0 798 115 794 111 213 371
 0 0 +17 794 0 798 373 209 210 500 497 0 496 -15 798 593 0 209 668 0 17 209 0 79
8 794 115 206 355 347 0 500 -17 115 0 798 209 373 112 132 374 0 799 +17 355 0 44
 387 488 112 209 347 0 0 +17 387 0 44 378 355 121 799 356 0 0 +17 488 0 44 355 3
24 206 78 485 0 0 +17 324 0 44 488 320 75 94 424 0 800 +17 78 0 721 82 500 75 48
8 485 0 324 -17 82 0 721 787 78 79 800 427 0 504 +17 787 0 721 784 82 202 504 50
1 0 508 -17 800 0 801 94 802 75 82 427 0 0 -17 504 0 779 423 205 79 787 501 0 80
2 +15 779 2081 0 504 685 0 17 423 0 779 205 504 83 802 420 0 803 +17 205 0 779 5
04 423 202 803 597 0 787 +17 802 0 801 800 86 79 423 420 0 0 -15 801 4920 0 802
 727 0 17 86 0 801 802 343 83 804 313 0 423 +17 343 0 801 86 334 67 90 344 0 804
 -17 804 0 805 459 806 67 86 313 0 0 -15 805 5031 0 804 807 0 17 459 0 805 458 8
04 63 70 432 0 438 -17 806 0 805 804 458 83 446 443 0 0 -17 458 0 805 806 459 59
 66 451 0 0 -17 446 0 280 298 803 59 806 443 0 457 +17 298 0 280 297 446 226 62
 593 0 0 -17 803 0 280 446 508 83 205 597 0 806 -17 457 0 455 66 808 59 442 439
 0 458 -15 455 5033 0 808 809 0 17 808 0 455 457 456 55 74 447 0 0 -17 442 0 771
 810 62 55 457 439 0 808 +15 771 5273 0 810 689 0 17 810 0 771 811 442 230 58 53
3 0 0 -17 62 0 771 442 811 59 298 593 0 446 +17 811 0 771 62 810 226 233 467 0 2
98 +16 593 5258 812 ?62 594 589 590 594 594 1 81 1 812 5623 31 593 0 0 596 547 8
13 81 1 596 5622 31 594 0 0 306 812 814 81 1 547 5624 31 545 0 0 812 815 816 82
 3 813 298 15 1 81 1 815 5625 31 533 0 0 547 817 818 82 3 816 298 16 1 16 533 52
68 815 ?58 545 529 542 545 545 1 81 1 817 5626 31 673 0 677 815 819 820 82 3 818
 298 17 1 81 1 677 5732 660 673 817 0 672 821 822 81 1 819 5627 31 679 0 821 817
 823 824 82 3 820 298 6 2 14 679 606 821 ?299 673 825 6 681 +673 673 299 673 24
 81 1 821 5733 660 679 819 0 677 688 826 81 1 823 5628 31 739 0 827 819 828 829
 82 3 824 298 7 2 14 739 2082 827 ?735 689 830 6 767 +689 689 735 689 24 81 1 82
7 5736 660 739 823 0 770 737 831 81 1 828 5629 31 689 0 770 823 832 833 82 3 829
 298 8 2 81 1 770 5735 660 689 828 0 688 827 834 81 1 832 5630 31 285 0 0 828 42
 835 82 3 833 298 9 2 16 285 5411 832 ?836 837 273 838 0 0 1 81 1 42 5631 31 467
 0 0 832 32 839 82 3 835 298 18 1 16 467 5402 42 ?811 300 837 470 0 0 1 82 3 839
 298 19 1 16 837 5373 840 ?245 467 285 841 0 0 1 30 470 5538 0 467 841 468 0 +.0
27 .02195 .0713 0 1 0 30 841 5539 0 837 838 470 0 +.03425 .01945 .0713 1 0 0 31
 838 5540 0 285 286 841 0 +693889390390723e-31 303576608295941e-32 .0713 0 0 1 1
 0 0 .033 30 286 5541 0 273 842 838 0 +.03425 .02445 .0733 -1 0 0 30 842 5542 0
 279 843 286 0 +.027 .02195 .0733 0 -1 0 16 279 5428 306 ?278 273 844 842 0 0 1
 31 843 5543 0 844 845 842 0 +693889390390723e-31 303576608295941e-32 .0733 0 0
 -1 -1 0 0 .033 16 844 5431 846 ?847 279 295 843 0 0 1 30 845 5545 0 295 296 843
 0 +.036 .02755 .0713 0 -1 0 16 295 5382 848 ?289 844 276 845 0 0 1 30 296 5546
 0 276 0 845 0 +.036 .02755 .0733 0 -1 0 81 1 848 5592 31 295 0 0 260 294 849 17
 289 0 287 265 249 242 291 295 0 292 +17 291 0 850 229 245 246 289 295 0 297 -17
 292 0 674 682 277 242 265 293 0 0 -17 682 0 674 181 292 234 245 837 0 851 -17 2
77 0 674 292 852 262 225 607 0 0 -17 852 0 674 277 606 222 461 453 0 480 -17 225
 0 270 106 271 222 277 607 0 852 +17 106 0 270 853 225 103 480 477 0 567 -17 853
 0 270 261 106 171 567 559 0 854 -17 480 0 728 461 855 222 106 477 0 0 +17 567 0
 766 472 174 103 853 559 0 855 +17 472 0 766 856 567 99 855 462 0 857 +17 174 0
 766 567 783 171 178 562 0 853 +17 855 0 728 480 857 103 472 462 0 0 -15 728 474
8 0 461 719 0 17 857 0 728 855 461 99 98 473 0 0 -17 461 0 728 857 480 95 852 45
3 0 0 +17 98 0 762 858 102 95 857 473 0 606 +15 762 2095 0 102 738 0 17 858 0 76
2 859 98 175 606 601 0 0 -17 102 0 762 98 860 99 856 575 0 472 +17 606 0 674 852
 181 95 858 601 0 461 +17 181 0 674 606 682 175 851 520 0 861 +17 851 0 740 862
 861 234 181 520 0 0 -17 861 0 740 851 185 175 859 576 0 858 +15 740 5247 0 862
 735 0 17 185 0 740 861 862 182 863 523 0 613 +17 859 0 762 860 858 182 861 576
 0 574 -16 576 2987 864 ?861 571 583 568 571 571 1 81 1 864 3256 31 576 0 0 573
 526 865 81 1 573 3255 31 571 0 0 184 864 866 81 1 526 3259 31 524 0 0 864 507 8
67 82 3 865 284 6 1 81 1 507 3564 31 505 0 0 526 511 868 82 3 867 284 9 1 81 1 5
11 3619 31 509 0 0 507 204 869 82 3 868 285 16 1 81 1 204 3662 31 202 0 0 511 20
0 870 82 3 869 285 12 1 81 1 200 3666 31 198 0 0 204 196 871 82 3 870 285 1 0 81
 1 196 3686 31 194 0 0 200 561 872 82 3 871 285 3 0 81 1 561 3889 31 558 0 0 196
 600 873 82 3 872 285 11 0 81 1 600 3890 31 598 0 0 561 775 874 82 3 873 286 3 1
 81 1 775 3904 31 772 0 773 600 483 875 82 3 874 286 4 1 81 1 483 4217 31 481 0
 0 775 491 876 82 3 875 286 6 2 81 1 491 4236 31 489 0 0 483 495 877 82 3 876 28
7 8 1 81 1 495 4239 31 493 0 0 491 499 878 82 3 877 287 12 1 81 1 499 4242 31 49
7 0 0 495 220 879 82 3 878 287 16 1 81 1 220 4276 31 218 0 0 499 216 880 82 3 87
9 287 4 1 81 1 216 4278 31 214 0 0 220 212 881 82 3 880 287 7 0 81 1 212 4280 31
 210 0 0 216 208 882 82 3 881 287 9 0 81 1 208 4282 31 206 0 0 212 354 883 82 3
 882 287 3 0 81 1 354 4460 31 347 0 0 208 372 884 82 3 883 287 1 0 81 1 372 4461
 31 371 0 0 354 413 885 82 3 884 288 0 1 81 1 413 4463 31 411 0 0 372 409 886 82
 3 885 288 1 1 81 1 409 4464 31 396 0 0 413 887 888 82 3 886 288 3 1 81 1 887 44
68 31 668 0 889 409 890 891 82 3 888 288 4 1 14 668 594 889 ?323 892 798 6 893 +
0 0 323 892 24 81 1 889 5748 660 668 887 0 894 662 895 81 1 890 4470 31 657 0 66
3 887 896 897 82 3 891 288 0 2 81 1 663 5751 660 657 890 0 656 707 898 81 1 896
 4471 31 747 0 899 890 900 901 82 3 897 288 2 2 14 747 2399 899 ?744 763 792 6 9
02 -0 0 744 763 24 81 1 899 5761 660 747 896 0 765 746 903 81 1 900 4472 31 796
 0 904 896 471 905 82 3 901 288 3 2 14 796 1 904 ?331 341 795 6 671 +341 341 331
 341 24 81 1 904 5743 660 796 900 0 906 907 908 81 1 471 4709 31 462 0 0 900 909
 910 82 3 905 288 4 2 81 1 909 4747 31 719 0 725 471 911 912 82 3 910 291 11 1 8
1 1 725 5767 660 719 909 0 718 913 914 81 1 911 4825 31 1 0 915 909 224 916 82 3
 912 291 5 2 81 1 915 5728 917 1 911 14 0 0 918 81 1 224 4826 31 222 0 0 911 105
 919 82 3 916 240 0 3 81 1 105 4827 31 103 0 0 224 97 920 82 3 919 292 0 0 81 1
 97 4828 31 95 0 0 105 101 921 82 3 920 292 1 0 81 1 101 4829 31 99 0 0 97 515 9
22 82 3 921 292 2 0 81 1 515 4830 31 513 0 0 101 578 923 82 3 922 292 3 0 81 1 5
78 4831 31 575 0 0 515 605 924 82 3 923 292 0 1 81 1 605 4832 31 601 0 0 578 566
 925 82 3 924 292 1 1 81 1 566 4833 31 559 0 0 605 479 926 82 3 925 292 2 1 81 1
 479 4835 31 477 0 0 566 476 927 82 3 926 292 3 1 81 1 476 4836 31 473 0 0 479 4
60 928 82 3 927 292 5 1 81 1 460 4837 31 453 0 0 476 929 930 82 3 928 292 6 1 81
 1 929 4838 31 763 0 765 460 931 932 82 3 930 292 7 1 81 1 765 5760 660 763 929
 0 777 899 933 81 1 931 4840 31 738 0 761 929 89 934 82 3 932 292 0 2 81 1 761 5
738 660 738 931 0 737 754 935 81 1 89 4951 31 87 0 0 931 93 936 82 3 934 292 2 2
 81 1 93 4952 31 91 0 0 89 81 937 82 3 936 293 0 0 81 1 81 4955 31 79 0 0 93 77
 938 82 3 937 293 1 0 81 1 77 4956 31 75 0 0 81 419 939 82 3 938 293 4 0 81 1 41
9 4957 31 335 0 0 77 422 940 82 3 939 293 5 0 81 1 422 4960 31 420 0 0 419 426 9
41 82 3 940 293 0 1 81 1 426 4961 31 424 0 0 422 429 942 82 3 941 293 3 1 81 1 4
29 4962 31 427 0 0 426 503 943 82 3 942 293 4 1 81 1 503 4966 31 501 0 0 429 603
 944 82 3 943 293 5 1 81 1 603 4967 31 597 0 0 503 487 945 82 3 944 293 9 1 81 1
 487 4968 31 485 0 0 603 946 947 82 3 945 293 10 1 81 1 946 4973 31 685 0 777 48
7 723 948 82 3 947 293 11 1 81 1 777 5759 660 685 946 0 773 765 949 81 1 723 497
5 31 717 0 718 946 57 950 82 3 948 293 4 2 81 1 57 5070 31 55 0 0 723 73 951 82
 3 950 293 6 2 81 1 73 5071 31 71 0 0 57 61 952 82 3 951 294 0 0 81 1 61 5072 31
 59 0 0 73 65 953 82 3 952 294 1 0 81 1 65 5073 31 63 0 0 61 69 954 82 3 953 294
 2 0 81 1 69 5074 31 67 0 0 65 85 955 82 3 954 294 3 0 81 1 85 5075 31 83 0 0 69
 449 956 82 3 955 294 4 0 81 1 449 5076 31 447 0 0 85 441 957 82 3 956 294 5 0 8
1 1 441 5077 31 439 0 0 449 452 958 82 3 957 294 0 1 82 3 958 294 1 1 80 1 660 0
 959 8001 0 0 0 0 3 5 0 0 0 FFFFTFTFFFFFFF2 83 255 3 949 .3254901960784315 .5294
11764705882 .752941176470588 79 15 959 SDL/TYSA_COLOUR81 1 737 5737 660 735 960
 0 827 761 961 81 1 754 5739 660 275 962 0 761 768 963 83 3 935 .325490196078431
5 .529411764705882 .752941176470588 81 1 962 5598 31 275 0 754 609 964 965 81 1
 768 5740 660 755 966 0 754 758 967 83 3 963 .3254901960784315 .529411764705882
 .752941176470588 81 1 966 3250 31 755 0 768 968 184 969 81 1 758 5741 660 756 9
68 0 768 906 970 83 3 967 .3254901960784315 .529411764705882 .752941176470588 81
 1 968 3249 31 756 0 758 556 966 971 81 1 906 5742 660 341 972 0 758 904 973 83
 3 970 .3254901960784315 .529411764705882 .752941176470588 14 341 1778 906 ?796
 756 339 6 671 +796 796 796 756 24 81 1 972 5727 31 341 0 906 974 0 975 83 3 973
 .3254901960784315 .529411764705882 .752941176470588 81 1 974 5726 31 323 0 662
 976 972 977 82 3 975 319 4 2 81 1 662 5749 660 323 974 0 889 656 978 81 1 976 5
725 31 331 0 907 661 974 979 82 3 977 319 3 2 14 331 608 907 ?653 796 329 6 980
 -0 0 653 796 24 81 1 907 5744 660 331 976 0 904 981 982 81 1 661 5724 31 655 0
 656 349 976 983 82 3 979 319 2 2 81 1 349 5723 31 20 0 984 345 661 985 82 3 983
 319 1 2 14 20 5687 984 ?0 986 326 6 7 -0 0 0 986 24 81 1 984 5773 660 20 349 0
 987 0 988 82 3 985 319 0 2 81 1 987 5772 660 986 964 0 989 984 990 83 3 988 .32
54901960784315 .529411764705882 .752941176470588 14 986 5504 987 ?20 288 850 6 7
34 +0 0 20 288 24 81 1 964 5599 31 986 0 987 962 991 992 81 1 989 5771 660 288 9
91 0 993 987 994 83 3 990 .3254901960784315 .529411764705882 .752941176470588 14
 288 5508 989 ?986 809 287 6 995 +0 0 986 809 24 81 1 991 5600 31 288 0 989 964
 960 996 81 1 993 5770 660 809 997 0 998 989 999 83 3 994 .3254901960784315 .529
411764705882 .752941176470588 14 809 5032 993 ?288 807 455 6 1000 -0 0 288 807 2
4 81 1 997 5087 31 809 0 993 431 1001 1002 81 1 998 5769 660 807 1001 0 913 993
 1003 83 3 999 .3254901960784315 .529411764705882 .752941176470588 14 807 5030 9
98 ?809 727 805 6 21 -0 0 809 727 24 81 1 1001 5088 31 807 0 998 997 1004 1005 8
1 1 913 5768 660 727 1004 0 725 998 1006 83 3 1003 .3254901960784315 .5294117647
05882 .752941176470588 14 727 4919 913 ?807 719 801 6 1007 -0 0 807 719 24 81 1
 1004 5091 31 727 0 913 1001 260 1008 83 3 1006 .3254901960784315 .5294117647058
82 .752941176470588 81 1 260 5591 31 258 0 0 1004 848 1009 82 3 1008 294 4 2 82
 3 1009 298 0 0 50 1007 4935 1010 727 902 1000 0 +.02043009498825975 .0308481963
61711 .04 -.2883270393121325 -.957531993408836 0 0 0 -1 81 2 1010 4936 1011 1007
 0 0 1012 1013 1014 1015 50 902 2411 1012 747 980 1007 0 +1223630571867142e-33 -
.00495 .04 -1747954495019045e-31 .707106781186547 -.707106781186548 -1 -24719809
5326695e-30 0 50 1000 5051 1016 809 1007 21 0 -.022 0 .04 -.707106781186547 0 .7
07106781186548 0 -1 0 81 2 1016 5052 1011 1000 0 0 1013 19 1017 1018 50 21 5049
 1013 807 1000 7 0 -.03425 .02445 .045 0 .707106781186547 .707106781186548 1 0 0
 81 2 1013 5050 1011 21 0 0 1010 1016 1019 1020 80 2 1011 1021 1022 8044 0 0 0 0
 3 5 0 0 0 FFFFTFFFTTFFFF3 2 84 255 6 1019 BAAAAB83 3 1020 0 .00707106781186547
 .005 79 17 1022 SDL/TYSA_BLEND_ID81 2 19 5700 1011 7 0 0 1016 0 1023 1024 84 6
 1017 BAAAAB83 3 1018 0 .00707106781186547 .005 84 6 1023 BAAAAB83 3 1024 0 .007
01055254531279 .0057282196186948 81 2 1012 2412 1011 902 0 0 0 1010 1025 1026 51
 980 618 0 331 681 902 0 --1457167719820518e-31 433680868994202e-33 .04 0 0 -1 .
037 -1 0 0 51 681 617 0 673 1027 980 0 -693889390390723e-31 303576608295941e-32
 .04 0 0 -1 .033 -1 0 0 50 1027 614 0 1028 1029 681 0 +-.0326190128606002 .0025
 .04 -1 0 0 0 0 1 14 1028 600 1030 ?892 653 1031 6 1027 -0 0 892 653 24 50 1029
 613 0 653 1032 1027 0 +-.03683030277982335 -.005 .04 0 1 0 0 0 1 14 653 598 981
 ?1028 331 645 6 1029 -0 0 1028 331 24 50 1032 612 0 892 893 1029 0 +.0326190128
606002 .0025 .04 -1 0 0 0 0 1 14 892 596 894 ?668 1028 1033 6 1032 +0 0 668 1028
 24 50 893 611 0 668 669 1032 0 +.03463980921012345 -.005 .04 0 -1 0 0 0 -1 50 6
69 558 0 323 671 893 0 +0 0 .03 0 0 1 1 0 0 50 671 3 0 341 659 669 0 +0 0 .04 0
 0 1 1 0 0 81 1 894 5747 660 892 1034 0 1030 889 1035 15 1033 1406 0 1036 892 10
37 17 1036 0 1033 1036 1036 0 635 632 0 0 -15 1037 595 0 799 892 0 17 799 0 1037
 132 124 112 387 356 0 355 -17 132 0 1037 370 799 111 115 374 0 797 -17 124 0 10
37 799 1038 121 149 391 0 1039 +17 1038 0 1037 124 157 146 616 407 0 0 -17 149 0
 680 1040 1039 146 124 391 0 552 -17 1039 0 680 149 128 121 378 337 0 387 -15 68
0 5295 0 863 673 0 17 128 0 680 1039 139 125 1041 397 0 382 +17 378 0 44 1042 38
7 125 1039 337 0 0 +17 1042 0 44 46 378 117 382 379 0 0 -17 46 0 44 40 1042 143
 120 383 0 47 -17 382 0 1043 1041 395 125 1042 379 0 378 +15 1043 599 0 382 1028
 0 17 1041 0 1043 1044 382 116 128 397 0 0 -17 395 0 1043 382 1044 117 654 392 0
 1042 +17 1044 0 1043 395 1041 133 363 352 0 0 -17 654 0 645 142 120 133 395 392
 0 1044 -17 363 0 339 340 136 116 1044 352 0 1041 +17 340 0 339 438 363 71 139 3
46 0 456 -17 136 0 339 363 38 133 142 364 0 654 +17 438 0 339 70 340 63 456 435
 0 0 +17 139 0 680 128 74 116 340 346 0 363 +17 456 0 455 808 66 71 438 435 0 0
 -17 74 0 680 139 58 71 808 447 0 340 +17 58 0 680 74 836 55 810 533 0 442 +17 8
36 0 680 58 863 230 241 285 0 810 +17 863 0 680 836 613 238 185 523 0 0 -17 241
 0 850 237 233 238 836 285 0 862 -15 850 5507 0 233 986 0 17 237 0 850 245 241 2
34 862 303 0 682 +17 233 0 850 241 229 230 811 467 0 836 -17 862 0 740 185 851 2
38 237 303 0 863 -17 229 0 850 233 291 226 297 300 0 811 -17 245 0 850 291 237 2
42 682 837 0 289 +17 613 0 680 863 1040 182 153 610 0 859 +16 523 3041 1045 ?185
 524 520 521 524 524 1 81 1 1045 5596 31 523 0 0 564 609 1046 81 1 564 5595 31 5
53 0 0 522 1045 1047 81 1 609 5597 31 607 0 0 1045 962 1048 82 3 1046 298 4 1 82
 3 1048 298 5 1 81 1 522 5594 31 520 0 0 294 564 1049 82 3 1047 298 3 1 81 1 294
 5593 31 276 0 0 848 522 1050 82 3 1049 298 2 1 82 3 1050 298 1 1 17 1040 0 680
 613 149 150 552 549 0 0 -17 153 0 769 1051 574 150 613 610 0 582 -15 769 2091 0
 574 755 0 17 1051 0 769 170 153 163 582 570 0 0 -17 574 0 769 153 170 182 860 5
71 0 0 +17 582 0 780 552 791 150 1051 570 0 1040 +15 780 2063 0 582 693 0 17 552
 0 780 616 582 146 1040 549 0 1038 +17 791 0 780 582 616 163 586 583 0 1051 -17
 616 0 780 791 552 154 1038 407 0 586 +17 170 0 769 574 1051 162 166 579 0 856 -
17 860 0 762 102 859 162 574 571 0 0 -17 166 0 766 586 856 163 170 579 0 791 +17
 856 0 766 166 472 162 102 575 0 860 -17 70 0 339 90 438 67 459 432 0 343 +17 15
7 0 1037 1038 370 154 110 415 0 616 +17 370 0 1037 157 132 107 797 367 0 0 +17 1
10 0 792 217 789 107 157 415 0 410 -17 635 0 706 635 635 0 1036 632 0 0 +15 706
 1444 0 635 702 1052 15 1052 1445 0 631 702 0 17 631 0 1052 631 631 0 711 625 0
 0 +81 1 1034 2436 31 892 0 894 369 543 1053 81 1 1030 5746 660 1028 1054 0 981
 894 1055 83 3 1035 .3254901960784315 .529411764705882 .752941176470588 81 1 105
4 1632 31 1028 0 1030 1056 1057 1058 81 1 981 5745 660 653 1059 0 907 1030 1060
 83 3 1055 .3254901960784315 .529411764705882 .752941176470588 81 1 1059 1197 31
 653 0 981 366 638 1061 83 3 1060 .3254901960784315 .529411764705882 .7529411764
70588 81 1 366 1194 31 364 0 0 385 1059 1062 81 1 638 1318 31 636 0 0 1059 709 1
063 82 3 1061 244 0 2 81 1 709 1320 31 665 0 707 638 634 1064 82 3 1063 248 3 1
 81 1 634 1466 31 632 0 0 709 630 1065 82 3 1064 248 1 2 81 1 630 1467 31 625 0
 0 634 1066 1067 82 3 1065 250 0 1 81 1 1066 1468 31 702 0 705 630 627 1068 82 3
 1067 250 1 1 81 1 705 5753 660 702 1066 0 707 701 1069 81 1 627 1558 31 620 0 0
 1066 623 1070 82 3 1068 250 0 2 81 1 623 1559 31 621 0 0 627 1071 1072 82 3 107
0 254 0 1 81 1 1071 1560 31 698 0 701 623 1056 1073 82 3 1072 254 1 1 81 1 701 5
754 660 698 1071 0 705 697 1074 81 1 1056 1631 31 690 0 692 1071 1054 1075 82 3
 1073 254 0 2 81 1 692 5756 660 690 1056 0 697 776 1076 82 3 1075 256 0 2 81 1 6
97 5755 660 694 1057 0 701 692 1077 81 1 776 5757 660 693 1078 0 692 773 1079 83
 3 1076 .3254901960784315 .529411764705882 .752941176470588 81 1 1078 2356 31 69
3 0 776 615 156 1080 83 3 1079 .3254901960784315 .529411764705882 .7529411764705
88 81 1 615 2350 31 407 0 0 551 1078 1081 81 1 156 2425 31 154 0 0 1078 109 1082
 82 3 1080 269 13 2 81 1 109 2426 31 107 0 0 156 417 1083 82 3 1082 270 2 0 81 1
 417 2428 31 415 0 0 109 369 1084 82 3 1083 270 3 0 81 1 369 2432 31 367 0 0 417
 1034 1085 82 3 1084 270 1 1 82 3 1085 270 5 1 81 1 551 2347 31 549 0 0 152 615
 1086 82 3 1081 269 29 1 81 1 152 2341 31 150 0 0 148 551 1087 82 3 1086 269 26
 1 81 1 148 2338 31 146 0 0 581 152 1088 82 3 1087 269 12 0 81 1 581 2312 31 570
 0 0 585 148 1089 82 3 1088 269 9 0 81 1 585 2309 31 583 0 0 399 581 1090 82 3 1
089 269 13 1 81 1 399 2299 31 391 0 0 173 585 1091 82 3 1090 269 10 1 81 1 173 2
041 31 171 0 0 177 399 1092 82 3 1091 269 0 1 81 1 177 2037 31 167 0 0 165 173 1
093 82 3 1092 264 0 0 81 1 165 2035 31 163 0 0 169 177 1094 82 3 1093 264 1 0 81
 1 169 2027 31 162 0 0 160 165 1095 82 3 1094 262 0 0 81 1 160 2018 31 158 0 0 5
69 169 1096 82 3 1095 262 1 0 81 1 569 1916 31 562 0 0 588 160 1097 82 3 1096 25
8 7 0 81 1 588 1898 31 579 0 0 404 569 1098 82 3 1097 264 0 1 81 1 404 1635 31 4
02 0 0 618 588 1099 82 3 1098 262 0 1 81 1 618 1634 31 406 0 0 1057 404 1100 82
 3 1099 256 1 1 81 1 1057 1633 31 694 0 697 1054 618 1101 82 3 1100 256 0 1 82 3
 1101 256 2 2 83 3 1077 .3254901960784315 .529411764705882 .752941176470588 83 3
 1074 .3254901960784315 .529411764705882 .752941176470588 83 3 1069 .32549019607
84315 .529411764705882 .752941176470588 81 1 385 1193 31 383 0 0 141 366 1102 82
 3 1062 244 1 1 81 1 141 1100 31 129 0 0 145 385 1103 82 3 1102 244 0 1 81 1 145
 1096 31 143 0 0 642 141 1104 82 3 1103 243 3 0 82 3 1104 243 1 0 82 3 1058 256
 1 2 81 1 543 2762 31 528 0 0 1034 540 1105 82 3 1053 270 2 2 81 1 540 2763 31 5
38 0 0 543 536 1106 82 3 1105 275 0 1 81 1 536 2764 31 534 0 0 540 531 1107 82 3
 1106 275 1 1 81 1 531 2765 31 529 0 0 536 1108 1109 82 3 1107 275 2 1 81 1 1108
 2766 31 730 0 751 531 1110 1111 82 3 1109 275 3 1 81 1 751 5764 660 730 1108 0
 743 724 1112 81 1 1110 2767 31 720 0 724 1108 1113 1114 82 3 1111 275 0 2 81 1
 724 5765 660 720 1110 0 751 718 1115 81 1 1113 2768 31 744 0 746 1110 1116 1117
 82 3 1114 275 1 2 81 1 746 5762 660 744 1113 0 899 743 1118 81 1 1116 2769 31 7
41 0 743 1113 518 1119 82 3 1117 275 2 2 81 1 743 5763 660 741 1116 0 746 751 11
20 81 1 518 3085 31 516 0 0 1116 192 1121 82 3 1119 275 3 2 81 1 192 3127 31 190
 0 0 518 180 1122 82 3 1121 283 7 1 81 1 180 3238 31 175 0 0 192 188 1123 82 3 1
122 283 1 0 81 1 188 3240 31 186 0 0 180 591 1124 82 3 1123 284 0 0 81 1 591 324
1 31 589 0 0 188 612 1125 82 3 1124 284 2 0 81 1 612 3243 31 610 0 0 591 556 112
6 82 3 1125 284 0 1 81 1 556 3244 31 554 0 0 612 968 1127 82 3 1126 284 2 1 82 3
 1127 284 3 1 83 3 1120 .3254901960784315 .529411764705882 .752941176470588 83 3
 1118 .3254901960784315 .529411764705882 .752941176470588 83 3 1115 .32549019607
84315 .529411764705882 .752941176470588 83 3 1112 .3254901960784315 .52941176470
5882 .752941176470588 15 1031 1577 0 619 1028 1043 17 619 0 1031 619 619 0 1128
 406 0 0 +17 1128 0 1129 1128 1128 0 619 406 0 0 -15 1129 1603 0 1128 690 0 84 6
 1025 BAAAAB83 3 1026 -252435489670724e-43 .00707106781186547 .005 84 6 1014 BAA
AAB83 3 1015 0 .0896488807410417 .155463880451377 82 3 1005 294 1 2 81 1 431 508
6 31 344 0 0 351 997 1130 82 3 1002 294 0 2 81 1 351 5084 31 346 0 0 445 431 113
1 82 3 1130 294 10 1 81 1 445 5082 31 443 0 0 434 351 1132 82 3 1131 294 8 1 81
 1 434 5081 31 432 0 0 450 445 1133 82 3 1132 294 6 1 81 1 450 5080 31 313 0 0 4
37 434 1134 82 3 1133 294 5 1 81 1 437 5079 31 435 0 0 452 450 1135 82 3 1134 29
4 4 1 82 3 1135 294 3 1 81 1 960 5601 31 735 0 737 991 676 1136 82 3 996 298 2 2
 81 1 676 5602 31 17 0 672 960 1137 1138 82 3 1136 298 3 2 81 1 1137 5603 31 299
 0 688 676 264 1139 82 3 1138 298 4 2 81 1 688 5734 660 299 1137 0 821 770 1140
 81 1 264 5604 31 262 0 0 1137 244 1141 82 3 1139 298 5 2 81 1 244 5605 31 242 0
 0 264 248 1142 82 3 1141 298 1 0 81 1 248 5606 31 246 0 0 244 267 1143 82 3 114
2 298 2 0 82 3 1143 298 3 0 83 3 1140 .3254901960784315 .529411764705882 .752941
176470588 50 995 5531 0 288 0 734 0 +.036 .02755 .0723 -1 0 0 0 0 1 50 734 5530
 0 986 995 729 0 +.0312904883999866 .02755 .0713 0 0 1 1 0 0 82 3 992 298 1 2 83
 3 982 .3254901960784315 .529411764705882 .752941176470588 83 3 978 .32549019607
84315 .529411764705882 .752941176470588 82 3 971 284 3 2 81 1 184 3253 31 182 0
 0 966 573 1144 82 3 969 284 4 2 82 3 1144 284 3 0 82 3 965 298 0 2 83 3 961 .32
54901960784315 .529411764705882 .752941176470588 83 3 933 .3254901960784315 .529
411764705882 .752941176470588 80 1 917 1145 1146 8038 0 0 0 0 0 0 0 0 0 TTTTTTTT
TTTTTF10 81 1 14 5729 1145 1 915 2 0 0 1147 98 255 6 918 80 97 114 116 32 53 80
 1 1145 1148 1149 8017 0 0 0 0 0 0 0 0 0 TTTTTTTTTTTTTF3 84 6 1147 Part 579 13 1
149 SDL/TYSA_NAME79 14 1146 SDL/TYSA_UNAME83 3 914 .3254901960784315 .5294117647
05882 .752941176470588 83 3 908 .3254901960784315 .529411764705882 .752941176470
588 83 3 903 .3254901960784315 .529411764705882 .752941176470588 83 3 898 .32549
01960784315 .529411764705882 .752941176470588 83 3 895 .3254901960784315 .529411
764705882 .752941176470588 82 3 866 284 5 1 17 178 0 759 557 854 167 174 562 0 7
83 -15 759 2105 0 557 756 0 17 557 0 759 527 178 186 782 554 0 0 +17 854 0 759 1
78 527 171 261 553 0 0 -17 527 0 759 854 557 258 189 524 0 0 +17 261 0 270 257 8
53 258 854 553 0 847 +17 257 0 270 253 261 254 847 844 0 278 -17 847 0 825 189 5
48 258 257 844 0 527 +15 825 605 0 548 679 0 17 189 0 825 519 847 186 527 524 0
 785 -17 548 0 825 847 519 254 1150 545 0 0 +17 519 0 825 548 189 190 785 516 0
 0 +17 1150 0 830 592 278 190 548 545 0 519 -15 830 2087 0 283 739 0 17 592 0 83
0 283 1150 158 193 589 0 281 +17 278 0 830 1150 283 254 253 279 0 548 +17 283 0
 830 278 592 250 281 594 0 0 +17 281 0 280 201 272 158 283 594 0 0 -17 201 0 280
 508 281 198 161 598 0 781 +17 508 0 280 803 201 202 784 505 0 0 +17 161 0 774 1
93 781 158 201 598 0 592 -17 193 0 774 785 161 190 592 589 0 1150 -17 785 0 774
 782 193 186 519 516 0 557 -82 3 849 298 0 1 81 1 846 5614 31 844 0 0 232 284 11
51 81 1 232 5613 31 230 0 0 256 846 1152 81 1 284 5615 31 273 0 0 846 312 1153 8
2 3 1151 298 6 1 81 1 312 5616 31 303 0 0 284 840 1154 82 3 1153 298 7 1 81 1 84
0 5617 31 837 0 0 312 465 1155 82 3 1154 298 8 1 81 1 465 5618 31 300 0 0 840 30
5 1156 82 3 1155 298 9 1 82 3 1156 298 10 1 81 1 256 5612 31 254 0 0 228 232 115
7 82 3 1152 298 10 0 81 1 228 5611 31 226 0 0 252 256 1158 82 3 1157 298 9 0 81
 1 252 5610 31 250 0 0 240 228 1159 82 3 1158 298 8 0 81 1 240 5609 31 238 0 0 2
36 252 1160 82 3 1159 298 7 0 81 1 236 5608 31 234 0 0 267 240 1161 82 3 1160 29
8 6 0 82 3 1161 298 5 0 81 1 306 5621 31 279 0 0 301 596 1162 82 3 1162 298 13 1
 83 3 834 .3254901960784315 .529411764705882 .752941176470588 83 3 831 .32549019
60784315 .529411764705882 .752941176470588 83 3 826 .3254901960784315 .529411764
705882 .752941176470588 83 3 822 .3254901960784315 .529411764705882 .75294117647
0588 82 3 814 298 14 1 17 334 0 801 343 94 87 330 335 0 0 -17 94 0 801 334 800 9
1 324 424 0 330 -15 788 2693 0 1163 763 1164 17 1163 0 788 1163 1163 0 544 528 0
 0 -15 1164 2686 0 1165 763 0 17 1165 0 1164 1165 1165 0 537 534 0 0 -17 537 0 1
166 537 537 0 1165 534 0 0 +15 1166 2716 0 537 744 0 17 544 0 1167 544 544 0 116
3 528 0 0 +15 1167 2738 0 544 730 0 83 3 778 .3254901960784315 .529411764705882
 .752941176470588 15 752 2737 0 1168 730 1167 17 1168 0 752 1168 1168 0 541 538
 0 0 -17 541 0 731 541 541 0 1168 538 0 0 +15 731 2742 0 541 720 0 15 748 2715 0
 1169 744 1166 17 1169 0 748 1169 1169 0 532 529 0 0 -17 532 0 745 532 532 0 116
9 529 0 0 +15 745 2720 0 532 741 0 83 3 726 .3254901960784315 .529411764705882 .
752941176470588 83 3 710 .3254901960784315 .529411764705882 .752941176470588 15
 703 1541 0 1170 698 1171 17 1170 0 703 1170 1170 0 624 621 0 0 -15 1171 1542 0
 628 698 0 17 628 0 1171 628 628 0 670 620 0 0 +17 670 0 658 670 670 0 628 620 0
 0 -17 624 0 1172 624 624 0 1170 621 0 0 +15 1172 1546 0 624 694 0 15 699 1571 0
 1173 694 1172 17 1173 0 699 1173 1173 0 405 402 0 0 -17 405 0 695 405 405 0 117
3 402 0 0 +15 695 1602 0 405 690 1129 83 3 678 .3254901960784315 .52941176470588
2 .752941176470588 83 3 664 .3254901960784315 .529411764705882 .752941176470588
 81 1 386 712 31 356 0 0 362 642 1174 82 3 644 243 5 1 81 1 362 705 31 352 0 0 3
81 386 1175 82 3 1174 240 24 1 81 1 381 704 31 379 0 0 377 362 1176 82 3 1175 24
0 17 1 81 1 377 698 31 337 0 0 390 381 1177 82 3 1176 240 16 1 81 1 390 695 31 3
74 0 0 401 377 1178 82 3 1177 240 10 1 81 1 401 690 31 397 0 0 394 390 1179 82 3
 1178 240 7 1 81 1 394 688 31 392 0 0 131 401 1180 82 3 1179 240 2 1 81 1 131 68
3 31 111 0 0 114 394 1181 82 3 1180 240 0 1 81 1 114 682 31 112 0 0 123 131 1182
 82 3 1181 240 15 0 81 1 123 678 31 121 0 0 138 114 1183 82 3 1182 240 14 0 81 1
 138 673 31 116 0 0 127 123 1184 82 3 1183 240 10 0 81 1 127 672 31 125 0 0 135
 138 1185 82 3 1184 240 5 0 81 1 135 669 31 133 0 0 119 127 1186 82 3 1185 240 4
 0 81 1 119 668 31 117 0 0 0 135 1187 82 3 1186 240 1 0 82 3 1187 240 0 0 82 3 4
66 298 11 1 82 3 454 294 2 1 82 3 350 319 7 1 81 1 308 5716 31 302 0 0 317 318 1
188 82 3 319 319 2 1 81 1 317 5715 31 310 0 0 53 308 1189 82 3 1188 319 1 1 81 1
 53 5714 31 49 0 0 33 317 1190 82 3 1189 319 0 1 81 1 33 5713 31 41 0 0 28 53 11
91 82 3 1190 319 3 0 82 3 1191 319 2 0 82 3 307 298 12 1 82 3 269 298 4 0 82 3 4
3 319 0 0 82 3 34 319 1 0 19 18 630 0 1 0 10 6 S0 74 4 CI16 index_map_offset0 0
 1 dCCZ20 16 6 0 0 972 19 915 14 2 984 0 0 0 0 0 0 0 0 0 0 0 0 0 0 80 1 13 660 1
192 8040 0 0 0 0 3 5 0 0 0 TTTFFFFFFFFFFF2 83 3 15 .3254901960784315 .5294117647
05882 .752941176470588 79 17 1192 SDL/TYSA_COLOUR_21 0 
