**ABCDEFGHIJKLMNOPQRSTUVWXYZabcdefghijklmnopqrstuvwxyz**************************
**PARASOLID !"#$%&'()*+,-./:;<=>?@[\]^_`{|}~0123456789**************************
**PART1;
MC=unknown;
MC_MODEL=unknown;
MC_ID=unknown;
OS=unknown;
OS_RELEASE=unknown;
FRU=Parasolid 32.1.212;
APPL=Onshape;
SITE=unknown;
USER=unknown;
FORMAT=text;
GUISE=transmit;
KEY=BTGapi::writeModels_.xmt;
FILE=BTGapi::writeModels_.xmt;
DATE=2020-09-11T04:24:50 (UTC);
**PART2;
SCH=SCH_3201212_32001;
USFLD_SIZE=0;
**PART3;
**END_OF_HEADER*****************************************************************
T51 : TRANSMIT FILE created by modeller version 320121223 SCH_3201212_32001_1300
6229 0 12 34 CCCCCCI4 mesh1006 0 I8 polyline1008 0 CCCCCCCDI5 owner1040 0 CCCCCC
I13 boundary_mesh1006 0 I17 boundary_polyline1008 0 CCCA16 index_map_offset0 0 1
 dA9 index_map82 0 A17 node_id_index_map82 0 A20 schema_embedding_map82 0 A5 chi
ld12 0 A14 lowest_node_id0 0 1 dA16 mesh_offset_data206 0 Z1 84 2 3 0 0 0 0 0 0
 1e3 1e-8 0 4 0 1 0 1 1 5 6 7 0 0 0 8 9 0 0 0 0 0 0 0 0 81 255 1 2 80 10 1 11 0
 0 0 12 70 11 CI9 list_type0 0 1 uI10 notransmit0 0 1 lCCCDCCDI12 finger_index0
 0 1 dI12 finger_block1012 0 CZ3 0 4 T1 0 0 5 20 1 13 13 13 255 5 62 0 1 0 14 0
 0 15 0 51 255 6 61 0 14 16 0 0 -0 -.12 887868929381831e-33 0 1 0 .0145 0 0 1 31
 255 7 50 0 17 18 0 0 +0 0 933793184349857e-33 0 -1 0 0 0 -1 .01525 19 8 CCCCCCC
A5 owner12 0 Z8 19 0 1 15 0 19 V0 16 255 9 13 20 ?21 0 22 23 0 0 1 81 1 20 70 24
 9 0 0 25 26 27 17 255 21 0 28 21 21 0 29 9 0 0 +16 22 8 30 ?31 9 17 32 0 0 1 31
 23 15 0 9 32 18 0 +0 -.12 933793184349857e-33 0 -1 0 0 0 -1 .01525 31 32 10 0 2
2 0 23 0 +0 -.12 887868929381831e-33 0 -1 0 0 0 -1 .0145 31 18 51 0 33 23 7 0 +0
 0 887868929381831e-33 0 -1 0 0 0 -1 .0145 16 33 45 26 ?34 17 0 18 0 0 1 81 1 26
 71 24 33 0 0 20 30 35 17 34 0 36 34 34 0 37 33 0 0 +16 17 41 25 ?38 22 33 7 0 0
 1 81 1 25 69 24 17 0 0 0 20 39 17 38 0 40 38 38 0 41 17 0 0 +15 255 40 54 0 38
 42 0 17 41 0 43 41 41 0 38 17 0 0 -15 43 40 0 41 44 0 14 255 44 34 45 ?0 46 36
 5 47 -0 0 0 46 19 81 1 45 84 48 44 49 0 50 0 51 14 46 1 50 ?44 42 52 5 53 +0 0
 44 42 19 15 36 39 0 34 44 43 50 255 47 49 0 44 53 16 0 +0 0 0 0 -1 0 1 0 0 13 1
9 20 0 0 0 0 0 0 8 14 14 14 57 54 ?42 0 55 5 6 +0 0 42 0 19 81 1 54 81 48 14 56
 0 0 57 58 14 42 53 57 ?46 14 59 5 16 -0 0 46 14 19 15 55 56 0 31 14 60 17 31 0
 55 31 31 0 61 22 0 0 +15 60 58 0 37 14 0 17 37 0 60 37 37 0 34 33 0 0 -17 61 0
 52 61 61 0 31 22 0 0 -15 52 6 0 61 46 28 15 28 7 0 21 46 0 81 1 57 82 48 42 62
 0 54 50 63 15 59 52 0 29 42 40 51 16 60 0 42 47 6 0 -0 -.12 933793184349857e-33
 0 1 0 .01525 0 0 1 17 29 0 59 29 29 0 21 9 0 0 -80 255 1 48 0 64 8001 0 0 0 0 3
 5 0 0 0 FFFFTFTFFFFFFF2 81 1 62 73 24 42 0 57 30 49 65 81 1 50 83 48 46 66 0 57
 45 67 83 255 3 63 .92156862745098 .8 .654901960784314 81 1 66 75 24 46 0 50 49
 56 68 83 3 67 .92156862745098 .8 .654901960784314 80 1 24 69 70 9000 0 0 0 0 3
 6 0 0 0 FFTFTFTTFFFFFF1 81 1 49 74 24 44 0 45 62 66 71 81 1 56 76 24 14 0 54 66
 72 73 82 255 3 68 6 2 2 81 1 72 77 24 1 0 74 56 0 75 82 3 73 6 3 2 81 1 74 78 7
6 1 72 11 0 0 77 82 3 75 6 0 3 80 1 76 78 79 8038 0 0 0 0 0 0 0 0 0 TTTTTTTTTTTT
TF10 81 1 11 79 78 1 74 2 0 0 80 98 255 8 77 66 111 100 121 84 117 98 101 80 1 7
8 81 82 8017 0 0 0 0 0 0 0 0 0 TTTTTTTTTTTTTF3 84 255 8 80 BodyTube79 255 13 82
 SDL/TYSA_NAME79 14 79 SDL/TYSA_UNAME82 3 71 6 1 2 79 9 70 BTI/DetId81 1 30 72 2
4 22 0 0 26 62 83 82 3 65 6 0 2 82 3 83 6 3 1 79 15 64 SDL/TYSA_COLOUR83 3 58 .9
2156862745098 .8 .654901960784314 50 53 3 0 46 0 47 0 +0 -.12 0 0 -1 0 1 0 0 83
 3 51 .92156862745098 .8 .654901960784314 82 3 39 6 0 1 82 3 35 6 2 1 82 3 27 6
 1 1 19 15 63 0 1 0 8 5 S0 74 4 CI16 index_map_offset0 0 1 dCCZ20 13 5 0 0 72 74
 11 2 45 0 0 0 0 0 0 0 0 0 0 0 0 0 0 0 80 1 10 48 84 8040 0 0 0 0 3 5 0 0 0 TTTF
FFFFFFFFFF2 83 3 12 .92156862745098 .8 .654901960784314 79 17 84 SDL/TYSA_COLOUR
_21 0 
