**ABCDEFGHIJKLMNOPQRSTUVWXYZabcdefghijklmnopqrstuvwxyz**************************
**PARASOLID !"#$%&'()*+,-./:;<=>?@[\]^_`{|}~0123456789**************************
**PART1;
MC=unknown;
MC_MODEL=unknown;
MC_ID=unknown;
OS=unknown;
OS_RELEASE=unknown;
FRU=Parasolid 32.1.212;
APPL=Onshape;
SITE=unknown;
USER=unknown;
FORMAT=text;
GUISE=transmit;
KEY=BTGapi::writeModels_.xmt;
FILE=BTGapi::writeModels_.xmt;
DATE=2020-09-11T04:25:08 (UTC);
**PART2;
SCH=SCH_3201212_32001;
USFLD_SIZE=0;
**PART3;
**END_OF_HEADER*****************************************************************
T51 : TRANSMIT FILE created by modeller version 320121223 SCH_3201212_32001_1300
6229 0 176 6 14 PART_XMT_BLOCK9 Part list9 n_entries0 0 1 d16 index_map_offset0
 0 1 d9 index_map82 0 20 schema_embedding_map82 0 16 mesh_offset_data206 0 7 ent
ries1005 1 T2 1 2 0 0 0 0 2 3 12 34 CCCCCCI4 mesh1006 0 I8 polyline1008 0 CCCCCC
CDI5 owner1040 0 CCCCCCI13 boundary_mesh1006 0 I17 boundary_polyline1008 0 CCCA1
6 index_map_offset0 0 1 dA9 index_map82 0 A17 node_id_index_map82 0 A20 schema_e
mbedding_map82 0 A5 child12 0 A14 lowest_node_id0 0 1 dA16 mesh_offset_data206 0
 Z2 265 4 5 0 0 0 0 0 0 1e3 1e-8 0 6 0 1 0 1 1 7 8 9 10 0 0 11 12 13 0 0 0 0 0 0
 0 12 3 187 14 15 0 0 0 0 0 0 1e3 1e-8 0 16 17 1 0 1 1 18 19 20 21 0 0 22 23 24
 0 0 0 0 0 0 0 81 255 1 14 181 25 3 26 0 0 0 27 70 11 CI9 list_type0 0 1 uI10 no
transmit0 0 1 lCCCDCCDI12 finger_index0 0 1 dI12 finger_block1012 0 CZ15 0 4 T3
 0 0 5 20 1 28 28 13 255 18 137 0 3 0 29 0 0 30 0 50 255 19 132 0 29 31 0 0 +0 -
.0025 0 0 0 -1 -1 0 0 30 255 20 136 0 23 32 0 0 +.012 -.0025 0 0 1 0 29 255 21 1
13 0 33 34 0 -.012 0 0 19 8 CCCCCCCA5 owner12 0 Z22 48 0 3 30 0 35 V0 16 255 23
 120 36 ?37 0 38 20 0 0 3 18 255 24 42 39 40 0 41 42 ?3 81 1 39 155 43 24 0 0 44
 45 46 17 255 40 0 47 48 49 24 50 51 0 52 -18 41 37 53 54 24 55 56 ?3 29 42 44 0
 24 56 57 -.012 -.0025 0 29 56 39 0 41 58 42 -.012 -.0025 .052 29 57 116 0 59 42
 60 .012 0 0 18 59 104 61 37 62 0 57 ?3 29 60 115 0 62 57 34 .012 0 .052 18 62 1
00 45 63 64 59 60 ?3 29 34 114 0 64 60 21 -.012 0 .052 18 64 96 65 66 33 62 34 ?
3 81 1 65 158 43 64 0 0 67 53 68 17 66 0 47 49 48 64 69 70 0 71 +18 33 92 44 50
 72 64 21 ?3 81 1 44 154 43 33 0 0 73 39 74 17 50 0 75 76 52 33 40 51 0 77 +18 7
2 27 73 78 55 33 79 ?3 81 1 73 153 43 72 0 0 61 44 80 17 78 0 75 52 76 72 37 23
 0 81 -18 55 32 67 82 41 72 58 ?3 29 79 29 0 72 0 58 .012 -.0025 0 29 58 34 0 55
 79 56 .012 -.0025 .052 81 1 67 157 43 55 0 0 45 65 83 17 82 0 84 54 85 55 81 86
 0 87 +15 255 84 6 0 85 88 0 17 54 0 84 89 82 41 90 91 0 69 +17 85 0 84 82 89 72
 52 92 0 0 -17 81 0 93 37 87 72 82 86 0 85 -16 86 12 94 ?82 91 92 95 0 0 3 17 87
 0 93 81 63 55 96 38 0 90 -15 93 125 0 63 97 0 17 63 0 93 87 37 62 98 99 0 96 +1
7 96 0 100 71 90 62 87 38 0 101 +16 38 119 102 ?96 23 70 32 0 0 3 17 90 0 100 96
 69 55 54 91 0 0 -15 100 123 0 71 103 0 17 69 0 100 90 71 41 66 70 0 48 -16 91 1
7 104 ?54 105 86 106 0 0 3 81 1 104 167 43 91 0 0 107 108 109 16 105 22 110 ?48
 51 91 111 0 0 3 30 106 19 0 91 95 111 0 +-867361737988404e-32 -.0025 .052 -1 0
 0 30 95 14 0 86 112 106 0 +.012 -.0025 .026 0 0 1 30 111 24 0 105 106 113 0 +-.
012 -.0025 .026 -166800334228539e-30 0 1 30 113 112 0 114 111 115 0 +0 0 0 -1 0
 0 16 114 88 116 ?77 99 0 113 0 0 3 30 115 111 0 99 113 117 0 +.012 0 .026 0 0 1
 16 99 84 108 ?63 118 114 115 0 0 3 30 117 110 0 118 115 119 0 +-867361737988404
e-32 0 .052 -1 0 0 16 118 80 107 ?71 120 99 117 0 0 3 30 119 109 0 120 117 121 0
 +-.012 0 .026 -166800334228539e-30 0 1 16 120 76 122 ?123 92 118 119 0 0 3 30 1
21 133 0 51 119 124 0 +-.012 -.0025 0 0 1 0 16 51 117 125 ?50 70 105 121 0 0 3 3
0 124 134 0 70 121 32 0 +-.012 -.0025 .052 0 1 0 16 70 118 126 ?66 38 51 124 0 0
 3 30 32 135 0 38 124 20 0 +.012 -.0025 .052 0 1 0 81 1 126 163 43 70 0 0 102 11
6 127 80 255 1 43 128 129 9000 0 0 0 0 3 6 0 0 0 FFTFTFTTFFFFFF1 81 1 102 162 43
 38 0 0 125 126 130 81 1 116 164 43 114 0 0 126 131 132 82 255 3 127 6 3 1 81 1
 131 165 43 92 0 0 116 107 133 82 3 132 6 4 1 16 92 7 131 ?52 86 120 112 0 0 3 8
1 1 107 166 43 118 0 0 131 104 134 82 3 133 6 5 1 82 3 134 6 6 1 17 52 0 75 50 7
8 24 85 92 0 89 +30 112 9 0 92 0 95 0 +0 -.0025 0 -1 0 0 15 75 127 0 76 29 0 17
 89 0 84 85 54 24 48 105 0 0 -17 48 0 47 66 40 41 89 105 0 0 +15 47 121 0 49 135
 0 17 49 0 47 40 66 33 123 120 0 0 -14 255 135 122 136 ?88 103 47 18 137 +0 0 88
 103 35 81 1 136 185 138 135 139 0 140 141 142 14 88 1 141 ?143 135 84 18 144 +0
 0 143 135 35 14 103 124 140 ?135 97 100 18 145 -0 0 135 97 35 50 137 129 0 135
 146 145 0 +-.012 -.0025 .026 -1 0 -166800334228539e-30 -166800334228539e-30 0 1
 13 35 49 0 0 0 0 0 0 22 29 14 29 128 147 ?97 0 75 18 19 +0 0 97 0 35 81 1 147 1
82 138 29 148 0 0 149 150 14 97 126 149 ?103 29 93 18 31 -0 0 103 29 35 81 1 149
 183 138 97 151 0 147 140 152 50 31 131 0 97 145 19 0 +.012 -.0025 .026 -1 0 0 0
 0 1 50 145 130 0 103 137 31 0 +-867361737988404e-32 -.0025 .052 0 0 -1 -1 0 0 8
0 1 138 0 153 8001 0 0 0 0 3 5 0 0 0 FFFFTFTFFFFFFF2 81 1 151 176 43 97 0 149 15
4 139 155 81 1 140 184 138 103 154 0 149 136 156 83 255 3 152 .0627450980392157
 .992156862745098 .6 81 1 154 175 43 103 0 140 157 151 158 83 3 156 .06274509803
92157 .992156862745098 .6 81 1 157 174 43 88 0 141 159 154 160 82 3 158 6 3 2 81
 1 141 186 138 88 157 0 136 161 162 81 1 159 173 43 143 0 161 148 157 163 82 3 1
60 6 2 2 14 143 68 161 ?0 88 164 18 146 -0 0 0 88 35 81 1 161 187 138 143 159 0
 141 0 165 81 1 148 172 43 29 0 147 110 159 166 82 3 163 6 1 2 81 1 110 171 43 1
05 0 0 122 148 167 82 3 166 6 0 2 81 1 122 170 43 120 0 0 94 110 168 82 3 167 6
 11 1 81 1 94 169 43 86 0 0 108 122 169 82 3 168 6 10 1 81 1 108 168 43 99 0 0 1
04 94 170 82 3 169 6 9 1 82 3 170 6 8 1 83 3 165 .0627450980392157 .992156862745
098 .6 15 164 75 0 77 143 0 50 146 108 0 143 144 137 0 +-3469446951953615e-33 0
 .026 0 -1 0 1 0 0 50 144 3 0 88 0 146 0 +-3469446951953615e-33 -.0025 .026 0 -1
 0 1 0 0 17 77 0 164 123 98 33 76 114 0 49 +17 123 0 164 101 77 64 49 120 0 0 +1
7 98 0 164 77 101 59 63 99 0 76 -17 76 0 75 78 50 59 77 114 0 0 -17 101 0 164 98
 123 62 71 118 0 0 -17 71 0 100 69 96 64 101 118 0 123 +83 3 162 .06274509803921
57 .992156862745098 .6 81 1 139 177 43 135 0 136 151 171 172 82 3 155 6 4 2 81 1
 171 178 43 3 0 173 139 0 174 82 3 172 6 5 2 81 1 173 179 175 3 171 26 0 0 176 8
2 3 174 6 0 3 80 1 175 177 178 8038 0 0 0 0 0 0 0 0 0 TTTTTTTTTTTTTF10 81 1 26 1
80 177 3 173 14 0 0 179 98 255 3 176 80 67 66 80 1 177 180 181 8017 0 0 0 0 0 0
 0 0 0 TTTTTTTTTTTTTF3 84 255 3 179 PCB79 255 13 181 SDL/TYSA_NAME79 14 178 SDL/
TYSA_UNAME79 15 153 SDL/TYSA_COLOUR83 3 150 .0627450980392157 .992156862745098 .
6 83 3 142 .0627450980392157 .992156862745098 .6 81 1 125 161 43 51 0 0 36 102 1
82 82 3 130 6 2 1 81 1 36 160 43 23 0 0 53 125 183 82 3 182 6 1 1 81 1 53 159 43
 41 0 0 65 36 184 82 3 183 6 0 1 82 3 184 6 7 0 79 9 129 BTI/DetId82 3 109 6 7 1
 17 37 0 93 63 81 59 78 23 0 98 +81 1 45 156 43 62 0 0 39 67 185 82 3 83 6 5 0 8
2 3 185 6 4 0 81 1 61 152 43 59 0 0 0 73 186 82 3 80 6 1 0 82 3 186 6 0 0 82 3 7
4 6 2 0 82 3 68 6 6 0 82 3 46 6 3 0 19 30 138 0 3 0 22 18 S0 74 4 CI16 index_map
_offset0 0 1 dCCZ20 28 5 0 0 171 173 26 14 161 0 0 0 0 0 0 0 0 0 0 0 0 0 0 0 80
 1 25 138 187 8040 0 0 0 0 3 5 0 0 0 TTTFFFFFFFFFFF2 83 3 27 .0627450980392157 .
992156862745098 .6 79 17 187 SDL/TYSA_COLOUR_281 1 4 257 25 2 188 0 0 0 189 70 5
 0 4 T2 0 0 5 20 1 190 190 13 7 195 0 2 0 191 0 0 192 0 50 8 188 0 191 193 0 0 +
-.01 -.00375 .052 0 0 -1 -1 0 0 30 9 194 0 12 194 0 0 +-.008 -.00375 .052 0 1 0
 29 10 159 0 195 196 0 -.012 .00125 .052 19 11 68 0 2 192 0 197 V0 16 12 170 198
 ?199 0 200 9 0 0 2 18 13 62 201 202 0 203 204 ?2 81 1 201 223 43 13 0 0 205 206
 207 17 202 0 208 209 210 13 211 212 0 213 -18 203 57 214 215 13 216 217 ?2 29 2
04 64 0 13 217 218 -.012 -.00375 .052 29 217 59 0 203 219 204 -.012 -.00375 .048
 29 218 164 0 220 204 221 -.008 .00125 .052 18 220 148 222 199 223 0 218 ?2 29 2
21 163 0 223 218 224 -.008 .00125 .053 18 223 144 225 226 227 220 221 ?2 29 224
 162 0 227 221 228 -.013 .00125 .053 18 227 140 229 230 231 223 224 ?2 29 228 16
1 0 231 224 196 -.013 .00125 .048 18 231 136 232 233 234 227 228 ?2 29 196 160 0
 234 228 10 -.012 .00125 .048 18 234 132 206 235 195 231 196 ?2 81 1 206 224 43
 234 0 0 201 214 236 17 235 0 208 210 209 234 215 237 0 238 +18 195 128 205 211
 239 234 10 ?2 81 1 205 222 43 195 0 0 240 201 241 17 211 0 242 243 213 195 202
 212 0 244 +18 239 37 245 246 247 195 248 ?2 81 1 245 219 43 239 0 0 222 225 249
 17 246 0 242 213 243 239 199 12 0 250 -18 247 42 240 251 252 239 253 ?2 29 248
 39 0 239 0 253 -.008 -.00375 .052 29 253 44 0 247 248 254 -.008 -.00375 .053 29
 254 49 0 252 253 219 -.013 -.00375 .053 18 252 47 255 256 216 247 254 ?2 29 219
 54 0 216 254 217 -.013 -.00375 .048 18 216 52 257 258 203 252 219 ?2 81 1 257 2
27 43 216 0 0 232 259 260 17 258 0 261 262 263 216 233 264 0 265 -15 261 175 0 2
63 266 0 17 262 0 261 230 258 252 265 267 0 0 +17 263 0 261 258 230 231 268 269
 0 270 -17 233 0 271 238 272 231 258 264 0 263 +16 264 167 273 ?233 274 237 275
 0 0 2 17 265 0 276 277 256 216 262 267 0 272 -15 276 6 0 278 279 0 17 277 0 276
 280 265 203 272 281 0 209 -17 256 0 276 265 251 252 282 283 0 284 +16 267 22 28
5 ?262 281 283 286 0 0 2 17 272 0 271 233 215 216 277 281 0 0 +15 271 173 0 238
 287 0 17 215 0 271 272 238 203 235 237 0 277 -16 281 27 288 ?272 289 267 290 0
 0 2 81 1 288 245 43 281 0 0 291 292 293 16 289 32 294 ?209 212 281 295 0 0 2 30
 290 29 0 281 286 295 0 +-.0125 -.00375 .048 -1 0 0 30 286 24 0 267 296 290 0 +-
.013 -.00375 .0505 0 0 1 30 295 34 0 289 290 297 0 +-.012 -.00375 .05 0 0 -1 30
 297 158 0 298 295 299 0 +-.01 .00125 .052 -1 0 0 16 298 124 300 ?244 301 0 297
 0 0 2 30 299 157 0 301 297 302 0 +-.008 .00125 .0525 0 0 1 16 301 120 303 ?226
 304 298 299 0 0 2 30 302 156 0 304 299 305 0 +-.0105 .00125 .053 -1 0 0 16 304
 116 306 ?307 269 301 302 0 0 2 30 305 155 0 269 302 308 0 +-.013 .00125 .0505 0
 0 1 16 269 112 309 ?268 310 304 305 0 0 2 30 308 154 0 310 305 311 0 +-.0125 .0
0125 .048 -1 0 0 16 310 108 291 ?270 312 269 308 0 0 2 30 311 153 0 312 308 313
 0 +-.012 .00125 .05 0 0 -1 16 312 104 314 ?315 316 310 311 0 0 2 30 313 189 0 2
12 311 317 0 +-.012 -.00375 .052 0 1 0 16 212 165 318 ?211 237 289 313 0 0 2 30
 317 190 0 237 313 275 0 +-.012 -.00375 .048 0 1 0 16 237 166 319 ?235 264 212 3
17 0 0 2 30 275 191 0 264 317 320 0 +-.013 -.00375 .048 0 1 0 30 320 192 0 274 2
75 194 0 +-.013 -.00375 .053 0 1 0 16 274 168 259 ?230 200 264 320 0 0 2 30 194
 193 0 200 320 9 0 +-.008 -.00375 .053 0 1 0 16 200 169 321 ?322 12 274 194 0 0
 2 81 1 321 230 43 200 0 0 198 318 323 17 322 0 324 307 282 223 325 200 0 326 +1
5 324 177 0 307 327 0 17 307 0 324 284 322 227 326 304 0 268 +17 282 0 324 322 2
84 247 256 283 0 0 -17 325 0 328 250 226 247 322 200 0 282 -17 326 0 329 330 268
 223 307 304 0 0 -15 329 103 0 244 331 0 17 330 0 329 244 326 220 226 301 0 243
 -17 268 0 329 326 270 227 263 269 0 0 +17 270 0 329 268 315 231 238 310 0 0 +17
 315 0 329 270 244 234 210 312 0 0 +17 238 0 271 215 233 234 270 310 0 315 -17 2
44 0 329 315 330 195 243 298 0 210 +17 210 0 208 202 235 195 315 312 0 0 -15 208
 171 0 210 332 0 14 332 172 333 ?279 287 208 7 334 +0 0 279 287 197 81 1 333 263
 138 332 335 0 336 337 338 14 279 1 337 ?331 332 276 7 339 +0 0 331 332 197 14 2
87 174 336 ?332 266 271 7 340 +0 0 332 266 197 50 334 183 0 332 341 340 0 +-.012
 -.00375 .05 1 0 0 0 0 -1 13 197 69 0 0 0 0 0 0 11 191 14 191 182 342 ?343 0 242
 7 8 +0 0 343 0 197 81 1 342 258 138 191 344 0 0 345 346 14 343 180 345 ?327 191
 328 7 193 -0 0 327 191 197 15 242 181 0 243 191 0 17 243 0 242 246 211 220 244
 298 0 0 -81 1 345 259 138 343 347 0 342 348 349 14 327 178 348 ?266 343 324 7 3
50 -0 0 266 343 197 15 328 179 0 226 343 0 50 193 187 0 343 350 8 0 +-.008 -.003
75 .0525 -1 0 0 0 0 1 50 350 186 0 327 351 193 0 +-.0105 -.00375 .053 0 0 -1 -1
 0 0 50 351 185 0 266 340 350 0 +-.013 -.00375 .0505 -1 0 0 0 0 1 14 266 176 352
 ?287 327 261 7 351 +0 0 287 327 197 50 340 184 0 287 334 351 0 +-.0125 -.00375
 .048 0 0 -1 -1 0 0 81 1 352 261 138 266 353 0 348 336 354 81 1 353 249 43 266 0
 352 355 347 356 81 1 348 260 138 327 292 0 345 352 357 81 1 336 262 138 287 358
 0 352 333 359 83 3 354 .647058823529412 .647058823529412 .647058823529412 81 1
 358 253 43 287 0 336 335 360 361 83 3 359 .647058823529412 .647058823529412 .64
7058823529412 81 1 335 252 43 332 0 333 344 358 362 81 1 360 254 43 2 0 363 358
 0 364 82 3 361 9 7 2 81 1 363 255 175 2 360 188 0 0 365 82 3 364 9 0 3 81 1 188
 256 177 2 363 4 0 0 366 98 9 365 80 67 66 32 109 111 117 110 116 84 9 366 PCB m
ount81 1 344 251 43 191 0 342 347 335 367 82 3 362 9 6 2 81 1 347 250 43 343 0 3
45 353 344 368 82 3 367 9 5 2 82 3 368 9 4 2 81 1 292 246 43 327 0 348 288 369 3
70 83 3 357 .647058823529412 .647058823529412 .647058823529412 81 1 369 247 43 3
31 0 371 292 355 372 82 3 370 9 0 2 14 331 94 371 ?0 279 329 7 341 -0 0 0 279 19
7 81 1 371 265 138 331 369 0 337 0 373 81 1 355 248 43 279 0 337 369 353 374 82
 3 372 9 1 2 81 1 337 264 138 279 355 0 333 371 375 82 3 374 9 2 2 83 3 375 .647
058823529412 .647058823529412 .647058823529412 83 3 373 .647058823529412 .647058
823529412 .647058823529412 50 341 152 0 331 339 334 0 +-3469446951953615e-33 .00
125 .026 0 -1 0 1 0 0 50 339 3 0 279 0 341 0 +-3469446951953615e-33 -.00375 .026
 0 -1 0 1 0 0 82 3 356 9 3 2 17 226 0 328 325 199 223 330 301 0 322 +17 199 0 32
8 226 250 220 246 12 0 330 +17 250 0 328 199 325 239 251 376 0 278 -17 251 0 276
 256 278 247 250 376 0 325 +16 376 12 377 ?251 283 316 378 0 0 2 17 278 0 276 25
1 280 239 213 316 0 0 -17 280 0 276 278 277 13 209 289 0 0 -17 213 0 242 211 246
 13 278 316 0 280 +16 316 7 379 ?213 376 312 380 0 0 2 81 1 379 241 43 316 0 0 3
00 314 381 30 380 9 0 316 0 378 0 +-.01 -.00375 .052 -1 0 0 30 378 14 0 376 380
 296 0 +-.008 -.00375 .0525 0 0 1 30 296 19 0 283 378 286 0 +-.0105 -.00375 .053
 -1 0 0 16 283 17 382 ?256 267 376 296 0 0 2 81 1 382 235 43 283 0 0 306 309 383
 81 1 306 234 43 304 0 0 273 382 384 81 1 309 236 43 269 0 0 382 285 385 82 3 38
3 9 7 1 81 1 285 237 43 267 0 0 309 303 386 82 3 385 9 8 1 81 1 303 238 43 301 0
 0 285 377 387 82 3 386 9 9 1 81 1 377 239 43 376 0 0 303 300 388 82 3 387 9 10
 1 81 1 300 240 43 298 0 0 377 379 389 82 3 388 9 11 1 82 3 389 9 12 1 81 1 273
 233 43 264 0 0 319 306 390 82 3 384 9 6 1 81 1 319 232 43 237 0 0 318 273 391 8
2 3 390 9 5 1 81 1 318 231 43 212 0 0 321 319 392 82 3 391 9 4 1 82 3 392 9 3 1
 81 1 314 242 43 312 0 0 379 294 393 82 3 381 9 13 1 81 1 294 243 43 289 0 0 314
 291 394 82 3 393 9 14 1 81 1 291 244 43 310 0 0 294 288 395 82 3 394 9 15 1 82
 3 395 9 16 1 17 209 0 208 235 202 203 280 289 0 0 +83 3 349 .647058823529412 .6
47058823529412 .647058823529412 83 3 346 .647058823529412 .647058823529412 .6470
58823529412 83 3 338 .647058823529412 .647058823529412 .647058823529412 17 284 0
 324 282 307 252 230 274 0 262 -17 230 0 261 263 262 227 284 274 0 307 +81 1 198
 229 43 12 0 0 259 321 396 82 3 323 9 2 1 81 1 259 228 43 274 0 0 257 198 397 82
 3 396 9 1 1 82 3 397 9 0 1 82 3 293 9 17 1 81 1 232 226 43 231 0 0 214 257 398
 82 3 260 9 11 0 81 1 214 225 43 203 0 0 206 232 399 82 3 398 9 10 0 82 3 399 9
 9 0 81 1 255 217 43 252 0 0 229 222 400 81 1 229 216 43 227 0 0 0 255 401 81 1
 222 218 43 220 0 0 255 245 402 82 3 400 9 1 0 82 3 402 9 2 0 82 3 401 9 0 0 81
 1 240 221 43 247 0 0 225 205 403 81 1 225 220 43 223 0 0 245 240 404 82 3 403 9
 5 0 82 3 404 9 4 0 82 3 249 9 3 0 82 3 241 9 6 0 82 3 236 9 8 0 82 3 207 9 7 0
 19 192 196 0 2 0 11 7 S0 74 20 190 5 0 0 360 363 188 4 371 0 0 0 0 0 0 0 0 0 0
 0 0 0 0 0 83 3 189 .647058823529412 .647058823529412 .647058823529412 1 0 
