<?xml version="1.0" encoding="UTF-8"?>
<!DOCTYPE svg PUBLIC "-//W3C//DTD SVG 1.1//EN" "http://www.w3.org/Graphics/SVG/1.1/DTD/svg11.dtd">

<svg xmlns="http://www.w3.org/2000/svg" xmlns:xlink="http://www.w3.org/1999/xlink" width="203px" height="243.8px" viewbox="0 0 203 243.8" version="1.1">
  <title>TPS56320X_BUCK_DDC_A_top: null</title>
  <desc>TPS56320X_BUCK_DDC_A WebTHERM&amp;reg; Board Layout file</desc>
<defs>
  <g id="boardtop" transform="scale(0.1016,-0.1016) translate(0,-2400.0)">
      <rect x="0" y="0" width="2000" height="2400" stroke="#006600" stroke-width="0" fill="#006600" type="Fill" layer="PCB" />
      <polygon net="9" points="1300,1440 760,1440 760,1700 40,1700 40,2360 1300,2360" stroke-width="0.0" stroke="#ff9900" fill="#ff9900" stroke-linecap="round" stroke-linejoin="round" opacity="1.0" layer="TOP" />
      <polygon net="8" points="1300,1060 760,1060 760,1420 1300,1420" stroke-width="0.0" stroke="#ff9900" fill="#ff9900" stroke-linecap="round" stroke-linejoin="round" opacity="1.0" layer="TOP" />
      <polygon net="0" points="750,1050 1050,1050 1050,920 890,920 890,870 40,870 40,1690 750,1690" stroke-width="0.0" stroke="#ff9900" fill="#ff9900" stroke-linecap="round" stroke-linejoin="round" opacity="1.0" layer="TOP" />
      <polygon net="2" points="1050,220 40,220 40,860 1050,860" stroke-width="0.0" stroke="#ff9900" fill="#ff9900" stroke-linecap="round" stroke-linejoin="round" opacity="1.0" layer="TOP" />
      <polygon net="8" points="975,905 1045,905 1045,875 975,875 975,870 900,870 900,910 975,910" stroke-width="0.0" stroke="#ff9900" fill="#ff9900" stroke-linecap="round" stroke-linejoin="round" opacity="1.0" layer="TOP" />
      <polygon net="2" points="818,796 818,857 880,857 880,796" stroke-width="0.0" stroke="#ff9900" fill="#ff9900" stroke-linecap="round" stroke-linejoin="round" opacity="1.0" layer="TOP" />
      <polygon net="0" points="818,872 818,933 880,933 880,872" stroke-width="0.0" stroke="#ff9900" fill="#ff9900" stroke-linecap="round" stroke-linejoin="round" opacity="1.0" layer="TOP" />
      <line net="2" x1="850" y1="770" x2="850" y2="826" stroke-width="15" stroke="#ff9900" stroke-linecap="round" stroke-linejoin="round" opacity="1.0" layer="TOP" />
      <line net="0" x1="850" y1="903" x2="850" y2="975" stroke-width="10" stroke="#ff9900" stroke-linecap="round" stroke-linejoin="round" opacity="1.0" layer="TOP" />
      <line net="0" x1="830" y1="995" x2="850" y2="975" stroke-width="10" stroke="#ff9900" stroke-linecap="round" stroke-linejoin="round" opacity="1.0" layer="TOP" />
      <line net="0" x1="730" y1="995" x2="830" y2="995" stroke-width="10" stroke="#ff9900" stroke-linecap="round" stroke-linejoin="round" opacity="1.0" layer="TOP" />
      <line net="0" x1="715" y1="1010" x2="730" y2="995" stroke-width="10" stroke="#ff9900" stroke-linecap="round" stroke-linejoin="round" opacity="1.0" layer="TOP" />
      <line net="0" x1="715" y1="1010" x2="715" y2="1120" stroke-width="10" stroke="#ff9900" stroke-linecap="round" stroke-linejoin="round" opacity="1.0" layer="TOP" />
      <line net="0" x1="690" y1="1145" x2="715" y2="1120" stroke-width="10" stroke="#ff9900" stroke-linecap="round" stroke-linejoin="round" opacity="1.0" layer="TOP" />
      <line net="0" x1="610" y1="1145" x2="690" y2="1145" stroke-width="10" stroke="#ff9900" stroke-linecap="round" stroke-linejoin="round" opacity="1.0" layer="TOP" />
      <line net="0" x1="580" y1="1175" x2="610" y2="1145" stroke-width="10" stroke="#ff9900" stroke-linecap="round" stroke-linejoin="round" opacity="1.0" layer="TOP" />
      <line net="0" x1="580" y1="1175" x2="580" y2="1601" stroke-width="10" stroke="#ff9900" stroke-linecap="round" stroke-linejoin="round" opacity="1.0" layer="TOP" />
      <line net="0" x1="850" y1="903" x2="874" y2="927" stroke-width="10" stroke="#ff9900" stroke-linecap="round" stroke-linejoin="round" opacity="1.0" layer="TOP" />
      <line net="0" x1="874" y1="927" x2="1014" y2="927" stroke-width="10" stroke="#ff9900" stroke-linecap="round" stroke-linejoin="round" opacity="1.0" layer="TOP" />
      <line net="0" x1="110" y1="1620" x2="330" y2="1620" stroke-width="10" stroke="#ff9900" stroke-linecap="round" stroke-linejoin="round" opacity="1.0" layer="TOP" />
      <line net="0" x1="330" y1="1620" x2="348" y2="1601" stroke-width="10" stroke="#ff9900" stroke-linecap="round" stroke-linejoin="round" opacity="1.0" layer="TOP" />
      <line net="0" x1="348" y1="1601" x2="580" y2="1601" stroke-width="10" stroke="#ff9900" stroke-linecap="round" stroke-linejoin="round" opacity="1.0" layer="TOP" />
      <line net="9" x1="110" y1="1770" x2="330" y2="1770" stroke-width="15" stroke="#ff9900" stroke-linecap="round" stroke-linejoin="round" opacity="1.0" layer="TOP" />
      <line net="9" x1="330" y1="1770" x2="358" y2="1798" stroke-width="15" stroke="#ff9900" stroke-linecap="round" stroke-linejoin="round" opacity="1.0" layer="TOP" />
      <line net="9" x1="358" y1="1798" x2="580" y2="1798" stroke-width="15" stroke="#ff9900" stroke-linecap="round" stroke-linejoin="round" opacity="1.0" layer="TOP" />
      <line net="9" x1="580" y1="1798" x2="881" y2="1798" stroke-width="15" stroke="#ff9900" stroke-linecap="round" stroke-linejoin="round" opacity="1.0" layer="TOP" />
      <line net="2" x1="233" y1="766" x2="420" y2="766" stroke-width="15" stroke="#ff9900" stroke-linecap="round" stroke-linejoin="round" opacity="1.0" layer="TOP" />
      <line net="2" x1="210" y1="790" x2="233" y2="766" stroke-width="15" stroke="#ff9900" stroke-linecap="round" stroke-linejoin="round" opacity="1.0" layer="TOP" />
      <line net="2" x1="110" y1="790" x2="210" y2="790" stroke-width="15" stroke="#ff9900" stroke-linecap="round" stroke-linejoin="round" opacity="1.0" layer="TOP" />
      <line net="2" x1="420" y1="766" x2="423" y2="770" stroke-width="15" stroke="#ff9900" stroke-linecap="round" stroke-linejoin="round" opacity="1.0" layer="TOP" />
      <line net="2" x1="423" y1="770" x2="615" y2="770" stroke-width="15" stroke="#ff9900" stroke-linecap="round" stroke-linejoin="round" opacity="1.0" layer="TOP" />
      <line net="2" x1="615" y1="770" x2="671" y2="826" stroke-width="15" stroke="#ff9900" stroke-linecap="round" stroke-linejoin="round" opacity="1.0" layer="TOP" />
      <line net="0" x1="605" y1="965" x2="666" y2="903" stroke-width="10" stroke="#ff9900" stroke-linecap="round" stroke-linejoin="round" opacity="1.0" layer="TOP" />
      <line net="0" x1="235" y1="965" x2="605" y2="965" stroke-width="10" stroke="#ff9900" stroke-linecap="round" stroke-linejoin="round" opacity="1.0" layer="TOP" />
      <line net="0" x1="210" y1="940" x2="235" y2="965" stroke-width="10" stroke="#ff9900" stroke-linecap="round" stroke-linejoin="round" opacity="1.0" layer="TOP" />
      <line net="0" x1="110" y1="940" x2="210" y2="940" stroke-width="10" stroke="#ff9900" stroke-linecap="round" stroke-linejoin="round" opacity="1.0" layer="TOP" />
      <line net="0" x1="666" y1="903" x2="850" y2="903" stroke-width="10" stroke="#ff9900" stroke-linecap="round" stroke-linejoin="round" opacity="1.0" layer="TOP" />
      <line net="2" x1="671" y1="826" x2="850" y2="826" stroke-width="15" stroke="#ff9900" stroke-linecap="round" stroke-linejoin="round" opacity="1.0" layer="TOP" />
      <line net="2" x1="850" y1="826" x2="941" y2="826" stroke-width="15" stroke="#ff9900" stroke-linecap="round" stroke-linejoin="round" opacity="1.0" layer="TOP" />
      <line net="2" x1="941" y1="826" x2="967" y2="852" stroke-width="15" stroke="#ff9900" stroke-linecap="round" stroke-linejoin="round" opacity="1.0" layer="TOP" />
      <line net="2" x1="967" y1="852" x2="1014" y2="852" stroke-width="15" stroke="#ff9900" stroke-linecap="round" stroke-linejoin="round" opacity="1.0" layer="TOP" />
      <line net="9" x1="1210" y1="616" x2="1210" y2="635" stroke-width="15" stroke="#ff9900" stroke-linecap="round" stroke-linejoin="round" opacity="1.0" layer="TOP" />
      <line net="5" x1="1210" y1="670" x2="1210" y2="693" stroke-width="10" stroke="#ff9900" stroke-linecap="round" stroke-linejoin="round" opacity="1.0" layer="TOP" />
      <line net="5" x1="1201" y1="795" x2="1225" y2="795" stroke-width="10" stroke="#ff9900" stroke-linecap="round" stroke-linejoin="round" opacity="1.0" layer="TOP" />
      <line net="0" x1="1255" y1="795" x2="1278" y2="795" stroke-width="10" stroke="#ff9900" stroke-linecap="round" stroke-linejoin="round" opacity="1.0" layer="TOP" />
      <line net="0" x1="1278" y1="795" x2="1340" y2="795" stroke-width="10" stroke="#ff9900" stroke-linecap="round" stroke-linejoin="round" opacity="1.0" layer="TOP" />
      <line net="9" x1="1210" y1="555" x2="1210" y2="616" stroke-width="15" stroke="#ff9900" stroke-linecap="round" stroke-linejoin="round" opacity="1.0" layer="TOP" />
      <line net="5" x1="1210" y1="693" x2="1210" y2="786" stroke-width="10" stroke="#ff9900" stroke-linecap="round" stroke-linejoin="round" opacity="1.0" layer="TOP" />
      <line net="5" x1="1201" y1="795" x2="1210" y2="786" stroke-width="10" stroke="#ff9900" stroke-linecap="round" stroke-linejoin="round" opacity="1.0" layer="TOP" />
      <line net="5" x1="1144" y1="852" x2="1201" y2="795" stroke-width="10" stroke="#ff9900" stroke-linecap="round" stroke-linejoin="round" opacity="1.0" layer="TOP" />
      <line net="5" x1="1106" y1="852" x2="1144" y2="852" stroke-width="10" stroke="#ff9900" stroke-linecap="round" stroke-linejoin="round" opacity="1.0" layer="TOP" />
      <line net="2" x1="1175" y1="890" x2="1175" y2="890" stroke-width="15" stroke="#ff9900" stroke-linecap="round" stroke-linejoin="round" opacity="1.0" layer="TOP" />
      <line net="2" x1="1106" y1="890" x2="1175" y2="890" stroke-width="15" stroke="#ff9900" stroke-linecap="round" stroke-linejoin="round" opacity="1.0" layer="TOP" />
      <line net="12" x1="1224" y1="944" x2="1224" y2="1015" stroke-width="15" stroke="#ff9900" stroke-linecap="round" stroke-linejoin="round" opacity="1.0" layer="TOP" />
      <line net="12" x1="1207" y1="927" x2="1224" y2="944" stroke-width="15" stroke="#ff9900" stroke-linecap="round" stroke-linejoin="round" opacity="1.0" layer="TOP" />
      <line net="12" x1="1106" y1="927" x2="1207" y2="927" stroke-width="15" stroke="#ff9900" stroke-linecap="round" stroke-linejoin="round" opacity="1.0" layer="TOP" />
      <line net="8" x1="1224" y1="1095" x2="1224" y2="1286" stroke-width="15" stroke="#ff9900" stroke-linecap="round" stroke-linejoin="round" opacity="1.0" layer="TOP" />
      <line net="8" x1="1224" y1="1076" x2="1224" y2="1095" stroke-width="15" stroke="#ff9900" stroke-linecap="round" stroke-linejoin="round" opacity="1.0" layer="TOP" />
      <line net="8" x1="1224" y1="1076" x2="1230" y2="1070" stroke-width="15" stroke="#ff9900" stroke-linecap="round" stroke-linejoin="round" opacity="1.0" layer="TOP" />
      <line net="12" x1="1224" y1="1015" x2="1224" y2="1036" stroke-width="15" stroke="#ff9900" stroke-linecap="round" stroke-linejoin="round" opacity="1.0" layer="TOP" />
      <line net="12" x1="1220" y1="1040" x2="1224" y2="1036" stroke-width="15" stroke="#ff9900" stroke-linecap="round" stroke-linejoin="round" opacity="1.0" layer="TOP" />
      <line net="9" x1="1025" y1="1520" x2="1035" y2="1530" stroke-width="15" stroke="#ff9900" stroke-linecap="round" stroke-linejoin="round" opacity="1.0" layer="TOP" />
      <line net="9" x1="1035" y1="1530" x2="1035" y2="1645" stroke-width="15" stroke="#ff9900" stroke-linecap="round" stroke-linejoin="round" opacity="1.0" layer="TOP" />
      <line net="9" x1="881" y1="1798" x2="1035" y2="1645" stroke-width="15" stroke="#ff9900" stroke-linecap="round" stroke-linejoin="round" opacity="1.0" layer="TOP" />
      <line net="8" x1="1035" y1="1329" x2="1180" y2="1329" stroke-width="15" stroke="#ff9900" stroke-linecap="round" stroke-linejoin="round" opacity="1.0" layer="TOP" />
      <line net="8" x1="1180" y1="1329" x2="1224" y2="1286" stroke-width="15" stroke="#ff9900" stroke-linecap="round" stroke-linejoin="round" opacity="1.0" layer="TOP" />
      <line net="0" x1="1254" y1="794" x2="1301" y2="794" stroke-width="10" stroke="#ff9900" stroke-linecap="round" stroke-linejoin="round" opacity="1.0" layer="TOP" />
      <line net="5" x1="1178" y1="794" x2="1225" y2="794" stroke-width="10" stroke="#ff9900" stroke-linecap="round" stroke-linejoin="round" opacity="1.0" layer="TOP" />
      <line net="5" x1="1209" y1="669" x2="1209" y2="716" stroke-width="10" stroke="#ff9900" stroke-linecap="round" stroke-linejoin="round" opacity="1.0" layer="TOP" />
      <line net="9" x1="1209" y1="593" x2="1209" y2="640" stroke-width="10" stroke="#ff9900" stroke-linecap="round" stroke-linejoin="round" opacity="1.0" layer="TOP" />
      <line net="8" x1="1223" y1="1069" x2="1223" y2="1130" stroke-width="10" stroke="#ff9900" stroke-linecap="round" stroke-linejoin="round" opacity="1.0" layer="TOP" />
      <line net="12" x1="1223" y1="979" x2="1223" y2="1040" stroke-width="10" stroke="#ff9900" stroke-linecap="round" stroke-linejoin="round" opacity="1.0" layer="TOP" />
      <rect comp="0" net="5" pin="1" x="1213.0" y="785.6" width="22" height="24" stroke-width="0" stroke="#ff9900" fill="#ff9900" opacity="1.0" layer="TOP" />
      <rect comp="0" net="0" pin="2" x="1246.0" y="785.6" width="22" height="24" stroke-width="0" stroke="#ff9900" fill="#ff9900" opacity="1.0" layer="TOP" />
      <rect comp="2" net="2" pin="1" x="633.6" y="774" width="76.7" height="59.0" stroke-width="0" stroke="#ff9900" fill="#ff9900" opacity="1.0" layer="TOP" />
      <rect comp="2" net="0" pin="2" x="633.6" y="896.8" width="76.7" height="59.0" stroke-width="0" stroke="#ff9900" fill="#ff9900" opacity="1.0" layer="TOP" />
      <rect comp="2" net="2" pin="1" x="478.1" y="774" width="76.7" height="59.0" stroke-width="0" stroke="#ff9900" fill="#ff9900" opacity="1.0" layer="TOP" />
      <rect comp="2" net="0" pin="2" x="478.1" y="896.8" width="76.7" height="59.0" stroke-width="0" stroke="#ff9900" fill="#ff9900" opacity="1.0" layer="TOP" />
      <rect comp="3" net="8" pin="1" x="1206.9" y="1069.6" width="38" height="26" stroke-width="0" stroke="#ff9900" fill="#ff9900" opacity="1.0" layer="TOP" />
      <rect comp="3" net="12" pin="2" x="1206.9" y="1014.6" width="38" height="26" stroke-width="0" stroke="#ff9900" fill="#ff9900" opacity="1.0" layer="TOP" />
      <rect comp="4" net="9" pin="1" x="689.6" y="1708.9" width="38" height="26" stroke-width="0" stroke="#ff9900" fill="#ff9900" opacity="1.0" layer="TOP" />
      <rect comp="4" net="0" pin="2" x="689.6" y="1653.9" width="38" height="26" stroke-width="0" stroke="#ff9900" fill="#ff9900" opacity="1.0" layer="TOP" />
      <rect comp="4" net="9" pin="1" x="597.1" y="1708.9" width="38" height="26" stroke-width="0" stroke="#ff9900" fill="#ff9900" opacity="1.0" layer="TOP" />
      <rect comp="4" net="0" pin="2" x="597.1" y="1653.9" width="38" height="26" stroke-width="0" stroke="#ff9900" fill="#ff9900" opacity="1.0" layer="TOP" />
      <rect comp="5" net="8" pin="1" x="1138.4" y="1364.8" width="146" height="38" stroke-width="0" stroke="#ff9900" fill="#ff9900" opacity="1.0" layer="TOP" />
      <rect comp="5" net="9" pin="2" x="1138.4" y="1457.8" width="146" height="38" stroke-width="0" stroke="#ff9900" fill="#ff9900" opacity="1.0" layer="TOP" />
      <rect comp="6" net="9" pin="1" x="1195.8" y="631.5" width="24" height="22" stroke-width="0" stroke="#ff9900" fill="#ff9900" opacity="1.0" layer="TOP" />
      <rect comp="6" net="5" pin="2" x="1195.8" y="664.5" width="24" height="22" stroke-width="0" stroke="#ff9900" fill="#ff9900" opacity="1.0" layer="TOP" />
      <circle comp="7" net="2" pin="1" cx="108.6" cy="788.9" r="32" stroke-width="0" stroke="#ff9900" fill="#ff9900" layer="TOP" opacity="1.0" />
      <circle comp="8" net="0" pin="1" cx="108.6" cy="939.3" r="32" stroke-width="0" stroke="#ff9900" fill="#ff9900" layer="TOP" opacity="1.0" />
      <circle comp="9" net="9" pin="1" cx="108.6" cy="1769.6" r="32" stroke-width="0" stroke="#ff9900" fill="#ff9900" layer="TOP" opacity="1.0" />
      <circle comp="10" net="0" pin="1" cx="108.6" cy="1620.0" r="32" stroke-width="0" stroke="#ff9900" fill="#ff9900" layer="TOP" opacity="1.0" />
      <rect comp="11" net="0" pin="1" x="987.5" y="922.0" width="62" height="22" stroke-width="0" stroke="#ff9900" fill="#ff9900" opacity="1.0" layer="TOP" />
      <rect comp="11" net="8" pin="2" x="987.5" y="884.6" width="62" height="22" stroke-width="0" stroke="#ff9900" fill="#ff9900" opacity="1.0" layer="TOP" />
      <rect comp="11" net="2" pin="3" x="987.5" y="847.2" width="62" height="22" stroke-width="0" stroke="#ff9900" fill="#ff9900" opacity="1.0" layer="TOP" />
      <rect comp="11" net="5" pin="4" x="1079.5" y="847.2" width="62" height="22" stroke-width="0" stroke="#ff9900" fill="#ff9900" opacity="1.0" layer="TOP" />
      <rect comp="11" net="2" pin="5" x="1079.5" y="884.6" width="62" height="22" stroke-width="0" stroke="#ff9900" fill="#ff9900" opacity="1.0" layer="TOP" />
      <rect comp="11" net="12" pin="6" x="1079.5" y="922.0" width="62" height="22" stroke-width="0" stroke="#ff9900" fill="#ff9900" opacity="1.0" layer="TOP" />
      <circle net="2" cx="850" cy="770" r="8" r1="12" r2="5" stroke-width="7" stroke="#ff9900" fill="#ffffff" opacity="1" layer="MULTILAYER" />
      <circle net="2" cx="1175" cy="890" r="8" r1="12" r2="5" stroke-width="7" stroke="#ff9900" fill="#ffffff" opacity="1" layer="MULTILAYER" />
      <circle net="0" cx="470" cy="1110" r="8" r1="12" r2="5" stroke-width="7" stroke="#ff9900" fill="#ffffff" opacity="1" layer="MULTILAYER" />
      <circle net="0" cx="430" cy="1110" r="8" r1="12" r2="5" stroke-width="7" stroke="#ff9900" fill="#ffffff" opacity="1" layer="MULTILAYER" />
      <circle net="0" cx="390" cy="1110" r="8" r1="12" r2="5" stroke-width="7" stroke="#ff9900" fill="#ffffff" opacity="1" layer="MULTILAYER" />
      <circle net="0" cx="310" cy="1110" r="8" r1="12" r2="5" stroke-width="7" stroke="#ff9900" fill="#ffffff" opacity="1" layer="MULTILAYER" />
      <circle net="0" cx="1340" cy="795" r="8" r1="12" r2="5" stroke-width="7" stroke="#ff9900" fill="#ffffff" opacity="1" layer="MULTILAYER" />
      <circle net="0" cx="590" cy="1110" r="8" r1="12" r2="5" stroke-width="7" stroke="#ff9900" fill="#ffffff" opacity="1" layer="MULTILAYER" />
      <circle net="0" cx="670" cy="1110" r="8" r1="12" r2="5" stroke-width="7" stroke="#ff9900" fill="#ffffff" opacity="1" layer="MULTILAYER" />
      <circle net="0" cx="290" cy="1490" r="8" r1="12" r2="5" stroke-width="7" stroke="#ff9900" fill="#ffffff" opacity="1" layer="MULTILAYER" />
      <circle net="0" cx="330" cy="1490" r="8" r1="12" r2="5" stroke-width="7" stroke="#ff9900" fill="#ffffff" opacity="1" layer="MULTILAYER" />
      <circle net="0" cx="370" cy="1490" r="8" r1="12" r2="5" stroke-width="7" stroke="#ff9900" fill="#ffffff" opacity="1" layer="MULTILAYER" />
      <circle net="0" cx="410" cy="1490" r="8" r1="12" r2="5" stroke-width="7" stroke="#ff9900" fill="#ffffff" opacity="1" layer="MULTILAYER" />
      <circle net="0" cx="450" cy="1490" r="8" r1="12" r2="5" stroke-width="7" stroke="#ff9900" fill="#ffffff" opacity="1" layer="MULTILAYER" />
      <circle net="0" cx="490" cy="1490" r="8" r1="12" r2="5" stroke-width="7" stroke="#ff9900" fill="#ffffff" opacity="1" layer="MULTILAYER" />
      <circle net="0" cx="530" cy="1490" r="8" r1="12" r2="5" stroke-width="7" stroke="#ff9900" fill="#ffffff" opacity="1" layer="MULTILAYER" />
      <circle net="0" cx="270" cy="1110" r="8" r1="12" r2="5" stroke-width="7" stroke="#ff9900" fill="#ffffff" opacity="1" layer="MULTILAYER" />
      <circle net="0" cx="350" cy="1110" r="8" r1="12" r2="5" stroke-width="7" stroke="#ff9900" fill="#ffffff" opacity="1" layer="MULTILAYER" />
      <circle net="0" cx="510" cy="1110" r="8" r1="12" r2="5" stroke-width="7" stroke="#ff9900" fill="#ffffff" opacity="1" layer="MULTILAYER" />
      <circle net="0" cx="550" cy="1110" r="8" r1="12" r2="5" stroke-width="7" stroke="#ff9900" fill="#ffffff" opacity="1" layer="MULTILAYER" />
      <circle net="0" cx="630" cy="1110" r="8" r1="12" r2="5" stroke-width="7" stroke="#ff9900" fill="#ffffff" opacity="1" layer="MULTILAYER" />
      <circle net="9" cx="1210" cy="555" r="8" r1="12" r2="5" stroke-width="7" stroke="#ff9900" fill="#ffffff" opacity="1" layer="MULTILAYER" />
      <circle net="8" cx="930" cy="1080" r="8" r1="12" r2="5" stroke-width="7" stroke="#ff9900" fill="#ffffff" opacity="1" layer="MULTILAYER" />
      <circle net="8" cx="975" cy="1080" r="8" r1="12" r2="5" stroke-width="7" stroke="#ff9900" fill="#ffffff" opacity="1" layer="MULTILAYER" />
      <circle net="8" cx="975" cy="1110" r="8" r1="12" r2="5" stroke-width="7" stroke="#ff9900" fill="#ffffff" opacity="1" layer="MULTILAYER" />
      <circle net="8" cx="930" cy="1110" r="8" r1="12" r2="5" stroke-width="7" stroke="#ff9900" fill="#ffffff" opacity="1" layer="MULTILAYER" />
      <circle net="8" cx="921" cy="890" r="8" r1="12" r2="5" stroke-width="7" stroke="#ff9900" fill="#ffffff" opacity="1" layer="MULTILAYER" />
      <circle net="8" cx="953" cy="890" r="8" r1="12" r2="5" stroke-width="7" stroke="#ff9900" fill="#ffffff" opacity="1" layer="MULTILAYER" />
      <circle net="0" cx="110" cy="940" r="30" r1="40" r2="20" stroke-width="20" stroke="#ff9900" fill="#ffffff" opacity="1" layer="MULTILAYER" />
      <circle net="0" cx="110" cy="1620" r="30" r1="40" r2="20" stroke-width="20" stroke="#ff9900" fill="#ffffff" opacity="1" layer="MULTILAYER" />
      <circle net="2" cx="110" cy="790" r="30" r1="40" r2="20" stroke-width="20" stroke="#ff9900" fill="#ffffff" opacity="1" layer="MULTILAYER" />
      <circle net="9" cx="110" cy="1770" r="30" r1="40" r2="20" stroke-width="20" stroke="#ff9900" fill="#ffffff" opacity="1" layer="MULTILAYER" />
    </g>

  
  <g id="boardtopoverlay" transform="scale(0.1016,-0.1016) translate(0,-2400.0)">
      <text x="1378" y="778" font-family="Arial" font-style="normal" font-weight="normal" font-size="68" transform="translate(0,1556) scale(1,-1)" fill="#ffffff" opacity="1.0" layer="TOPOVERLAY">Rfbb</text>
      <text x="790" y="700" font-family="Arial" font-style="normal" font-weight="normal" font-size="68" transform="translate(0,1400) scale(1,-1)" fill="#ffffff" opacity="1.0" layer="TOPOVERLAY">Cinx</text>
      <text x="377" y="575" font-family="Arial" font-style="normal" font-weight="normal" font-size="68" transform="translate(0,1150) scale(1,-1)" fill="#ffffff" opacity="1.0" layer="TOPOVERLAY">Cin</text>
      <text x="1304" y="1070" font-family="Arial" font-style="normal" font-weight="normal" font-size="68" transform="translate(0,2140) scale(1,-1)" fill="#ffffff" opacity="1.0" layer="TOPOVERLAY">Cbst</text>
      <text x="535" y="1923" font-family="Arial" font-style="normal" font-weight="normal" font-size="68" transform="translate(0,3846) scale(1,-1)" fill="#ffffff" opacity="1.0" layer="TOPOVERLAY">Cout</text>
      <text x="1350" y="1520" font-family="Arial" font-style="normal" font-weight="normal" font-size="68" transform="translate(0,3040) scale(1,-1)" fill="#ffffff" opacity="1.0" layer="TOPOVERLAY">L1</text>
      <text x="1285" y="640" font-family="Arial" font-style="normal" font-weight="normal" font-size="68" transform="translate(0,1280) scale(1,-1)" fill="#ffffff" opacity="1.0" layer="TOPOVERLAY">Rfbt</text>
      <text x="67" y="677" font-family="Arial" font-style="normal" font-weight="normal" font-size="68" transform="translate(0,1354) scale(1,-1)" fill="#ffffff" opacity="1.0" layer="TOPOVERLAY">VIN</text>
      <text x="60" y="1015" font-family="Arial" font-style="normal" font-weight="normal" font-size="68" transform="translate(0,2030) scale(1,-1)" fill="#ffffff" opacity="1.0" layer="TOPOVERLAY">GND</text>
      <text x="44" y="1853" font-family="Arial" font-style="normal" font-weight="normal" font-size="68" transform="translate(0,3706) scale(1,-1)" fill="#ffffff" opacity="1.0" layer="TOPOVERLAY">VOUT</text>
      <text x="47" y="1500" font-family="Arial" font-style="normal" font-weight="normal" font-size="68" transform="translate(0,3000) scale(1,-1)" fill="#ffffff" opacity="1.0" layer="TOPOVERLAY">GND1</text>
      <text x="950" y="960" font-family="Arial" font-style="normal" font-weight="normal" font-size="68" transform="translate(0,1920) scale(1,-1)" fill="#ffffff" opacity="1.0" layer="TOPOVERLAY">U1</text>
      <circle net="2" cx="850" cy="770" r="8" r1="12" r2="5" stroke-width="7" stroke="#ff9900" fill="#ffffff" opacity="1" layer="MULTILAYER" />
      <circle net="2" cx="1175" cy="890" r="8" r1="12" r2="5" stroke-width="7" stroke="#ff9900" fill="#ffffff" opacity="1" layer="MULTILAYER" />
      <circle net="0" cx="470" cy="1110" r="8" r1="12" r2="5" stroke-width="7" stroke="#ff9900" fill="#ffffff" opacity="1" layer="MULTILAYER" />
      <circle net="0" cx="430" cy="1110" r="8" r1="12" r2="5" stroke-width="7" stroke="#ff9900" fill="#ffffff" opacity="1" layer="MULTILAYER" />
      <circle net="0" cx="390" cy="1110" r="8" r1="12" r2="5" stroke-width="7" stroke="#ff9900" fill="#ffffff" opacity="1" layer="MULTILAYER" />
      <circle net="0" cx="310" cy="1110" r="8" r1="12" r2="5" stroke-width="7" stroke="#ff9900" fill="#ffffff" opacity="1" layer="MULTILAYER" />
      <circle net="0" cx="1340" cy="795" r="8" r1="12" r2="5" stroke-width="7" stroke="#ff9900" fill="#ffffff" opacity="1" layer="MULTILAYER" />
      <circle net="0" cx="590" cy="1110" r="8" r1="12" r2="5" stroke-width="7" stroke="#ff9900" fill="#ffffff" opacity="1" layer="MULTILAYER" />
      <circle net="0" cx="670" cy="1110" r="8" r1="12" r2="5" stroke-width="7" stroke="#ff9900" fill="#ffffff" opacity="1" layer="MULTILAYER" />
      <circle net="0" cx="290" cy="1490" r="8" r1="12" r2="5" stroke-width="7" stroke="#ff9900" fill="#ffffff" opacity="1" layer="MULTILAYER" />
      <circle net="0" cx="330" cy="1490" r="8" r1="12" r2="5" stroke-width="7" stroke="#ff9900" fill="#ffffff" opacity="1" layer="MULTILAYER" />
      <circle net="0" cx="370" cy="1490" r="8" r1="12" r2="5" stroke-width="7" stroke="#ff9900" fill="#ffffff" opacity="1" layer="MULTILAYER" />
      <circle net="0" cx="410" cy="1490" r="8" r1="12" r2="5" stroke-width="7" stroke="#ff9900" fill="#ffffff" opacity="1" layer="MULTILAYER" />
      <circle net="0" cx="450" cy="1490" r="8" r1="12" r2="5" stroke-width="7" stroke="#ff9900" fill="#ffffff" opacity="1" layer="MULTILAYER" />
      <circle net="0" cx="490" cy="1490" r="8" r1="12" r2="5" stroke-width="7" stroke="#ff9900" fill="#ffffff" opacity="1" layer="MULTILAYER" />
      <circle net="0" cx="530" cy="1490" r="8" r1="12" r2="5" stroke-width="7" stroke="#ff9900" fill="#ffffff" opacity="1" layer="MULTILAYER" />
      <circle net="0" cx="270" cy="1110" r="8" r1="12" r2="5" stroke-width="7" stroke="#ff9900" fill="#ffffff" opacity="1" layer="MULTILAYER" />
      <circle net="0" cx="350" cy="1110" r="8" r1="12" r2="5" stroke-width="7" stroke="#ff9900" fill="#ffffff" opacity="1" layer="MULTILAYER" />
      <circle net="0" cx="510" cy="1110" r="8" r1="12" r2="5" stroke-width="7" stroke="#ff9900" fill="#ffffff" opacity="1" layer="MULTILAYER" />
      <circle net="0" cx="550" cy="1110" r="8" r1="12" r2="5" stroke-width="7" stroke="#ff9900" fill="#ffffff" opacity="1" layer="MULTILAYER" />
      <circle net="0" cx="630" cy="1110" r="8" r1="12" r2="5" stroke-width="7" stroke="#ff9900" fill="#ffffff" opacity="1" layer="MULTILAYER" />
      <circle net="9" cx="1210" cy="555" r="8" r1="12" r2="5" stroke-width="7" stroke="#ff9900" fill="#ffffff" opacity="1" layer="MULTILAYER" />
      <circle net="8" cx="930" cy="1080" r="8" r1="12" r2="5" stroke-width="7" stroke="#ff9900" fill="#ffffff" opacity="1" layer="MULTILAYER" />
      <circle net="8" cx="975" cy="1080" r="8" r1="12" r2="5" stroke-width="7" stroke="#ff9900" fill="#ffffff" opacity="1" layer="MULTILAYER" />
      <circle net="8" cx="975" cy="1110" r="8" r1="12" r2="5" stroke-width="7" stroke="#ff9900" fill="#ffffff" opacity="1" layer="MULTILAYER" />
      <circle net="8" cx="930" cy="1110" r="8" r1="12" r2="5" stroke-width="7" stroke="#ff9900" fill="#ffffff" opacity="1" layer="MULTILAYER" />
      <circle net="8" cx="921" cy="890" r="8" r1="12" r2="5" stroke-width="7" stroke="#ff9900" fill="#ffffff" opacity="1" layer="MULTILAYER" />
      <circle net="8" cx="953" cy="890" r="8" r1="12" r2="5" stroke-width="7" stroke="#ff9900" fill="#ffffff" opacity="1" layer="MULTILAYER" />
      <circle net="0" cx="110" cy="940" r="30" r1="40" r2="20" stroke-width="20" stroke="#ff9900" fill="#ffffff" opacity="1" layer="MULTILAYER" />
      <circle net="0" cx="110" cy="1620" r="30" r1="40" r2="20" stroke-width="20" stroke="#ff9900" fill="#ffffff" opacity="1" layer="MULTILAYER" />
      <circle net="2" cx="110" cy="790" r="30" r1="40" r2="20" stroke-width="20" stroke="#ff9900" fill="#ffffff" opacity="1" layer="MULTILAYER" />
      <circle net="9" cx="110" cy="1770" r="30" r1="40" r2="20" stroke-width="20" stroke="#ff9900" fill="#ffffff" opacity="1" layer="MULTILAYER" />
    </g>

  
<g id="0402">
  <g id="MASK" display="none">
  	<g display="inline">
  		<rect x="0.125" y="0.125" width="3.752" height="1.757"/>
  		<path d="M3.752,0.25v1.507H0.25V0.25H3.752 M4.002,0H0v2.007h4.002V0L4.002,0z"/>
  	</g>
  </g>
  <g id="COLOR">
  	<rect fill="#CBCBCB" width="4.002" height="2.007"/>
  	<rect x="1.008" fill="#363636" width="1.986" height="2.007"/>
  </g>
  <g id="OUTLINE">
  	<g>
  		<path d="M3.752,0.25v1.507H0.25V0.25H3.752 M4.002,0H0v2.007h4.002V0L4.002,0z"/>
  	</g>
  	<g>
  		<path d="M2.744,0.25v1.507H1.258V0.25H2.744 M2.994,0H1.008v2.007h1.986V0L2.994,0z"/>
  	</g>
  </g>
</g>
<g id="1206_190">
  <g>
  	<rect x="0.5" y="0.5" fill="#5B5B5B" stroke="#000000" width="13" height="7"/>
  	<rect x="0.5" y="0.5" fill="#C6C6C6" stroke="#000000" width="3" height="7"/>
  	<rect x="10.5" y="0.501" fill="#C6C6C6" stroke="#000000" width="3" height="6.999"/>
  </g>
</g>
<g id="0603">
  <g id="Mask" style="display:none;">
  	<rect style="display:inline;" width="6.4" height="3.2"/>
  	<rect x="1.6" style="display:inline;" width="3.2" height="3.2"/>
  </g>
  <g id="Outline" style="display:none;">
  	<g style="display:inline;">
  		<path d="M6.15,0.25v2.7h-5.9v-2.7H6.15 M6.4,0H0v3.2h6.4V0L6.4,0z"/>
  	</g>
  	<g style="display:inline;">
  		<path d="M4.55,0.25v2.7h-2.7v-2.7H4.55 M4.8,0H1.6v3.2h3.2V0L4.8,0z"/>
  	</g>
  </g>
  <g id="Color">
  	<rect style="fill:#B3B3B3;" width="6.4" height="3.2"/>
  	<rect x="1.6" style="fill:#1A1A1A;" width="3.2" height="3.2"/>
  </g>
</g>
<g id="XAL4030">
  <g id="Mask" style="display:none;">
  	<g style="display:inline;">
  		<path d="M14.231,16H1.769C0.796,16,0,15.204,0,14.231V1.769C0,0.796,0.796,0,1.769,0h12.462C15.204,0,16,0.796,16,1.769v12.462
  			C16,15.204,15.204,16,14.231,16z"/>
  	</g>
  </g>
  <g id="Outline" style="display:none;">
  	<g style="display:inline;">
  		<path d="M14.231,0.25c0.838,0,1.519,0.681,1.519,1.519v12.462c0,0.838-0.681,1.519-1.519,1.519H1.769
  			c-0.838,0-1.519-0.681-1.519-1.519V1.769c0-0.838,0.681-1.519,1.519-1.519H14.231 M14.231,0H1.769C0.796,0,0,0.796,0,1.769v12.462
  			C0,15.204,0.796,16,1.769,16h12.462C15.204,16,16,15.204,16,14.231V1.769C16,0.796,15.204,0,14.231,0L14.231,0z"/>
  	</g>
  </g>
  <g id="Color">
  	<g>
  		<path style="fill:#404040;" d="M14.231,16H1.769C0.796,16,0,15.204,0,14.231V1.769C0,0.796,0.796,0,1.769,0h12.462
  			C15.204,0,16,0.796,16,1.769v12.462C16,15.204,15.204,16,14.231,16z"/>
  	</g>
  </g>
</g>
<g id="DDC0006A">
  <g id="Mask" display="none">
  	<g display="inline">
  		<rect x="3.1" y="0.5" width="6" height="11.2"/>
  		<path d="M8.6,1v10.2h-5V1H8.6 M9.6,0h-7v12.2h7V0L9.6,0z"/>
  	</g>
  	<g display="inline">
  		<rect x="0.5" y="5.583" width="1.688" height="1.034"/>
  		<path d="M1.688,6.083v0.034H1V6.083H1.688 M2.688,5.083H0v2.034h2.688V5.083L2.688,5.083z"/>
  	</g>
  	<g display="inline">
  		<rect x="0.5" y="1.516" width="1.688" height="1.034"/>
  		<path d="M1.688,2.016V2.05H1V2.016H1.688 M2.688,1.016H0V3.05h2.688V1.016L2.688,1.016z"/>
  	</g>
  	<g display="inline">
  		<rect x="0.5" y="9.65" width="1.688" height="1.033"/>
  		<path d="M1.688,10.15v0.033H1V10.15H1.688 M2.688,9.15H0v2.033h2.688V9.15L2.688,9.15z"/>
  	</g>
  	<g display="inline">
  		<rect x="10.058" y="1.516" width="1.643" height="1.034"/>
  		<path d="M11.201,2.016V2.05h-0.643V2.016H11.201 M12.201,1.016H9.558V3.05h2.643V1.016L12.201,1.016z"/>
  	</g>
  	<g display="inline">
  		<rect x="10.058" y="5.583" width="1.643" height="1.034"/>
  		<path d="M11.201,6.083v0.034h-0.643V6.083H11.201 M12.201,5.083H9.558v2.034h2.643V5.083L12.201,5.083z"/>
  	</g>
  	<g display="inline">
  		<rect x="10.058" y="9.65" width="1.643" height="1.033"/>
  		<path d="M11.201,10.15v0.033h-0.643V10.15H11.201 M12.201,9.15H9.558v2.033h2.643V9.15L12.201,9.15z"/>
  	</g>
  </g>
  <g id="Color">
  	<g>
  		<rect x="3.1" y="0.5" fill="#666666" width="6" height="11.2"/>
  		<path d="M8.6,1v10.2h-5V1H8.6 M9.6,0h-7v12.2h7V0L9.6,0z"/>
  	</g>
  	<g>
  		<path d="M1.688,6.083v0.034H1V6.083H1.688 M2.688,5.083H0v2.034h2.688V5.083L2.688,5.083z"/>
  	</g>
  	<g>
  		<path d="M1.688,2.016V2.05H1V2.016H1.688 M2.688,1.016H0V3.05h2.688V1.016L2.688,1.016z"/>
  	</g>
  	<g>
  		<path d="M1.688,10.15v0.033H1V10.15H1.688 M2.688,9.15H0v2.033h2.688V9.15L2.688,9.15z"/>
  	</g>
  	<g>
  		<path d="M11.201,2.016V2.05h-0.643V2.016H11.201 M12.201,1.016H9.558V3.05h2.643V1.016L12.201,1.016z"/>
  	</g>
  	<g>
  		<path d="M11.201,6.083v0.034h-0.643V6.083H11.201 M12.201,5.083H9.558v2.034h2.643V5.083L12.201,5.083z"/>
  	</g>
  	<g>
  		<path d="M11.201,10.15v0.033h-0.643V10.15H11.201 M12.201,9.15H9.558v2.033h2.643V9.15L12.201,9.15z"/>
  	</g>
  </g>
  <g id="Outline" display="none">
  	<g display="inline">
  		<path d="M8.6,1v10.2h-5V1H8.6 M9.6,0h-7v12.2h7V0L9.6,0z"/>
  	</g>
  	<g display="inline">
  		<path d="M1.688,6.083v0.034H1V6.083H1.688 M2.688,5.083H0v2.034h2.688V5.083L2.688,5.083z"/>
  	</g>
  	<g display="inline">
  		<path d="M1.688,2.016V2.05H1V2.016H1.688 M2.688,1.016H0V3.05h2.688V1.016L2.688,1.016z"/>
  	</g>
  	<g display="inline">
  		<path d="M1.688,10.15v0.033H1V10.15H1.688 M2.688,9.15H0v2.033h2.688V9.15L2.688,9.15z"/>
  	</g>
  	<g display="inline">
  		<path d="M11.201,2.016V2.05h-0.643V2.016H11.201 M12.201,1.016H9.558V3.05h2.643V1.016L12.201,1.016z"/>
  	</g>
  	<g display="inline">
  		<path d="M11.201,6.083v0.034h-0.643V6.083H11.201 M12.201,5.083H9.558v2.034h2.643V5.083L12.201,5.083z"/>
  	</g>
  	<g display="inline">
  		<path d="M11.201,10.15v0.033h-0.643V10.15H11.201 M12.201,9.15H9.558v2.033h2.643V9.15L12.201,9.15z"/>
  	</g>
  </g>
</g>
</defs>
<g id="board">
  <use x="0" y="0" width="203.0" height="243.0" xlink:href="#boardtop" />
  <use x="0" y="0" width="203.0" height="243.0" xlink:href="#boardtopoverlay" />
  <g id="topview_images">
    <use x="123.0" y="161.0" width="4.0" height="2.0" name="0_Rfbb_0402" xlink:href="#0402" />
    <use x="61.0" y="151.0" width="14.0" height="8.0" transform="rotate(-90.0 68.0 155.0)" name="2_Cin_1_1206_190" xlink:href="#1206_190" />
    <use x="45.0" y="151.0" width="14.0" height="8.0" transform="rotate(-90.0 52.0 155.0)" name="2_Cin_2_1206_190" xlink:href="#1206_190" />
    <use x="121.0" y="135.0" width="6.0" height="3.0" transform="rotate(-270.0 124.0 136.0)" name="3_Cbst_0603" xlink:href="#0603" />
    <use x="68.0" y="70.0" width="6.0" height="3.0" transform="rotate(-270.0 71.0 71.0)" name="4_Cout_1_0603" xlink:href="#0603" />
    <use x="59.0" y="70.0" width="6.0" height="3.0" transform="rotate(-270.0 62.0 71.0)" name="4_Cout_2_0603" xlink:href="#0603" />
    <use x="115.0" y="90.0" width="16.0" height="16.0" transform="rotate(-90.0 123.0 98.0)" name="5_L1_XAL4030" xlink:href="#XAL4030" />
    <use x="120.0" y="175.0" width="4.0" height="2.0" transform="rotate(-90.0 122.0 176.0)" name="6_Rfbt_0402" xlink:href="#0402" />
    <rect x="7.0" y="160.0" width="6.0" height="6.0" transform="rotate(-90.0 10.0 163.0)" name="7_VIN_TP-1502" style="fill:white;stroke:black;stroke-width:1;" />
    <rect x="7.0" y="145.0" width="6.0" height="6.0" transform="rotate(-90.0 10.0 148.0)" name="8_GND_TP-1502" style="fill:white;stroke:black;stroke-width:1;" />
    <rect x="7.0" y="60.0" width="6.0" height="6.0" transform="rotate(-90.0 10.0 64.0)" name="9_VOUT_TP-1502" style="fill:white;stroke:black;stroke-width:1;" />
    <rect x="7.0" y="76.0" width="6.0" height="6.0" transform="rotate(-90.0 10.0 79.0)" name="10_GND1_TP-1502" style="fill:white;stroke:black;stroke-width:1;" />
    <use x="102.0" y="146.0" width="12.0" height="12.0" name="11_U1_DDC0006A" xlink:href="#DDC0006A" />
  </g>
</g>
</svg>
