<?xml version="1.0" encoding="UTF-8"?>
<!DOCTYPE svg PUBLIC "-//W3C//DTD SVG 1.1//EN" "http://www.w3.org/Graphics/SVG/1.1/DTD/svg11.dtd">

<svg xmlns="http://www.w3.org/2000/svg" xmlns:xlink="http://www.w3.org/1999/xlink" width="251.9px" height="251.9px" viewbox="0 0 251.9 251.9" version="1.1">
  <title>TPS56520X_Buck_DDC_A_bottom: null</title>
  <desc>TPS56520X_Buck_DDC_A WebTHERM&amp;reg; Board Layout file</desc>
  <g id="board" fill-opacity="1" transform="scale(0.1016,-0.1016) translate(0,-2480.0)">
    <rect x="0" y="0" width="2480" height="2480" stroke="#006600" stroke-width="0" fill="#006600" type="Fill" layer="PCB" />
    <polygon net="0" points="2450,30 30,30 30,2450 2450,2450" stroke-width="0.0" stroke="#ff9900" fill="#ff9900" stroke-linecap="round" stroke-linejoin="round" opacity="1.0" layer="BOTTOM" />
    <polygon net="0" points="1510,1071 1501,1069 1494,1065 1490,1058 1488,1050 1490,1041 1493,1037 1493,1031 1481,1019 1302,1019 1298,1022 1290,1024 1281,1022 1274,1018 1270,1011 1268,1003 1270,994 1274,987 1281,983 1290,981 1298,983 1302,986 1488,986 1494,987 1499,991 1521,1013 1525,1018 1526,1025 1526,1037 1529,1041 1531,1050 1529,1058 1525,1065 1518,1069" stroke-width="0.0" stroke="#006600" fill="#006600" stroke-linecap="round" stroke-linejoin="round" opacity="1.0" layer="BOTTOM" />
    <polygon net="0" points="259,970 243,968 229,964 215,957 203,947 193,935 186,921 182,907 180,892 182,876 186,862 193,848 203,836 215,826 229,819 243,815 259,813 274,815 288,819 298,824 432,691 438,687 446,685 881,685 1066,501 1072,497 1080,495 1780,495 1787,497 1793,501 1848,556 1852,562 1854,570 1854,840 1852,847 1848,853 1784,917 1784,918 1780,925 1773,929 1765,931 1756,929 1749,925 1745,918 1743,910 1745,901 1749,894 1756,890 1757,890 1815,831 1815,578 1771,534 1088,534 903,718 897,722 890,724 454,724 326,852 331,862 335,876 337,892 335,907 331,921 324,935 314,947 302,957 288,964 274,968" stroke-width="0.0" stroke="#006600" fill="#006600" stroke-linecap="round" stroke-linejoin="round" opacity="1.0" layer="BOTTOM" />
    <polygon net="0" points="1700,1011 1693,1010 1686,1007 1681,1003 1677,998 1674,991 1673,985 1674,978 1677,971 1681,966 1686,962 1693,959 1700,958 1706,959 1713,962 1717,965 1842,965 1895,912 1895,543 1821,469 1195,469 1187,467 1181,463 1059,341 1055,335 1053,328 1053,267 1043,264 1029,257 1017,247 1007,235 1000,221 996,207 994,192 996,176 1000,162 1007,148 1017,136 1029,126 1043,119 1057,115 1073,113 1088,115 1102,119 1116,126 1128,136 1138,148 1145,162 1149,176 1151,192 1149,207 1145,221 1138,235 1128,247 1116,257 1102,264 1092,267 1092,319 1203,430 1830,430 1837,432 1843,436 1928,521 1932,527 1934,535 1934,920 1932,927 1928,933 1863,998 1857,1002 1850,1004 1717,1004 1713,1007 1706,1010" stroke-width="0.0" stroke="#006600" fill="#006600" stroke-linecap="round" stroke-linejoin="round" opacity="1.0" layer="BOTTOM" />
    <line net="2" x1="1915" y1="535" x2="1915" y2="920" stroke-width="20" stroke="#ff9900" stroke-linecap="round" stroke-linejoin="round" opacity="1.0" layer="BOTTOM" />
    <line net="2" x1="1830" y1="450" x2="1915" y2="535" stroke-width="20" stroke="#ff9900" stroke-linecap="round" stroke-linejoin="round" opacity="1.0" layer="BOTTOM" />
    <line net="2" x1="1195" y1="450" x2="1830" y2="450" stroke-width="20" stroke="#ff9900" stroke-linecap="round" stroke-linejoin="round" opacity="1.0" layer="BOTTOM" />
    <line net="2" x1="1850" y1="985" x2="1915" y2="920" stroke-width="20" stroke="#ff9900" stroke-linecap="round" stroke-linejoin="round" opacity="1.0" layer="BOTTOM" />
    <line net="2" x1="1073" y1="328" x2="1195" y2="450" stroke-width="20" stroke="#ff9900" stroke-linecap="round" stroke-linejoin="round" opacity="1.0" layer="BOTTOM" />
    <line net="6" x1="1780" y1="515" x2="1835" y2="570" stroke-width="20" stroke="#ff9900" stroke-linecap="round" stroke-linejoin="round" opacity="1.0" layer="BOTTOM" />
    <line net="6" x1="1080" y1="515" x2="1780" y2="515" stroke-width="20" stroke="#ff9900" stroke-linecap="round" stroke-linejoin="round" opacity="1.0" layer="BOTTOM" />
    <line net="6" x1="890" y1="705" x2="1080" y2="515" stroke-width="20" stroke="#ff9900" stroke-linecap="round" stroke-linejoin="round" opacity="1.0" layer="BOTTOM" />
    <line net="6" x1="1835" y1="570" x2="1835" y2="840" stroke-width="20" stroke="#ff9900" stroke-linecap="round" stroke-linejoin="round" opacity="1.0" layer="BOTTOM" />
    <line net="6" x1="446" y1="705" x2="890" y2="705" stroke-width="20" stroke="#ff9900" stroke-linecap="round" stroke-linejoin="round" opacity="1.0" layer="BOTTOM" />
    <line net="6" x1="259" y1="892" x2="446" y2="705" stroke-width="20" stroke="#ff9900" stroke-linecap="round" stroke-linejoin="round" opacity="1.0" layer="BOTTOM" />
    <line net="6" x1="1765" y1="910" x2="1835" y2="840" stroke-width="20" stroke="#ff9900" stroke-linecap="round" stroke-linejoin="round" opacity="1.0" layer="BOTTOM" />
    <line net="2" x1="1073" y1="192" x2="1073" y2="328" stroke-width="20" stroke="#ff9900" stroke-linecap="round" stroke-linejoin="round" opacity="1.0" layer="BOTTOM" />
    <line net="2" x1="1700" y1="985" x2="1850" y2="985" stroke-width="20" stroke="#ff9900" stroke-linecap="round" stroke-linejoin="round" opacity="1.0" layer="BOTTOM" />
    <line net="4" x1="1510" y1="1025" x2="1510" y2="1050" stroke-width="15" stroke="#ff9900" stroke-linecap="round" stroke-linejoin="round" opacity="1.0" layer="BOTTOM" />
    <line net="4" x1="1488" y1="1003" x2="1510" y2="1025" stroke-width="15" stroke="#ff9900" stroke-linecap="round" stroke-linejoin="round" opacity="1.0" layer="BOTTOM" />
    <line net="4" x1="1290" y1="1003" x2="1488" y2="1003" stroke-width="15" stroke="#ff9900" stroke-linecap="round" stroke-linejoin="round" opacity="1.0" layer="BOTTOM" />
    <circle net="0" cx="2034" cy="659" r="8" r1="12" r2="5" stroke-width="7" stroke="#ff9900" fill="#ffffff" opacity="1" layer="MULTILAYER" />
    <circle net="0" cx="2034" cy="592" r="8" r1="12" r2="5" stroke-width="7" stroke="#ff9900" fill="#ffffff" opacity="1" layer="MULTILAYER" />
    <circle net="0" cx="1455" cy="1095" r="8" r1="12" r2="5" stroke-width="7" stroke="#ff9900" fill="#ffffff" opacity="1" layer="MULTILAYER" />
    <circle net="0" cx="1420" cy="1095" r="8" r1="12" r2="5" stroke-width="7" stroke="#ff9900" fill="#ffffff" opacity="1" layer="MULTILAYER" />
    <circle net="0" cx="1627" cy="562" r="8" r1="12" r2="5" stroke-width="7" stroke="#ff9900" fill="#ffffff" opacity="1" layer="MULTILAYER" />
    <circle net="0" cx="1627" cy="601" r="8" r1="12" r2="5" stroke-width="7" stroke="#ff9900" fill="#ffffff" opacity="1" layer="MULTILAYER" />
    <circle net="0" cx="1668" cy="601" r="8" r1="12" r2="5" stroke-width="7" stroke="#ff9900" fill="#ffffff" opacity="1" layer="MULTILAYER" />
    <circle net="0" cx="1714" cy="601" r="8" r1="12" r2="5" stroke-width="7" stroke="#ff9900" fill="#ffffff" opacity="1" layer="MULTILAYER" />
    <circle net="0" cx="1759" cy="601" r="8" r1="12" r2="5" stroke-width="7" stroke="#ff9900" fill="#ffffff" opacity="1" layer="MULTILAYER" />
    <circle net="0" cx="1670" cy="640" r="8" r1="12" r2="5" stroke-width="7" stroke="#ff9900" fill="#ffffff" opacity="1" layer="MULTILAYER" />
    <circle net="0" cx="1760" cy="680" r="8" r1="12" r2="5" stroke-width="7" stroke="#ff9900" fill="#ffffff" opacity="1" layer="MULTILAYER" />
    <circle net="0" cx="1715" cy="640" r="8" r1="12" r2="5" stroke-width="7" stroke="#ff9900" fill="#ffffff" opacity="1" layer="MULTILAYER" />
    <circle net="0" cx="1760" cy="640" r="8" r1="12" r2="5" stroke-width="7" stroke="#ff9900" fill="#ffffff" opacity="1" layer="MULTILAYER" />
    <circle net="0" cx="1668" cy="562" r="8" r1="12" r2="5" stroke-width="7" stroke="#ff9900" fill="#ffffff" opacity="1" layer="MULTILAYER" />
    <circle net="0" cx="1714" cy="562" r="8" r1="12" r2="5" stroke-width="7" stroke="#ff9900" fill="#ffffff" opacity="1" layer="MULTILAYER" />
    <circle net="0" cx="1570" cy="640" r="8" r1="12" r2="5" stroke-width="7" stroke="#ff9900" fill="#ffffff" opacity="1" layer="MULTILAYER" />
    <circle net="0" cx="1570" cy="680" r="8" r1="12" r2="5" stroke-width="7" stroke="#ff9900" fill="#ffffff" opacity="1" layer="MULTILAYER" />
    <circle net="0" cx="1549" cy="799" r="8" r1="12" r2="5" stroke-width="7" stroke="#ff9900" fill="#ffffff" opacity="1" layer="MULTILAYER" />
    <circle net="0" cx="1570" cy="750" r="8" r1="12" r2="5" stroke-width="7" stroke="#ff9900" fill="#ffffff" opacity="1" layer="MULTILAYER" />
    <circle net="0" cx="1627" cy="640" r="8" r1="12" r2="5" stroke-width="7" stroke="#ff9900" fill="#ffffff" opacity="1" layer="MULTILAYER" />
    <circle net="0" cx="1568" cy="610" r="8" r1="12" r2="5" stroke-width="7" stroke="#ff9900" fill="#ffffff" opacity="1" layer="MULTILAYER" />
    <circle net="0" cx="1759" cy="562" r="8" r1="12" r2="5" stroke-width="7" stroke="#ff9900" fill="#ffffff" opacity="1" layer="MULTILAYER" />
    <circle net="0" cx="1350" cy="1060" r="8" r1="12" r2="5" stroke-width="7" stroke="#ff9900" fill="#ffffff" opacity="1" layer="MULTILAYER" />
    <circle net="0" cx="1385" cy="1060" r="8" r1="12" r2="5" stroke-width="7" stroke="#ff9900" fill="#ffffff" opacity="1" layer="MULTILAYER" />
    <circle net="0" cx="987" cy="1157" r="8" r1="12" r2="5" stroke-width="7" stroke="#ff9900" fill="#ffffff" opacity="1" layer="MULTILAYER" />
    <circle net="0" cx="1420" cy="1060" r="8" r1="12" r2="5" stroke-width="7" stroke="#ff9900" fill="#ffffff" opacity="1" layer="MULTILAYER" />
    <circle net="0" cx="2034" cy="464" r="8" r1="12" r2="5" stroke-width="7" stroke="#ff9900" fill="#ffffff" opacity="1" layer="MULTILAYER" />
    <circle net="0" cx="2034" cy="721" r="8" r1="12" r2="5" stroke-width="7" stroke="#ff9900" fill="#ffffff" opacity="1" layer="MULTILAYER" />
    <circle net="0" cx="1715" cy="680" r="8" r1="12" r2="5" stroke-width="7" stroke="#ff9900" fill="#ffffff" opacity="1" layer="MULTILAYER" />
    <circle net="0" cx="1669" cy="680" r="8" r1="12" r2="5" stroke-width="7" stroke="#ff9900" fill="#ffffff" opacity="1" layer="MULTILAYER" />
    <circle net="0" cx="1627" cy="680" r="8" r1="12" r2="5" stroke-width="7" stroke="#ff9900" fill="#ffffff" opacity="1" layer="MULTILAYER" />
    <circle net="0" cx="1363" cy="1130" r="8" r1="12" r2="5" stroke-width="7" stroke="#ff9900" fill="#ffffff" opacity="1" layer="MULTILAYER" />
    <circle net="0" cx="1211" cy="1232" r="8" r1="12" r2="5" stroke-width="7" stroke="#ff9900" fill="#ffffff" opacity="1" layer="MULTILAYER" />
    <circle net="0" cx="1400" cy="1130" r="8" r1="12" r2="5" stroke-width="7" stroke="#ff9900" fill="#ffffff" opacity="1" layer="MULTILAYER" />
    <circle net="0" cx="1285" cy="1195" r="8" r1="12" r2="5" stroke-width="7" stroke="#ff9900" fill="#ffffff" opacity="1" layer="MULTILAYER" />
    <circle net="0" cx="1286" cy="1160" r="8" r1="12" r2="5" stroke-width="7" stroke="#ff9900" fill="#ffffff" opacity="1" layer="MULTILAYER" />
    <circle net="0" cx="1069" cy="1157" r="8" r1="12" r2="5" stroke-width="7" stroke="#ff9900" fill="#ffffff" opacity="1" layer="MULTILAYER" />
    <circle net="0" cx="1108" cy="1157" r="8" r1="12" r2="5" stroke-width="7" stroke="#ff9900" fill="#ffffff" opacity="1" layer="MULTILAYER" />
    <circle net="0" cx="1028" cy="1157" r="8" r1="12" r2="5" stroke-width="7" stroke="#ff9900" fill="#ffffff" opacity="1" layer="MULTILAYER" />
    <circle net="0" cx="1549" cy="835" r="8" r1="12" r2="5" stroke-width="7" stroke="#ff9900" fill="#ffffff" opacity="1" layer="MULTILAYER" />
    <circle net="0" cx="1513" cy="835" r="8" r1="12" r2="5" stroke-width="7" stroke="#ff9900" fill="#ffffff" opacity="1" layer="MULTILAYER" />
    <circle net="0" cx="1513" cy="799" r="8" r1="12" r2="5" stroke-width="7" stroke="#ff9900" fill="#ffffff" opacity="1" layer="MULTILAYER" />
    <circle net="0" cx="1568" cy="575" r="8" r1="12" r2="5" stroke-width="7" stroke="#ff9900" fill="#ffffff" opacity="1" layer="MULTILAYER" />
    <circle net="0" cx="1570" cy="715" r="8" r1="12" r2="5" stroke-width="7" stroke="#ff9900" fill="#ffffff" opacity="1" layer="MULTILAYER" />
    <circle net="0" cx="2034" cy="528" r="8" r1="12" r2="5" stroke-width="7" stroke="#ff9900" fill="#ffffff" opacity="1" layer="MULTILAYER" />
    <circle net="4" cx="1290" cy="1003" r="8" r1="12" r2="5" stroke-width="7" stroke="#ff9900" fill="#ffffff" opacity="1" layer="MULTILAYER" />
    <circle net="0" cx="851" cy="473" r="8" r1="12" r2="5" stroke-width="7" stroke="#ff9900" fill="#ffffff" opacity="1" layer="MULTILAYER" />
    <circle net="0" cx="787" cy="473" r="8" r1="12" r2="5" stroke-width="7" stroke="#ff9900" fill="#ffffff" opacity="1" layer="MULTILAYER" />
    <circle net="0" cx="592" cy="473" r="8" r1="12" r2="5" stroke-width="7" stroke="#ff9900" fill="#ffffff" opacity="1" layer="MULTILAYER" />
    <circle net="0" cx="528" cy="473" r="8" r1="12" r2="5" stroke-width="7" stroke="#ff9900" fill="#ffffff" opacity="1" layer="MULTILAYER" />
    <circle net="0" cx="269" cy="473" r="8" r1="12" r2="5" stroke-width="7" stroke="#ff9900" fill="#ffffff" opacity="1" layer="MULTILAYER" />
    <circle net="0" cx="916" cy="473" r="8" r1="12" r2="5" stroke-width="7" stroke="#ff9900" fill="#ffffff" opacity="1" layer="MULTILAYER" />
    <circle net="0" cx="398" cy="473" r="8" r1="12" r2="5" stroke-width="7" stroke="#ff9900" fill="#ffffff" opacity="1" layer="MULTILAYER" />
    <circle net="0" cx="463" cy="473" r="8" r1="12" r2="5" stroke-width="7" stroke="#ff9900" fill="#ffffff" opacity="1" layer="MULTILAYER" />
    <circle net="0" cx="333" cy="473" r="8" r1="12" r2="5" stroke-width="7" stroke="#ff9900" fill="#ffffff" opacity="1" layer="MULTILAYER" />
    <circle net="0" cx="657" cy="473" r="8" r1="12" r2="5" stroke-width="7" stroke="#ff9900" fill="#ffffff" opacity="1" layer="MULTILAYER" />
    <circle net="0" cx="722" cy="473" r="8" r1="12" r2="5" stroke-width="7" stroke="#ff9900" fill="#ffffff" opacity="1" layer="MULTILAYER" />
    <circle net="0" cx="722" cy="562" r="8" r1="12" r2="5" stroke-width="7" stroke="#ff9900" fill="#ffffff" opacity="1" layer="MULTILAYER" />
    <circle net="0" cx="786" cy="562" r="8" r1="12" r2="5" stroke-width="7" stroke="#ff9900" fill="#ffffff" opacity="1" layer="MULTILAYER" />
    <circle net="0" cx="527" cy="562" r="8" r1="12" r2="5" stroke-width="7" stroke="#ff9900" fill="#ffffff" opacity="1" layer="MULTILAYER" />
    <circle net="0" cx="657" cy="562" r="8" r1="12" r2="5" stroke-width="7" stroke="#ff9900" fill="#ffffff" opacity="1" layer="MULTILAYER" />
    <circle net="0" cx="398" cy="562" r="8" r1="12" r2="5" stroke-width="7" stroke="#ff9900" fill="#ffffff" opacity="1" layer="MULTILAYER" />
    <circle net="0" cx="592" cy="562" r="8" r1="12" r2="5" stroke-width="7" stroke="#ff9900" fill="#ffffff" opacity="1" layer="MULTILAYER" />
    <circle net="0" cx="463" cy="562" r="8" r1="12" r2="5" stroke-width="7" stroke="#ff9900" fill="#ffffff" opacity="1" layer="MULTILAYER" />
    <circle net="0" cx="269" cy="562" r="8" r1="12" r2="5" stroke-width="7" stroke="#ff9900" fill="#ffffff" opacity="1" layer="MULTILAYER" />
    <circle net="0" cx="333" cy="562" r="8" r1="12" r2="5" stroke-width="7" stroke="#ff9900" fill="#ffffff" opacity="1" layer="MULTILAYER" />
    <circle net="0" cx="916" cy="562" r="8" r1="12" r2="5" stroke-width="7" stroke="#ff9900" fill="#ffffff" opacity="1" layer="MULTILAYER" />
    <circle net="0" cx="851" cy="562" r="8" r1="12" r2="5" stroke-width="7" stroke="#ff9900" fill="#ffffff" opacity="1" layer="MULTILAYER" />
    <circle net="0" cx="1799" cy="412" r="8" r1="12" r2="5" stroke-width="7" stroke="#ff9900" fill="#ffffff" opacity="1" layer="MULTILAYER" />
    <circle net="0" cx="1865" cy="412" r="8" r1="12" r2="5" stroke-width="7" stroke="#ff9900" fill="#ffffff" opacity="1" layer="MULTILAYER" />
    <circle net="0" cx="1604" cy="411" r="8" r1="12" r2="5" stroke-width="7" stroke="#ff9900" fill="#ffffff" opacity="1" layer="MULTILAYER" />
    <circle net="0" cx="1734" cy="412" r="8" r1="12" r2="5" stroke-width="7" stroke="#ff9900" fill="#ffffff" opacity="1" layer="MULTILAYER" />
    <circle net="0" cx="1928" cy="411" r="8" r1="12" r2="5" stroke-width="7" stroke="#ff9900" fill="#ffffff" opacity="1" layer="MULTILAYER" />
    <circle net="0" cx="1669" cy="412" r="8" r1="12" r2="5" stroke-width="7" stroke="#ff9900" fill="#ffffff" opacity="1" layer="MULTILAYER" />
    <circle net="0" cx="1990" cy="412" r="8" r1="12" r2="5" stroke-width="7" stroke="#ff9900" fill="#ffffff" opacity="1" layer="MULTILAYER" />
    <circle net="0" cx="1927" cy="334" r="8" r1="12" r2="5" stroke-width="7" stroke="#ff9900" fill="#ffffff" opacity="1" layer="MULTILAYER" />
    <circle net="0" cx="1668" cy="335" r="8" r1="12" r2="5" stroke-width="7" stroke="#ff9900" fill="#ffffff" opacity="1" layer="MULTILAYER" />
    <circle net="0" cx="1733" cy="334" r="8" r1="12" r2="5" stroke-width="7" stroke="#ff9900" fill="#ffffff" opacity="1" layer="MULTILAYER" />
    <circle net="0" cx="1604" cy="334" r="8" r1="12" r2="5" stroke-width="7" stroke="#ff9900" fill="#ffffff" opacity="1" layer="MULTILAYER" />
    <circle net="0" cx="1862" cy="334" r="8" r1="12" r2="5" stroke-width="7" stroke="#ff9900" fill="#ffffff" opacity="1" layer="MULTILAYER" />
    <circle net="0" cx="1798" cy="334" r="8" r1="12" r2="5" stroke-width="7" stroke="#ff9900" fill="#ffffff" opacity="1" layer="MULTILAYER" />
    <circle net="0" cx="1385" cy="1095" r="8" r1="12" r2="5" stroke-width="7" stroke="#ff9900" fill="#ffffff" opacity="1" layer="MULTILAYER" />
    <circle net="0" cx="1350" cy="1095" r="8" r1="12" r2="5" stroke-width="7" stroke="#ff9900" fill="#ffffff" opacity="1" layer="MULTILAYER" />
    <circle net="0" cx="1324" cy="1160" r="8" r1="12" r2="5" stroke-width="7" stroke="#ff9900" fill="#ffffff" opacity="1" layer="MULTILAYER" />
    <circle net="0" cx="1441" cy="1130" r="8" r1="12" r2="5" stroke-width="7" stroke="#ff9900" fill="#ffffff" opacity="1" layer="MULTILAYER" />
    <circle net="0" cx="1989" cy="334" r="8" r1="12" r2="5" stroke-width="7" stroke="#ff9900" fill="#ffffff" opacity="1" layer="MULTILAYER" />
    <circle net="0" cx="2098" cy="529" r="8" r1="12" r2="5" stroke-width="7" stroke="#ff9900" fill="#ffffff" opacity="1" layer="MULTILAYER" />
    <circle net="0" cx="2098" cy="593" r="8" r1="12" r2="5" stroke-width="7" stroke="#ff9900" fill="#ffffff" opacity="1" layer="MULTILAYER" />
    <circle net="0" cx="2098" cy="657" r="8" r1="12" r2="5" stroke-width="7" stroke="#ff9900" fill="#ffffff" opacity="1" layer="MULTILAYER" />
    <circle net="0" cx="2098" cy="721" r="8" r1="12" r2="5" stroke-width="7" stroke="#ff9900" fill="#ffffff" opacity="1" layer="MULTILAYER" />
    <circle net="0" cx="2098" cy="465" r="8" r1="12" r2="5" stroke-width="7" stroke="#ff9900" fill="#ffffff" opacity="1" layer="MULTILAYER" />
    <circle net="0" cx="1442" cy="1165" r="8" r1="12" r2="5" stroke-width="7" stroke="#ff9900" fill="#ffffff" opacity="1" layer="MULTILAYER" />
    <circle net="0" cx="1481" cy="1165" r="8" r1="12" r2="5" stroke-width="7" stroke="#ff9900" fill="#ffffff" opacity="1" layer="MULTILAYER" />
    <circle net="0" cx="1246" cy="1232" r="8" r1="12" r2="5" stroke-width="7" stroke="#ff9900" fill="#ffffff" opacity="1" layer="MULTILAYER" />
    <circle net="0" cx="1400" cy="1165" r="8" r1="12" r2="5" stroke-width="7" stroke="#ff9900" fill="#ffffff" opacity="1" layer="MULTILAYER" />
    <circle net="0" cx="1363" cy="1165" r="8" r1="12" r2="5" stroke-width="7" stroke="#ff9900" fill="#ffffff" opacity="1" layer="MULTILAYER" />
    <circle net="0" cx="1323" cy="1195" r="8" r1="12" r2="5" stroke-width="7" stroke="#ff9900" fill="#ffffff" opacity="1" layer="MULTILAYER" />
    <circle net="0" cx="1522" cy="1165" r="8" r1="12" r2="5" stroke-width="7" stroke="#ff9900" fill="#ffffff" opacity="1" layer="MULTILAYER" />
    <circle net="0" cx="1561" cy="1165" r="8" r1="12" r2="5" stroke-width="7" stroke="#ff9900" fill="#ffffff" opacity="1" layer="MULTILAYER" />
    <circle net="0" cx="1597" cy="1165" r="8" r1="12" r2="5" stroke-width="7" stroke="#ff9900" fill="#ffffff" opacity="1" layer="MULTILAYER" />
    <circle net="0" cx="1522" cy="1130" r="8" r1="12" r2="5" stroke-width="7" stroke="#ff9900" fill="#ffffff" opacity="1" layer="MULTILAYER" />
    <circle net="0" cx="1561" cy="1130" r="8" r1="12" r2="5" stroke-width="7" stroke="#ff9900" fill="#ffffff" opacity="1" layer="MULTILAYER" />
    <circle net="0" cx="1596" cy="1130" r="8" r1="12" r2="5" stroke-width="7" stroke="#ff9900" fill="#ffffff" opacity="1" layer="MULTILAYER" />
    <circle net="0" cx="1680" cy="1165" r="8" r1="12" r2="5" stroke-width="7" stroke="#ff9900" fill="#ffffff" opacity="1" layer="MULTILAYER" />
    <circle net="0" cx="1680" cy="1130" r="8" r1="12" r2="5" stroke-width="7" stroke="#ff9900" fill="#ffffff" opacity="1" layer="MULTILAYER" />
    <circle net="0" cx="1640" cy="1130" r="8" r1="12" r2="5" stroke-width="7" stroke="#ff9900" fill="#ffffff" opacity="1" layer="MULTILAYER" />
    <circle net="0" cx="1640" cy="1165" r="8" r1="12" r2="5" stroke-width="7" stroke="#ff9900" fill="#ffffff" opacity="1" layer="MULTILAYER" />
    <circle net="0" cx="1285" cy="1230" r="8" r1="12" r2="5" stroke-width="7" stroke="#ff9900" fill="#ffffff" opacity="1" layer="MULTILAYER" />
    <circle net="0" cx="1640" cy="1200" r="8" r1="12" r2="5" stroke-width="7" stroke="#ff9900" fill="#ffffff" opacity="1" layer="MULTILAYER" />
    <circle net="0" cx="1680" cy="1200" r="8" r1="12" r2="5" stroke-width="7" stroke="#ff9900" fill="#ffffff" opacity="1" layer="MULTILAYER" />
    <circle net="0" cx="1597" cy="1200" r="8" r1="12" r2="5" stroke-width="7" stroke="#ff9900" fill="#ffffff" opacity="1" layer="MULTILAYER" />
    <circle net="0" cx="1561" cy="1200" r="8" r1="12" r2="5" stroke-width="7" stroke="#ff9900" fill="#ffffff" opacity="1" layer="MULTILAYER" />
    <circle net="0" cx="1522" cy="1200" r="8" r1="12" r2="5" stroke-width="7" stroke="#ff9900" fill="#ffffff" opacity="1" layer="MULTILAYER" />
    <circle net="0" cx="1323" cy="1230" r="8" r1="12" r2="5" stroke-width="7" stroke="#ff9900" fill="#ffffff" opacity="1" layer="MULTILAYER" />
    <circle net="0" cx="1363" cy="1200" r="8" r1="12" r2="5" stroke-width="7" stroke="#ff9900" fill="#ffffff" opacity="1" layer="MULTILAYER" />
    <circle net="0" cx="1400" cy="1200" r="8" r1="12" r2="5" stroke-width="7" stroke="#ff9900" fill="#ffffff" opacity="1" layer="MULTILAYER" />
    <circle net="0" cx="1246" cy="1272" r="8" r1="12" r2="5" stroke-width="7" stroke="#ff9900" fill="#ffffff" opacity="1" layer="MULTILAYER" />
    <circle net="0" cx="1481" cy="1200" r="8" r1="12" r2="5" stroke-width="7" stroke="#ff9900" fill="#ffffff" opacity="1" layer="MULTILAYER" />
    <circle net="0" cx="1442" cy="1200" r="8" r1="12" r2="5" stroke-width="7" stroke="#ff9900" fill="#ffffff" opacity="1" layer="MULTILAYER" />
    <circle net="0" cx="1441" cy="1242" r="8" r1="12" r2="5" stroke-width="7" stroke="#ff9900" fill="#ffffff" opacity="1" layer="MULTILAYER" />
    <circle net="0" cx="1480" cy="1242" r="8" r1="12" r2="5" stroke-width="7" stroke="#ff9900" fill="#ffffff" opacity="1" layer="MULTILAYER" />
    <circle net="0" cx="1399" cy="1242" r="8" r1="12" r2="5" stroke-width="7" stroke="#ff9900" fill="#ffffff" opacity="1" layer="MULTILAYER" />
    <circle net="0" cx="1362" cy="1242" r="8" r1="12" r2="5" stroke-width="7" stroke="#ff9900" fill="#ffffff" opacity="1" layer="MULTILAYER" />
    <circle net="0" cx="1322" cy="1272" r="8" r1="12" r2="5" stroke-width="7" stroke="#ff9900" fill="#ffffff" opacity="1" layer="MULTILAYER" />
    <circle net="0" cx="1521" cy="1242" r="8" r1="12" r2="5" stroke-width="7" stroke="#ff9900" fill="#ffffff" opacity="1" layer="MULTILAYER" />
    <circle net="0" cx="1560" cy="1242" r="8" r1="12" r2="5" stroke-width="7" stroke="#ff9900" fill="#ffffff" opacity="1" layer="MULTILAYER" />
    <circle net="0" cx="1596" cy="1242" r="8" r1="12" r2="5" stroke-width="7" stroke="#ff9900" fill="#ffffff" opacity="1" layer="MULTILAYER" />
    <circle net="0" cx="1679" cy="1242" r="8" r1="12" r2="5" stroke-width="7" stroke="#ff9900" fill="#ffffff" opacity="1" layer="MULTILAYER" />
    <circle net="0" cx="1639" cy="1242" r="8" r1="12" r2="5" stroke-width="7" stroke="#ff9900" fill="#ffffff" opacity="1" layer="MULTILAYER" />
    <circle net="0" cx="1284" cy="1272" r="8" r1="12" r2="5" stroke-width="7" stroke="#ff9900" fill="#ffffff" opacity="1" layer="MULTILAYER" />
    <circle net="0" cx="647" cy="1262" r="8" r1="12" r2="5" stroke-width="7" stroke="#ff9900" fill="#ffffff" opacity="1" layer="MULTILAYER" />
    <circle net="0" cx="604" cy="1262" r="8" r1="12" r2="5" stroke-width="7" stroke="#ff9900" fill="#ffffff" opacity="1" layer="MULTILAYER" />
    <circle net="0" cx="564" cy="1262" r="8" r1="12" r2="5" stroke-width="7" stroke="#ff9900" fill="#ffffff" opacity="1" layer="MULTILAYER" />
    <circle net="0" cx="523" cy="1262" r="8" r1="12" r2="5" stroke-width="7" stroke="#ff9900" fill="#ffffff" opacity="1" layer="MULTILAYER" />
    <circle net="0" cx="486" cy="1262" r="8" r1="12" r2="5" stroke-width="7" stroke="#ff9900" fill="#ffffff" opacity="1" layer="MULTILAYER" />
    <circle net="0" cx="446" cy="1262" r="8" r1="12" r2="5" stroke-width="7" stroke="#ff9900" fill="#ffffff" opacity="1" layer="MULTILAYER" />
    <circle net="0" cx="690" cy="1262" r="8" r1="12" r2="5" stroke-width="7" stroke="#ff9900" fill="#ffffff" opacity="1" layer="MULTILAYER" />
    <circle net="0" cx="734" cy="1262" r="8" r1="12" r2="5" stroke-width="7" stroke="#ff9900" fill="#ffffff" opacity="1" layer="MULTILAYER" />
    <circle net="0" cx="780" cy="1262" r="8" r1="12" r2="5" stroke-width="7" stroke="#ff9900" fill="#ffffff" opacity="1" layer="MULTILAYER" />
    <circle net="0" cx="868" cy="1262" r="8" r1="12" r2="5" stroke-width="7" stroke="#ff9900" fill="#ffffff" opacity="1" layer="MULTILAYER" />
    <circle net="0" cx="823" cy="1262" r="8" r1="12" r2="5" stroke-width="7" stroke="#ff9900" fill="#ffffff" opacity="1" layer="MULTILAYER" />
    <circle net="0" cx="408" cy="1262" r="8" r1="12" r2="5" stroke-width="7" stroke="#ff9900" fill="#ffffff" opacity="1" layer="MULTILAYER" />
    <circle net="0" cx="956" cy="1262" r="8" r1="12" r2="5" stroke-width="7" stroke="#ff9900" fill="#ffffff" opacity="1" layer="MULTILAYER" />
    <circle net="0" cx="1001" cy="1262" r="8" r1="12" r2="5" stroke-width="7" stroke="#ff9900" fill="#ffffff" opacity="1" layer="MULTILAYER" />
    <circle net="0" cx="913" cy="1262" r="8" r1="12" r2="5" stroke-width="7" stroke="#ff9900" fill="#ffffff" opacity="1" layer="MULTILAYER" />
    <circle net="0" cx="912" cy="1319" r="8" r1="12" r2="5" stroke-width="7" stroke="#ff9900" fill="#ffffff" opacity="1" layer="MULTILAYER" />
    <circle net="0" cx="1000" cy="1319" r="8" r1="12" r2="5" stroke-width="7" stroke="#ff9900" fill="#ffffff" opacity="1" layer="MULTILAYER" />
    <circle net="0" cx="955" cy="1319" r="8" r1="12" r2="5" stroke-width="7" stroke="#ff9900" fill="#ffffff" opacity="1" layer="MULTILAYER" />
    <circle net="0" cx="407" cy="1319" r="8" r1="12" r2="5" stroke-width="7" stroke="#ff9900" fill="#ffffff" opacity="1" layer="MULTILAYER" />
    <circle net="0" cx="822" cy="1319" r="8" r1="12" r2="5" stroke-width="7" stroke="#ff9900" fill="#ffffff" opacity="1" layer="MULTILAYER" />
    <circle net="0" cx="867" cy="1319" r="8" r1="12" r2="5" stroke-width="7" stroke="#ff9900" fill="#ffffff" opacity="1" layer="MULTILAYER" />
    <circle net="0" cx="779" cy="1319" r="8" r1="12" r2="5" stroke-width="7" stroke="#ff9900" fill="#ffffff" opacity="1" layer="MULTILAYER" />
    <circle net="0" cx="733" cy="1319" r="8" r1="12" r2="5" stroke-width="7" stroke="#ff9900" fill="#ffffff" opacity="1" layer="MULTILAYER" />
    <circle net="0" cx="689" cy="1319" r="8" r1="12" r2="5" stroke-width="7" stroke="#ff9900" fill="#ffffff" opacity="1" layer="MULTILAYER" />
    <circle net="0" cx="445" cy="1319" r="8" r1="12" r2="5" stroke-width="7" stroke="#ff9900" fill="#ffffff" opacity="1" layer="MULTILAYER" />
    <circle net="0" cx="485" cy="1319" r="8" r1="12" r2="5" stroke-width="7" stroke="#ff9900" fill="#ffffff" opacity="1" layer="MULTILAYER" />
    <circle net="0" cx="522" cy="1319" r="8" r1="12" r2="5" stroke-width="7" stroke="#ff9900" fill="#ffffff" opacity="1" layer="MULTILAYER" />
    <circle net="0" cx="563" cy="1319" r="8" r1="12" r2="5" stroke-width="7" stroke="#ff9900" fill="#ffffff" opacity="1" layer="MULTILAYER" />
    <circle net="0" cx="603" cy="1319" r="8" r1="12" r2="5" stroke-width="7" stroke="#ff9900" fill="#ffffff" opacity="1" layer="MULTILAYER" />
    <circle net="0" cx="646" cy="1319" r="8" r1="12" r2="5" stroke-width="7" stroke="#ff9900" fill="#ffffff" opacity="1" layer="MULTILAYER" />
    <circle net="0" cx="646" cy="1376" r="8" r1="12" r2="5" stroke-width="7" stroke="#ff9900" fill="#ffffff" opacity="1" layer="MULTILAYER" />
    <circle net="0" cx="603" cy="1376" r="8" r1="12" r2="5" stroke-width="7" stroke="#ff9900" fill="#ffffff" opacity="1" layer="MULTILAYER" />
    <circle net="0" cx="563" cy="1376" r="8" r1="12" r2="5" stroke-width="7" stroke="#ff9900" fill="#ffffff" opacity="1" layer="MULTILAYER" />
    <circle net="0" cx="522" cy="1376" r="8" r1="12" r2="5" stroke-width="7" stroke="#ff9900" fill="#ffffff" opacity="1" layer="MULTILAYER" />
    <circle net="0" cx="485" cy="1376" r="8" r1="12" r2="5" stroke-width="7" stroke="#ff9900" fill="#ffffff" opacity="1" layer="MULTILAYER" />
    <circle net="0" cx="445" cy="1376" r="8" r1="12" r2="5" stroke-width="7" stroke="#ff9900" fill="#ffffff" opacity="1" layer="MULTILAYER" />
    <circle net="0" cx="689" cy="1376" r="8" r1="12" r2="5" stroke-width="7" stroke="#ff9900" fill="#ffffff" opacity="1" layer="MULTILAYER" />
    <circle net="0" cx="733" cy="1376" r="8" r1="12" r2="5" stroke-width="7" stroke="#ff9900" fill="#ffffff" opacity="1" layer="MULTILAYER" />
    <circle net="0" cx="779" cy="1376" r="8" r1="12" r2="5" stroke-width="7" stroke="#ff9900" fill="#ffffff" opacity="1" layer="MULTILAYER" />
    <circle net="0" cx="867" cy="1376" r="8" r1="12" r2="5" stroke-width="7" stroke="#ff9900" fill="#ffffff" opacity="1" layer="MULTILAYER" />
    <circle net="0" cx="822" cy="1376" r="8" r1="12" r2="5" stroke-width="7" stroke="#ff9900" fill="#ffffff" opacity="1" layer="MULTILAYER" />
    <circle net="0" cx="407" cy="1376" r="8" r1="12" r2="5" stroke-width="7" stroke="#ff9900" fill="#ffffff" opacity="1" layer="MULTILAYER" />
    <circle net="0" cx="955" cy="1376" r="8" r1="12" r2="5" stroke-width="7" stroke="#ff9900" fill="#ffffff" opacity="1" layer="MULTILAYER" />
    <circle net="0" cx="1000" cy="1376" r="8" r1="12" r2="5" stroke-width="7" stroke="#ff9900" fill="#ffffff" opacity="1" layer="MULTILAYER" />
    <circle net="0" cx="912" cy="1376" r="8" r1="12" r2="5" stroke-width="7" stroke="#ff9900" fill="#ffffff" opacity="1" layer="MULTILAYER" />
    <circle net="0" cx="642" cy="1517" r="8" r1="12" r2="5" stroke-width="7" stroke="#ff9900" fill="#ffffff" opacity="1" layer="MULTILAYER" />
    <circle net="0" cx="599" cy="1517" r="8" r1="12" r2="5" stroke-width="7" stroke="#ff9900" fill="#ffffff" opacity="1" layer="MULTILAYER" />
    <circle net="0" cx="559" cy="1517" r="8" r1="12" r2="5" stroke-width="7" stroke="#ff9900" fill="#ffffff" opacity="1" layer="MULTILAYER" />
    <circle net="0" cx="518" cy="1517" r="8" r1="12" r2="5" stroke-width="7" stroke="#ff9900" fill="#ffffff" opacity="1" layer="MULTILAYER" />
    <circle net="0" cx="481" cy="1517" r="8" r1="12" r2="5" stroke-width="7" stroke="#ff9900" fill="#ffffff" opacity="1" layer="MULTILAYER" />
    <circle net="0" cx="441" cy="1517" r="8" r1="12" r2="5" stroke-width="7" stroke="#ff9900" fill="#ffffff" opacity="1" layer="MULTILAYER" />
    <circle net="0" cx="685" cy="1517" r="8" r1="12" r2="5" stroke-width="7" stroke="#ff9900" fill="#ffffff" opacity="1" layer="MULTILAYER" />
    <circle net="0" cx="729" cy="1517" r="8" r1="12" r2="5" stroke-width="7" stroke="#ff9900" fill="#ffffff" opacity="1" layer="MULTILAYER" />
    <circle net="0" cx="775" cy="1517" r="8" r1="12" r2="5" stroke-width="7" stroke="#ff9900" fill="#ffffff" opacity="1" layer="MULTILAYER" />
    <circle net="0" cx="863" cy="1517" r="8" r1="12" r2="5" stroke-width="7" stroke="#ff9900" fill="#ffffff" opacity="1" layer="MULTILAYER" />
    <circle net="0" cx="818" cy="1517" r="8" r1="12" r2="5" stroke-width="7" stroke="#ff9900" fill="#ffffff" opacity="1" layer="MULTILAYER" />
    <circle net="0" cx="951" cy="1517" r="8" r1="12" r2="5" stroke-width="7" stroke="#ff9900" fill="#ffffff" opacity="1" layer="MULTILAYER" />
    <circle net="0" cx="908" cy="1517" r="8" r1="12" r2="5" stroke-width="7" stroke="#ff9900" fill="#ffffff" opacity="1" layer="MULTILAYER" />
    <circle net="0" cx="1275" cy="1517" r="8" r1="12" r2="5" stroke-width="7" stroke="#ff9900" fill="#ffffff" opacity="1" layer="MULTILAYER" />
    <circle net="0" cx="1232" cy="1517" r="8" r1="12" r2="5" stroke-width="7" stroke="#ff9900" fill="#ffffff" opacity="1" layer="MULTILAYER" />
    <circle net="0" cx="1192" cy="1517" r="8" r1="12" r2="5" stroke-width="7" stroke="#ff9900" fill="#ffffff" opacity="1" layer="MULTILAYER" />
    <circle net="0" cx="1151" cy="1517" r="8" r1="12" r2="5" stroke-width="7" stroke="#ff9900" fill="#ffffff" opacity="1" layer="MULTILAYER" />
    <circle net="0" cx="1114" cy="1517" r="8" r1="12" r2="5" stroke-width="7" stroke="#ff9900" fill="#ffffff" opacity="1" layer="MULTILAYER" />
    <circle net="0" cx="1074" cy="1517" r="8" r1="12" r2="5" stroke-width="7" stroke="#ff9900" fill="#ffffff" opacity="1" layer="MULTILAYER" />
    <circle net="0" cx="1318" cy="1517" r="8" r1="12" r2="5" stroke-width="7" stroke="#ff9900" fill="#ffffff" opacity="1" layer="MULTILAYER" />
    <circle net="0" cx="1362" cy="1517" r="8" r1="12" r2="5" stroke-width="7" stroke="#ff9900" fill="#ffffff" opacity="1" layer="MULTILAYER" />
    <circle net="0" cx="1408" cy="1517" r="8" r1="12" r2="5" stroke-width="7" stroke="#ff9900" fill="#ffffff" opacity="1" layer="MULTILAYER" />
    <circle net="0" cx="1451" cy="1517" r="8" r1="12" r2="5" stroke-width="7" stroke="#ff9900" fill="#ffffff" opacity="1" layer="MULTILAYER" />
    <circle net="0" cx="1036" cy="1517" r="8" r1="12" r2="5" stroke-width="7" stroke="#ff9900" fill="#ffffff" opacity="1" layer="MULTILAYER" />
    <circle net="0" cx="1712" cy="1517" r="8" r1="12" r2="5" stroke-width="7" stroke="#ff9900" fill="#ffffff" opacity="1" layer="MULTILAYER" />
    <circle net="0" cx="1758" cy="1517" r="8" r1="12" r2="5" stroke-width="7" stroke="#ff9900" fill="#ffffff" opacity="1" layer="MULTILAYER" />
    <circle net="0" cx="1802" cy="1517" r="8" r1="12" r2="5" stroke-width="7" stroke="#ff9900" fill="#ffffff" opacity="1" layer="MULTILAYER" />
    <circle net="0" cx="1669" cy="1517" r="8" r1="12" r2="5" stroke-width="7" stroke="#ff9900" fill="#ffffff" opacity="1" layer="MULTILAYER" />
    <circle net="0" cx="1625" cy="1517" r="8" r1="12" r2="5" stroke-width="7" stroke="#ff9900" fill="#ffffff" opacity="1" layer="MULTILAYER" />
    <circle net="0" cx="1587" cy="1517" r="8" r1="12" r2="5" stroke-width="7" stroke="#ff9900" fill="#ffffff" opacity="1" layer="MULTILAYER" />
    <circle net="0" cx="1542" cy="1517" r="8" r1="12" r2="5" stroke-width="7" stroke="#ff9900" fill="#ffffff" opacity="1" layer="MULTILAYER" />
    <circle net="0" cx="1499" cy="1517" r="8" r1="12" r2="5" stroke-width="7" stroke="#ff9900" fill="#ffffff" opacity="1" layer="MULTILAYER" />
    <circle net="0" cx="403" cy="1517" r="8" r1="12" r2="5" stroke-width="7" stroke="#ff9900" fill="#ffffff" opacity="1" layer="MULTILAYER" />
    <circle net="0" cx="996" cy="1517" r="8" r1="12" r2="5" stroke-width="7" stroke="#ff9900" fill="#ffffff" opacity="1" layer="MULTILAYER" />
    <circle net="0" cx="997" cy="1439" r="8" r1="12" r2="5" stroke-width="7" stroke="#ff9900" fill="#ffffff" opacity="1" layer="MULTILAYER" />
    <circle net="0" cx="404" cy="1439" r="8" r1="12" r2="5" stroke-width="7" stroke="#ff9900" fill="#ffffff" opacity="1" layer="MULTILAYER" />
    <circle net="0" cx="1500" cy="1439" r="8" r1="12" r2="5" stroke-width="7" stroke="#ff9900" fill="#ffffff" opacity="1" layer="MULTILAYER" />
    <circle net="0" cx="1543" cy="1439" r="8" r1="12" r2="5" stroke-width="7" stroke="#ff9900" fill="#ffffff" opacity="1" layer="MULTILAYER" />
    <circle net="0" cx="1588" cy="1439" r="8" r1="12" r2="5" stroke-width="7" stroke="#ff9900" fill="#ffffff" opacity="1" layer="MULTILAYER" />
    <circle net="0" cx="1626" cy="1439" r="8" r1="12" r2="5" stroke-width="7" stroke="#ff9900" fill="#ffffff" opacity="1" layer="MULTILAYER" />
    <circle net="0" cx="1670" cy="1439" r="8" r1="12" r2="5" stroke-width="7" stroke="#ff9900" fill="#ffffff" opacity="1" layer="MULTILAYER" />
    <circle net="0" cx="1803" cy="1439" r="8" r1="12" r2="5" stroke-width="7" stroke="#ff9900" fill="#ffffff" opacity="1" layer="MULTILAYER" />
    <circle net="0" cx="1759" cy="1439" r="8" r1="12" r2="5" stroke-width="7" stroke="#ff9900" fill="#ffffff" opacity="1" layer="MULTILAYER" />
    <circle net="0" cx="1713" cy="1439" r="8" r1="12" r2="5" stroke-width="7" stroke="#ff9900" fill="#ffffff" opacity="1" layer="MULTILAYER" />
    <circle net="0" cx="1037" cy="1439" r="8" r1="12" r2="5" stroke-width="7" stroke="#ff9900" fill="#ffffff" opacity="1" layer="MULTILAYER" />
    <circle net="0" cx="1452" cy="1439" r="8" r1="12" r2="5" stroke-width="7" stroke="#ff9900" fill="#ffffff" opacity="1" layer="MULTILAYER" />
    <circle net="0" cx="1409" cy="1439" r="8" r1="12" r2="5" stroke-width="7" stroke="#ff9900" fill="#ffffff" opacity="1" layer="MULTILAYER" />
    <circle net="0" cx="1363" cy="1439" r="8" r1="12" r2="5" stroke-width="7" stroke="#ff9900" fill="#ffffff" opacity="1" layer="MULTILAYER" />
    <circle net="0" cx="1319" cy="1439" r="8" r1="12" r2="5" stroke-width="7" stroke="#ff9900" fill="#ffffff" opacity="1" layer="MULTILAYER" />
    <circle net="0" cx="1075" cy="1439" r="8" r1="12" r2="5" stroke-width="7" stroke="#ff9900" fill="#ffffff" opacity="1" layer="MULTILAYER" />
    <circle net="0" cx="1115" cy="1439" r="8" r1="12" r2="5" stroke-width="7" stroke="#ff9900" fill="#ffffff" opacity="1" layer="MULTILAYER" />
    <circle net="0" cx="1152" cy="1439" r="8" r1="12" r2="5" stroke-width="7" stroke="#ff9900" fill="#ffffff" opacity="1" layer="MULTILAYER" />
    <circle net="0" cx="1193" cy="1439" r="8" r1="12" r2="5" stroke-width="7" stroke="#ff9900" fill="#ffffff" opacity="1" layer="MULTILAYER" />
    <circle net="0" cx="1233" cy="1439" r="8" r1="12" r2="5" stroke-width="7" stroke="#ff9900" fill="#ffffff" opacity="1" layer="MULTILAYER" />
    <circle net="0" cx="1276" cy="1439" r="8" r1="12" r2="5" stroke-width="7" stroke="#ff9900" fill="#ffffff" opacity="1" layer="MULTILAYER" />
    <circle net="0" cx="909" cy="1439" r="8" r1="12" r2="5" stroke-width="7" stroke="#ff9900" fill="#ffffff" opacity="1" layer="MULTILAYER" />
    <circle net="0" cx="952" cy="1439" r="8" r1="12" r2="5" stroke-width="7" stroke="#ff9900" fill="#ffffff" opacity="1" layer="MULTILAYER" />
    <circle net="0" cx="819" cy="1439" r="8" r1="12" r2="5" stroke-width="7" stroke="#ff9900" fill="#ffffff" opacity="1" layer="MULTILAYER" />
    <circle net="0" cx="864" cy="1439" r="8" r1="12" r2="5" stroke-width="7" stroke="#ff9900" fill="#ffffff" opacity="1" layer="MULTILAYER" />
    <circle net="0" cx="776" cy="1439" r="8" r1="12" r2="5" stroke-width="7" stroke="#ff9900" fill="#ffffff" opacity="1" layer="MULTILAYER" />
    <circle net="0" cx="730" cy="1439" r="8" r1="12" r2="5" stroke-width="7" stroke="#ff9900" fill="#ffffff" opacity="1" layer="MULTILAYER" />
    <circle net="0" cx="686" cy="1439" r="8" r1="12" r2="5" stroke-width="7" stroke="#ff9900" fill="#ffffff" opacity="1" layer="MULTILAYER" />
    <circle net="0" cx="442" cy="1439" r="8" r1="12" r2="5" stroke-width="7" stroke="#ff9900" fill="#ffffff" opacity="1" layer="MULTILAYER" />
    <circle net="0" cx="482" cy="1439" r="8" r1="12" r2="5" stroke-width="7" stroke="#ff9900" fill="#ffffff" opacity="1" layer="MULTILAYER" />
    <circle net="0" cx="519" cy="1439" r="8" r1="12" r2="5" stroke-width="7" stroke="#ff9900" fill="#ffffff" opacity="1" layer="MULTILAYER" />
    <circle net="0" cx="560" cy="1439" r="8" r1="12" r2="5" stroke-width="7" stroke="#ff9900" fill="#ffffff" opacity="1" layer="MULTILAYER" />
    <circle net="0" cx="600" cy="1439" r="8" r1="12" r2="5" stroke-width="7" stroke="#ff9900" fill="#ffffff" opacity="1" layer="MULTILAYER" />
    <circle net="0" cx="643" cy="1439" r="8" r1="12" r2="5" stroke-width="7" stroke="#ff9900" fill="#ffffff" opacity="1" layer="MULTILAYER" />
    <circle net="0" cx="722" cy="391" r="8" r1="12" r2="5" stroke-width="7" stroke="#ff9900" fill="#ffffff" opacity="1" layer="MULTILAYER" />
    <circle net="0" cx="657" cy="391" r="8" r1="12" r2="5" stroke-width="7" stroke="#ff9900" fill="#ffffff" opacity="1" layer="MULTILAYER" />
    <circle net="0" cx="334" cy="391" r="8" r1="12" r2="5" stroke-width="7" stroke="#ff9900" fill="#ffffff" opacity="1" layer="MULTILAYER" />
    <circle net="0" cx="463" cy="391" r="8" r1="12" r2="5" stroke-width="7" stroke="#ff9900" fill="#ffffff" opacity="1" layer="MULTILAYER" />
    <circle net="0" cx="398" cy="391" r="8" r1="12" r2="5" stroke-width="7" stroke="#ff9900" fill="#ffffff" opacity="1" layer="MULTILAYER" />
    <circle net="0" cx="916" cy="391" r="8" r1="12" r2="5" stroke-width="7" stroke="#ff9900" fill="#ffffff" opacity="1" layer="MULTILAYER" />
    <circle net="0" cx="269" cy="391" r="8" r1="12" r2="5" stroke-width="7" stroke="#ff9900" fill="#ffffff" opacity="1" layer="MULTILAYER" />
    <circle net="0" cx="528" cy="391" r="8" r1="12" r2="5" stroke-width="7" stroke="#ff9900" fill="#ffffff" opacity="1" layer="MULTILAYER" />
    <circle net="0" cx="593" cy="391" r="8" r1="12" r2="5" stroke-width="7" stroke="#ff9900" fill="#ffffff" opacity="1" layer="MULTILAYER" />
    <circle net="0" cx="787" cy="391" r="8" r1="12" r2="5" stroke-width="7" stroke="#ff9900" fill="#ffffff" opacity="1" layer="MULTILAYER" />
    <circle net="0" cx="851" cy="391" r="8" r1="12" r2="5" stroke-width="7" stroke="#ff9900" fill="#ffffff" opacity="1" layer="MULTILAYER" />
    <circle net="0" cx="1246" cy="1193" r="8" r1="12" r2="5" stroke-width="7" stroke="#ff9900" fill="#ffffff" opacity="1" layer="MULTILAYER" />
    <circle net="0" cx="1210" cy="1160" r="8" r1="12" r2="5" stroke-width="7" stroke="#ff9900" fill="#ffffff" opacity="1" layer="MULTILAYER" />
    <circle net="0" cx="1247" cy="1160" r="8" r1="12" r2="5" stroke-width="7" stroke="#ff9900" fill="#ffffff" opacity="1" layer="MULTILAYER" />
    <circle net="0" cx="1209" cy="1193" r="8" r1="12" r2="5" stroke-width="7" stroke="#ff9900" fill="#ffffff" opacity="1" layer="MULTILAYER" />
    <circle net="0" cx="1211" cy="1272" r="8" r1="12" r2="5" stroke-width="7" stroke="#ff9900" fill="#ffffff" opacity="1" layer="MULTILAYER" />
    <circle net="0" cx="1455" cy="1060" r="8" r1="12" r2="5" stroke-width="7" stroke="#ff9900" fill="#ffffff" opacity="1" layer="MULTILAYER" />
    <circle net="0" cx="1481" cy="1130" r="8" r1="12" r2="5" stroke-width="7" stroke="#ff9900" fill="#ffffff" opacity="1" layer="MULTILAYER" />
    <circle net="0" cx="1000" cy="1220" r="8" r1="12" r2="5" stroke-width="7" stroke="#ff9900" fill="#ffffff" opacity="1" layer="MULTILAYER" />
    <circle net="0" cx="485" cy="1220" r="8" r1="12" r2="5" stroke-width="7" stroke="#ff9900" fill="#ffffff" opacity="1" layer="MULTILAYER" />
    <circle net="0" cx="445" cy="1220" r="8" r1="12" r2="5" stroke-width="7" stroke="#ff9900" fill="#ffffff" opacity="1" layer="MULTILAYER" />
    <circle net="0" cx="604" cy="1220" r="8" r1="12" r2="5" stroke-width="7" stroke="#ff9900" fill="#ffffff" opacity="1" layer="MULTILAYER" />
    <circle net="0" cx="565" cy="1220" r="8" r1="12" r2="5" stroke-width="7" stroke="#ff9900" fill="#ffffff" opacity="1" layer="MULTILAYER" />
    <circle net="0" cx="525" cy="1220" r="8" r1="12" r2="5" stroke-width="7" stroke="#ff9900" fill="#ffffff" opacity="1" layer="MULTILAYER" />
    <circle net="0" cx="915" cy="1220" r="8" r1="12" r2="5" stroke-width="7" stroke="#ff9900" fill="#ffffff" opacity="1" layer="MULTILAYER" />
    <circle net="0" cx="955" cy="1220" r="8" r1="12" r2="5" stroke-width="7" stroke="#ff9900" fill="#ffffff" opacity="1" layer="MULTILAYER" />
    <circle net="2" cx="1700" cy="985" r="12" r1="17" r2="8" stroke-width="9" stroke="#ff9900" fill="#ffffff" opacity="1" layer="MULTILAYER" />
    <circle net="4" cx="1510" cy="1050" r="8" r1="12" r2="5" stroke-width="7" stroke="#ff9900" fill="#ffffff" opacity="1" layer="MULTILAYER" />
    <circle net="6" cx="1765" cy="910" r="8" r1="12" r2="5" stroke-width="7" stroke="#ff9900" fill="#ffffff" opacity="1" layer="MULTILAYER" />
    <circle net="0" cx="259" cy="1417" r="58.8" r1="68" r2="49" stroke-width="19" stroke="#ff9900" fill="#ffffff" opacity="1" layer="MULTILAYER" />
    <circle net="6" cx="259" cy="892" r="58.8" r1="68" r2="49" stroke-width="19" stroke="#ff9900" fill="#ffffff" opacity="1" layer="MULTILAYER" />
    <circle net="0" cx="1789" cy="191" r="58.8" r1="68" r2="49" stroke-width="19" stroke="#ff9900" fill="#ffffff" opacity="1" layer="MULTILAYER" />
    <circle net="2" cx="1073" cy="192" r="58.8" r1="68" r2="49" stroke-width="19" stroke="#ff9900" fill="#ffffff" opacity="1" layer="MULTILAYER" />
  </g>
</svg>

