<?xml version="1.0" encoding="UTF-8"?>
<!DOCTYPE svg PUBLIC "-//W3C//DTD SVG 1.1//EN" "http://www.w3.org/Graphics/SVG/1.1/DTD/svg11.dtd">

<svg xmlns="http://www.w3.org/2000/svg" xmlns:xlink="http://www.w3.org/1999/xlink" width="251.9px" height="251.9px" viewbox="0 0 251.9 251.9" version="1.1">
  <title>TPS56520X_Buck_DDC_A_top: null</title>
  <desc>TPS56520X_Buck_DDC_A WebTHERM&amp;reg; Board Layout file</desc>
<defs>
<g id="0402">
  <g id="MASK" display="none">
  	<g display="inline">
  		<rect x="0.125" y="0.125" width="3.752" height="1.757"/>
  		<path d="M3.752,0.25v1.507H0.25V0.25H3.752 M4.002,0H0v2.007h4.002V0L4.002,0z"/>
  	</g>
  </g>
  <g id="COLOR">
  	<rect fill="#CBCBCB" width="4.002" height="2.007"/>
  	<rect x="1.008" fill="#363636" width="1.986" height="2.007"/>
  </g>
  <g id="OUTLINE">
  	<g>
  		<path d="M3.752,0.25v1.507H0.25V0.25H3.752 M4.002,0H0v2.007h4.002V0L4.002,0z"/>
  	</g>
  	<g>
  		<path d="M2.744,0.25v1.507H1.258V0.25H2.744 M2.994,0H1.008v2.007h1.986V0L2.994,0z"/>
  	</g>
  </g>
</g>
<g id="0603">
  <g id="Mask" style="display:none;">
  	<rect style="display:inline;" width="6.4" height="3.2"/>
  	<rect x="1.6" style="display:inline;" width="3.2" height="3.2"/>
  </g>
  <g id="Outline" style="display:none;">
  	<g style="display:inline;">
  		<path d="M6.15,0.25v2.7h-5.9v-2.7H6.15 M6.4,0H0v3.2h6.4V0L6.4,0z"/>
  	</g>
  	<g style="display:inline;">
  		<path d="M4.55,0.25v2.7h-2.7v-2.7H4.55 M4.8,0H1.6v3.2h3.2V0L4.8,0z"/>
  	</g>
  </g>
  <g id="Color">
  	<rect style="fill:#B3B3B3;" width="6.4" height="3.2"/>
  	<rect x="1.6" style="fill:#1A1A1A;" width="3.2" height="3.2"/>
  </g>
</g>
<g id="1206_190">
  <g>
  	<rect x="0.5" y="0.5" fill="#5B5B5B" stroke="#000000" width="13" height="7"/>
  	<rect x="0.5" y="0.5" fill="#C6C6C6" stroke="#000000" width="3" height="7"/>
  	<rect x="10.5" y="0.501" fill="#C6C6C6" stroke="#000000" width="3" height="6.999"/>
  </g>
</g>
<g id="XAL7070">
  <g id="Mask" display="none">
  	<path display="inline" stroke="#000000" d="M29.299,28.214c0,1.263-1.014,2.286-2.264,2.286H2.764c-1.25,0-2.264-1.023-2.264-2.286
  		V2.787C0.5,1.524,1.514,0.5,2.764,0.5h24.271c1.25,0,2.264,1.024,2.264,2.287V28.214z"/>
  </g>
  <g id="Color">
  	<path fill="#808080" stroke="#000000" d="M29.299,28.214c0,1.263-1.014,2.286-2.264,2.286H2.764c-1.25,0-2.264-1.023-2.264-2.286
  		V2.787C0.5,1.524,1.514,0.5,2.764,0.5h24.271c1.25,0,2.264,1.024,2.264,2.287V28.214z"/>
  </g>
  <g id="Outline" display="none">
  	<path display="inline" fill="none" stroke="#000000" d="M29.299,28.214c0,1.263-1.014,2.286-2.264,2.286H2.764
  		c-1.25,0-2.264-1.023-2.264-2.286V2.787C0.5,1.524,1.514,0.5,2.764,0.5h24.271c1.25,0,2.264,1.024,2.264,2.287V28.214z"/>
  </g>
</g>
<g id="DDC0006A_N">
  <g id="Mask" display="none">
  	<g display="inline">
  		<rect x="3.1" y="0.5" width="6" height="11.2"/>
  		<path d="M8.6,1v10.2h-5V1H8.6 M9.6,0h-7v12.2h7V0L9.6,0z"/>
  	</g>
  	<g display="inline">
  		<rect x="0.5" y="5.583" width="1.688" height="1.034"/>
  		<path d="M1.688,6.083v0.034H1V6.083H1.688 M2.688,5.083H0v2.034h2.688V5.083L2.688,5.083z"/>
  	</g>
  	<g display="inline">
  		<rect x="0.5" y="1.516" width="1.688" height="1.034"/>
  		<path d="M1.688,2.016V2.05H1V2.016H1.688 M2.688,1.016H0V3.05h2.688V1.016L2.688,1.016z"/>
  	</g>
  	<g display="inline">
  		<rect x="0.5" y="9.65" width="1.688" height="1.033"/>
  		<path d="M1.688,10.15v0.033H1V10.15H1.688 M2.688,9.15H0v2.033h2.688V9.15L2.688,9.15z"/>
  	</g>
  	<g display="inline">
  		<rect x="10.058" y="1.516" width="1.643" height="1.034"/>
  		<path d="M11.201,2.016V2.05h-0.643V2.016H11.201 M12.201,1.016H9.558V3.05h2.643V1.016L12.201,1.016z"/>
  	</g>
  	<g display="inline">
  		<rect x="10.058" y="5.583" width="1.643" height="1.034"/>
  		<path d="M11.201,6.083v0.034h-0.643V6.083H11.201 M12.201,5.083H9.558v2.034h2.643V5.083L12.201,5.083z"/>
  	</g>
  	<g display="inline">
  		<rect x="10.058" y="9.65" width="1.643" height="1.033"/>
  		<path d="M11.201,10.15v0.033h-0.643V10.15H11.201 M12.201,9.15H9.558v2.033h2.643V9.15L12.201,9.15z"/>
  	</g>
  </g>
  <g id="Color">
  	<g>
  		<rect x="3.1" y="0.5" fill="#666666" width="6" height="11.2"/>
  		<path d="M8.6,1v10.2h-5V1H8.6 M9.6,0h-7v12.2h7V0L9.6,0z"/>
  	</g>
  	<g>
  		<path d="M1.688,6.083v0.034H1V6.083H1.688 M2.688,5.083H0v2.034h2.688V5.083L2.688,5.083z"/>
  	</g>
  	<g>
  		<path d="M1.688,2.016V2.05H1V2.016H1.688 M2.688,1.016H0V3.05h2.688V1.016L2.688,1.016z"/>
  	</g>
  	<g>
  		<path d="M1.688,10.15v0.033H1V10.15H1.688 M2.688,9.15H0v2.033h2.688V9.15L2.688,9.15z"/>
  	</g>
  	<g>
  		<path d="M11.201,2.016V2.05h-0.643V2.016H11.201 M12.201,1.016H9.558V3.05h2.643V1.016L12.201,1.016z"/>
  	</g>
  	<g>
  		<path d="M11.201,6.083v0.034h-0.643V6.083H11.201 M12.201,5.083H9.558v2.034h2.643V5.083L12.201,5.083z"/>
  	</g>
  	<g>
  		<path d="M11.201,10.15v0.033h-0.643V10.15H11.201 M12.201,9.15H9.558v2.033h2.643V9.15L12.201,9.15z"/>
  	</g>
  </g>
  <g id="Outline" display="none">
  	<g display="inline">
  		<path d="M8.6,1v10.2h-5V1H8.6 M9.6,0h-7v12.2h7V0L9.6,0z"/>
  	</g>
  	<g display="inline">
  		<path d="M1.688,6.083v0.034H1V6.083H1.688 M2.688,5.083H0v2.034h2.688V5.083L2.688,5.083z"/>
  	</g>
  	<g display="inline">
  		<path d="M1.688,2.016V2.05H1V2.016H1.688 M2.688,1.016H0V3.05h2.688V1.016L2.688,1.016z"/>
  	</g>
  	<g display="inline">
  		<path d="M1.688,10.15v0.033H1V10.15H1.688 M2.688,9.15H0v2.033h2.688V9.15L2.688,9.15z"/>
  	</g>
  	<g display="inline">
  		<path d="M11.201,2.016V2.05h-0.643V2.016H11.201 M12.201,1.016H9.558V3.05h2.643V1.016L12.201,1.016z"/>
  	</g>
  	<g display="inline">
  		<path d="M11.201,6.083v0.034h-0.643V6.083H11.201 M12.201,5.083H9.558v2.034h2.643V5.083L12.201,5.083z"/>
  	</g>
  	<g display="inline">
  		<path d="M11.201,10.15v0.033h-0.643V10.15H11.201 M12.201,9.15H9.558v2.033h2.643V9.15L12.201,9.15z"/>
  	</g>
  </g>
</g>
</defs>
<g id="boardComps">
  <g id="topview_images">
    <use x="143.0" y="165.0" width="4.0" height="2.0" name="0_Cinx_0402" xlink:href="#0402" />
    <use x="158.0" y="143.0" width="6.0" height="3.0" name="4_Cbst_0603" xlink:href="#0603" />
    <use x="138.0" y="169.0" width="14.0" height="8.0" name="1_Cin_1_1206_190" xlink:href="#1206_190" />
    <use x="138.0" y="179.0" width="14.0" height="8.0" name="1_Cin_2_1206_190" xlink:href="#1206_190" />
    <use x="81.0" y="135.0" width="6.0" height="3.0" transform="rotate(-90.0 85.0 136.0)" name="5_Cout_1_0603" xlink:href="#0603" />
    <use x="72.0" y="135.0" width="6.0" height="3.0" transform="rotate(-90.0 75.0 136.0)" name="5_Cout_2_0603" xlink:href="#0603" />
    <rect x="178.0" y="229.0" width="6.0" height="6.0" transform="rotate(-180.0 181.0 232.0)" name="7_GND_TP-1502" style="fill:white;stroke:black;stroke-width:1;" />
    <rect x="23.0" y="104.0" width="6.0" height="6.0" transform="rotate(-90.0 26.0 108.0)" name="9_GND1_TP-1502" style="fill:white;stroke:black;stroke-width:1;" />
    <use x="96.0" y="143.0" width="29.0" height="31.0" transform="rotate(-180.0 111.0 159.0)" name="10_L1_XAL7070" xlink:href="#XAL7070" />
    <use x="168.0" y="168.0" width="4.0" height="2.0" name="2_Rfbb_0402" xlink:href="#0402" />
    <use x="168.0" y="158.0" width="4.0" height="2.0" transform="rotate(-180.0 170.0 159.0)" name="3_Rfbt_0402" xlink:href="#0402" />
    <use x="141.0" y="149.0" width="12.0" height="12.0" name="11_U1_DDC0006A_N" xlink:href="#DDC0006A_N" />
    <rect x="105.0" y="229.0" width="6.0" height="6.0" transform="rotate(-180.0 108.0 232.0)" name="6_VIN_TP-1502" style="fill:white;stroke:black;stroke-width:1;" />
    <rect x="23.0" y="158.0" width="6.0" height="6.0" transform="rotate(-90.0 26.0 161.0)" name="8_VOUT_TP-1502" style="fill:white;stroke:black;stroke-width:1;" />
  </g>
</g>
</svg>
