**ABCDEFGHIJKLMNOPQRSTUVWXYZabcdefghijklmnopqrstuvwxyz**************************
**PARASOLID !"#$%&'()*+,-./:;<=>?@[\]^_`{|}~0123456789**************************
**PART1;
MC=unknown;
MC_MODEL=unknown;
MC_ID=unknown;
OS=unknown;
OS_RELEASE=unknown;
FRU=Parasolid 32.1.212;
APPL=Onshape;
SITE=unknown;
USER=unknown;
FORMAT=text;
GUISE=transmit;
KEY=BTGapi::writeModels_.xmt;
FILE=BTGapi::writeModels_.xmt;
DATE=2020-08-20T03:34:30 (UTC);
**PART2;
SCH=SCH_3201212_32001;
USFLD_SIZE=0;
**PART3;
**END_OF_HEADER*****************************************************************
T51 : TRANSMIT FILE created by modeller version 320121223 SCH_3201212_32001_1300
6229 0 12 34 CCCCCCI4 mesh1006 0 I8 polyline1008 0 CCCCCCCDI5 owner1040 0 CCCCCC
I13 boundary_mesh1006 0 I17 boundary_polyline1008 0 CCCA16 index_map_offset0 0 1
 dA9 index_map82 0 A17 node_id_index_map82 0 A20 schema_embedding_map82 0 A5 chi
ld12 0 A14 lowest_node_id0 0 1 dA16 mesh_offset_data206 0 Z1 345 2 3 0 0 0 0 0 0
 1e3 1e-8 0 4 5 1 0 1 1 6 7 8 0 0 0 9 10 0 0 0 0 0 0 0 0 81 255 1 2 334 11 1 12
 0 0 0 13 70 11 CI9 list_type0 0 1 uI10 notransmit0 0 1 lCCCDCCDI12 finger_index
0 0 1 dI12 finger_block1012 0 CZ3 0 4 T1 0 0 6 20 1 14 14 13 255 6 62 0 1 0 15 0
 0 16 0 52 255 7 323 17 18 19 0 0 +0 857252759403147e-33 .073 0 0 -1 .012 .70710
6781186547 .707106781186548 -1 0 0 31 255 8 307 0 10 20 0 0 -0 857252759403147e-
33 .071 0 0 1 1 0 0 .014 19 8 CCCCCCCA5 owner12 0 Z9 19 0 1 16 0 21 V0 16 255 10
 304 22 ?23 0 24 8 0 0 1 81 1 22 328 25 10 0 0 26 27 28 17 255 23 0 29 23 23 0 3
0 10 0 0 +16 24 275 31 ?32 10 33 20 0 0 1 81 1 31 299 25 24 0 0 34 35 36 17 32 0
 37 32 32 0 38 24 0 0 +16 33 269 34 ?39 24 40 41 0 0 1 31 20 278 0 24 41 8 0 -0
 734788079488412e-33 5e-4 0 0 1 1 0 0 .012 31 41 272 0 33 42 20 0 +0 73478807948
8412e-33 0 0 0 1 1 0 0 .0125 38 12 CCCCCCCCCCCA17 intersection_data204 0 Z42 168
 0 43 44 41 0 +45 46 47 48 48 49 16 43 199 50 ?51 52 53 42 0 0 1 38 44 161 0 53
 54 42 0 +45 46 55 56 56 57 51 255 45 139 0 58 59 60 61 -0 979717439317882e-33 .
039 0 0 -1 .016 -1 0 0 51 46 246 0 62 0 63 64 -.025 216840434497101e-33 .035 -1
 0 0 .0014 0 0 1 40 255 20 47 0 1 20 793285169198381e-19 .3385227025809305 ??-.0
16 979717439317882e-33 .0364 -.0159933167514776 .000462405976287582 .03632143131
22874 -.0159761839443628 .000872666360004532 .0360947389753345 -.015956009578874
95 .001185646793464114 .03574447409702975 -.0159416360225167 .001365372083205902
 .03530944963144585 -.01593943071748925 .00139088044143274 .03484046443142715 -.
0159502734007523 .001260467548671208 .0343907204592744 -.0159694195390808 .00098
87565852242 .03400885903365075 -.01598856517052985 .000604800618153726 .03373737
724862855 -.0159992751128837 .0001523018787136745 .03360830889284285 -.015996879
54822235 -.000315982150864537 .03363612490295665 -.0159825065840582 -.0007479861
56647166 .0338165657139223 -.0159623506361815 -.001096978654120304 .034130150684
0812 -.01594518928035985 -.001323230446104214 .0345427679074006 -.01593863369690
8 -.001399984241264206 .0350066426058052 -.0159455092048597 -.00131936962134774
 .03546825612891315 -.0159627516608397 -.00109112758848802 .0358771776249086 -.0
1598289911492305 -.000739551135617155 .0361887237348549 -.01599711579571905 -.00
0303786468356689 .0363666432532462 -.016 783332367737782e-33 .0364 41 3 CI8 term
_use0 0 1 cCZ1 48 H?-.016 783332367737782e-33 .0364 204 2 17 INTERSECTION_DATA17
 Intersection data7 uv_type0 0 1 u6 values0 1 1 fT80 49 4 0 .0026 54491214630055
9e-30 .041 .0289043981149708 .00267856868771262 .336610783307732 .04099331675147
76 .0545687254338628 .00290526102466549 .672998030856457 .04097618394436285 .074
1709122604433 .003255525902970245 1.010110418578064 .0409560095788749 .085439667
9622184 .003690550368554145 1.347920272157686 .0409416360225167 .087039887490102
2 .004159535568572855 1.6849983818009 .04093943071748925 .0788609363604829 .0046
092795407256 2.021056367106035 .0409502734007523 .0618366873152074 .004991140966
34928 2.35739878481379 .0409694195390808 .0378090461470561 .00526262275137147 2.
694882956179255 .0409885651705299 .00951901117438379 .00539169110715714 3.032589
870866645 .0409992751128837 6.26343513878702 .00536387509704335 3.36925574766495
5 .04099687954822235 6.23641912739161 .00518343428607768 3.70524347261103 .04098
25065840582 6.21457031387366 .00486984931591879 4.04196157495607 .04096235063618
15 6.20038883822926 .004457232092599415 4.379690891825985 .04094518928035985 6.1
9557425580289 .003993357394194805 4.71713371661961 .040938633696908 6.2006309668
0725 .00353174387108686 5.05343034608213 .0409455092048597 6.21493686340026 .003
12282237509138 5.38951467262145 .0409627516608397 6.23694688673956 .002811276265
1451 5.72664614379427 .04098289911492305 6.26419751196274 .002633356746753795 6.
06445502354324 .04099711579571905 0 .0026 404637095171916e-30 .041 14 255 62 216
 65 ?66 67 68 6 46 +67 67 66 67 21 50 255 63 141 0 69 46 59 0 +0 0 .039 0 0 1 1
 0 0 141 255 64 44 70 71 46 141 70 72 73 64 46 141 71 42 64 73 46 141 73 74 71 7
0 46 38 74 250 0 52 0 72 0 +75 46 76 77 77 78 16 52 196 79 ?80 81 43 74 0 0 1 38
 72 249 0 81 74 82 0 +75 46 83 84 84 85 51 75 61 0 15 86 19 87 -0 73478807948841
2e-33 .073 0 0 -1 .012 -1 0 0 40 20 76 0 1 20 796493868137678e-19 .3394409200327
06 ??.012 216840434497101e-33 .0364 .01199111742276806 -.000461630754378648 .036
32170232904835 .0119683341987118 -.000871192577990627 .03609591217351305 .011941
3980235369 -.001184488599974266 .0357463154537667 .01192211317529362 -.001364997
229114398 .0353110989625666 .01191909492062552 -.001391106132945594 .03484244452
760645 .0119334604093816 -.001261951923696696 .0343938009054129 .011958929181151
56 -.000991974213476018 .03401207937576005 .01198454665814794 -.0006088032512027
15 .03373930233548045 .01199898156530476 -.0001563374410582265 .0336087564539149
5 .01199596127796088 .000311308557002663 .0336350505568568 .0119769966311035 .00
0742665266816435 .03381321935410775 .01195015614390274 .001092596968851434 .0341
2465328945805 .0119270637062587 .001321041765746362 .0345364823054578 .011918053
53284152 .00139999999582987 .0350001080572331 .01192696686032896 .00132191584929
4044 .0354610189664051 .01194977083291592 .001096803100283716 .0358700706633418
 .01197669472566192 .000747518192622513 .03618372993190945 .01199593063550442 .0
003124871007997655 .0363646801133723 .012 -2067137086814945e-34 .0364 41 1 77 H?
.012 -2067137086814945e-34 .0364 204 80 78 4 3.141592653589795 .0366 0 .013 3.18
007137776326 .03667829767095165 5.94716111690263 .01300888257723194 3.2142559613
9192 .03690408782648695 5.61153279570656 .01303166580128822 3.240461030554055 .0
372536845462333 5.27462868706517 .0130586019764631 3.25558916362856 .03768890103
74334 4.93647317262636 .01307788682470636 3.2577793960437 .03815755547239355 4.5
9961043752873 .01308090507937448 3.24695012049938 .0386061990945871 4.2645713923
6261 .0130665395906184 3.22435160899744 .03898792062423995 3.92903819015828 .013
04107081884842 3.19234804696231 .03926069766451955 3.591474861052275 .0130154533
4185206 3.15462114225409 .03939124354608505 3.25349565498043 .01300101843469524
 3.115647363057125 .0393649494431432 2.917354909311535 .01300403872203912 3.0796
6430516673 .03918678064589225 2.582431622241955 .0130230033688965 3.050416633293
34 .03887534671054195 2.246245146432085 .01304984385609724 3.03128225932904 .038
4635176945422 1.908248532630855 .0130729362937413 3.024659692477315 .03799989194
27669 1.5707191430569 .01308194646715848 3.031208973303445 .0375389810335949 1.2
3523497791286 .01307303313967104 3.050064654695835 .0371299293366582 .9001671260
6754 .01305022916708408 3.079259112859005 .03681627006809055 .563255439592129 .0
1302330527433806 3.115549117883265 .0366353198866277 .2251012634477765 .01300406
936449556 3.141592653589795 .0366 0 .013 14 15 57 88 ?58 0 37 6 75 +0 0 58 0 21
 51 86 60 0 89 60 75 0 -0 857252759403147e-33 .073 0 0 -1 .014 -1 0 0 54 255 19
 294 0 66 75 7 0 +0 734788079488412e-33 5e-4 0 0 1 .0125 5e-4 1 0 0 141 87 74 90
 90 75 141 90 72 87 87 75 14 66 287 91 ?18 62 92 6 19 +0 0 18 62 21 81 1 91 344
 93 66 35 0 65 94 95 14 18 316 94 ?0 66 96 6 7 +0 0 0 66 21 15 255 92 288 0 38 6
6 97 13 21 20 0 0 0 0 0 0 9 15 17 38 0 92 38 38 0 32 24 0 0 -15 97 289 0 98 66 0
 17 98 0 97 98 98 0 39 33 0 0 -17 39 0 99 39 39 0 98 33 0 0 +15 99 270 0 39 100
 101 14 100 34 102 ?69 89 99 6 60 -0 0 69 89 21 15 101 40 0 103 100 0 17 103 0 1
01 103 103 0 104 105 0 0 -17 104 0 106 104 104 0 103 105 0 0 +16 105 41 107 ?104
 108 109 110 0 0 1 81 1 107 71 25 105 0 0 0 111 112 16 108 8 27 ?113 40 105 114
 0 0 1 16 109 108 115 ?116 105 117 118 0 0 1 31 110 50 0 105 114 54 0 +0 8572527
59403147e-33 0 0 0 1 1 0 0 .014 31 114 10 0 108 119 110 0 +0 734788079488412e-33
 .073 0 0 1 1 0 0 .012 31 54 83 0 40 110 44 0 +0 857252759403147e-33 .031 0 0 1
 1 0 0 .014 16 40 80 120 ?121 33 108 54 0 0 1 81 1 120 152 25 40 0 0 122 123 124
 17 121 0 125 121 121 0 126 40 0 0 +15 125 134 0 121 127 128 17 126 0 129 126 12
6 0 121 40 0 0 -15 129 82 0 126 130 0 14 130 84 131 ?89 58 106 6 86 -89 89 89 58
 21 81 1 131 337 93 130 132 0 133 134 135 14 89 53 134 ?100 130 29 6 86 -130 130
 100 130 21 14 58 121 133 ?130 15 136 6 45 -0 0 130 15 21 15 106 54 0 104 130 12
9 81 1 133 336 93 58 137 0 88 131 138 15 136 124 0 139 58 140 17 139 0 136 139 1
39 0 116 109 0 0 -15 140 125 0 141 58 142 17 141 0 140 141 141 0 143 144 0 0 +15
 142 160 0 145 58 146 17 145 0 142 145 145 0 147 53 0 0 -15 146 167 0 148 58 0 1
7 148 0 146 148 148 0 51 43 0 0 -17 51 0 149 51 51 0 148 43 0 0 +15 149 220 0 51
 62 0 17 147 0 150 147 147 0 145 53 0 0 +16 53 205 151 ?147 43 0 44 0 0 1 81 1 1
51 265 25 53 0 0 50 152 153 80 255 1 25 154 155 9000 0 0 0 0 3 6 0 0 0 FFTFTFTTF
FFFFF1 81 1 50 264 25 43 0 0 79 151 156 81 1 152 266 25 62 0 65 151 157 158 82 2
55 3 153 12 3 1 81 1 65 343 93 62 152 0 159 91 160 81 1 157 267 25 67 0 159 152
 34 161 82 3 158 12 2 2 14 67 231 159 ?62 127 162 6 46 +62 62 62 127 21 81 1 159
 342 93 67 157 0 163 65 164 81 1 34 298 25 33 0 0 157 31 165 82 3 161 12 3 2 82
 3 165 13 0 1 80 1 93 0 166 8001 0 0 0 0 3 5 0 0 0 FFFFTFTFFFFFFF2 81 1 163 341
 93 127 167 0 168 159 169 83 255 3 164 .866666666666667 .866666666666667 .866666
666666667 14 127 131 163 ?67 69 125 6 59 -0 0 67 69 21 81 1 167 133 25 127 0 163
 170 122 171 81 1 168 340 93 69 170 0 102 163 172 83 3 169 .866666666666667 .866
666666666667 .866666666666667 14 69 126 168 ?127 100 173 6 63 +0 0 127 100 21 81
 1 170 128 25 69 0 168 115 167 174 81 1 102 339 93 100 175 0 134 168 176 83 3 17
2 .866666666666667 .866666666666667 .866666666666667 81 1 175 301 25 100 0 102 3
5 26 177 81 1 134 338 93 89 178 0 131 102 179 83 3 176 .866666666666667 .8666666
66666667 .866666666666667 81 1 178 331 25 89 0 134 180 0 181 83 3 179 .866666666
666667 .866666666666667 .866666666666667 81 1 180 330 25 18 0 94 27 178 182 82 3
 181 16 1 2 81 1 94 345 93 18 180 0 91 0 183 81 1 27 329 25 108 0 0 22 180 184 8
2 3 182 16 0 2 82 3 184 16 1 1 83 3 183 .866666666666667 .866666666666667 .86666
6666666667 81 1 35 300 25 66 0 91 31 175 185 81 1 26 302 25 15 0 88 175 22 186 8
2 3 177 13 1 2 81 1 88 335 93 15 26 0 0 133 187 82 3 186 13 2 2 83 3 187 .866666
666666667 .866666666666667 .866666666666667 82 3 185 13 0 2 81 1 115 110 25 109
 0 0 111 170 188 82 3 174 7 2 2 81 1 111 107 25 144 0 0 107 115 189 82 3 188 7 3
 1 16 144 105 111 ?141 117 81 119 0 0 1 82 3 189 7 2 1 16 117 100 123 ?190 109 1
44 82 0 0 1 16 81 193 191 ?192 144 52 72 0 0 1 31 119 142 0 144 118 114 0 +0 979
717439317882e-33 .031 0 0 1 1 0 0 .016 31 118 144 0 109 82 119 0 +0 979717439317
882e-33 .039 0 0 1 1 0 0 .016 31 82 145 0 117 72 118 0 +0 857252759403147e-33 .0
39 0 0 1 1 0 0 .014 81 1 191 262 25 81 0 0 137 79 193 17 192 0 194 192 192 0 195
 81 0 0 +15 194 179 0 192 15 0 17 195 0 68 195 195 0 192 81 0 0 -15 68 219 0 195
 62 149 81 1 137 261 25 58 0 133 132 191 196 81 1 79 263 25 52 0 0 191 50 197 82
 3 193 12 0 1 82 3 197 12 1 1 81 1 132 154 25 130 0 131 123 137 198 82 3 196 12
 1 2 81 1 123 153 25 117 0 0 120 132 199 82 3 198 8 0 2 82 3 199 8 1 1 17 190 0
 200 190 190 0 201 117 0 0 +15 200 88 0 190 89 0 17 201 0 173 201 201 0 190 117
 0 0 -15 173 129 0 201 69 202 15 202 130 0 116 69 0 17 116 0 202 116 116 0 139 1
09 0 0 +81 1 122 151 25 1 0 203 167 120 204 82 3 171 7 1 2 81 1 203 332 205 1 12
2 12 0 0 206 82 3 204 6 0 3 80 1 205 207 208 8038 0 0 0 0 0 0 0 0 0 TTTTTTTTTTTT
TF10 81 1 12 333 207 1 203 2 0 0 209 98 255 6 206 80 97 114 116 32 49 80 1 207 2
10 211 8017 0 0 0 0 0 0 0 0 0 TTTTTTTTTTTTTF3 84 255 6 209 Part 179 255 13 211 S
DL/TYSA_NAME79 14 208 SDL/TYSA_UNAME50 59 140 0 127 63 45 0 +0 0 .031 0 0 1 1 0
 0 79 15 166 SDL/TYSA_COLOUR15 162 224 0 212 67 150 17 212 0 162 212 212 0 80 52
 0 0 -15 150 225 0 147 67 0 17 80 0 213 80 80 0 212 52 0 0 +15 213 173 0 80 15 2
14 15 214 56 0 113 15 194 17 113 0 214 113 113 0 215 108 0 0 +17 215 0 216 215 2
15 0 113 108 0 0 -15 216 318 0 215 18 0 83 3 160 .866666666666667 .8666666666666
67 .866666666666667 82 3 156 12 2 1 79 9 155 BTI/DetId17 143 0 128 143 143 0 141
 144 0 0 -15 128 135 0 143 127 0 83 3 138 .866666666666667 .866666666666667 .866
666666666667 15 29 305 0 23 89 200 83 3 135 .866666666666667 .866666666666667 .8
66666666666667 82 3 124 8 0 1 82 3 112 6 2 1 50 60 49 0 100 45 86 0 +0 0 0 0 0 1
 1 0 0 15 96 317 0 30 18 216 17 30 0 96 30 30 0 23 10 0 0 -83 3 95 .866666666666
667 .866666666666667 .866666666666667 15 37 276 0 32 15 213 40 20 83 0 1 20 7964
93868137678e-19 .339440920032706 ??-.012 734788079488412e-33 .0364 -.01199111742
276806 .000461630754378649 .03632170232904835 -.0119683341987118 .00087119257799
0628 .03609591217351305 -.0119413980235369 .001184488599974266 .0357463154537667
 -.01192211317529362 .0013649972291144 .0353110989625666 -.01191909492062552 .00
1391106132945594 .03484244452760645 -.0119334604093816 .001261951923696696 .0343
938009054129 -.01195892918115158 .000991974213476019 .03401207937576005 -.011984
54665814794 .000608803251202716 .03373930233548045 -.01199898156530476 .00015633
7441058226 .03360875645391495 -.01199596127796088 -.000311308557002663 .03363505
05568568 -.0119769966311035 -.000742665266816435 .03381321935410775 -.0119501561
4390274 -.001092596968851434 .03412465328945805 -.0119270637062587 -.00132104176
5746362 .0345364823054578 -.01191805353284152 -.00139999999582987 .0350001080572
331 -.01192696686032896 -.001321915849294044 .0354610189664051 -.011949770832915
92 -.001096803100283716 .0358700706633418 -.01197669472566192 -.0007475181926225
13 .03618372993190945 -.01199593063550442 -.000312487100799765 .0363646801133723
 -.012 1126590662218658e-33 .0364 41 1 84 H?-.012 1126590662218658e-33 .0364 204
 80 85 4 0 .0366 3699626035652225e-31 .037 .03847872417346445 .03667829767095165
 .3360241902769595 .03699111742276805 .0726633078021245 .03690408782648695 .6716
52511473023 .0369683341987118 .0988683769642596 .0372536845462333 1.008556620114
414 .0369413980235369 .1139965100387644 .0376889010374334 1.34671213455323 .0369
2211317529365 .1161867424539058 .03815755547239355 1.68357486965086 .03691909492
062555 .1053574669095862 .0386061990945871 2.01861391481698 .0369334604093816 .0
827589554076472 .03898792062423995 2.354147117021305 .0369589291811516 .05075539
33725149 .03926069766451955 2.691710446127315 .03698454665814795 .01302848866429
54 .03939124354608505 3.029689652199155 .03699898156530475 6.25724001664692 .039
3649494431432 3.36583039786805 .0369959612779609 6.22125695875652 .0391867806458
9225 3.70075368493763 .0369769966311035 6.19200928688313 .03887534671054195 4.03
6940160747505 .03695015614390275 6.17287491291883 .0384635176945422 4.3749367745
4873 .0369270637062587 6.16625234606711 .0379998919427669 4.71246616412268 .0369
1805353284155 6.17280162689324 .0375389810335949 5.04795032926673 .0369269668603
2895 6.19165730828563 .0371299293366582 5.38301818111205 .03694977083291595 6.22
08517664488 .03681627006809055 5.71992986758746 .03697669472566195 6.25714177147
306 .0366353198866277 6.05808404373181 .03699593063550445 326502152275205e-31 .0
366 649821591229684e-30 .037 141 61 44 217 217 45 141 217 42 61 61 45 40 20 55 0
 1 20 793285169198381e-19 .3385227025809305 ??.016 216840434497101e-33 .0364 .01
59933167514776 -.000462405976287583 .0363214313122874 .0159761839443628 -.000872
666360004534 .0360947389753345 .01595600957887495 -.001185646793464114 .03574447
409702975 .0159416360225167 -.001365372083205904 .03530944963144585 .01593943071
748925 -.00139088044143274 .03484046443142715 .0159502734007523 -.00126046754867
1204 .0343907204592744 .0159694195390808 -.000988756585224192 .0340088590336507
 .01598856517052985 -.000604800618153725 .03373737724862855 .0159992751128837 -.
0001523018787136715 .03360830889284285 .01599687954822235 .000315982150864541 .0
3363612490295665 .0159825065840582 .00074798615664717 .0338165657139223 .0159623
506361815 .00109697865412031 .0341301506840812 .01594518928035985 .0013232304461
04214 .0345427679074006 .015938633696908 .001399984241264206 .0350066426058052 .
0159455092048597 .00131936962134774 .03546825612891315 .0159627516608397 .001091
127588488014 .03587717762490865 .01598289911492305 .000739551135617154 .03618872
37348549 .01599711579571905 .0003037864683566875 .0363666432532462 .016 13572733
1364039e-33 .0364 41 1 56 H?.016 135727331364039e-33 .0364 204 80 57 4 3.1415926
53589795 .0026 0 .009 3.170497051704765 .00267856868771262 5.94657452387185 .009
00668324852242 3.196161379023655 .00290526102466549 5.61018727632313 .0090238160
5563718 3.215763565850235 .003255525902970245 5.27307488860152 .0090439904211250
8 3.22703232155201 .003690550368554155 4.9352650350219 .00905836397748331 3.2286
32541079895 .00415953556857285 4.59818692537869 .00906056928251075 3.22045358995
0275 .0046092795407256 4.262128940073545 .00904972659924768 3.203429340905 .0049
9114096634928 3.92578652236579 .0090305804609192 3.17940169973685 .0052626227513
7147 3.58830235100033 .00901143482947013 3.151111664764175 .00539169110715714 3.
25059543631294 .00900072488711628 3.12184248519723 .00536387509704335 2.91392955
951463 .00900312045177763 3.09482647380182 .00518343428607768 2.577941834568555
 .00901749341594179 3.072977660283865 .00486984931591879 2.24122373222352 .00903
764936381848 3.058796184639465 .004457232092599415 1.903494415353605 .0090548107
1964015 3.0539816022131 .003993357394194805 1.566051590559975 .00906136630309198
 3.059038313217455 .00353174387108686 1.229754961097452 .00905449079514032 3.073
344209810465 .00312282237509137 .89367063455813 .00903724833916031 3.09535423314
9765 .0028112762651451 .55653916338532 .00901710088507697 3.12260485837295 .0026
33356746753795 .21873028363634 .00900288420428097 3.141592653589795 .0026 0 .009
 82 3 36 13 1 1 82 3 28 16 0 1 19 16 63 0 1 0 9 6 S0 81 2 17 324 218 7 0 0 0 0 2
19 220 80 2 218 221 222 8044 0 0 0 0 3 5 0 0 0 FFFFTFFFTTFFFF3 2 84 6 219 BAAAAB
83 3 220 0 .002 .002 79 17 222 SDL/TYSA_BLEND_ID74 4 CI16 index_map_offset0 0 1
 dCCZ20 14 6 0 0 178 17 203 12 2 94 0 0 0 0 0 0 0 0 0 0 0 0 0 0 80 1 11 93 223 8
040 0 0 0 0 3 5 0 0 0 TTTFFFFFFFFFFF2 83 3 13 .866666666666667 .866666666666667
 .866666666666667 79 17 223 SDL/TYSA_COLOUR_21 0 
