**ABCDEFGHIJKLMNOPQRSTUVWXYZabcdefghijklmnopqrstuvwxyz**************************
**PARASOLID !"#$%&'()*+,-./:;<=>?@[\]^_`{|}~0123456789**************************
**PART1;
MC=unknown;
MC_MODEL=unknown;
MC_ID=unknown;
OS=unknown;
OS_RELEASE=unknown;
FRU=Parasolid 32.1.212;
APPL=Onshape;
SITE=unknown;
USER=unknown;
FORMAT=text;
GUISE=transmit;
KEY=BTGapi::writeModels_.xmt;
FILE=BTGapi::writeModels_.xmt;
DATE=2020-08-21T01:22:43 (UTC);
**PART2;
SCH=SCH_3201212_32001;
USFLD_SIZE=0;
**PART3;
**END_OF_HEADER*****************************************************************
T51 : TRANSMIT FILE created by modeller version 320121223 SCH_3201212_32001_1300
6229 0 12 34 CCCCCCI4 mesh1006 0 I8 polyline1008 0 CCCCCCCDI5 owner1040 0 CCCCCC
I13 boundary_mesh1006 0 I17 boundary_polyline1008 0 CCCA16 index_map_offset0 0 1
 dA9 index_map82 0 A17 node_id_index_map82 0 A20 schema_embedding_map82 0 A5 chi
ld12 0 A14 lowest_node_id0 0 1 dA16 mesh_offset_data206 0 Z1 781 2 3 0 0 0 0 0 0
 1e3 1e-8 0 4 5 1 0 1 1 6 7 8 9 0 0 10 11 12 0 0 0 0 0 0 0 81 255 1 2 765 13 1 1
4 0 0 0 15 70 11 CI9 list_type0 0 1 uI10 notransmit0 0 1 lCCCDCCDI12 finger_inde
x0 0 1 dI12 finger_block1012 0 CZ3 0 4 T1 0 0 6 20 1 16 16 13 255 6 62 0 1 0 17
 0 0 18 0 52 255 7 323 19 20 21 0 22 +0 857252759403147e-33 .073 0 0 -1 .012 .70
7106781186547 .707106781186548 -1 0 0 38 12 CCCCCCCCCCCA17 intersection_data204
 0 Z8 699 0 23 24 0 0 +25 26 27 28 28 29 29 255 9 338 0 12 30 0 .003 -.013674794
33117734 .071 19 8 CCCCCCCA5 owner12 0 Z10 19 0 1 18 0 31 V0 16 255 11 353 32 ?3
3 0 34 35 0 0 1 18 255 12 337 36 37 0 38 9 ?1 81 1 36 618 39 12 0 0 40 41 42 17
 255 37 0 43 44 45 12 46 47 0 48 +18 38 488 40 33 12 49 30 ?1 81 1 40 617 39 38
 0 0 50 36 51 17 33 0 52 53 54 38 55 11 0 56 +18 49 492 57 44 38 58 59 ?1 29 30
 559 0 38 59 9 -.003 -.01367479433117734 .071 29 59 561 0 49 60 30 .003 -.011618
95003862224 .073 29 60 562 0 58 61 59 -.003 -.01161895003862224 .073 18 58 479 4
1 54 49 62 60 ?1 29 61 567 0 62 63 60 -.003 -.01161895003862224 .076 18 62 486 6
4 65 58 66 61 ?1 29 63 568 0 66 67 61 .003 -.01161895003862224 .076 18 66 497 68
 69 62 70 63 ?1 29 67 569 0 70 71 63 .003 -.01367479433117734 .076 18 70 495 72
 73 66 74 67 ?1 29 71 570 0 74 0 67 -.003 -.01367479433117734 .076 18 74 489 75
 53 70 0 71 ?1 81 1 75 490 39 74 0 0 64 72 76 17 53 0 52 77 33 74 56 78 0 79 -15
 255 52 518 0 54 80 0 17 77 0 52 54 53 62 81 82 0 83 +17 56 0 84 85 79 38 53 78
 0 86 +16 78 451 87 ?56 88 47 89 0 0 1 17 79 0 84 56 46 74 73 90 0 81 -15 84 305
 0 85 91 92 17 46 0 84 79 85 70 37 47 0 45 -17 73 0 93 69 81 70 79 90 0 46 +16 9
0 465 94 ?73 95 82 96 0 0 1 17 81 0 93 73 83 74 77 82 0 0 -15 93 534 0 81 97 0 1
7 83 0 93 81 69 62 98 99 0 0 -16 82 448 100 ?77 90 101 102 0 0 1 81 1 100 450 39
 82 0 0 103 94 104 16 101 648 105 ?106 82 107 108 0 0 1 30 255 102 558 0 82 108
 96 0 +-.003 -.0126468721848998 .076 0 1 0 38 108 685 0 101 109 102 0 +110 111 1
12 113 113 114 31 255 96 557 0 90 102 115 0 +-2656295322589485e-33 1387778780781
446e-32 .076 0 0 1 1 0 0 .014 30 115 556 0 95 96 116 0 +.003 -.0126468721848998
 .076 0 1 0 16 95 468 117 ?69 99 90 115 0 0 1 31 116 555 0 99 115 118 0 +-346944
6951953615e-33 867361737988404e-33 .076 0 0 1 1 0 0 .012 16 99 436 103 ?98 119 9
5 116 0 0 1 30 118 550 0 119 116 120 0 +-.003 -.01161895003862224 .076 0 0 -1 16
 119 442 121 ?54 122 99 118 0 0 1 30 120 549 0 122 118 123 0 +.003 -.01161895003
862224 .076 0 0 -1 16 122 439 124 ?125 47 119 120 0 0 1 30 123 548 0 47 120 89 0
 +.003 -.01367479433117734 .076 0 0 -1 16 47 454 126 ?37 78 122 123 0 0 1 30 89
 547 0 78 123 127 0 +-.003 -.01367479433117734 .076 0 0 -1 38 127 250 0 128 89 1
29 0 +110 130 131 132 132 133 16 128 196 134 ?135 136 137 127 0 0 1 38 129 249 0
 136 127 138 0 +110 130 139 140 140 141 51 255 110 61 0 17 25 21 142 -0 73478807
9488412e-33 .073 0 0 -1 .012 -1 0 0 51 130 246 0 143 144 145 146 -.025 216840434
497101e-33 .035 -1 0 0 .0014 0 0 1 40 255 20 131 0 1 20 796493868137678e-19 .339
440920032706 ??.012 216840434497101e-33 .0364 .01199111742276806 -.0004616307543
78648 .03632170232904835 .0119683341987118 -.000871192577990627 .036095912173513
05 .0119413980235369 -.001184488599974266 .0357463154537667 .01192211317529362 -
.001364997229114398 .0353110989625666 .01191909492062552 -.001391106132945594 .0
3484244452760645 .0119334604093816 -.001261951923696696 .0343938009054129 .01195
892918115156 -.000991974213476018 .03401207937576005 .01198454665814794 -.000608
803251202715 .03373930233548045 .01199898156530476 -.0001563374410582265 .033608
75645391495 .01199596127796088 .000311308557002663 .0336350505568568 .0119769966
311035 .000742665266816435 .03381321935410775 .01195015614390274 .00109259696885
1434 .03412465328945805 .0119270637062587 .001321041765746362 .0345364823054578
 .01191805353284152 .00139999999582987 .0350001080572331 .01192696686032896 .001
321915849294044 .0354610189664051 .01194977083291592 .001096803100283716 .035870
0706633418 .01197669472566192 .000747518192622513 .03618372993190945 .0119959306
3550442 .0003124871007997655 .0363646801133723 .012 -2067137086814945e-34 .0364
 41 3 CI8 term_use0 0 1 cCZ1 132 H?.012 216840434497101e-33 .0364 204 2 17 INTER
SECTION_DATA17 Intersection data7 uv_type0 0 1 u6 values0 1 1 fT80 133 4 3.14159
2653589795 .0366 0 .013 3.18007137776326 .03667829767095165 5.94716111690263 .01
300888257723194 3.21425596139192 .03690408782648695 5.61153279570656 .0130316658
0128822 3.240461030554055 .0372536845462333 5.27462868706517 .0130586019764631 3
.25558916362856 .0376889010374334 4.93647317262636 .01307788682470636 3.25777939
60437 .03815755547239355 4.59961043752873 .01308090507937448 3.24695012049938 .0
386061990945871 4.26457139236261 .0130665395906184 3.22435160899744 .03898792062
423995 3.92903819015828 .01304107081884842 3.19234804696231 .03926069766451955 3
.591474861052275 .01301545334185206 3.15462114225409 .03939124354608505 3.253495
65498043 .01300101843469524 3.115647363057125 .0393649494431432 2.91735490931153
5 .01300403872203912 3.07966430516673 .03918678064589225 2.582431622241955 .0130
230033688965 3.05041663329334 .03887534671054195 2.246245146432085 .013049843856
09724 3.03128225932904 .0384635176945422 1.908248532630855 .0130729362937413 3.0
24659692477315 .0379998919427669 1.5707191430569 .01308194646715848 3.0312089733
03445 .0375389810335949 1.23523497791286 .01307303313967104 3.050064654695835 .0
371299293366582 .90016712606754 .01305022916708408 3.079259112859005 .0368162700
6809055 .563255439592129 .01302330527433806 3.115549117883265 .0366353198866277
 .2251012634477765 .01300406936449556 3.141592653589795 .0366 0 .013 14 255 143
 216 147 ?148 149 150 6 130 +149 149 148 149 31 50 255 144 541 0 80 151 130 152
 +-.003 -.0126468721848998 .076 -1 0 0 0 0 1 50 145 141 0 153 130 154 0 +0 0 .03
9 0 0 1 1 0 0 141 255 146 155 156 157 130 38 155 161 0 88 158 159 0 +160 130 161
 162 162 163 141 156 129 164 146 130 141 157 159 146 164 130 38 159 168 0 137 15
5 165 0 +160 130 166 167 167 168 141 164 127 157 156 130 16 137 199 169 ?170 128
 88 159 0 0 1 31 165 272 0 171 159 172 0 +0 734788079488412e-33 -.0063 0 0 1 1 0
 0 .0125 51 160 139 0 173 154 174 175 -0 979717439317882e-33 .039 0 0 -1 .016 -1
 0 0 40 20 166 0 1 20 793285169198381e-19 .3385227025809305 ??-.016 979717439317
882e-33 .0364 -.0159933167514776 .000462405976287582 .0363214313122874 -.0159761
839443628 .000872666360004532 .0360947389753345 -.01595600957887495 .00118564679
3464114 .03574447409702975 -.0159416360225167 .001365372083205902 .0353094496314
4585 -.01593943071748925 .00139088044143274 .03484046443142715 -.015950273400752
3 .001260467548671208 .0343907204592744 -.0159694195390808 .0009887565852242 .03
400885903365075 -.01598856517052985 .000604800618153726 .03373737724862855 -.015
9992751128837 .0001523018787136745 .03360830889284285 -.01599687954822235 -.0003
15982150864537 .03363612490295665 -.0159825065840582 -.000747986156647166 .03381
65657139223 -.0159623506361815 -.001096978654120304 .0341301506840812 -.01594518
928035985 -.001323230446104214 .0345427679074006 -.015938633696908 -.00139998424
1264206 .0350066426058052 -.0159455092048597 -.00131936962134774 .03546825612891
315 -.0159627516608397 -.00109112758848802 .0358771776249086 -.01598289911492305
 -.000739551135617155 .0361887237348549 -.01599711579571905 -.000303786468356689
 .0363666432532462 -.016 783332367737782e-33 .0364 41 1 167 H?-.016 979717439317
882e-33 .0364 204 80 168 4 0 .0026 544912146300559e-30 .041 .0289043981149708 .0
0267856868771262 .336610783307732 .0409933167514776 .0545687254338628 .002905261
02466549 .672998030856457 .04097618394436285 .0741709122604433 .0032555259029702
45 1.010110418578064 .0409560095788749 .0854396679622184 .003690550368554145 1.3
47920272157686 .0409416360225167 .0870398874901022 .004159535568572855 1.6849983
818009 .04093943071748925 .0788609363604829 .0046092795407256 2.021056367106035
 .0409502734007523 .0618366873152074 .00499114096634928 2.35739878481379 .040969
4195390808 .0378090461470561 .00526262275137147 2.694882956179255 .0409885651705
299 .00951901117438379 .00539169110715714 3.032589870866645 .0409992751128837 6.
26343513878702 .00536387509704335 3.369255747664955 .04099687954822235 6.2364191
2739161 .00518343428607768 3.70524347261103 .0409825065840582 6.21457031387366 .
00486984931591879 4.04196157495607 .0409623506361815 6.20038883822926 .004457232
092599415 4.379690891825985 .04094518928035985 6.19557425580289 .003993357394194
805 4.71713371661961 .040938633696908 6.20063096680725 .00353174387108686 5.0534
3034608213 .0409455092048597 6.21493686340026 .00312282237509138 5.3895146726214
5 .0409627516608397 6.23694688673956 .0028112762651451 5.72664614379427 .0409828
9911492305 6.26419751196274 .002633356746753795 6.06445502354324 .04099711579571
905 0 .0026 404637095171916e-30 .041 14 173 121 176 ?177 91 178 6 160 -0 0 177 9
1 31 50 154 140 0 179 145 160 0 +0 0 .031 0 0 1 1 0 0 50 174 49 0 177 160 25 0 +
0 0 -.0063 0 0 1 1 0 0 141 175 155 180 180 160 141 180 159 175 175 160 14 177 34
 181 ?153 173 182 6 174 -0 0 153 173 31 51 25 60 0 91 174 110 183 -0 85725275940
3147e-33 .073 0 0 -1 .014 -1 0 0 14 91 53 184 ?173 185 84 6 25 -185 185 173 185
 31 141 183 24 186 186 25 38 24 630 0 107 35 8 0 +25 111 187 188 188 189 141 186
 8 183 183 25 16 107 651 190 ?191 101 192 24 0 0 1 38 35 355 0 11 193 24 0 +7 14
4 194 195 196 197 51 111 682 0 198 26 199 200 -0 -.025 .073 0 1 0 75e-5 0 0 1 40
 20 187 0 1 20 4236023532390945e-20 .33780039961823 ??0 -.014 .07375 -.000248052
6477190625 -.01399780232336346 .0737077922604547 -.000468136735791834 -.01399217
095366556 .0735859590400379 -.000635665317668435 -.0139855614690263 .07339803216
44208 -.000731610171818142 -.01398087073670636 .0731650653097784 -.0007450155408
63579 -.01398016279747384 .0729136759368904 -.000674605551491832 -.0139837372454
5396 .0726722693943245 -.000528300485813366 -.01399002854166814 .072467648051859
1 -.0003222776685971005 -.01399629011932532 .0723227724870299 -798511633503157e-
19 -.01399977227642334 .0722542629205198 .0001712981240475915 -.0139989519947994
 .0722698240262116 .000403005678051841 -.01399419831299592 .0723674761479138 .00
0589545613997271 -.013987581491059 .0725363881267519 .000709803561395401 -.01398
199481133612 .0727577627109002 .000749972830280291 -.01397989773760314 .07300638
38735396 .000705685928591785 -.01398220323733664 .0732539830116121 .000582062173
990376 -.01398789489614536 .0734729731764166 .0003927469853714645 -.013994489980
1844 .0736389442898106 .0001589928888677415 -.0139990971587917 .0737329537920562
 216978369497659e-33 -.014 .07375 41 1 188 H?0 -.014 .07375 204 80 189 4 4.71238
898038469 -75e-5 0 .011 4.73010795381656 -.000707792260454698 5.94610103377092 .
01100219767663654 4.74583355315251 -.000585959040037928 5.60910081146601 .011007
82904633444 4.75780926134277 -.000398032164420775 5.27182650356939 .011014438530
9737 4.76467066411515 -.0001650653097783755 4.93429271853152 .01101912926329364
 4.76562952480976 863240631095996e-19 4.5970345697933 .01101983720252616 4.76059
37579482 .0003277306056754525 4.26015709824681 .01101626275454604 4.750133690982
86 .000532351948140858 3.923171052384485 .01100997145833186 4.73541084742469 .00
0677227512970058 3.5857571083995 .01100370988067468 4.71809266583507 .0007457370
79480169 3.248263049150145 .01100022772357666 4.70015309477806 .0007301759737883
55 2.911161298025165 .0110010480052006 4.68359888348227 .000632523852086203 2.57
431168204228 .01100580168700408 4.67026612381318 .00046361187324806 2.2371822733
27835 .011012418508941 4.661666979868 .0002422372890997645 1.89967610932044 .011
01800518866386 4.65879383806033 -638387353962822e-20 1.562284392623205 .01102010
226239686 4.66196147304579 -.0002539830116120995 1.22532093827438 .0110177967626
6334 4.67080112380566 -.000472973176416591 .888430452411336 .01101210510385464 4
.68433194336086 -.000638944289810636 .551144554532469 .0110055100198156 4.701032
10133455 -.000732953792056151 .21361132311641 .01100090284120832 4.7123889803846
9 -75e-5 289304492663545e-30 .011 14 198 667 201 ?202 97 203 6 111 +0 0 202 97 3
1 51 26 751 0 202 0 111 204 -.025 0 -.003 -1 0 0 75e-5 0 0 1 50 199 546 0 97 111
 151 0 +867361737988404e-33 -.01280947501931112 .076 0 0 1 1 0 0 141 200 24 205
 205 111 141 205 108 200 200 111 14 97 531 206 ?198 207 93 6 199 +0 0 198 207 31
 50 151 543 0 207 199 144 208 +.003 -.0126468721848998 .076 -1 0 0 0 0 1 14 207
 523 209 ?97 80 43 6 151 -0 0 97 80 31 141 208 193 208 208 151 38 193 352 0 34 2
10 35 0 +7 151 211 212 213 214 16 34 351 215 ?48 11 216 193 0 0 1 31 210 307 0 2
16 172 193 0 -0 857252759403147e-33 .071 0 0 1 1 0 0 .014 40 2 211 0 1 2 .000138
768261235493 .0196785241800745 ??.003 -.00875056319756196 .0757494672437461 .003
 -.0165431811722376 .0681870037382542 41 1 212 L?.003 -.00875056319756196 .07574
94672437461 41 1 213 L?.003 -.0165431811722376 .0681870037382542 204 8 214 4 4.3
82111371301285 -.002749467243746125 -.0002505327562538765 .003896308987337835 4.
53299491584511 .00481299626174578 -.00781299626174578 -.00389630898733782 16 216
 304 217 ?85 34 218 210 0 0 1 31 172 278 0 218 165 210 0 -0 734788079488412e-33
 -.0058 0 0 1 1 0 0 .012 16 218 275 219 ?220 216 171 172 0 0 1 81 1 219 299 39 2
18 0 0 221 222 223 17 220 0 224 220 220 0 225 218 0 0 +16 171 269 221 ?226 218 2
27 165 0 0 1 81 1 221 298 39 171 0 0 228 219 229 17 226 0 182 226 226 0 230 171
 0 0 +16 227 80 231 ?232 171 233 158 0 0 1 81 1 231 152 39 227 0 0 234 235 236 1
7 232 0 237 232 232 0 238 227 0 0 +16 233 8 239 ?240 227 241 242 0 0 1 31 158 83
 0 227 243 155 0 +0 857252759403147e-33 .031 0 0 1 1 0 0 .014 31 243 50 0 241 24
2 158 0 +0 857252759403147e-33 -.0063 0 0 1 1 0 0 .014 16 241 41 244 ?245 233 24
6 243 0 0 1 31 242 10 0 233 247 243 0 +0 734788079488412e-33 .073 0 0 1 1 0 0 .0
12 31 247 142 0 248 249 242 0 +0 979717439317882e-33 .031 0 0 1 1 0 0 .016 16 24
8 105 250 ?251 252 136 247 0 0 1 31 249 144 0 246 138 247 0 +0 979717439317882e-
33 .039 0 0 1 1 0 0 .016 16 246 108 253 ?254 241 252 249 0 0 1 31 138 145 0 252
 129 249 0 +0 857252759403147e-33 .039 0 0 1 1 0 0 .014 16 252 100 235 ?255 246
 248 138 0 0 1 81 1 235 153 39 252 0 0 231 256 257 17 255 0 92 255 255 0 258 252
 0 0 +15 92 88 0 255 91 259 17 258 0 260 258 258 0 255 252 0 0 -15 260 129 0 258
 153 261 14 153 126 262 ?179 177 260 6 145 +0 0 179 177 31 15 261 130 0 254 153
 0 17 254 0 261 254 254 0 263 246 0 0 +17 263 0 178 263 263 0 254 246 0 0 -15 17
8 124 0 263 173 264 15 264 125 0 251 173 265 17 251 0 264 251 251 0 266 248 0 0
 +15 265 160 0 267 173 268 17 267 0 265 267 267 0 269 88 0 0 -15 268 167 0 270 1
73 0 17 270 0 268 270 270 0 170 137 0 0 -17 170 0 271 170 170 0 270 137 0 0 +15
 271 220 0 170 143 0 17 269 0 272 269 269 0 267 88 0 0 +16 88 205 273 ?269 137 7
8 155 0 0 1 81 1 273 265 39 88 0 0 169 274 275 80 255 1 39 276 277 9000 0 0 0 0
 3 6 0 0 0 FFTFTFTTFFFFFF1 81 1 169 264 39 137 0 0 134 273 278 81 1 274 266 39 1
43 0 147 273 228 279 82 255 3 275 12 3 1 81 1 147 774 280 143 274 0 281 282 283
 81 1 228 267 39 149 0 281 274 221 284 82 3 279 12 2 2 14 149 231 281 ?143 179 2
85 6 130 +143 143 143 179 31 81 1 281 773 280 149 228 0 286 147 287 82 3 284 12
 3 2 80 1 280 0 288 8001 0 0 0 0 3 5 0 0 0 FFFFTFTFFFFFFF2 81 1 286 772 280 179
 234 0 262 281 289 83 255 3 287 .866666666666667 .866666666666667 .8666666666666
67 14 179 131 286 ?149 153 237 6 154 -0 0 149 153 31 81 1 234 133 39 179 0 286 2
90 231 291 81 1 262 771 280 153 290 0 181 286 292 83 3 289 .866666666666667 .866
666666666667 .866666666666667 81 1 290 128 39 153 0 262 253 234 293 81 1 181 770
 280 177 294 0 176 262 295 83 3 292 .866666666666667 .866666666666667 .866666666
666667 81 1 294 301 39 177 0 181 222 103 296 81 1 176 769 280 173 256 0 184 181
 297 83 3 295 .866666666666667 .866666666666667 .866666666666667 81 1 256 261 39
 173 0 176 235 298 299 81 1 184 768 280 91 300 0 301 176 302 83 3 297 .866666666
666667 .866666666666667 .866666666666667 81 1 300 691 39 91 0 184 303 105 304 81
 1 301 767 280 185 305 0 306 184 307 83 3 302 .866666666666667 .866666666666667
 .866666666666667 14 185 84 301 ?91 17 308 6 25 -91 91 91 17 31 81 1 305 759 39
 185 0 301 309 310 311 81 1 306 766 280 17 310 0 0 301 312 83 3 307 .86666666666
6667 .866666666666667 .866666666666667 14 17 57 306 ?185 0 313 6 110 +0 0 185 0
 31 81 1 310 760 39 17 0 306 305 314 315 83 3 312 .866666666666667 .866666666666
667 .866666666666667 81 1 314 761 39 23 0 0 310 316 317 82 3 315 131 2 2 16 23 7
20 314 ?318 192 0 8 0 0 1 81 1 316 762 39 192 0 0 314 0 319 82 3 317 131 0 1 16
 192 717 316 ?320 107 23 109 0 0 1 82 3 319 131 1 1 17 320 0 321 320 320 0 322 1
92 0 0 +38 109 754 0 192 0 108 0 +110 26 323 324 324 325 40 20 323 0 1 20 423898
6386120575e-20 .337955957333015 ??.012 0 -.00225 .01199743747355982 -.0002479799
750430485 -.002292182274891585 .01199087057956754 -.000467998658183518 -.0024139
30673095385 .01198315761325422 -.000635557720358389 -.002601796052138045 .011977
6791345889 -.000731575388346247 -.002834780596883905 .01197684932296222 -.000745
037109853758 -.003086137709168285 .011981014912621 -.000674745628776467 -.003327
44211159692 .01198835184576654 -.000528601950531532 -.003532052608201725 .011995
66157368108 -.000322650600047863 -.003677049917132225 .01199973180925436 -802278
378672943e-19 -.00374569665014075 .01199878356333838 .0001708595919484215 -.0037
30278713806735 .01199324759297816 .000402507358347222 -.00363284107521268 .01198
552938470698 .000589139515162292 -.0034641278182509 .011979000936675 .0007096030
99725099 -.00324282388857057 .01197654095751884 .000749977794920416 -.0029942287
6734916 .01197921795550014 .000705930006886724 -.002746696179703285 .01198584908
527678 .000582599094549519 -.0025276883496778 .01199354673882544 .00039349285077
33365 -.00236151477981846 .01199893588337112 .0001598050898713175 -.002267222862
49418 .012 1109919033344388e-34 -.00225 41 1 324 H?.012 0 -.00225 204 80 325 4 3
.141592653589795 .07525 0 .013 3.162259122596915 .0752921822748916 5.94620370707
315 .01300256252644016 3.180602434959565 .0754139306730954 5.60933643307991 .013
00912942043246 3.194580589365215 .075601796052138 5.27209676840097 .013016842386
74576 3.202595096958965 .0758347805968839 4.93450334572925 .0130223208654111 3.2
0371903643573 .0760861377091683 4.59728470047191 .01302315067703778 3.1978511277
8626 .0763274421115969 4.26058470238479 .013018985087379 3.185657074533915 .0765
320526082017 3.92373749999749 .01301164815423344 3.168483444330625 .076677049917
1322 3.5863078544033 .01300433842631892 3.148278356552245 .0767456966501408 3.24
87681664765 .01300026819074562 3.127353873130435 .0767302787138067 2.91176183988
342 .01300121643666162 3.10804408089094 .0766328410752127 2.5750993120265 .01300
675240702184 3.09247795018374 .0764641278182509 2.23805773184872 .01301447061529
302 3.08242454472731 .0762428238885706 1.9005026510769 .013020999063325 3.079053
745841225 .0759942287673492 1.563101273985065 .01302345904248116 3.0827311695917
15 .0757466961797033 1.226283227302016 .01302078204449986 3.093023635986385 .075
5276883496778 .889566449702768 .01301415091472322 3.108795703389955 .07536151477
98185 .55231231417991 .01300645326117456 3.12827516911606 .0752672228624942 .214
719576894869 .01300106411662888 3.141592653589795 .07525 1479892044459184e-31 .0
13 15 321 704 0 320 17 0 17 322 0 326 322 322 0 320 192 0 0 -15 326 734 0 322 20
2 327 14 202 736 328 ?0 198 326 6 26 +0 0 0 198 31 15 327 735 0 318 202 0 17 318
 0 327 318 318 0 329 23 0 0 +17 329 0 330 329 329 0 318 23 0 0 -15 330 698 0 329
 185 0 81 1 328 781 280 202 309 0 201 0 331 13 31 20 0 0 0 0 0 0 10 17 81 1 309
 758 39 202 0 328 190 305 332 81 1 201 780 280 198 303 0 206 328 333 83 3 331 .8
66666666666667 .866666666666667 .866666666666667 81 1 303 689 39 198 0 201 215 3
00 334 81 1 206 779 280 97 335 0 209 201 336 83 3 333 .866666666666667 .86666666
6666667 .866666666666667 81 1 335 533 39 97 0 206 68 337 338 81 1 209 778 280 20
7 50 0 339 206 340 83 3 336 .866666666666667 .866666666666667 .866666666666667 8
1 1 50 616 39 207 0 209 341 40 342 81 1 339 777 280 80 341 0 343 209 344 83 3 34
0 .866666666666667 .866666666666667 .866666666666667 14 80 515 339 ?207 20 52 6
 144 +0 0 207 20 31 81 1 341 615 39 80 0 339 345 50 346 81 1 343 776 280 20 345
 0 282 339 347 83 3 344 .866666666666667 .866666666666667 .866666666666667 14 20
 316 343 ?80 148 348 6 7 +0 0 80 148 31 81 1 345 614 39 20 0 343 124 341 349 81
 1 282 775 280 148 222 0 147 343 350 83 3 347 .866666666666667 .866666666666667
 .866666666666667 14 148 287 282 ?20 143 351 6 21 +0 0 20 143 31 81 1 222 300 39
 148 0 282 219 294 352 83 3 350 .866666666666667 .866666666666667 .8666666666666
67 82 3 352 13 0 2 15 351 288 0 225 148 353 54 255 21 294 0 148 110 7 0 +0 73478
8079488412e-33 -.0058 0 0 1 .0125 5e-4 1 0 0 17 225 0 351 225 225 0 220 218 0 0
 -15 353 289 0 230 148 0 17 230 0 353 230 230 0 226 171 0 0 -81 1 124 611 39 122
 0 0 121 345 354 82 3 349 122 2 2 81 1 121 610 39 119 0 0 126 124 355 82 3 354 1
22 5 1 81 1 126 609 39 47 0 0 87 121 356 82 3 355 122 4 1 81 1 87 608 39 78 0 0
 239 126 357 82 3 356 122 3 1 81 1 239 607 39 233 0 0 217 87 358 82 3 357 122 2
 1 81 1 217 606 39 216 0 0 337 239 359 82 3 358 122 1 1 81 1 337 605 39 1 0 360
 335 217 361 82 3 359 122 0 1 81 1 360 763 362 1 337 14 0 0 363 82 3 361 6 0 3 8
0 1 362 364 365 8038 0 0 0 0 0 0 0 0 0 TTTTTTTTTTTTTF10 81 1 14 764 364 1 360 2
 0 0 366 98 255 6 363 80 97 114 116 32 49 80 1 364 367 368 8017 0 0 0 0 0 0 0 0
 0 TTTTTTTTTTTTTF3 84 255 6 366 Part 179 255 13 368 SDL/TYSA_NAME79 14 365 SDL/T
YSA_UNAME15 348 354 0 55 20 0 17 55 0 348 369 86 58 33 11 0 240 -17 369 0 348 48
 55 49 240 233 0 0 -17 86 0 348 55 48 38 85 216 0 0 -17 240 0 370 65 125 58 369
 233 0 0 +15 370 381 0 240 17 224 17 65 0 370 98 240 62 54 119 0 77 -17 125 0 37
0 240 98 49 371 122 0 369 +17 98 0 370 125 65 66 83 99 0 0 +17 371 0 43 45 44 66
 125 122 0 98 -15 43 526 0 44 207 0 17 45 0 43 37 371 70 69 95 0 0 -17 44 0 43 3
71 37 49 48 34 0 125 -17 48 0 348 86 369 12 44 34 0 85 +17 85 0 84 46 56 12 86 2
16 0 0 +17 69 0 93 83 73 66 45 95 0 371 +17 54 0 52 33 77 58 65 119 0 55 +15 224
 276 0 220 17 372 15 372 173 0 135 17 373 17 135 0 372 135 135 0 374 128 0 0 +15
 373 179 0 375 17 321 17 375 0 373 375 375 0 376 136 0 0 +17 376 0 150 376 376 0
 375 136 0 0 -16 136 193 298 ?375 248 128 129 0 0 1 81 1 298 262 39 136 0 0 256
 134 377 81 1 134 263 39 128 0 0 298 169 378 82 3 377 12 0 1 82 3 378 12 1 1 15
 150 219 0 376 143 271 17 374 0 285 374 374 0 135 128 0 0 -15 285 224 0 374 149
 272 15 272 225 0 269 149 0 82 3 346 122 3 2 82 3 342 122 4 2 81 1 68 498 39 66
 0 0 72 335 379 82 3 338 121 2 2 81 1 72 496 39 70 0 0 75 68 380 82 3 379 121 7
 0 82 3 380 121 3 0 81 1 215 622 39 34 0 0 32 303 381 82 3 334 127 0 2 81 1 32 6
21 39 11 0 0 57 215 382 82 3 381 122 7 1 81 1 57 620 39 49 0 0 41 32 383 82 3 38
2 122 6 1 81 1 41 619 39 58 0 0 36 57 384 82 3 383 122 3 0 82 3 384 122 2 0 81 1
 190 693 39 107 0 0 105 309 385 82 3 332 131 0 2 81 1 105 692 39 101 0 0 300 190
 386 82 3 385 127 1 1 82 3 386 127 0 1 15 313 635 0 106 17 370 17 106 0 313 106
 106 0 387 101 0 0 +17 387 0 203 387 387 0 106 101 0 0 -15 203 665 0 387 198 388
 15 388 666 0 191 198 0 17 191 0 388 191 191 0 389 107 0 0 +17 389 0 259 389 389
 0 191 107 0 0 -15 259 629 0 389 91 0 82 3 311 131 1 2 15 308 54 0 245 185 390 1
7 245 0 308 245 245 0 391 241 0 0 +15 390 82 0 238 185 330 17 238 0 390 238 238
 0 232 227 0 0 -17 391 0 392 391 391 0 245 241 0 0 -15 392 40 0 391 177 0 82 3 3
04 127 2 2 82 3 299 12 1 2 81 1 103 438 39 99 0 0 294 100 393 82 3 296 13 1 2 82
 3 393 121 11 1 81 1 253 110 39 246 0 0 250 290 394 82 3 293 7 2 2 81 1 250 107
 39 248 0 0 244 253 395 82 3 394 7 3 1 81 1 244 71 39 241 0 0 0 250 396 82 3 395
 7 2 1 82 3 396 6 2 1 82 3 291 7 1 2 15 237 134 0 232 179 397 15 397 135 0 266 1
79 0 17 266 0 397 266 266 0 251 248 0 0 -79 15 288 SDL/TYSA_COLOUR83 3 283 .8666
66666666667 .866666666666667 .866666666666667 82 3 278 12 2 1 79 9 277 BTI/DetId
82 3 257 8 1 1 82 3 236 8 0 1 15 182 270 0 226 177 392 82 3 229 13 0 1 82 3 223
 13 1 1 141 204 8 398 398 26 141 398 109 204 204 26 40 2 194 0 1 2 .000138768261
235493 .0196785241800745 ??-.003 -.00875056319756197 .0757494672437461 -.003 -.0
165431811722376 .0681870037382542 41 1 195 L?-.003 -.00875056319756197 .07574946
72437461 41 1 196 L?-.003 -.0165431811722376 .0681870037382542 204 8 197 4 5.042
6665894681 -.002749467243746125 -.0002505327562538765 .00389630898733783 4.89178
304492427 .00481299626174578 -.00781299626174578 -.003896308987337825 40 20 161
 0 1 20 793285169198381e-19 .3385227025809305 ??.016 216840434497101e-33 .0364 .
0159933167514776 -.000462405976287583 .0363214313122874 .0159761839443628 -.0008
72666360004534 .0360947389753345 .01595600957887495 -.001185646793464114 .035744
47409702975 .0159416360225167 -.001365372083205904 .03530944963144585 .015939430
71748925 -.00139088044143274 .03484046443142715 .0159502734007523 -.001260467548
671204 .0343907204592744 .0159694195390808 -.000988756585224192 .034008859033650
7 .01598856517052985 -.000604800618153725 .03373737724862855 .0159992751128837 -
.0001523018787136715 .03360830889284285 .01599687954822235 .000315982150864541 .
03363612490295665 .0159825065840582 .00074798615664717 .0338165657139223 .015962
3506361815 .00109697865412031 .0341301506840812 .01594518928035985 .001323230446
104214 .0345427679074006 .015938633696908 .001399984241264206 .0350066426058052
 .0159455092048597 .00131936962134774 .03546825612891315 .0159627516608397 .0010
91127588488014 .03587717762490865 .01598289911492305 .000739551135617154 .036188
7237348549 .01599711579571905 .0003037864683566875 .0363666432532462 .016 135727
331364039e-33 .0364 41 1 162 H?.016 216840434497101e-33 .0364 204 80 163 4 3.141
592653589795 .0026 0 .009 3.170497051704765 .00267856868771262 5.94657452387185
 .00900668324852242 3.196161379023655 .00290526102466549 5.61018727632313 .00902
381605563718 3.215763565850235 .003255525902970245 5.27307488860152 .00904399042
112508 3.22703232155201 .003690550368554155 4.9352650350219 .00905836397748331 3
.228632541079895 .00415953556857285 4.59818692537869 .00906056928251075 3.220453
589950275 .0046092795407256 4.262128940073545 .00904972659924768 3.203429340905
 .00499114096634928 3.92578652236579 .0090305804609192 3.17940169973685 .0052626
2275137147 3.58830235100033 .00901143482947013 3.151111664764175 .00539169110715
714 3.25059543631294 .00900072488711628 3.12184248519723 .00536387509704335 2.91
392955951463 .00900312045177763 3.09482647380182 .00518343428607768 2.5779418345
68555 .00901749341594179 3.072977660283865 .00486984931591879 2.24122373222352 .
00903764936381848 3.058796184639465 .004457232092599415 1.903494415353605 .00905
481071964015 3.0539816022131 .003993357394194805 1.566051590559975 .009061366303
09198 3.059038313217455 .00353174387108686 1.229754961097452 .00905449079514032
 3.073344209810465 .00312282237509137 .89367063455813 .00903724833916031 3.09535
4233149765 .0028112762651451 .55653916338532 .00901710088507697 3.12260485837295
 .002633356746753795 .21873028363634 .00900288420428097 3.141592653589795 .0026
 0 .009 141 152 35 152 152 144 141 142 127 399 400 110 141 399 109 401 142 110 1
41 400 129 142 401 110 141 401 108 400 399 110 40 20 139 0 1 20 796493868137678e
-19 .339440920032706 ??-.012 734788079488412e-33 .0364 -.01199111742276806 .0004
61630754378649 .03632170232904835 -.0119683341987118 .000871192577990628 .036095
91217351305 -.0119413980235369 .001184488599974266 .0357463154537667 -.011922113
17529362 .0013649972291144 .0353110989625666 -.01191909492062552 .00139110613294
5594 .03484244452760645 -.0119334604093816 .001261951923696696 .0343938009054129
 -.01195892918115158 .000991974213476019 .03401207937576005 -.01198454665814794
 .000608803251202716 .03373930233548045 -.01199898156530476 .000156337441058226
 .03360875645391495 -.01199596127796088 -.000311308557002663 .0336350505568568 -
.0119769966311035 -.000742665266816435 .03381321935410775 -.01195015614390274 -.
001092596968851434 .03412465328945805 -.0119270637062587 -.001321041765746362 .0
345364823054578 -.01191805353284152 -.00139999999582987 .0350001080572331 -.0119
2696686032896 -.001321915849294044 .0354610189664051 -.01194977083291592 -.00109
6803100283716 .0358700706633418 -.01197669472566192 -.000747518192622513 .036183
72993190945 -.01199593063550442 -.000312487100799765 .0363646801133723 -.012 112
6590662218658e-33 .0364 41 1 140 H?-.012 734788079488412e-33 .0364 204 80 141 4
 0 .0366 3699626035652225e-31 .037 .03847872417346445 .03667829767095165 .336024
1902769595 .03699111742276805 .0726633078021245 .03690408782648695 .671652511473
023 .0369683341987118 .0988683769642596 .0372536845462333 1.008556620114414 .036
9413980235369 .1139965100387644 .0376889010374334 1.34671213455323 .036922113175
29365 .1161867424539058 .03815755547239355 1.68357486965086 .03691909492062555 .
1053574669095862 .0386061990945871 2.01861391481698 .0369334604093816 .082758955
4076472 .03898792062423995 2.354147117021305 .0369589291811516 .0507553933725149
 .03926069766451955 2.691710446127315 .03698454665814795 .0130284886642954 .0393
9124354608505 3.029689652199155 .03699898156530475 6.25724001664692 .03936494944
31432 3.36583039786805 .0369959612779609 6.22125695875652 .03918678064589225 3.7
0075368493763 .0369769966311035 6.19200928688313 .03887534671054195 4.0369401607
47505 .03695015614390275 6.17287491291883 .0384635176945422 4.37493677454873 .03
69270637062587 6.16625234606711 .0379998919427669 4.71246616412268 .036918053532
84155 6.17280162689324 .0375389810335949 5.04795032926673 .03692696686032895 6.1
9165730828563 .0371299293366582 5.38301818111205 .03694977083291595 6.2208517664
488 .03681627006809055 5.71992986758746 .03697669472566195 6.25714177147306 .036
6353198866277 6.05808404373181 .03699593063550445 326502152275205e-31 .0366 6498
21591229684e-30 .037 81 1 117 470 39 95 0 0 94 64 402 81 1 94 467 39 90 0 0 100
 117 403 81 1 64 487 39 62 0 0 117 75 404 82 3 402 121 9 1 82 3 404 121 5 0 82 3
 403 121 5 1 40 20 112 0 1 20 423898638612023e-19 .337955957333006 ??0 -.012 .07
375 -.000247979975043047 -.01199743747355982 .0737078177251084 -.000467998658183
518 -.01199087057956754 .0735860693269046 -.000635557720358389 -.011983157613254
22 .073398203947862 -.000731575388346246 -.0119776791345889 .0731652194031161 -.
000745037109853758 -.01197684932296222 .0729138622908317 -.000674745628776474 -.
011981014912621 .0726725578884031 -.000528601950531536 -.01198835184576654 .0724
679473917983 -.000322650600047862 -.01199566157368108 .0723229500828678 -8022783
7867298e-18 -.01199973180925436 .0722543033498592 .0001708595919484165 -.0119987
8356333838 .0722697212861933 .000402507358347218 -.01199324759297816 .0723671589
247873 .000589139515162291 -.01198552938470698 .0725358721817491 .00070960309972
5096 -.011979000936675 .0727571761114294 .000749977794920416 -.01197654095751884
 .0730057712326508 .000705930006886722 -.01197921795550014 .0732533038202967 .00
0582599094549528 -.01198584908527678 .0734723116503222 .0003934928507733395 -.01
199354673882544 .0736384852201815 .0001598050898713285 -.01199893588337112 .0737
327771375058 539824686955772e-35 -.012 .07375 41 1 113 H?0 -.012 .07375 204 80 1
14 4 4.71238898038469 -75e-5 0 .013 4.73305544939181 -.000707817725108417 5.9462
0370707316 .01300256252644016 4.75139876175446 -.000586069326904609 5.6093364330
799 .01300912942043246 4.76537691616011 -.0003982039478619555 5.27209676840097 .
01301684238674576 4.77339142375386 -.000165219403116104 4.93450334572927 .013022
3208654111 4.77451536323063 861377091682797e-19 4.59728470047192 .01302315067703
778 4.76864745458116 .0003274421115969095 4.260584702384805 .013018985087379 4.7
5645340132881 .000532052608201716 3.923737499997505 .01301164815423344 4.7392797
7112552 .00067704991713223 3.5863078544033 .01300433842631892 4.71907468334714 .
000745696650140751 3.248768166476505 .01300026819074562 4.69815019992533 .000730
278713806737 2.911761839883425 .01300121643666162 4.67884040768584 .000632841075
212678 2.5750993120265 .01300675240702184 4.66327427697864 .000464127818250906 2
.23805773184873 .01301447061529302 4.65322087152221 .0002428238885705815 1.90050
265107692 .013020999063325 4.64985007263612 -577123265083079e-20 1.5631012739850
8 .01302345904248116 4.65352749638661 -.000253303820296716 1.226283227302014 .01
302078204449986 4.66381996278128 -.000472311650322188 .889566449702789 .01301415
091472322 4.67959203018485 -.000638485220181534 .55231231417992 .013006453261174
56 4.69907149591096 -.000732777137505816 .2147195768948845 .01300106411662888 4.
71238898038469 -75e-5 719766249274362e-32 .013 82 3 104 121 7 1 82 3 76 121 1 0
 82 3 51 122 0 0 82 3 42 122 1 0 19 18 63 0 1 0 10 6 S0 40 20 27 0 1 20 42360235
3238942e-19 .3378003996182135 ??.014 0 -.00225 .01399780232336346 -.000248052647
719064 -.00229220773954531 .01399217095366556 -.000468136735791839 -.00241404095
996208 .0139855614690263 -.000635665317668434 -.00260196783557922 .0139808707367
0636 -.000731610171818143 -.002834934690221635 .01398016279747384 -.000745015540
863578 -.003086324063109605 .01398373724545396 -.000674605551491828 -.0033277306
05675465 .01399002854166814 -.000528300485813357 -.00353235194814086 .0139962901
1932532 -.0003222776685970935 -.003677227512970065 .01399977227642334 -798511633
503167e-19 -.00374573707948016 .0139989519947994 .000171298124047596 -.003730175
973788355 .01399419831299592 .0004030056780518445 -.003632523852086205 .01398758
1491059 .000589545613997273 -.003463611873248065 .01398199481133612 .00070980356
1395402 -.003242237289099765 .01397989773760314 .000749972830280291 -.0029936161
2646036 .01398220323733664 .000705685928591785 -.002746016988387905 .01398789489
614536 .000582062173990375 -.00252702682358341 .0139944899801844 .00039274698537
1466 -.00236105571018936 .0139990971587917 .000158992888867735 -.002267046207943
85 .014 2033512623015675e-35 -.00225 41 1 28 H?.014 0 -.00225 204 80 29 4 3.1415
92653589795 .07525 0 .011 3.159311627021665 .0752922077395453 5.94610103377091 .
01100219767663654 3.17503722635761 .0754140409599621 5.609100811466 .01100782904
633444 3.187012934547875 .0756019678355792 5.27182650356939 .0110144385309737 3.
193874337320255 .0758349346902216 4.93429271853151 .01101912926329364 3.19483319
8014865 .0760863240631096 4.5970345697933 .01101983720252616 3.189797431153305 .
0763277306056755 4.26015709824679 .01101626275454604 3.179337364187965 .07653235
19481409 3.92317105238447 .01100997145833184 3.16461452062979 .0766772275129701
 3.585757108399485 .01100370988067468 3.147296339040175 .0767457370794802 3.2482
6304915015 .01100022772357666 3.12935676798316 .0767301759737884 2.9111612980251
6 .0110010480052006 3.112802556687375 .0766325238520862 2.57431168204228 .011005
80168700408 3.099469797018285 .0764636118732481 2.237182273327835 .0110124185089
41 3.090870653073105 .0762422372890998 1.89967610932044 .01101800518866386 3.087
997511265435 .0759936161264604 1.56228439262319 .01102010226239686 3.09116514625
09 .0757460169883879 1.225320938274382 .01101779676266334 3.100004797010765 .075
5270268235834 .888430452411338 .01101210510385464 3.11353561656596 .075361055710
1894 .551144554532467 .0110055100198156 3.13023577453966 .0752670462079439 .2136
113231164015 .0110009028412083 3.141592653589795 .07525 27113501640209e-30 .011
 81 2 19 324 405 7 0 0 0 0 406 407 141 22 193 408 408 7 141 408 35 22 22 7 80 2
 405 409 410 8044 0 0 0 0 3 5 0 0 0 FFFFTFFFTTFFFF3 2 84 6 406 BAAAAB83 3 407 0
 .002 .002 79 17 410 SDL/TYSA_BLEND_ID74 4 CI16 index_map_offset0 0 1 dCCZ20 16
 6 0 0 316 19 360 14 2 328 0 0 0 0 0 0 0 0 0 0 0 0 0 0 80 1 13 280 411 8040 0 0
 0 0 3 5 0 0 0 TTTFFFFFFFFFFF2 83 3 15 .866666666666667 .866666666666667 .866666
666666667 79 17 411 SDL/TYSA_COLOUR_21 0 
